<svg id="Layer_1" data-name="Layer 1" xmlns="http://www.w3.org/2000/svg" viewBox="0 0 216 113.33"><defs><style>.cls-1{fill:#cceaff;}.cls-2{fill:#406c84;}.cls-3{fill:#fcc949;}.cls-4{fill:#0098ff;}</style></defs><title>Artboard 12 copy 3</title><path class="cls-1" d="M134.94,94.65a12.74,12.74,0,0,0-1.57.18c-1,.22-2,.5-3,.77-1.43.39-1.84.7-1.1,1.41s.58,1.36-.29,2-.8,1.23.15,1.8a4,4,0,0,0,3,.41,16.19,16.19,0,0,0,2.43-.85c1.63-.67,1.67-1.64,0-2.51-.42-.23-.39-.41-.08-.52a3.08,3.08,0,0,0,2-1.93C136.66,95.07,136.09,94.67,134.94,94.65Z"/><path class="cls-1" d="M182.66,73.61c.22,1.06-.41,1.69-2.09,2.18-.65.19-1,.72-1.44,1.09a2.23,2.23,0,0,1-2.09.41,4.47,4.47,0,0,0-2.71.34c-.83.29-1,1-.49,1.4a2.78,2.78,0,0,0,2.57,0,12.19,12.19,0,0,0,1.41-1.16c1.31.22,1.72.87,2.84.83,2.14-.07,3.75-1,3.86-2.19.05-.59-.41-1.28.63-1.71,1.76-.72,1-1.63.8-2.5-.07-.32-.74-.47-1.23-.32C183.57,72.39,182.52,72.89,182.66,73.61Z"/><path class="cls-1" d="M117.85,32.79c-.35-1.17-1.47-1.82-3.43-2a3.32,3.32,0,0,0-1.69,3.16c0,.34.38.57.89.7a3.78,3.78,0,0,0,3-.16,1.81,1.81,0,0,1,2.06.09,3.7,3.7,0,0,0,.59.31c1.3.53,2.77.25,3.06-.61s-.29-1.61-1.57-2.18a1.8,1.8,0,0,0-1.48,0C118.86,32.29,118.47,32.5,117.85,32.79Z"/><path class="cls-1" d="M121.65,47.1c.22-1.15-3.3-3.16-5.27-3a2.5,2.5,0,0,0-.61.26c-.58.53-1,1.07-.51,1.71s1.07,1.24,1,1.95.83.9,1.77,1.07a3.21,3.21,0,0,0,2.53-.53A2.38,2.38,0,0,0,121.65,47.1Z"/><path class="cls-1" d="M110.36,48.52a5,5,0,0,0-3.13,0,4.43,4.43,0,0,0-2.32,3c0,.13.16.28.3.41a5,5,0,0,0,4.94.31c.93-.63,1.79-1.33,1.62-2.27C111.74,49.21,111.32,48.73,110.36,48.52Z"/><path class="cls-1" d="M70.59,18.48a1.22,1.22,0,0,0-.33.14c-1.37.69-1.36,1.21,0,2a8.36,8.36,0,0,1,1.35.84,5.06,5.06,0,0,0,2.82.81,2.72,2.72,0,0,0,1.84-.39c.55-.43,1-.91,1-1.43a1.64,1.64,0,0,0-1.52-1.52C74.07,18.72,72.44,18.15,70.59,18.48Z"/><path class="cls-1" d="M35.51,68.91C37.22,68,37.45,66,35.92,65a1.73,1.73,0,0,0-.7-.21c-1.64-.12-3.71.81-3.73,1.66a11.28,11.28,0,0,0,.58,2C32.39,69.11,34.62,69.36,35.51,68.91Z"/><path class="cls-1" d="M87.42,34.25a10.21,10.21,0,0,0-1.29-.35,4.57,4.57,0,0,0-2.58.83c-.24.26.57,2.77,1,3a2.13,2.13,0,0,0,.36.11,4.84,4.84,0,0,0,3.1-.14c1.07-.51,1.75-1.48,1.33-2A4.69,4.69,0,0,0,87.42,34.25Z"/><path class="cls-1" d="M169.16,89.94c-1.38.69-1.48,1.11-.25,1.87a3.9,3.9,0,0,0,3.22.57c1.54-.58,3.19-1.18,3.12-2.27,0-.21,0-.28,0-.36-.06-1.06-.85-1.35-2.53-.89A20.58,20.58,0,0,0,169.16,89.94Z"/><path class="cls-1" d="M43.34,95.53a5.66,5.66,0,0,0,.75-1.09,2.17,2.17,0,0,0-1-1.88,2.83,2.83,0,0,0-3.14,0c-1.1.81-1.06,1.86-1.9,2.73-.12.13.15.46.42.59C40.12,96.75,42.3,96.59,43.34,95.53Z"/><path class="cls-1" d="M99.12,29.22c-.2.16-.34.54-.18.61,1.1.52,1.25,1.34,2.13,1.91,1.2.77,3.34.59,4.09-.34a5.1,5.1,0,0,0,.55-1.08c-.28-.45-.37-.95-.86-1.28A6.73,6.73,0,0,0,103,28.7l-.4-.07C100.84,28.35,100,28.48,99.12,29.22Z"/><path class="cls-1" d="M41.47,30.92a1.45,1.45,0,0,0-.09-2.35,5.5,5.5,0,0,0-3.9-.88c-1.32.23-1.06,1-1.09,1.54a1.77,1.77,0,0,0,.08.36,6.13,6.13,0,0,0,0,.77c.09.83,1.14,1.4,2.63,1.34A3.47,3.47,0,0,0,41.47,30.92Z"/><path class="cls-1" d="M37.32,44.88c-1.25-.41-2.94-.32-3.74-.88-1-.09-1.89.56-1.61,1a16.3,16.3,0,0,0,2,2.45c.5.49,2.55.58,3.38.25C38.82,47.07,38.89,45.39,37.32,44.88Z"/><path class="cls-1" d="M127.55,50.81c-.23-.41-1.42-.58-2.05-.33a26.87,26.87,0,0,0-4.22,2.43c-.46.27-.1.57.21.81a2.46,2.46,0,0,0,1.8.81c2.09,0,4.61-1.33,4.66-2.61A5.43,5.43,0,0,0,127.55,50.81Z"/><path class="cls-1" d="M52.12,33.71c.76-1.48-1-2.72-4.38-2.78a.91.91,0,0,0-.79.71A10.5,10.5,0,0,0,47,34.1c0,.17.43.38.76.49C49.6,35.16,51.58,34.75,52.12,33.71Z"/><path class="cls-1" d="M63.25,87.74c.14-.12-.08-.44-.3-.6a2.94,2.94,0,0,0-2.53-.44A16.11,16.11,0,0,0,55.9,89c-.08,0-.07.14-.11.21a.78.78,0,0,0,0,.23c.4.84,2.23,1.29,3.63.94C61.54,89.83,62.13,88.67,63.25,87.74Z"/><path class="cls-1" d="M71.76,92a4.55,4.55,0,0,0,3.1-3.05c.14-.31-.35-.54-1.33-.58-.37.06-1.06.12-1.69.27-1.72.4-2.65,1.3-4,1.92a.37.37,0,0,0-.15.42C67.89,92,70.1,92.51,71.76,92Z"/><path class="cls-1" d="M133.86,39.83c-.41-.45.21-1.16-.89-1.41a4.94,4.94,0,0,0-2.68.44,5.79,5.79,0,0,0-2.52,1.76c-.34.38-.13.74.37,1a3.22,3.22,0,0,0,2.1.61C132.1,42.12,133.94,40.87,133.86,39.83Z"/><path class="cls-1" d="M149.25,39.5c-.3.37,0,.74.67,1a4.28,4.28,0,0,0,4-.27c1.51-1,1.38-2.2-.42-3.51a2.5,2.5,0,0,0-.7-.14,1.88,1.88,0,0,0-.38.1A10,10,0,0,0,149.25,39.5Z"/><path class="cls-1" d="M30.13,63.09a4.71,4.71,0,0,0-3.48-1.21c-.64.06-1.1.26-1.14.58a18.42,18.42,0,0,0-.09,2.24c0,.37,0,.78.83.92a5,5,0,0,0,3.12-.06C30.61,64.95,30.86,64.08,30.13,63.09Z"/><path class="cls-1" d="M20.34,83.62a2.2,2.2,0,0,0,.23-2.43c-.21-.61-1.25-.74-2.08-1.07a10.32,10.32,0,0,0-1.86,1.18,13.75,13.75,0,0,0-1.48,2.08c-.22.33.05.6.54.77C17.43,84.73,19.53,84.5,20.34,83.62Z"/><path class="cls-1" d="M94.65,39.67a23.69,23.69,0,0,0-1.9,1.75c-.64.63-.3,1.19.86,1.48,2.29.57,4.19.08,4.71-1.24a5.09,5.09,0,0,0,.19-.87,2.29,2.29,0,0,0-.14-.7,2.19,2.19,0,0,0-1.64-.95A2.47,2.47,0,0,0,94.65,39.67Z"/><path class="cls-1" d="M26.66,69.3a3.47,3.47,0,0,0-1.85-.42c-.13,0-.35,0-.38,0-.87.91-2.41,1.68-2.09,2.85.14.5.72.8,1.56,1a3.77,3.77,0,0,0,2.34-.14C27.85,71.8,28.07,70.17,26.66,69.3Z"/><path class="cls-1" d="M191.21,53c-.11.36-.2.73-.29,1.1-.18.73.22,1.13,1.37,1.42a4.26,4.26,0,0,0,3-.3,2.24,2.24,0,0,0,1.22-1.75,1.18,1.18,0,0,0-1.1-1c-.64-.12-1.31-.2-2-.29C191.93,52,191.47,52.15,191.21,53Z"/><path class="cls-1" d="M64.29,24.11c-.6-.82-1.75-.86-3-.91s-2.26.41-2.18,1a5.82,5.82,0,0,0,.59,2c.25.47,1.15.61,2,.67a3.35,3.35,0,0,0,2.22-.41A1.47,1.47,0,0,0,64.29,24.11Z"/><path class="cls-1" d="M49.76,84.22a4.37,4.37,0,0,0,.19-1,6.31,6.31,0,0,0-.1-.8c-.14-.51-1.32-1.11-2.27-1.11a1.91,1.91,0,0,0-1.67.87,2.66,2.66,0,0,0-.84,2.18c0,.42.46.68,1.18.82C47.84,85.5,49.41,85.09,49.76,84.22Z"/><path class="cls-1" d="M48.73,40a1.28,1.28,0,0,0,.15-2.1c-.72-.86-2.11-.49-3-.71-1.93,0-2.57.5-1.79,1.39.38.43.23.89.6,1.28A3.66,3.66,0,0,0,48.73,40Z"/><path class="cls-1" d="M178.58,26.57a1.78,1.78,0,0,0-.18.55c-.2,1.19.9,2,2.13,2.67a2.19,2.19,0,0,0,1.13.06c1.55-.38,2.15-1.07,2.18-2s-1.12-.89-2.14-1.1c-.64-.13-1.2-.36-1.83-.51A1.15,1.15,0,0,0,178.58,26.57Z"/><path class="cls-1" d="M78.6,76.93a3.36,3.36,0,0,0,2.48.6c2.57-.17,3.77-.93,4.12-2.58.13-.61-.19-.7-1.37-.65-1.92.09-3.21.83-4.78,1.28C78.11,75.86,78,76.43,78.6,76.93Z"/><path class="cls-1" d="M67.95,44.23a9.88,9.88,0,0,0,3.6,1c.76.08,1.34-.11,1.42-.57a3.36,3.36,0,0,0,0-.7c.27-.64.45-1.08-.13-1.48A5.91,5.91,0,0,0,68,42.26C66.91,42.78,66.9,43.66,67.95,44.23Z"/><path class="cls-1" d="M63.77,60c.61-.7.9-1.42.12-2.16a3.23,3.23,0,0,0-2.83-.57c-1.15.15-1.7.47-1.75,1.07a2.31,2.31,0,0,0,.11.64,1.93,1.93,0,0,0-.13.48c0,.8.33,1.09,1.3,1.23C62.05,60.87,63.19,60.64,63.77,60Z"/><path class="cls-1" d="M186.71,63.48c0,.63,1.15,1.17,2.2,1,2.22-.34,3.35-1.1,3.35-2.4a3.63,3.63,0,0,0-.3-.73,1.17,1.17,0,0,0-1.23-.45C188.6,61.17,186.76,62.35,186.71,63.48Z"/><path class="cls-1" d="M140.94,76.69c0-.33-.45-.52-1.19-.57-2.2.34-4.16.92-5.12,2.23-.41.57.08,1.08,1.17,1.12C138.57,79.58,141.09,78.23,140.94,76.69Z"/><path class="cls-1" d="M68.6,38.32a2.45,2.45,0,0,0,2.11-1.26c.22-.79-.49-1.46-.95-2.16-.07-.1-.44-.18-.7-.21-1.51-.19-3.5.68-3.42,1.61.13.32.29.76.49,1.2A2.35,2.35,0,0,0,68.6,38.32Z"/><path class="cls-1" d="M168,52.44c-.3.67.47,1.18,1.72,1.13,1.78-.07,4.2-1.38,3.94-2.53,0-.56-.38-.92-1.18-1.07a2.93,2.93,0,0,0-2.22.34A6.39,6.39,0,0,0,168,52.44Z"/><path class="cls-1" d="M157.77,62a2.37,2.37,0,0,0,.62,1.73,1.52,1.52,0,0,0,.87.39c1.21.1,2.84-.68,2.74-1.33A5.14,5.14,0,0,0,160.86,60a1,1,0,0,0-1-.07C159.19,60.65,157.69,61.11,157.77,62Z"/><path class="cls-1" d="M98.19,99.61C97.74,99,96.72,99,95.53,99s-1.63.2-2.13.92c-.71,1,.57,1.51,1.71,2a2.92,2.92,0,0,0,3.07-.23C99.07,101,98.71,100.32,98.19,99.61Z"/><path class="cls-1" d="M126.2,62.29a3.57,3.57,0,0,0-2.3.05c-2.25.41-3.36,1.16-3.35,2.19.07.48.59.71,1.33.76,2,.14,3.81-.46,4.55-1.53C126.76,63.28,127,62.7,126.2,62.29Z"/><path class="cls-1" d="M89,92.95c.21-.81-.29-1.06-1.28-1A9.08,9.08,0,0,0,83,94c-.44.28,0,.58.27.83a3.2,3.2,0,0,0,2.56.42C88.15,94.88,89.11,94,89,92.95Z"/><path class="cls-1" d="M150.95,95.36c-.15.45-.14.91.72,1.19a3.23,3.23,0,0,0,2.31,0c.66-.27,1.33-.54,2-.82a1.63,1.63,0,0,0,.92-1.22c0-.47-1-1-1.82-1C153.33,93.46,151.26,94.4,150.95,95.36Z"/><path class="cls-1" d="M28.88,80.3a3.2,3.2,0,0,0,0,.67h0a3.26,3.26,0,0,0,0,.45,1.93,1.93,0,0,0,1.88,1.29A3.24,3.24,0,0,0,33.11,82c.74-.59.88-1.25.32-1.92a4.23,4.23,0,0,0-2.87-.62C29.72,79.54,29,79.77,28.88,80.3Z"/><path class="cls-1" d="M121.21,98.87c0,.14.42.42.74.48a5.78,5.78,0,0,0,4.28-1c.88-.66.68-1.4.46-2.13a6.77,6.77,0,0,0-3.2.39A2.59,2.59,0,0,0,121.21,98.87Z"/><path class="cls-1" d="M70.27,58.15c-.28.53.58,1.08,1.6,1,1.83-.05,3.55-.84,3.78-1.77a1.8,1.8,0,0,0-.33-1.66C72.17,55.79,71,56.83,70.27,58.15Z"/><path class="cls-1" d="M72.85,25.31c-1.32,1.24-1,2.34,1.52,3.3a2.16,2.16,0,0,0,1.53-.13,1.36,1.36,0,0,0,1-1.19,2.17,2.17,0,0,0-.83-1.73C75.44,25,73.35,24.84,72.85,25.31Z"/><path class="cls-1" d="M151,45.6a21,21,0,0,0-2.92.74,2,2,0,0,0-1.5,1.81c.18.14.34.4.65.47a5.52,5.52,0,0,0,3.75-.47c1.17-.58,1.94-1.27,1.33-2.17A1.32,1.32,0,0,0,151,45.6Z"/><path class="cls-1" d="M93.3,66.32c1.92,0,4-.57,4-2.06.13-.77-.59-1.08-2-1A4.72,4.72,0,0,0,91.8,65C91.27,65.62,92.09,66.3,93.3,66.32Z"/><path class="cls-1" d="M59.34,54.67c1.44,0,2.65-.78,2.71-1.7.05-.73-1.55-1.48-3.11-1.46-1.18,0-2.34.52-2.39,1C56.45,53.67,57.78,54.69,59.34,54.67Z"/><path class="cls-1" d="M171.66,41.25a2.68,2.68,0,0,0-1.84.36c-1.15.57-2.11,1.2-2.08,2.13,0,.76,1.37,1.26,2.6.93,1.71-.46,2.31-1.25,2.22-2.24a1.85,1.85,0,0,0,0-.23A1,1,0,0,0,171.66,41.25Z"/><path class="cls-1" d="M109.13,91.08a3.47,3.47,0,0,0-2.22.34c-.23.08-.47.15-.68.25-.94.45-1.43,1.58-.89,2.26a1.67,1.67,0,0,0,1.37.37c1.72-.11,3-.64,3.31-1.41a2.8,2.8,0,0,0,.13-.63C110,91.8,110,91.31,109.13,91.08Z"/><path class="cls-1" d="M164.3,28.67a3.74,3.74,0,0,0-2.54,1.24c-.55.61.54.93,1.24,1.28.2.1.32.25.52.35a3,3,0,0,0,2.59-.09c.77-.47,1.18-1,1.08-1.66S166.17,28.69,164.3,28.67Z"/><path class="cls-1" d="M110.36,95.67a11.28,11.28,0,0,0-4.52,1c-.58.29-1,.76-.45,1.23a2.46,2.46,0,0,0,1.76.49c1.94-.1,4-.61,4.39-2C111.65,96,111.13,95.65,110.36,95.67Z"/><path class="cls-1" d="M33.84,54.54c-.19-.54-1.12-.85-2.57-.85l-.82.05a2.11,2.11,0,0,0-1.77.81c-.28.48-.14.89.54,1.22a16.74,16.74,0,0,0,1.91.85,2.53,2.53,0,0,0,1.14,0C33.61,56.34,34.19,55.52,33.84,54.54Z"/><path class="cls-1" d="M149.28,84.2a1.66,1.66,0,0,0,.25-2.4,9.72,9.72,0,0,0-2.34.37c-1.66.22-2.1.89-2.21,1.69s.82,1.24,2.35,1.08A3,3,0,0,0,149.28,84.2Z"/><path class="cls-1" d="M142.4,60.41a4.21,4.21,0,0,0,2.39,0c1.58-.41,2.38-1.68,1.54-2.52a1.89,1.89,0,0,0-1-.34c-2-.1-3.54.59-3.71,1.68A1,1,0,0,0,142.4,60.41Z"/><path class="cls-1" d="M113,23.91a2.63,2.63,0,0,0,2.77-.24c.95-.92.25-2.27-1.54-3a2.51,2.51,0,0,0-.39-.08,2.9,2.9,0,0,0-.72.15C111.16,21.94,111.13,22.94,113,23.91Z"/><path class="cls-1" d="M52.83,50.43a.94.94,0,0,0,0-1.48c-.83-.9-2.46-.8-3.86-1a2.32,2.32,0,0,0-1.75.38c-.36.36-.18.73.11,1.07a2.33,2.33,0,0,0,.79.49q1.12.49,2.29.93A2.44,2.44,0,0,0,52.83,50.43Z"/><path class="cls-1" d="M90,89.11c-.25.7.5,1.2,1.75,1.18,2.37,0,4-1,4-2.39,0-.41-.65-.42-1.12-.5C91.72,87.38,90.43,87.87,90,89.11Z"/><path class="cls-1" d="M114.08,63.89a.81.81,0,0,0-.26-1.27,3.11,3.11,0,0,0-1.92-.11,8.46,8.46,0,0,0-2.62.61c-.82.36-1.16.81-1.16,1.24s.3.72.86.83C110.85,65.54,113.49,64.89,114.08,63.89Z"/><path class="cls-1" d="M85.59,97.72c-.06-.91-1.61-1.41-3.36-1.18-2.08.27-2.64,1.25-1.2,2.09a7.11,7.11,0,0,0,1.17.61,2.39,2.39,0,0,0,1.54,0C84.82,98.87,85.51,98.35,85.59,97.72Z"/><path class="cls-1" d="M167.16,84.88a7,7,0,0,0-4.33,1.38.74.74,0,0,0,.21,1.24,3.74,3.74,0,0,0,2.65.09c1.21-.5,2.24-1.08,2.09-2C167.77,85.3,167.85,84.94,167.16,84.88Z"/><path class="cls-1" d="M133.17,27.48a1.13,1.13,0,0,0,.11-.51,2,2,0,0,0,0-.6,1.59,1.59,0,0,0-1.41-1.24c-.95-.16-1.37.36-1.94.65-1.06.56-1.75,1.14-.86,2a2.27,2.27,0,0,0,2,1A2.42,2.42,0,0,0,133.17,27.48Z"/><path class="cls-1" d="M98.2,70.61c0,.48.64.88,1.49.86,2.23,0,3.53-.77,3.55-2,0-.9-.83-1.2-2.36-.9C99.1,68.94,98.27,69.61,98.2,70.61Z"/><path class="cls-1" d="M145.84,70.5a4,4,0,0,0-.26.61,1,1,0,0,0,.85,1.24,4.28,4.28,0,0,0,2.41,0,4.39,4.39,0,0,0,1.21-.6c.71-.52.59-1.5-.28-2.12a2,2,0,0,0-1.09-.26C147.4,69.47,146.29,69.77,145.84,70.5Z"/><path class="cls-1" d="M114.27,36.39a1.47,1.47,0,0,0-.81,1.24A1.88,1.88,0,0,0,114.55,39c.74.37,2.06.27,2.38-.24a7.48,7.48,0,0,0,.78-1.7c.13-.44-.81-1-1.71-1.1A2.47,2.47,0,0,0,114.27,36.39Z"/><path class="cls-1" d="M70.87,71.48c.11-.66-.54-.95-1.79-.79-2.19.27-3.06.86-3,2.05,0,.47.54.68,1.3.71C69.57,73.53,70.62,72.93,70.87,71.48Z"/><path class="cls-1" d="M166.37,67c-.51.65-.15,1.16,1.05,1.5a2.84,2.84,0,0,0,2.51-.38c.52-.45,1-.91.82-1.66a1.35,1.35,0,0,0-.23-.47,1,1,0,0,0-.59-.27A5,5,0,0,0,166.37,67Z"/><path class="cls-1" d="M85.09,45.42a1.44,1.44,0,0,0,.78,2.25A12,12,0,0,0,89,47.4c1.07-.2-.45-.61,0-.86.76-.57.57-1-.36-1.4A3.72,3.72,0,0,0,85.09,45.42Z"/><path class="cls-1" d="M114.1,85.86a8.22,8.22,0,0,0,.22-.85c0-.18,0-.33-.08-.48-.18-.67-1.36-1-2.43-.68-1.59.47-2,1-1.6,2.05.17.42.36.92,1.45.91S113.91,86.38,114.1,85.86Z"/><path class="cls-1" d="M123.82,94a6,6,0,0,0,.86-1c.13-1.22-1.36-1.77-3-1.35s-2,1-1.3,2.06a1.36,1.36,0,0,0,1.26.8A3.16,3.16,0,0,0,123.82,94Z"/><path class="cls-1" d="M107.25,40.49a2.69,2.69,0,0,0-1.88,0c-.87.33-1.19.78-1.06,1.34a1.63,1.63,0,0,0,.2.43,2.7,2.7,0,0,0,2.41,1,1.41,1.41,0,0,0,1.32-1,4.17,4.17,0,0,0,.12-.52C108.5,41.24,108.18,40.8,107.25,40.49Z"/><path class="cls-1" d="M103.69,105.17c0,.61.94.86,1.68,1.17,1.79.75,3.38.39,3.7-.81.19-.72-.73-1.29-1.73-1.3h-.76C105.13,104.28,103.67,104.74,103.69,105.17Z"/><path class="cls-1" d="M98.68,51.66a1.07,1.07,0,0,0,.63,1.79,3.47,3.47,0,0,0,2.58-.35,3.65,3.65,0,0,0,1.2-.88c.47-.54-.53-1.58-1.58-1.58A4.28,4.28,0,0,0,98.68,51.66Z"/><path class="cls-1" d="M63.5,93.63a5.43,5.43,0,0,0-3.76.5c-.18.11-.36.26-.37.39,0,.46,1.91,1.74,2.78,1.84a2.6,2.6,0,0,0,2.45-1.57A1.52,1.52,0,0,0,63.5,93.63Z"/><path class="cls-1" d="M127.53,88.85c.07-.29.11-.59.16-.9,0-.13,0-.28-.07-.43-.18-.73-1.11-1-2.31-.74-2,.48-2.44,1.22-1.45,2.35a2.3,2.3,0,0,0,2,.53C126.74,89.59,127.41,89.38,127.53,88.85Z"/><path class="cls-1" d="M57.29,45.34a2.9,2.9,0,0,0,1.9.25c.82-.19,1.65-1.14,1.31-1.53a5.49,5.49,0,0,0-2.41-1.49,1.43,1.43,0,0,0-.74,0c-.9.37-1.58.83-1.64,1.48C55.8,44.66,56.54,45,57.29,45.34Z"/><path class="cls-1" d="M60,64.18a3.24,3.24,0,0,0-.07-.45c-.13-.43-.06-.95-1.13-1.07a3.73,3.73,0,0,0-2.86.64c-1,.93,0,2.1,2,2.27a3,3,0,0,0,1.13-.21C59.84,65.09,60,64.65,60,64.18Z"/><path class="cls-1" d="M143.35,86.15a.91.91,0,0,0-.95-.52,7.38,7.38,0,0,0-3.62.84.87.87,0,0,0,0,1.62,3.13,3.13,0,0,0,2.27.08C142.43,87.75,143.48,87.19,143.35,86.15Z"/><path class="cls-1" d="M45.52,56.94c-.23-.33-.8-.35-1.32-.42a3.69,3.69,0,0,0-2.93,1c-.42.63.53.92,1.22,1.26a6.24,6.24,0,0,0,.67.25,2.15,2.15,0,0,0,2.09-.2C46.26,58.2,45.95,57.58,45.52,56.94Z"/><path class="cls-1" d="M169.71,33.43a17.54,17.54,0,0,0,1.79.93,2.53,2.53,0,0,0,1.85.26c.75-.2,1.3-.88,1.12-1.35-.32-.82-1.3-1.23-2.92-1.23-.27,0-.55,0-.82,0C169.55,32.15,168.94,32.94,169.71,33.43Z"/><path class="cls-1" d="M82.78,42.32a2.66,2.66,0,0,0,1.91,0c1.47-.7,1.59-1.81.26-2.58a4.15,4.15,0,0,0-.9-.26,3.06,3.06,0,0,0-2.61,1.38C81.21,41.42,81.72,42,82.78,42.32Z"/><path class="cls-1" d="M57,76.86c.15.57,1.32,1.08,2.37,1.07A2.33,2.33,0,0,0,61.41,77a3,3,0,0,0,.14-.64l-.11-.49c-.11-.46-.68-.69-1.44-.55a15.74,15.74,0,0,0-2.26.55C57.15,76.08,56.85,76.46,57,76.86Z"/><path class="cls-1" d="M70.81,49.77a1.45,1.45,0,0,0,1.33-.39,1.09,1.09,0,0,0,.2-.51c-.08-.66.17-1.19-.27-1.7a2.19,2.19,0,0,0-2.1-.35c-1.22.43-1.65.87-1.43,1.48S69.44,49.57,70.81,49.77Z"/><path class="cls-1" d="M56.7,81c-.51.54.19,1.37,1.42,1.66A2.42,2.42,0,0,0,60.43,82a6.07,6.07,0,0,0,.41-1,7.22,7.22,0,0,0-.29-.75.88.88,0,0,0-.89-.37A5.43,5.43,0,0,0,56.7,81Z"/><path class="cls-1" d="M94.42,80.9a.78.78,0,0,0,0,1.45,3.57,3.57,0,0,0,3,0c.69-.4,1.17-.84.92-1.43,0-1-.76-1.24-2.29-.74A10.11,10.11,0,0,0,94.42,80.9Z"/><path class="cls-1" d="M82.24,86.69c.49-.72,0-1.15-1.47-1.17a6.67,6.67,0,0,0-2.39.25c-1,.32-1.38,1.09-.83,1.56a3.45,3.45,0,0,0,2.86.5A2.75,2.75,0,0,0,82.24,86.69Z"/><path class="cls-1" d="M176,58.29c-.11.4.43.65,1,.89a2.39,2.39,0,0,0,1.55.13c1.54-.42,2.2-1.48,1.41-2.31a1.63,1.63,0,0,0-1-.36C177.52,56.65,176.06,57.48,176,58.29Z"/><path class="cls-1" d="M178.71,84.21a.37.37,0,0,0,.06.42,4.13,4.13,0,0,0,3.19.54c1-.43,1.65-1,1.63-1.7,0-.34-.67-.77-1.22-.76C180.8,82.72,179.21,83.37,178.71,84.21Z"/><path class="cls-1" d="M79.32,64.12c0,.41.92,1,1.79,1.1a2,2,0,0,0,1.68-.48A12.16,12.16,0,0,0,84,63.09c.2-.31-.54-.82-1.08-.8C81.14,62.36,79.38,63.26,79.32,64.12Z"/><path class="cls-1" d="M156.62,27a2.48,2.48,0,0,0,1.14-.07c.82-.3,1.37-.71,1.5-1.27.2-.79-.95-1.45-2.66-1.37a4.71,4.71,0,0,0-.86.29C154.45,25.25,154.9,26.56,156.62,27Z"/><path class="cls-1" d="M124.19,73.36a2.18,2.18,0,0,0,0-.3,3.14,3.14,0,0,0,0-.61c-.07-.28,0-.63-.58-.77a2.47,2.47,0,0,0-1.53.23,11.58,11.58,0,0,0-1.63.7.7.7,0,0,0-.36.61c0,.69,1.2,1.27,2.47,1.28A1.5,1.5,0,0,0,124.19,73.36Z"/><path class="cls-1" d="M139.26,68.71c-.62.29-1.3.56-1.44,1s0,.88.89,1.13c1.6.48,3,0,3-1.07a3.76,3.76,0,0,0-.13-.59C141.32,68.46,140.28,68.24,139.26,68.71Z"/><path class="cls-1" d="M150.31,91.2a4.1,4.1,0,0,0-2.52.53,2.08,2.08,0,0,0-.78.49.63.63,0,0,0,0,1,3,3,0,0,0,2.36.64c1-.19,1.76-.72,1.81-1.34C151,92.09,151.36,91.45,150.31,91.2Z"/><path class="cls-1" d="M48.38,76.38A10.13,10.13,0,0,0,47,75.55a3.24,3.24,0,0,0-.73-.15,1.18,1.18,0,0,0-.34.07c-.68.56-1.26,1.15-1.21,1.84s1.22,1,2.36.82C49.12,77.83,49.55,77.26,48.38,76.38Z"/><path class="cls-1" d="M114.53,74.86a2.78,2.78,0,0,0-.72-.17,4.91,4.91,0,0,0-3.16.86c-.66.49-.54,1,.44,1.31a8,8,0,0,0,1.51.32,2.38,2.38,0,0,0,2.12-.85C115.06,75.83,115.23,75.32,114.53,74.86Z"/><path class="cls-1" d="M86,67c-.06-.16-.53-.28-.78-.39a8,8,0,0,0-3,.76c-.81.49-.51,1.23.64,1.46a3.83,3.83,0,0,0,2.32-.18C86.09,68.21,86.23,67.61,86,67Z"/><path class="cls-1" d="M90.9,59.73c-.13-.26-.06-.75-.88-.79a5.27,5.27,0,0,0-3.22.71c-.53.36-.09,1.13.72,1.32C89.28,61.39,90.76,60.89,90.9,59.73Z"/><path class="cls-1" d="M169.59,71.05c-.1.42-.15.89.77,1.16a2.69,2.69,0,0,0,2.16-.28,1.39,1.39,0,0,0,.91-1.05c-.12-.12-.23-.37-.51-.47C171.85,70,169.74,70.44,169.59,71.05Z"/><path class="cls-1" d="M185.52,40.82c0,.49,1.48,1.21,2.58,1.26a7.38,7.38,0,0,0,1.21-.07c.71-.09,1.36-.32,1.36-.72s-.33-.88-1.23-1.06a9.69,9.69,0,0,0-1-.11C186.82,40.1,185.49,40.44,185.52,40.82Z"/><path class="cls-1" d="M121.71,81.68c-.11.48.47.83,1.08,1.11a3.14,3.14,0,0,0,2.56-.16c.82-.52.8-1.44-.06-1.8a4.51,4.51,0,0,0-.73-.16C123.48,80.63,121.82,81.19,121.71,81.68Z"/><path class="cls-1" d="M78.2,52c-.21-.38-1.22-.45-2.51-.14a5.24,5.24,0,0,0-1.33.49c-.25.15-.3.4-.39.53.12.63,1.44,1,2.55.88C77.91,53.57,78.64,52.81,78.2,52Z"/><path class="cls-1" d="M51.65,67.14c-1.17-.1-2.4.5-2.49,1.2-.05.4.79.92,1.52.93,1.33,0,2.49-.55,2.5-1.21C53.18,67.56,52.6,67.22,51.65,67.14Z"/><path class="cls-1" d="M187.93,44.89c.1.51.8.8,2.06.84,1.44,0,2.1-.26,2.11-1s-.56-1-1.72-1C188.86,43.76,187.8,44.24,187.93,44.89Z"/><path class="cls-1" d="M138.58,62.84c.9.2,2.12-.09,2.33-.58a3.71,3.71,0,0,0,.16-.88,1.16,1.16,0,0,0,0-.44c-.05-.14-.16-.35-.33-.38a2.61,2.61,0,0,0-1.11,0c-.72.32-1.59.58-1.89,1.13S137.88,62.68,138.58,62.84Z"/><path class="cls-1" d="M159.28,75.44a5.33,5.33,0,0,0,.6-.58c.36-.41-.25-.87-1.39-.89a8.63,8.63,0,0,0-.93.15c-.64.16-1.17.39-1,.84s.18.79,1,.88A2.42,2.42,0,0,0,159.28,75.44Z"/><path class="cls-1" d="M89.68,17c-.91.17-1.47.68-1.39,1.29.17.11.35.37.66.43a5.36,5.36,0,0,0,3.22-.62c.3-.28.15-.58-.26-.81A3.34,3.34,0,0,0,89.68,17Z"/><path class="cls-1" d="M90.73,50.29c-.46-.43-1-.92-1.51-1.38a1.42,1.42,0,0,0-.72.06c-.6.36-.59.79-.23,1.21a2,2,0,0,0,1.59.55A.87.87,0,0,0,90.73,50.29Z"/><path class="cls-1" d="M83.27,52.59a2.86,2.86,0,0,0,1.9.27,1.27,1.27,0,0,0,.65-.24c.35-.38.06-.73-.33-1.05a2.47,2.47,0,0,0-1.74-.51,2.34,2.34,0,0,0-.64.25C82.67,51.75,82.72,52.21,83.27,52.59Z"/><path class="cls-1" d="M152.5,54.28c.72,0,1.31-.2,1.49-.62.28-.64-.45-1.22-1.69-1.31A1.26,1.26,0,0,0,151,53C150.72,53.67,151.48,54.31,152.5,54.28Z"/><path class="cls-1" d="M31.69,86.38c.63-.33.47-.59-.44-.74-.26,0-.52-.1-.8-.13-1-.1-1.58.16-1.55.82,0,.21.26.45.75.62a1.35,1.35,0,0,0,1.1-.13C31.07,86.68,31.39,86.53,31.69,86.38Z"/><path class="cls-1" d="M122.22,17.35c.08.22.42.38.87.35A2.67,2.67,0,0,0,125,17c.33-.4-.39-1-1.16-.94C122.78,16.11,122,16.7,122.22,17.35Z"/><path class="cls-1" d="M158.29,82c.08.13.1.33.27.39a2.43,2.43,0,0,0,2-.48c0-.05,0-.15,0-.18a2.71,2.71,0,0,0-1.52-.17C158.58,81.56,158.35,81.73,158.29,82Z"/><path class="cls-2" d="M113.83,84.25a1.77,1.77,0,0,1-2.09-.11,1.31,1.31,0,0,1,.38-1.71,35.41,35.41,0,0,0,3.55-3.71c.48-.56,1-1.07,1.51-1.6a2.27,2.27,0,0,1,1.22,2.13,3.17,3.17,0,0,0,.38-.32c.66-.8,1.33-1.58,2-2.4a13.83,13.83,0,0,1,1.91-2,3.31,3.31,0,0,0,.57-.56,18.08,18.08,0,0,1,2.28-2.23s.11,0,.2-.05a4.48,4.48,0,0,1,.23,2.22,3.49,3.49,0,0,1-1,1.83,11.4,11.4,0,0,0-1,1.15c-.54.74-1.1,1.46-1.7,2.16-.38.44-.85.8-1.26,1.22-1,1.08-2.11,2.14-3.12,3.25s-2.33,2.26-3.51,3.37a1.94,1.94,0,0,1-1.14.45.75.75,0,0,1-.89-.74,1.22,1.22,0,0,1,.33-1.06l.72-.79Z"/><path class="cls-2" d="M146.06,77.28a.9.9,0,0,1,.1,1.1,8.63,8.63,0,0,1-.83,1.45,3.68,3.68,0,0,0-.36.7,2.55,2.55,0,0,0-.07.26c-.23.67-.87,1.11-1,1.84a4.64,4.64,0,0,1-1.07,1.81c-1.12,1.44-2.31,2.83-3.5,4.22s-2.16,2.65-3.28,4c-.67.78-1.41,1.51-2.11,2.27-.32.35-.62.71-.94,1.06s-.55.62-.84.91c-.6.61-1.24,1.18-1.8,1.82a10.45,10.45,0,0,1-1.84,1.5.5.5,0,0,1-.58,0,1.2,1.2,0,0,1-.66-1.32,1,1,0,0,1,.24-.45c.71-.75,1.47-1.45,2.13-2.24,1.29-1.54,2.6-3.07,4-4.51s2.66-3,4-4.52c.92-1,1.9-2,2.87-3A22.29,22.29,0,0,0,143,81c.7-1.06,1.46-2.07,2.22-3.09A1.4,1.4,0,0,1,146.06,77.28Z"/><path class="cls-2" d="M126,92.65a2.16,2.16,0,0,0-1.53-.38l-.26.36a.54.54,0,0,0-.11.58,1.54,1.54,0,0,1-.46,1.83c-.22.23-.46.46-.7.68L120.47,98a.57.57,0,0,1-.8.08,2.6,2.6,0,0,1-.56-.55.49.49,0,0,1,0-.72c.74-.76,1.48-1.52,2.25-2.25.49-.47,1-.89,1.55-1.33a2.12,2.12,0,0,1,.48-.38,3.19,3.19,0,0,0,1.29-1.17,38.91,38.91,0,0,1,4-4.6q2.36-2.33,4.68-4.7c.5-.5,1-1,1.46-1.54a4,4,0,0,1,.38-.37c.27-.22.59-.29.73-.15a.82.82,0,0,1,.28.8,5.45,5.45,0,0,1-.38.89,6.78,6.78,0,0,1-.49.83,12.16,12.16,0,0,1-.91,1.19c-.87,1-1.87,1.83-2.64,2.86s-1.64,1.93-2.48,2.88a26.08,26.08,0,0,1-2.83,2.66A2.28,2.28,0,0,1,126,92.65Z"/><path class="cls-2" d="M127.81,84a7.62,7.62,0,0,1,1.48-2.15c.72-.82,1.47-1.61,2.22-2.4s1.71-1.79,2.54-2.71,1.53-1.79,2.32-2.67c.53-.59,1.1-1.15,1.64-1.74.28-.3.54-.63.8-.94s.7-.87,1.1-1.27a.87.87,0,0,1,1.27-.09,1.63,1.63,0,0,1,.63,1.13.87.87,0,0,1-.21.66c-.56.68-1.11,1.38-1.69,2-1.29,1.46-2.6,2.9-3.9,4.34-.14.15-.29.29-.43.44-.54.55-1.06,1.11-1.62,1.63a17.59,17.59,0,0,1-1.69,1.43,12.42,12.42,0,0,0-2.05,1.8,1.86,1.86,0,0,1-1.31.64A1.41,1.41,0,0,1,127.81,84Z"/><path class="cls-2" d="M141.48,78.15c.52.43.49,1,.7,1.55a1,1,0,0,1-.23.91q-.42.57-.85,1.13a20.77,20.77,0,0,1-3.27,3.48,10.31,10.31,0,0,0-1.83,2,14.38,14.38,0,0,1-2.68,2.8c-.44.35-.84.74-1.26,1.11a1.32,1.32,0,0,1-.35.27A4.61,4.61,0,0,0,130,92.93a4.48,4.48,0,0,1-.93.8,1.26,1.26,0,0,1-1.45-.06,1.78,1.78,0,0,1,.15-.3c.43-.56.85-1.14,1.31-1.67s1.21-1.29,1.82-1.93c1-1.08,2-2.14,3-3.24.55-.61,1-1.29,1.57-1.92s1.22-1.36,1.82-2c.37-.42.72-.86,1.08-1.28a13.79,13.79,0,0,1,1.92-2.07C140.75,78.91,141.08,78.53,141.48,78.15Z"/><path class="cls-2" d="M123.73,66.43c.14.23.28.42.4.62a1.14,1.14,0,0,1-.27,1.71c-.4.35-.82.68-1.22,1s-.87.71-1.26,1.11c-.76.78-1.5,1.59-2.25,2.38-.16.17-.35.3-.52.46a8,8,0,0,0-.64.61c-.6.69-1.18,1.4-1.78,2.09s-1.09,1.24-1.67,1.83a3.26,3.26,0,0,1-1.29.69,1,1,0,0,1-.6-.85,1.35,1.35,0,0,1,.17-1.1c.23-.31.44-.63.69-.93,1.3-1.54,2.59-3.07,3.91-4.59a27.52,27.52,0,0,1,4-3.88A5.78,5.78,0,0,1,123.73,66.43Z"/><path class="cls-2" d="M131.39,75.16c.85.69,1,1.29.47,2.11a26.66,26.66,0,0,1-2.4,3.27c-.79,1-1.7,1.8-2.56,2.69s-1.61,1.72-2.42,2.58a2.89,2.89,0,0,1-.94.8c-.85-.23-1.17-1-1.72-1.55a1.9,1.9,0,0,1,.18-.37c.62-.71,1.22-1.44,1.88-2.12,2.13-2.21,4.29-4.4,6.43-6.59A3.32,3.32,0,0,1,131.39,75.16Z"/><path class="cls-2" d="M128.23,74.5a3.59,3.59,0,0,1,.73,1.44,3.19,3.19,0,0,1-1.1,1.65c-.45.38-.88.79-1.31,1.19a3.26,3.26,0,0,0-.37.37c-.64.82-1.38,1.53-2.08,2.29a2.39,2.39,0,0,0-.34.41,10.49,10.49,0,0,1-2.65,2.82A14.15,14.15,0,0,0,118.68,87c-.32.42-.54.43-1,.13a2,2,0,0,1-.45-.41c-.38-.5-.38-.72,0-1.26a7.47,7.47,0,0,1,1.36-1.5c.83-.7,1.66-1.42,2.46-2.15a13.45,13.45,0,0,0,1.22-1.28,35.35,35.35,0,0,1,2.61-2.64,25.92,25.92,0,0,1,2.28-2.21A8.62,8.62,0,0,0,128.23,74.5Z"/><path class="cls-2" d="M146.84,86.49a1.16,1.16,0,0,1-.18,1.16,13.68,13.68,0,0,0-1.52,2.88,2.44,2.44,0,0,0-.24.57,4.43,4.43,0,0,1-1,1.92c-.4.51-.85,1-1.27,1.47,0,0-.1.08-.12.13-.35.91-1.21,1.43-1.69,2.25a5.16,5.16,0,0,1-.87,1c-.65.65-1.31,1.28-2,1.91a.82.82,0,0,1-1.25,0,1.11,1.11,0,0,1-.17-1.37c.4-.39.76-.82,1.16-1.21.72-.74,1.48-1.44,2.17-2.2,1.17-1.29,2.32-2.59,3.44-3.92a13.45,13.45,0,0,0,1-1.63c.25-.4.47-.82.71-1.22A5.65,5.65,0,0,1,146.84,86.49Z"/><path class="cls-2" d="M139,91.6a3.37,3.37,0,0,1,.34-.48,17,17,0,0,0,1.22-1.39c.83-.93,1.54-1.94,2.29-2.92.46-.61,1-1.2,1.4-1.82s1-1.5,1.55-2.26a1.6,1.6,0,0,0,.28-.55,2.7,2.7,0,0,1,.74-1.18.37.37,0,0,1,.61,0,1.48,1.48,0,0,1,.4,1.31,4.29,4.29,0,0,1-.69,1.89c-.58.78-1.08,1.61-1.63,2.42a2.75,2.75,0,0,1-.79.83,2.54,2.54,0,0,0-.44.43l-1.57,1.68a2.5,2.5,0,0,1-.33.29c-.64.47-1.3.91-1.91,1.42A2,2,0,0,1,139,91.6Z"/><path class="cls-2" d="M131,100.12a16.73,16.73,0,0,0,2.36-2.47c1.27-1.4,2.48-2.85,3.72-4.27.39-.44.83-.84,1.25-1.25a1.2,1.2,0,0,1,.3-.16,1.89,1.89,0,0,1,.69,1.22,1.92,1.92,0,0,1-.16.94,1.69,1.69,0,0,1-.4.58c-.8.83-1.64,1.61-2.4,2.47s-2,1.78-2.94,2.68a5,5,0,0,1-1.37.8C131.55,100.88,131.31,100.73,131,100.12Z"/><path class="cls-2" d="M120.22,76.47a2.7,2.7,0,0,1-1.47-1.17,3,3,0,0,1,.43-.52,17.39,17.39,0,0,0,2.17-2.31c.08-.09.14-.19.22-.28,1.34-1.41,2.68-2.83,4-4.23a12.88,12.88,0,0,1,1.22-1c.44-.35.88-.68,1.34-1a1,1,0,0,1-.24,1.11c-.12.13-.28.22-.41.34a4.49,4.49,0,0,0-.61.64,15.7,15.7,0,0,1-1.68,2,.89.89,0,0,0-.29.43,1.84,1.84,0,0,1-.6,1.06,29.12,29.12,0,0,0-2.13,2.83A12.84,12.84,0,0,1,120.22,76.47Z"/><path class="cls-2" d="M132.68,73.3a7.19,7.19,0,0,1,1.17-1.69c1.1-1.28,2.39-2.36,3.56-3.49.39,0,.53.23.65.46a3.87,3.87,0,0,1,.33.9.71.71,0,0,1-.1.5c-.34.51-.69,1-1.07,1.5-.87,1.11-1.76,2.2-2.65,3.3a2.07,2.07,0,0,1-.24.26.43.43,0,0,1-.69-.07,3.38,3.38,0,0,1-.29-.44C133.11,74.13,132.89,73.71,132.68,73.3Z"/><path class="cls-2" d="M120.09,86.85a1.3,1.3,0,0,1,1,1.34,1,1,0,0,1-.19.57,11.46,11.46,0,0,1-.9,1.09c-.68.73-1.37,1.45-2.08,2.16a13.89,13.89,0,0,0-1.54,1.82c-.4.56-.89.54-1.24-.06a9.88,9.88,0,0,1-.48-1.1,7.71,7.71,0,0,1,1.61-2.05c.58-.54,1.17-1.07,1.74-1.63s1.1-1.14,1.66-1.71C119.79,87.12,119.94,87,120.09,86.85Z"/><path class="cls-2" d="M135.66,66.53a1.16,1.16,0,0,1,.68.72.89.89,0,0,1-.13,1c-.4.43-.81.85-1.19,1.3-.91,1.08-1.8,2.17-2.71,3.25-.27.32-.56.6-.85.9a.74.74,0,0,1-1,.12,1.92,1.92,0,0,1-.85-.81C131.65,70.82,133.57,68.6,135.66,66.53Z"/><path class="cls-2" d="M137.84,77.54a2.71,2.71,0,0,1,.69-1.38A28,28,0,0,1,142,72.8a1.64,1.64,0,0,1,.44-.29.37.37,0,0,1,.33.06.77.77,0,0,1,.27.8,3.14,3.14,0,0,1-.43,1c-.6.76-1.23,1.5-1.88,2.23-.47.53-1,1-1.47,1.53-.28.28-.44.26-.75,0S138.1,77.74,137.84,77.54Z"/><path class="cls-2" d="M125.75,85.71a2,2,0,0,1,.87.8.72.72,0,0,1-.14,1,16.85,16.85,0,0,1-2.7,2,1.62,1.62,0,0,0-.49.37,11.33,11.33,0,0,1-2.13,1.69.94.94,0,0,1-.75-.39A29.26,29.26,0,0,1,125.75,85.71Z"/><path class="cls-2" d="M132.12,65.46a4.17,4.17,0,0,1,.46.35.59.59,0,0,1,0,.92c-.34.33-.7.63-1,1s-.49.43-.5.8a.55.55,0,0,1-.14.31,17.7,17.7,0,0,1-2,2.06,1.55,1.55,0,0,1-.38.21.94.94,0,0,1-1.29-.39.69.69,0,0,1,.09-1,9.22,9.22,0,0,1,1-.87A14.18,14.18,0,0,0,131,66.38,3.82,3.82,0,0,1,132.12,65.46Z"/><path class="cls-2" d="M121.92,98.8a52.07,52.07,0,0,1,4.3-4.17,1.68,1.68,0,0,1,.86.77.54.54,0,0,1,0,.67,3.69,3.69,0,0,1-.92.94,9,9,0,0,0-2,1.72,6.14,6.14,0,0,1-.6.51.75.75,0,0,1-1,0Z"/><path class="cls-2" d="M115.13,87.88c.3.46.57.85.8,1.25a.81.81,0,0,1-.13,1.11,1.82,1.82,0,0,1-2.31.46.66.66,0,0,1-.18-1.19C113.9,89,114.49,88.46,115.13,87.88Z"/><path class="cls-2" d="M119,92.52l.53.61a1.1,1.1,0,0,1-.31,1.13,7,7,0,0,1-1.36,1.11,1.56,1.56,0,0,1-1.08.28c-.3,0-.41-.26-.22-.49.6-.69,1.21-1.36,1.82-2C118.55,92.92,118.75,92.75,119,92.52Z"/><path class="cls-2" d="M142.69,76.72a2.29,2.29,0,0,1,.22-.5c.39-.48.83-.92,1.18-1.42a.74.74,0,0,1,1.34.12.6.6,0,0,1-.24.9c-.52.33-1,.65-1.56,1C143.34,77,143.07,76.9,142.69,76.72Z"/><path class="cls-3" d="M34.4,59.44c.49-.28.93-.55,1.38-.8a3,3,0,0,1,1.7-.5c.29-.9-.3-1.69-.28-2.6a8.28,8.28,0,0,1,2.68-1.68,1.32,1.32,0,0,1,1.14.1c.14.5.32,1.06.46,1.62.28,1.17.53,2.36.82,3.53.18.72.4,1.43.6,2.15.48,1.8.93,3.6,1.44,5.39a24.84,24.84,0,0,0,.87,2.45c.64,1.61,1.3,3.21,2,4.8.37.85.83,1.66,1.23,2.5a46.83,46.83,0,0,0,2.82,4.69c.41.66.76,1.35,1.15,2,.2.35.42.69.66,1a26,26,0,0,1,2.75,5.15,6,6,0,0,1,.49,2.44,3,3,0,0,1-1.08,2.21,15.09,15.09,0,0,1-1.48-2.18c-.46-.73-1-1.45-1.44-2.17s-1-1.45-1.45-2.17-1-1.42-1.49-2.14-1-1.45-1.46-2.16a16.45,16.45,0,0,0-1.61-2,1.82,1.82,0,0,0,.09.42c.26.56.56,1.1.8,1.67a2.38,2.38,0,0,1-.4,2.52,10.54,10.54,0,0,1-1,.95,4.15,4.15,0,0,1-.52-.53c-.9-1.34-1.8-2.67-2.59-4.08-1.06-1.86-2.17-3.68-3.26-5.52a38.33,38.33,0,0,1-2.31-4.66,35.84,35.84,0,0,1-1.78-5.28c-.28-1.11-.43-2.25-.65-3.38a16.35,16.35,0,0,1-.35-3.41C34.37,59.65,34.39,59.53,34.4,59.44Zm8.46,14.9a6.66,6.66,0,0,0-.62-1.61,31.67,31.67,0,0,1-1.72-4.31c-.52-1.55-.9-3.16-1.36-4.73-.23-.79-.51-1.58-.78-2.39-.06.07-.09.09-.09.11a1.08,1.08,0,0,0,0,.27,24.32,24.32,0,0,0,1.11,4.78,44,44,0,0,0,1.71,4.32,5.2,5.2,0,0,1,.33.77A10.16,10.16,0,0,0,42.86,74.34Z"/><path class="cls-3" d="M59,54.92c.1-.07.19-.19.3-.2.52-.06,1-.23,1.53-.28a1.85,1.85,0,0,1,1.38.4c.39.3.75.64,1.11,1a.65.65,0,0,1,.22.29c.14.68.7,1.07,1.07,1.59a3,3,0,0,1,.43.81A5.82,5.82,0,0,0,66,60.41a1.94,1.94,0,0,1,.22.4c.94,2,1.89,4,2.82,6.07a16.13,16.13,0,0,1,1.11,2.85,15.6,15.6,0,0,0,.82,2.07l1.33,3.27c.76,1.87,1.49,3.74,2.27,5.6.45,1.09,1,2.15,1.46,3.22.8,1.74,1.57,3.5,2.28,5.29.49,1.24,1,2.46,1.52,3.69a8.38,8.38,0,0,0,.58,1.06,1.2,1.2,0,0,1-.12,1.53,6.44,6.44,0,0,1-2.88,1.92.44.44,0,0,1-.56-.21A15.41,15.41,0,0,1,76,95.73c-1.9-3.87-3.93-7.66-5.69-11.6-1.06-2.38-2.09-4.77-3.13-7.15-.79-1.82-1.54-3.66-2.36-5.46S63,67.77,62.1,65.9a2.9,2.9,0,0,1-.4-1.23,1.47,1.47,0,0,0-.17-.53A33.73,33.73,0,0,1,59.92,59C59.58,57.66,59.31,56.3,59,54.92Z"/><path class="cls-3" d="M86.52,67.49a2.72,2.72,0,0,1-.84-1.11c-.62-1.18-1.26-2.35-1.83-3.56S83,60.65,82.5,59.57s-.95-2.09-1.41-3.14-.86-2.06-1.29-3.09-.87-2.12-1.31-3.18q-.41-1-.86-2c-.31-.67-.63-1.35-1-2a26.86,26.86,0,0,1-1.58-3.45,29.08,29.08,0,0,0-1.78-3.68c-.91-1.72-1.86-3.43-2.69-5.2S68.85,30.33,68,28.55c-.38-.78-.74-1.57-1.1-2.36a2.34,2.34,0,0,1-.16-.63,6.21,6.21,0,0,1-.09-1,1.39,1.39,0,0,0-.68-1.24c-.15-.11-.33-.18-.47-.29-.41-.35-.39-.84.09-1a16.67,16.67,0,0,1,2.18-.78,1.06,1.06,0,0,1,1.3.75,1.94,1.94,0,0,0,.62.79,2,2,0,0,1,.69,1,1.47,1.47,0,0,0,.35.54c.39.44.84.83,1.18,1.3A10.14,10.14,0,0,1,72.69,27q1.39,2.78,2.77,5.57a3.76,3.76,0,0,1,.22.51,26.2,26.2,0,0,0,2.17,4.41,20.38,20.38,0,0,1,1.28,2.78c.35,1,.86,1.85,1.31,2.77l1.16,2.43a1.42,1.42,0,0,1,.16.44,10.93,10.93,0,0,0,1,2.8c.59,1.5,1.12,3,1.74,4.51s1.16,2.8,1.67,4.23c.37,1,.71,2,1.17,3,.55,1.18,1.06,2.38,1.61,3.55a1.37,1.37,0,0,1-.17,1.64,3.51,3.51,0,0,1-.79.77A6.06,6.06,0,0,0,86.52,67.49Z"/><path class="cls-3" d="M72.92,68.43c-.3-.06-.44-.32-.58-.55A28,28,0,0,1,70.19,64c-.34-.83-.77-1.62-1.13-2.44-.49-1.11-1-2.22-1.41-3.34s-.85-2.26-1.32-3.38a12.76,12.76,0,0,0-.87-1.64,16.25,16.25,0,0,1-1.22-2.4c-.12-.31-.31-.6-.45-.9-.62-1.32-1.23-2.64-1.87-3.95s-1.29-2.4-1.88-3.63c-.72-1.51-1.38-3-2.06-4.58-.77-1.75-1.45-3.55-2.32-5.26A5.44,5.44,0,0,1,55,30.52a2.51,2.51,0,0,0-.16-.72,2.4,2.4,0,0,1,.09-2,7.07,7.07,0,0,1,2.33-.63,1.5,1.5,0,0,1,1.6,1c.1.23.21.45.33.66L61,32.19a4.61,4.61,0,0,1,.2.42q1.08,2.57,2.16,5.14c.13.31.22.64.35,1a15.59,15.59,0,0,0,.68,1.53,29.55,29.55,0,0,1,2,4.37c.3.84.72,1.64,1.08,2.47.24.57.45,1.15.7,1.72a13.08,13.08,0,0,0,.8,1.57,17.38,17.38,0,0,1,1.55,3.16c.48,1.28,1,2.54,1.48,3.81a2.82,2.82,0,0,0,.66,1,2.49,2.49,0,0,1,.83,1.8,3.32,3.32,0,0,0,.26,1.07,12.62,12.62,0,0,1,.8,2.07.4.4,0,0,0,.08.17,8.2,8.2,0,0,1,.93,2.41A1.38,1.38,0,0,1,75,67.53a8,8,0,0,1-1,.52C73.69,68.2,73.3,68.3,72.92,68.43Z"/><path class="cls-3" d="M91.79,93.1A2.34,2.34,0,0,1,90,91.68c-.55-1-1.18-1.9-1.74-2.85A24.32,24.32,0,0,1,87,86.25c-1.1-2.49-2.07-5-3.35-7.45a31.56,31.56,0,0,1-2-5c-.93-2.86-1.82-5.73-2.83-8.56-1-2.65-2-5.29-3.16-7.84-.61-1.29-1.33-2.52-2-3.78l-2.76-5.26a1.1,1.1,0,0,1-.14-.94,8.29,8.29,0,0,1,2.51-.73A.87.87,0,0,1,74,47a6.44,6.44,0,0,1,1.44,1.78,24.69,24.69,0,0,0,1.77,3c.86,1.36,1.59,2.8,2.31,4.24A46.11,46.11,0,0,1,82,62c.18.53.39,1,.6,1.56,1,2.51,1.72,5.11,2.55,7.67a48,48,0,0,0,3,7.48,25,25,0,0,1,1.45,3.41c.34,1,.84,1.93,1.28,2.89a46.47,46.47,0,0,0,2.35,4.22,2.6,2.6,0,0,1,.49,1.37,1.71,1.71,0,0,1-.26,1A3.39,3.39,0,0,1,91.79,93.1Z"/><path class="cls-3" d="M76.41,28.17c.74-.22,1.4-.37,2-.61a2.57,2.57,0,0,1,2.25.5,1,1,0,0,1,.32.45c.27.52.55,1,.78,1.59,1,2.29,2.1,4.49,3,6.82.45,1.22,1.06,2.37,1.6,3.56a29.3,29.3,0,0,1,1.33,3.26c.44,1.36,1,2.69,1.49,4,.61,1.52,1.26,3,1.9,4.54.2.49.42,1,.62,1.46a11.78,11.78,0,0,1,.67,1.92c.19.84.52,1.65.78,2.48.56,1.77,1.11,3.55,1.69,5.31.26.79.58,1.57.88,2.35.23.61.49,1.2.71,1.81a1.32,1.32,0,0,1-.19,1.32,2.77,2.77,0,0,1-1,.9c-.47.21-1,.4-1.46.61a6.29,6.29,0,0,1-1-1.69c-.54-1.29-1.07-2.58-1.55-3.88-.86-2.36-1.68-4.73-2.54-7.09-.26-.73-.61-1.42-.91-2.14-.51-1.23-1-2.49-1.53-3.69-.67-1.4-1.27-2.83-1.84-4.27-.41-1-.81-2.08-1.26-3.1-.65-1.47-1.36-2.92-2-4.39-.31-.68-.58-1.37-.88-2.05-1-2.24-2-4.47-3-6.7a5.1,5.1,0,0,1-.61-2.22A5.62,5.62,0,0,0,76.41,28.17Z"/><path class="cls-3" d="M57.83,71.37,57,69.93c-.45-.81-1-1.56-1.43-2.38-1.27-2.38-2.39-4.84-3.49-7.29A63.35,63.35,0,0,1,49.43,53c-.74-2.37-1.57-4.7-2.35-7.05-.22-.68-.41-1.36-.63-2-.28-.88-.57-1.77-.88-2.64-.61-1.69-1.24-3.37-1.85-5.06-.14-.38-.25-.77-.36-1.15a.44.44,0,0,1,.24-.55c.63-.32,1.27-.63,1.91-.92a1.91,1.91,0,0,1,.54-.14.83.83,0,0,1,.94.44,22.77,22.77,0,0,1,1.4,2.72c.29.88.75,1.7,1.11,2.55a39.14,39.14,0,0,1,1.73,4.61,6,6,0,0,0,.28.79c1.06,2.45,1.76,5,2.59,7.55.38,1.14.65,2.32,1,3.46A49,49,0,0,0,57,60.21c.89,1.9,1.81,3.8,2.53,5.78a6,6,0,0,1,.4,1.9,1.91,1.91,0,0,1-.37,1.21,11.82,11.82,0,0,1-.9,1.06c-.17.18-.39.32-.54.51A4.17,4.17,0,0,0,57.83,71.37Z"/><path class="cls-3" d="M62.54,96.52c-.37-.08-.52-.36-.7-.61a28.28,28.28,0,0,1-2.35-3.79c-1-1.94-2.18-3.75-3.26-5.63-.83-1.45-1.63-2.92-2.46-4.38-.64-1.13-1.32-2.25-1.95-3.38s-1.21-2.16-1.75-3.28-1-2.32-1.5-3.5a20.27,20.27,0,0,1-.92-3.69l-.21-1.06.54-.16.7-.25c.2-.07.41-.12.62-.17a1.83,1.83,0,0,1,2.19.91,12.46,12.46,0,0,1,1.35,2.63,36,36,0,0,0,2.55,5.27,1.64,1.64,0,0,1,.21.41,15.06,15.06,0,0,0,1.71,3.39c.09.16.21.31.29.48,1.07,2.24,2.4,4.33,3.61,6.5.06.11.13.21.18.32.68,1.39,1.34,2.79,2,4.18.38.78.79,1.54,1.17,2.32.14.28.23.58.34.86a1.1,1.1,0,0,1-.32,1.27A5.42,5.42,0,0,1,62.54,96.52Z"/><path class="cls-3" d="M101.17,52.34a4,4,0,0,1-.34-.51c-.9-1.91-1.77-3.82-2.68-5.72-.44-.92-.95-1.81-1.42-2.72a11.68,11.68,0,0,1-.63-1.24,23.18,23.18,0,0,0-1.16-2.53c-.47-.91-.88-1.84-1.32-2.77-.07-.14-.14-.28-.21-.41L92.12,34c-.6-1.15-1.2-2.31-1.81-3.46a21.48,21.48,0,0,0-2-2.87c-.51-.66-1.06-1.3-1.58-1.95a1.81,1.81,0,0,1-.24-.39c-.25-.57-.15-.85.4-1.13s.88-.45,1.33-.65a1.5,1.5,0,0,1,2.06.43c.76.94,1.58,1.83,2.31,2.78a17.18,17.18,0,0,1,1.4,2.19c.65,1.19,1.24,2.43,1.86,3.64.25.5.52,1,.78,1.48s.41.7.59,1.05q1,2.08,2.06,4.16c.31.64.64,1.27.92,1.93.43,1,.82,2.07,1.22,3.11.1.26.18.52.29.78l1.5,3.7a3.23,3.23,0,0,1,.2,1.08,1.78,1.78,0,0,1-1,1.75Z"/><path class="cls-3" d="M93.59,48.24a5.45,5.45,0,0,0-1-1.37,7.61,7.61,0,0,1-1.19-2.08c-.35-.76-.65-1.54-1-2.29-.47-.94-1-1.86-1.49-2.78q-1.11-2-2.24-4.06c-.27-.49-.58-1-.86-1.44-1.63-2.78-3.25-5.56-4.88-8.34-.28-.48-.64-.92-.95-1.38L78.4,22.19a3,3,0,0,1-.26-.49.4.4,0,0,1,.23-.53l2-.57a1.41,1.41,0,0,1,1.44.35,17.78,17.78,0,0,1,1.6,1.92c.24.28.5.55.73.84A13.61,13.61,0,0,1,85,24.9c1,1.6,2,3.19,3,4.83,1.77,3.05,3.53,6.11,5.23,9.2a16.33,16.33,0,0,1,1.78,4.66,13,13,0,0,0,.5,1.78,1.17,1.17,0,0,1-.12,1.06,5.26,5.26,0,0,1-.69.86C94.33,47.6,94,47.87,93.59,48.24Z"/><path class="cls-3" d="M94.41,49.48l1.89-.91a.8.8,0,0,1,.63,0,.64.64,0,0,1,.46.41c0,.15.09.3.14.44a12.94,12.94,0,0,0,.87,2,17,17,0,0,1,.81,2.07c.49,1.27,1,2.52,1.47,3.81s1.06,2.84,1.44,4.31c.29,1.14.73,2.23,1,3.37.43,1.85,1.18,3.59,1.74,5.39s1,3.57,1.56,5.35c.08.27.18.53.28.79s.27.69.39,1A1.84,1.84,0,0,1,105.8,80c-.33.12-.72.45-1,.21s-.28-.59-.41-.9c-.29-.68-.62-1.35-.88-2s-.56-1.64-.83-2.46c-.21-.62-.42-1.23-.62-1.85-.51-1.59-1.12-3.15-1.68-4.72-.65-1.84-1.23-3.7-1.87-5.55-.51-1.46-1.08-2.9-1.59-4.36Q95.61,54.65,94.36,51A1.46,1.46,0,0,1,94.41,49.48Z"/><path class="cls-3" d="M84.27,96.1a7.24,7.24,0,0,1-.71-1.34c-1-2.24-2-4.48-3-6.71-.16-.37-.33-.74-.48-1.11-.39-.94-.77-1.89-1.18-2.83-.61-1.42-1.21-2.85-1.86-4.25s-1.36-3.12-1.94-4.72a10.06,10.06,0,0,1-.8-3.33,9.76,9.76,0,0,0-.26-1.49c.73-.27,1.44-.56,2.17-.79a1.14,1.14,0,0,1,1.3.46,5.72,5.72,0,0,1,.71,1.19c.81,1.91,1.58,3.83,2.38,5.74.32.77.69,1.52,1,2.28a13.91,13.91,0,0,1,.62,1.55c.46,1.52,1.25,2.9,1.79,4.38.13.35.23.71.36,1.05.23.6.49,1.2.73,1.8l1.18,2.93c.23.57.44,1.15.68,1.72a2,2,0,0,1-.82,2.58A11.69,11.69,0,0,1,84.27,96.1Z"/><path class="cls-3" d="M110.11,67.89c-.11-.21-.23-.42-.33-.64a17.36,17.36,0,0,1-.91-3.21c-.79-3.41-1.71-6.79-2.69-10.15-.54-1.84-1.06-3.69-1.61-5.53-.14-.47-.33-.93-.5-1.39-.32-.87-.64-1.74-1-2.61q-.26-.69-.55-1.38c-.33-.8-.67-1.6-1-2.4-.14-.34-.24-.7-.4-1a26.36,26.36,0,0,0-2.06-3.85,4.85,4.85,0,0,1-.29-.55A3.6,3.6,0,0,1,101.08,33a.77.77,0,0,1,1,.33c.36.58.72,1.16,1,1.76a42,42,0,0,1,2.32,5.07c.33.9.61,1.81.93,2.71s.57,1.51.82,2.27.39,1.3.58,2,.37,1.25.54,1.87c.44,1.65.88,3.29,1.31,4.94.27,1,.49,2.11.76,3.16a30.63,30.63,0,0,1,.81,5.69,10.83,10.83,0,0,1-.11,2.4,2,2,0,0,1-.18.62,2.29,2.29,0,0,0-.18.71c-.08.48-.24.94-.36,1.41Z"/><path class="cls-3" d="M57.67,53.29a8.35,8.35,0,0,1-1.22-2c-.58-1.26-1.25-2.48-1.87-3.73a3.85,3.85,0,0,1-.6-1.64,1.13,1.13,0,0,0-.15-.44,11.23,11.23,0,0,1-.51-1.16,26,26,0,0,0-1.08-2.46c-.65-1.37-1.1-2.83-1.65-4.24-.46-1.18-.87-2.38-1.44-3.52a10.39,10.39,0,0,1-.74-2.1,4.18,4.18,0,0,1,0-1.29,8.68,8.68,0,0,1,.18-1,7,7,0,0,1,2.18-.57,1.8,1.8,0,0,1,1,.31,4.32,4.32,0,0,1,.91.64,1.59,1.59,0,0,1,.39.62c.54,1.48,1.07,3,1.6,4.46l1.58,4.47q.26.74.54,1.48c.36,1,.69,1.92,1.08,2.87.69,1.66,1.41,3.3,2.12,5,.13.31.28.62.41.94a2.81,2.81,0,0,1,.2.61A1.93,1.93,0,0,1,59,52.9C58.61,53,58.16,53.15,57.67,53.29Z"/><path class="cls-3" d="M46.75,64.67A6.5,6.5,0,0,1,45.88,63c-.61-1.46-1.22-2.91-1.75-4.4-.47-1.31-.85-2.65-1.23-4s-.86-2.92-1.15-4.4-.67-2.64-1-4A5.13,5.13,0,0,0,40.35,45a17.29,17.29,0,0,1-.83-2.26A8.33,8.33,0,0,1,39.23,41a5.09,5.09,0,0,1,3.51-1.34,2.46,2.46,0,0,1,.38.49c.27.59.5,1.19.75,1.79.16.37.34.73.48,1.11a25.42,25.42,0,0,1,1.21,4.18c.16,1,.49,1.92.64,2.89.22,1.38.71,2.7.94,4.07a35,35,0,0,0,1.29,4.45c.11.35.18.72.29,1.07.2.65.41,1.3.62,1.94.13.41.3.81.4,1.23a.91.91,0,0,1-.45,1A6.26,6.26,0,0,1,46.75,64.67Z"/><path class="cls-3" d="M59,74.33a2.54,2.54,0,0,1,.46-.5c.61-.36,1.23-.7,1.86-1a.63.63,0,0,1,.83.21,4.1,4.1,0,0,1,.51.77q.47,1,.87,1.95c.34.83.66,1.67,1,2.5a6.56,6.56,0,0,0,.3.78,29.74,29.74,0,0,1,1.61,3.45,21.12,21.12,0,0,0,1.12,2.23,18.35,18.35,0,0,1,1.2,2.52,4.29,4.29,0,0,0,.56,1.07,20.91,20.91,0,0,1,1.9,3.61c.39.84.72,1.71,1.1,2.56a1.66,1.66,0,0,1,0,1.26,2.46,2.46,0,0,0-.19.61c0,.8-.59,1.11-1.24,1.31a3.42,3.42,0,0,1-.67.07A6.4,6.4,0,0,1,69.12,96c-.38-.88-.89-1.7-1.31-2.56a37.36,37.36,0,0,0-2-3.57,16.24,16.24,0,0,1-.75-1.49c-.28-.55-.53-1.12-.84-1.66-.9-1.56-1.5-3.27-2.29-4.88A66.19,66.19,0,0,1,59.14,75C59.08,74.78,59,74.6,59,74.33Z"/><path class="cls-3" d="M57.95,23.9a4,4,0,0,1,.56-.34c.58-.22,1.15-.44,1.74-.62.42-.12.87-.19,1.16.29A5.18,5.18,0,0,1,62.89,25c.83,1.19,1.64,2.41,2.46,3.61a24.66,24.66,0,0,1,2.55,4.51c.68,1.66,1.52,3.25,2.3,4.86a35.42,35.42,0,0,1,1.71,4,3.35,3.35,0,0,1-1.54,1.84c-.41.26-.86.46-1.29.69a25.93,25.93,0,0,1-2.5-4.05c-.57-1.24-1.19-2.45-1.76-3.68-.49-1-1-2.08-1.41-3.13a33.31,33.31,0,0,0-2.61-4.7c-.86-1.4-1.7-2.81-2.53-4.22A6.54,6.54,0,0,1,57.95,23.9Z"/><path class="cls-3" d="M94.87,90.6a2,2,0,0,1-.15-.46,16,16,0,0,0-1.75-6Q91,80,89.08,75.87L89,75.7a22.26,22.26,0,0,1-1.94-5.61,3.63,3.63,0,0,1-.07-.54s0-.05.06-.13a11.09,11.09,0,0,1,2-.61.91.91,0,0,1,.85.25.37.37,0,0,0,.06.07,2.64,2.64,0,0,1,1.13,1.62,8.08,8.08,0,0,0,.46,1.12c.54,1.22,1.16,2.41,1.63,3.65.68,1.8,1.52,3.52,2.25,5.29.12.29.2.59.3.88.27.79.56,1.57.8,2.37a9.2,9.2,0,0,1,.45,3.11A7.62,7.62,0,0,1,96.56,89a1.61,1.61,0,0,1-.33.55A4.71,4.71,0,0,1,94.87,90.6Z"/><path class="cls-3" d="M102,55.55l2-.33a1.28,1.28,0,0,1,1.36.74,6.79,6.79,0,0,1,.81,2.17,50.34,50.34,0,0,0,1.42,5.19,31.55,31.55,0,0,1,1.06,4.42c.08.49.09,1,.17,1.47.11.64.29,1.27.38,1.91a10,10,0,0,1,.09,1.56,1.42,1.42,0,0,1-.59,1.11l-1,.82a.76.76,0,0,1-.45-.55,18,18,0,0,1-.72-2.3,67.27,67.27,0,0,0-2.54-9,33.78,33.78,0,0,1-1.45-5.19c-.09-.52-.27-1-.41-1.53C102,55.89,102,55.75,102,55.55Z"/><path class="cls-3" d="M95.18,73.3a6,6,0,0,1,2.55-.64,1,1,0,0,1,.72.35,10.29,10.29,0,0,1,.83,1.1,9.1,9.1,0,0,1,1.14,2.42c.37,1.47.8,2.92,1.21,4.38.09.33.18.66.27,1a4.35,4.35,0,0,1,0,2,3.59,3.59,0,0,1-1.55,2.15c-.32,0-.4-.25-.47-.45-.26-.83-.53-1.65-.79-2.48a34.18,34.18,0,0,0-2.54-6.37,20.72,20.72,0,0,1-.94-2.31C95.47,74.11,95.35,73.77,95.18,73.3Z"/><path class="cls-3" d="M72.54,22a1.36,1.36,0,0,1,.34-.22c.63-.16,1.25-.33,1.89-.43a1.81,1.81,0,0,1,2,1c.36.68.72,1.37,1,2.07A1.14,1.14,0,0,1,77.36,26a2.89,2.89,0,0,1-.9.45c-.53.15-1.08.22-1.62.33C73.84,26,73.14,24.5,72.54,22Z"/><path class="cls-3" d="M36.9,52.18a9.5,9.5,0,0,1-.68-4.42c.64-.24,1.24-.49,1.85-.68s1.22.07,1.3.83.12,1.48.14,2.22a1.63,1.63,0,0,1-1.15,1.63A7.89,7.89,0,0,1,36.9,52.18Z"/><path class="cls-3" d="M56.54,26.16a2.8,2.8,0,0,1-1.53.27l-.14-.56C55.83,25.52,56.07,25.56,56.54,26.16Z"/><path class="cls-4" d="M115,24.31A7,7,0,0,1,116.1,21c.72-1,1.36-2.13,2.06-3.18a12.08,12.08,0,0,1,2-2.28,21,21,0,0,1,6.25-3.89c1.49-.61,2.93-1.35,4.39-2,.89-.42,1.75-.89,2.65-1.29,1.65-.72,3.29-1.46,5-2.07A28.94,28.94,0,0,1,142.68,5a19.83,19.83,0,0,1,6.22-.24,15.47,15.47,0,0,1,5.8,1.93,18.23,18.23,0,0,1,1.62,1.14c.08.05.13.14.21.19a3.18,3.18,0,0,1,1.63,1.88.81.81,0,0,0,.55.47c1,.4,2,.8,3,1.25a11.38,11.38,0,0,1,3.94,3c.73.87,1.58,1.64,2.38,2.45a2.06,2.06,0,0,0,1,.58,1,1,0,0,1,.47.3,10,10,0,0,1,2,3.53,13.39,13.39,0,0,1,.46,2.42c.17,1.41.27,2.84.4,4.25a11.11,11.11,0,0,1-.08,2.55c-.09.63-.11,1.26-.15,1.89-.1,1.42-.19,2.84-.31,4.26a13.36,13.36,0,0,1-.69,2.76c-.42,1.39-.82,2.79-1.29,4.17a20.44,20.44,0,0,0-1,2.94.42.42,0,0,1-.07.17,28.26,28.26,0,0,0-1.52,3c-.23.38-.47.75-.73,1.11q-1.08,1.5-2.18,3a7.49,7.49,0,0,1-.55.65c-.76.81-1.54,1.6-2.27,2.42a10.54,10.54,0,0,1-3.69,2.61A17.07,17.07,0,0,1,152.9,61l-2,.27a5.24,5.24,0,0,1,.75.48.51.51,0,0,1,0,.82,2.3,2.3,0,0,1-.75.37,16.78,16.78,0,0,1-1.67.35c-2.09.33-4.18.69-6.29.94a14.43,14.43,0,0,1-4.72-.21c-1.14-.24-2.28-.51-3.42-.77a2.93,2.93,0,0,1-.63-.22,2.85,2.85,0,0,0-1.09-.29,3.4,3.4,0,0,1-.74-.17c-.21-.06-.4-.15-.65-.25a1.25,1.25,0,0,1,1.22-.44,4.8,4.8,0,0,0,1.12-.08,3.16,3.16,0,0,1,1.5.1,2.74,2.74,0,0,0,1,.13,13.36,13.36,0,0,1,2.73.28,7.76,7.76,0,0,0,2.07.16,2.36,2.36,0,0,1,.57,0,5.68,5.68,0,0,0,1.88-.1c1.55-.3,3.12-.54,4.68-.81a1.63,1.63,0,0,0,.88-.26l-4.49-.16a4.3,4.3,0,0,0-.76,0,11.94,11.94,0,0,1-2.83,0c-1-.09-2,0-3,0-.73,0-1.45,0-2.18-.09-1-.09-2.08-.21-3.11-.33a8.64,8.64,0,0,1-2.9-.83c-.91-.45-1.84-.85-2.75-1.28a7.36,7.36,0,0,1-2.07-1.49c-.72-.71-1.4-1.46-2.1-2.19a4.59,4.59,0,0,0-.42-.39,9.11,9.11,0,0,1-1.61-1.74c-.28-.38-.62-.72-.91-1.09-.89-1.11-1.76-2.23-2.67-3.33a15,15,0,0,1-1.7-2.62c-.17-.33-.33-.67-.49-1,.19-.4.6-.26.81-.52A20.68,20.68,0,0,1,119,46.59c0-.18,0-.28,0-.34q-1-1.58-1.92-3.15c-.06-.1-.17-.24-.26-.25-.39,0-.52-.37-.63-.64a6.71,6.71,0,0,1-.41-1.45c-.14-.9-.24-1.82-.33-2.73,0-.53,0-1.08,0-1.61s-.08-1.07-.12-1.6c0-.22-.06-.44-.06-.66a14.52,14.52,0,0,1,.26-3.49c.22-.89.35-1.8.55-2.69a14.4,14.4,0,0,1,.56-2.1,10.86,10.86,0,0,1,2.75-4.27c.89-.8,1.72-1.67,2.59-2.5.64-.61,1.27-1.24,1.95-1.81a20.82,20.82,0,0,1,2.29-1.68,27.31,27.31,0,0,1,3.88-2.19c.38-.16.77-.29,1.16-.42l2.35-.75,1.89-.61a37.41,37.41,0,0,0,4.79-2l.17-.08a14.55,14.55,0,0,1,6.09-1.17c1.32.12,2.65.19,4,.29l2.17.17a.63.63,0,0,0,.24-.08c0-.2-.11-.23-.2-.28-.73-.38-1.45-.79-2.2-1.12a9.69,9.69,0,0,0-4-.88,15.68,15.68,0,0,0-3,.37,28.55,28.55,0,0,0-5.78,1.8c-.69.31-1.41.57-2.1.87-.49.22-1,.48-1.44.72a12.6,12.6,0,0,1-2,.88c-.57.17-1.1.48-1.66.7-1.23.49-2.48.94-3.7,1.46a21.25,21.25,0,0,0-2,1,13.24,13.24,0,0,1-1.3.76,5.75,5.75,0,0,0-1.13.84c-.5.38-1,.76-1.5,1.16a3.73,3.73,0,0,0-.52.55c-.36.44-.7.89-1.06,1.33-.75.89-1.5,1.79-2.28,2.65a3.84,3.84,0,0,0-.84,1.78c-.07.32-.16.59-.58.59-.22,0-.29.43-.62.3Zm32.14,31.76a20,20,0,0,0,4.58-.46c.61-.16,1.23-.31,1.85-.41a15,15,0,0,0,4.62-1.66,6,6,0,0,0,2.45-2.18c.69-1.14,1.42-2.25,2.2-3.32a14.81,14.81,0,0,0,1.94-4.3,14.35,14.35,0,0,0,.63-2.86,65.76,65.76,0,0,1,1.54-8.58,19.38,19.38,0,0,0,.51-4.51c0-1-.14-2-.19-2.93a14,14,0,0,0-1.06-4.6,3.13,3.13,0,0,0-1-1.36,4.51,4.51,0,0,1-.51-.42l-2.41-2.54A29.79,29.79,0,0,0,159,13.37a4.56,4.56,0,0,0-.51-.26A45.77,45.77,0,0,0,153,11.19a12,12,0,0,0-1.76-.37c-1.91-.23-3.83-.39-5.75-.63a5.7,5.7,0,0,0-3,.4c-2.3,1-4.66,1.79-7,2.66-.8.3-1.6.59-2.42.81a14.91,14.91,0,0,0-6,3.32c-.9.8-1.77,1.62-2.65,2.44a16.26,16.26,0,0,0-2.88,3.27,11.12,11.12,0,0,0-1.47,3.17c-.21.86-.39,1.72-.6,2.59a15.16,15.16,0,0,0-.54,3.75c0,1.42,0,2.84,0,4.26a2,2,0,0,0,0,.47,10.25,10.25,0,0,1,.09,2.17,3.24,3.24,0,0,0,0,.66,1.28,1.28,0,0,1-.26,1.15.84.84,0,0,0-.1.9,7.09,7.09,0,0,0,.49.92c.11.19.28.34.4.52a54.5,54.5,0,0,0,4.9,6.39,8.17,8.17,0,0,0,2.2,1.78c1.2.62,2.47,1.11,3.7,1.7A16.52,16.52,0,0,0,135,54.76c2.15.35,4.32.61,6.48.85A30.5,30.5,0,0,0,147.11,56.07Zm22.3-22.51a15.53,15.53,0,0,1-.41,2.21c-.17.93-.35,1.87-.43,2.81a20.29,20.29,0,0,1-1.29,5.51,14.6,14.6,0,0,1-2.6,4.49,1.4,1.4,0,0,0-.22.31,32.86,32.86,0,0,1-2.17,3.33,5.43,5.43,0,0,1-1.44,1.49A21.8,21.8,0,0,1,156,56.29a28,28,0,0,1-4.31,1.09,25.73,25.73,0,0,1-3.18.55,30.12,30.12,0,0,1-7.28-.16c-1.15-.19-2.32-.3-3.47-.49s-2.43-.44-3.63-.69a19.57,19.57,0,0,1-6.38-2c-.09-.05-.22-.14-.31,0a7.08,7.08,0,0,0,3,2.25,18.73,18.73,0,0,1,2.09.89,8.33,8.33,0,0,0,3.37.86c1.17.1,2.33.18,3.5.26.25,0,.51,0,.76,0,.7,0,1.39-.07,2.08-.06,1.64,0,3.28,0,4.93,0s3.54,0,5.31-.09a22,22,0,0,0,5.69-.94,3.33,3.33,0,0,0,1.52-.92c.65-.69,1.33-1.35,2-2a18.49,18.49,0,0,0,2.42-2.91c.27-.43.52-.87.82-1.27a13.77,13.77,0,0,0,1.94-3.68c.1-.3.24-.58.35-.88.21-.59.43-1.19.61-1.79.28-.94.51-1.89.8-2.83a15.63,15.63,0,0,0,.8-4.18c0-.47.07-.95.1-1.42A8.25,8.25,0,0,0,169.41,33.57ZM119.5,47l0-.07s0,0,0,.06,0,0,0,.07Z"/><path class="cls-4" d="M114.66,44.27a3.83,3.83,0,0,1-.75-1.62,19.21,19.21,0,0,1-.41-3.55,1,1,0,0,1,.35-.92,2.26,2.26,0,0,0,.33-.55,1.59,1.59,0,0,1,.2.44,7.69,7.69,0,0,0,.26,1.28,8,8,0,0,1,.26,2.15,3.79,3.79,0,0,0,.17,1.28c.09.3.2.59.31.91Z"/><path class="cls-4" d="M114.94,24.3l0,.13s0-.07,0-.11Z"/><path class="cls-4" d="M143.68,54a29.7,29.7,0,0,1-6.12-.67c-1.56-.3-3-.87-4.58-1.22l-2.77-.65a9.45,9.45,0,0,1-2.65-1.22,15,15,0,0,1-3.37-3.16,8.33,8.33,0,0,1-1.34-2.17,23.41,23.41,0,0,0-1.64-3.1,7.88,7.88,0,0,1-1.09-2.61,2.22,2.22,0,0,0-.06-.28,11,11,0,0,1-.52-3.46c0-.5,0-1,0-1.52a10.13,10.13,0,0,1,.39-2.42,31.73,31.73,0,0,1,.85-3.2,12.45,12.45,0,0,1,3-4.68c.88-.87,1.82-1.66,2.75-2.46a18,18,0,0,1,3.16-2.09c.92-.5,1.8-1.06,2.73-1.53a20.9,20.9,0,0,1,2.53-1.05,13.88,13.88,0,0,1,2.54-.77,1.65,1.65,0,0,0,.53-.2,11.35,11.35,0,0,1,3.16-.95c1.21-.25,2.4-.55,3.61-.82a12.14,12.14,0,0,1,2.81-.38,24.27,24.27,0,0,1,3.58.36c1,.16,2,.29,3,.46a5.74,5.74,0,0,1,1.89.59l.08,0a36.73,36.73,0,0,1,3.63,1.38,14.25,14.25,0,0,1,3.21,1.61,3.89,3.89,0,0,1,1.31,1.34,4.13,4.13,0,0,0,.47.71,5.77,5.77,0,0,1,1.2,3.14,22.67,22.67,0,0,1,.14,5.2c-.13,1.19-.39,2.37-.63,3.54a19.63,19.63,0,0,0-.49,3.56,13.1,13.1,0,0,1-.52,3.36c-.26.91-.46,1.84-.76,2.74a16.26,16.26,0,0,1-.82,1.8c-.4.83-.82,1.64-1.2,2.47a7.69,7.69,0,0,1-1.79,2.42c-.53.5-1,1-1.52,1.56a9.13,9.13,0,0,1-1.88,1.58c-.51.31-1,.6-1.54.93a8.64,8.64,0,0,1-3.39,1.13c-1,.16-1.94.24-2.92.32C147,53.85,145.32,53.93,143.68,54Zm19-26.84c0-.45,0-1,0-1.58A6.6,6.6,0,0,0,161.46,22a7.14,7.14,0,0,0-3.26-2.64l-.17-.08-3.45-1.57a16.93,16.93,0,0,0-3.85-1.31c-1.58-.29-3.18-.54-4.78-.76a5.81,5.81,0,0,0-1.6,0c-.94.14-1.86.33-2.79.53-.62.13-1.23.3-1.83.48s-1.19.42-1.8.59a15.08,15.08,0,0,0-3.29,1.2c-.53.29-1,.6-1.59.85a20.13,20.13,0,0,0-4.25,2.84,17.5,17.5,0,0,0-1.42,1.39A13.1,13.1,0,0,0,126,25.67a9.91,9.91,0,0,0-1.34,3.12c-.27,1.14-.56,2.27-.84,3.41a4,4,0,0,0-.1.75c0,.66,0,1.33-.06,2a16.1,16.1,0,0,0,.14,3.11,6.11,6.11,0,0,0,.8,2.42,5.05,5.05,0,0,1,.71,2.41c0,.59,0,1.19.64,1.56.07,0,.11.15.16.23a18.6,18.6,0,0,0,2.66,3.08A11.76,11.76,0,0,0,133,50a2,2,0,0,0,.28,0c2.11.41,4.21.85,6.33,1.23a32.82,32.82,0,0,0,6.7.64c.5,0,1-.1,1.51-.14l4.54-.41a2.1,2.1,0,0,0,.65-.13,8.81,8.81,0,0,0,2.81-1.72c.8-.81,1.63-1.59,2.4-2.42a5.17,5.17,0,0,0,.72-1.11c.31-.58.55-1.21.89-1.78a11,11,0,0,0,1.09-2.82,19.88,19.88,0,0,0,.76-4.09,22.27,22.27,0,0,1,.49-3.66c.11-.52.22-1.05.31-1.58A12.82,12.82,0,0,0,162.7,27.19Z"/><path class="cls-4" d="M146.36,18.92a14.94,14.94,0,0,1,4.52.36c1.49.3,3,.64,4.43,1a6.64,6.64,0,0,1,3.48,2.33c.26.32.49.66.76,1a7.42,7.42,0,0,1,1.53,3.73,6.86,6.86,0,0,1-.2,2.54c-.19,1-.5,1.89-.74,2.84s-.49,1.84-.65,2.77a7.2,7.2,0,0,1-.81,2.21,50.22,50.22,0,0,1-3.52,5.51,25.31,25.31,0,0,1-1.92,2.59,6.15,6.15,0,0,1-1.89,1.41c-.91.43-1.81.9-2.71,1.36A4.82,4.82,0,0,1,147,49a22.33,22.33,0,0,1-3.88.2,41,41,0,0,1-7.06-.83,11.78,11.78,0,0,1-2.64-1c-.71-.36-1.41-.71-2.13-1.05a7.62,7.62,0,0,1-4-4.12,4.15,4.15,0,0,0-.65-1A8.45,8.45,0,0,1,125,37.37a8.35,8.35,0,0,1,.59-5.09,40.64,40.64,0,0,1,2.7-5.22,5,5,0,0,1,.93-1.19,5.34,5.34,0,0,0,.7-.78,17.65,17.65,0,0,1,3.48-3.2A12.19,12.19,0,0,1,139,19.62q2.58-.4,5.17-.68A20.22,20.22,0,0,1,146.36,18.92ZM128.82,40.38a10.93,10.93,0,0,0,.78,1.85,1.33,1.33,0,0,0,.7.74,2.44,2.44,0,0,1,.53.39c.44.36.85.76,1.31,1.09a5.09,5.09,0,0,0,2.69,1.06,3.77,3.77,0,0,1,1.08.33c.38.15.75.34,1.13.49a7.05,7.05,0,0,0,2.18.61c2.15.13,4.29.28,6.44.35s2.14,0,3.79-.91l.17-.08a4,4,0,0,0,1.45-1.2c1.33-1.74,2.53-3.55,3.69-5.4a10.83,10.83,0,0,0,1.54-3.95,15.52,15.52,0,0,1,.5-1.93,19.84,19.84,0,0,0,.83-4,5.12,5.12,0,0,0-.8-3.34,15,15,0,0,0-2-2.52,4.83,4.83,0,0,0-1.8-1.2,14.24,14.24,0,0,0-1.62-.53c-1.48-.34-3-.65-4.45-.95A13.41,13.41,0,0,0,144.9,21c-.85,0-1.71,0-2.56.06a26.58,26.58,0,0,0-4.05.43,5.89,5.89,0,0,0-2.79,1.32,14.89,14.89,0,0,0-3,3.44,37.82,37.82,0,0,0-3,5.79,8,8,0,0,0-.47,3.72,2.6,2.6,0,0,0,.1.46c.17.67.36,1.34.51,2a1.62,1.62,0,0,1-.61,1.92A1.46,1.46,0,0,0,128.82,40.38Z"/><path class="cls-4" d="M142.83,45.27a13.8,13.8,0,0,1-5.54-1.16c-.94-.38-1.84-.84-2.77-1.24a8.89,8.89,0,0,1-2.3-1.66,2.48,2.48,0,0,1-.67-1,3.35,3.35,0,0,0-.77-1.18,6.86,6.86,0,0,1-.79-1.06,1.85,1.85,0,0,1-.29-.69,10.87,10.87,0,0,1,0-3.68c.08-.43.22-.86.32-1.29a4,4,0,0,1,.92-1.74,53.1,53.1,0,0,1,5.49-5.23,7.2,7.2,0,0,1,2.16-1.16,2.82,2.82,0,0,0,.62-.22,6.17,6.17,0,0,1,2.53-.71c.4-.08.82-.09,1.22-.18a9.18,9.18,0,0,1,4.12.11c1.14.25,2.28.51,3.41.82a6,6,0,0,1,2.33,1.22,13.66,13.66,0,0,1,2,1.89,4.67,4.67,0,0,1,1.06,2.59,9.19,9.19,0,0,1-.11,2.93c-.14.55-.17,1.12-.28,1.68a8,8,0,0,1-.34,1.38,11.09,11.09,0,0,1-2.29,3.69,16.84,16.84,0,0,0-2,2.55,4.08,4.08,0,0,1-1.34,1.32c-.76.46-1.54.87-2.33,1.27a7.54,7.54,0,0,1-2.75.68C144,45.23,143.4,45.24,142.83,45.27Zm-9.45-7.76a1,1,0,0,1-.45.71.67.67,0,0,0-.25.92c.18.42.24.94.8,1.1.11,0,.18.17.28.25a5.77,5.77,0,0,0,2.84,1.6,3,3,0,0,1,.62.23c.33.11.65.23,1,.33.85.25,1.69.5,2.54.74a6.89,6.89,0,0,0,.84.14l1.22.17a6.72,6.72,0,0,0,3-.2,4.43,4.43,0,0,0,2.09-1.25c.88-1.08,1.74-2.17,2.55-3.3a9.38,9.38,0,0,0,1.72-3.77c.13-.68.28-1.36.39-2a8.9,8.9,0,0,0,.11-2.64,3.49,3.49,0,0,0-1-2.1c-.27-.26-.53-.54-.82-.79a7.8,7.8,0,0,0-2.34-1.6,21.38,21.38,0,0,0-2.46-.69c-.77-.18-1.55-.31-2.33-.46a2.38,2.38,0,0,0-.75-.08c-.94.14-1.87.31-2.8.47a3.36,3.36,0,0,0-1.75.89,44.52,44.52,0,0,0-3.9,3.87,4.47,4.47,0,0,0-1.15,2.25,5.45,5.45,0,0,1-.14.55A6.76,6.76,0,0,0,133.38,37.5Z"/><path class="cls-4" d="M141.79,40.88a9.58,9.58,0,0,1-4.26-1.12,7.63,7.63,0,0,1-1.71-1.19,3.74,3.74,0,0,1-1.1-1.63c-.09-.26-.26-.5-.37-.76a14.16,14.16,0,0,1-.59-1.39,2.5,2.5,0,0,1,.68-2.6,17.18,17.18,0,0,1,2.82-2.38,5.31,5.31,0,0,0,.74-.59A10.45,10.45,0,0,1,141.58,27a7.14,7.14,0,0,1,2.68-.55,6.49,6.49,0,0,1,2.89.82c.77.37,1.47.85,2.21,1.28a3,3,0,0,1,1.4,1.84,5.72,5.72,0,0,1-.22,4.08,11.27,11.27,0,0,0-.55,1.41,2.83,2.83,0,0,1-.9,1.31q-1.46,1.28-2.95,2.53a5.49,5.49,0,0,1-3.79,1.24Zm-4.61-7.36c.29,0,.33-.24.44-.38a6.75,6.75,0,0,1,3.2-2.68,5.59,5.59,0,0,1,2.69-.27,2.47,2.47,0,0,1,1.06.37,6.26,6.26,0,0,1,2,2.14,2,2,0,0,1,.07,2.15,5.75,5.75,0,0,0-.32.88,2.52,2.52,0,0,1-.39.74,5.73,5.73,0,0,1-1,.87,3.3,3.3,0,0,1-1.09.54,7.63,7.63,0,0,1-2.82.18,3.77,3.77,0,0,1-3.35-2.67c0-.15-.08-.31-.36-.34l-.63.73a3.77,3.77,0,0,0,.59,1.53,5.46,5.46,0,0,0,2.62,1.79,15.3,15.3,0,0,0,2.38.6,3.07,3.07,0,0,0,2.44-.48,6.34,6.34,0,0,0,2.64-3.35c0-.18.15-.35.21-.53a5.47,5.47,0,0,0,.28-2.7A3,3,0,0,0,146,30a1.93,1.93,0,0,1-.41-.24,10.41,10.41,0,0,0-3-1.27,1.75,1.75,0,0,0-1.76.4c-.62.53-1.31,1-1.95,1.51-.47.37-.9.79-1.36,1.17a1.27,1.27,0,0,0-.42.83A2.94,2.94,0,0,0,137.18,33.52Zm6.21,3.5a2.62,2.62,0,0,0,1-1.46,6.17,6.17,0,0,1,.27-.6,2.14,2.14,0,0,0,.14-.54,2.12,2.12,0,0,0-1-2,7.44,7.44,0,0,0-1.34-.69,1.58,1.58,0,0,0-2.32.73c-.37.58-.75,1.16-1.1,1.75a1,1,0,0,0-.16.53c.12,1.34,1.2,2.52,2.33,2.37a.61.61,0,0,1,.28,0A2.69,2.69,0,0,0,143.39,37Z"/><path class="cls-4" d="M142,35.68h-.28a1.75,1.75,0,0,1-1.87-1.61.58.58,0,0,1,.33-.7,6.86,6.86,0,0,1,2.09-.51.78.78,0,0,1,.44.14c.34.22.68.45,1,.7a.66.66,0,0,1,.2.84,1.43,1.43,0,0,1-1.61,1.14H142Zm0-.81c.2-.55-.14-.86-.45-1.14s-.44-.17-.78.13C141.41,34.08,141.49,34.71,142.09,34.87Z"/></svg>