<svg id="Layer_1" data-name="Layer 1" xmlns="http://www.w3.org/2000/svg" viewBox="0 0 216 113.33"><defs><style>.cls-1{fill:#cceaff;}.cls-2{fill:#406c84;}.cls-3{fill:#fcc949;}.cls-4{fill:#0098ff;}</style></defs><title>Artboard 12 copy 2</title><path class="cls-1" d="M15.79,71.47c1.42-.06,2.85-.11,4.26-.26a77,77,0,0,0,7.88-.81,21.34,21.34,0,0,1,2.88-.34A125.1,125.1,0,0,0,44,68.35c4.61-.83,9.29-1.33,14-1.89q4.79-.58,9.64-.91c3.1-.21,6.19-.43,9.31-.45,1.49,0,3,0,4.47-.14,6.78-.46,13.55-1,20.3-1.61,4.63-.45,9.29-.63,14-.63,3,0,6,0,8.94-.16a12.74,12.74,0,0,1,1.55,0c4.26.29,8.52.52,12.76,1a50.25,50.25,0,0,0,7.57.22,51.42,51.42,0,0,1,6.8.09c3,.25,6.06.42,9.1.62,3.36.22,6.69.59,10,1.08,4.26.63,8.52,1.25,12.8,1.79a40.17,40.17,0,0,0,14.2-.81.94.94,0,0,0,.75-.61c.21-.58-.2-1.11-.85-1.43-.48-.24-1.2-.16-1.47-.63A2,2,0,0,0,196,63a4,4,0,0,1-1.14-.18C193,62.2,191,62,189.07,61.55c-2.93-.77-5.93-1.4-8.79-2.32a35,35,0,0,0-5.54-1.34c-3.56-.53-7.09-1.14-10.71-1.43a121.93,121.93,0,0,0-16.87-.62c-4.54.26-9.07.18-13.6,0-1.36,0-2.72-.08-4.07-.19-1.93-.17-3.86-.31-5.81-.33-2.27,0-4.53-.14-6.79-.23-.91,0-1.81-.14-2.71-.18-4.41-.21-8.81-.06-13.22.1-2.59.1-5.18.17-7.75.44s-5.14.52-7.72.67-5.44.24-8.13.52c-3.21.33-6.44.59-9.61,1.06a134.58,134.58,0,0,0-13.85,2.85,77.74,77.74,0,0,1-12.52,2.59,7.81,7.81,0,0,0-.94.18,27.05,27.05,0,0,1-4.79.58,19.84,19.84,0,0,0-4,.46,7.15,7.15,0,0,1-1,.13c-3.66.37-7.31.74-11,1.09-1.49.14-2.91.48-4.35.75-.81.16-1.4.45-1.52,1.14,0,.17-.19.32-.12.51a61.41,61.41,0,0,1,8.36-1.24c4.82-.43,9.6-1.1,14.48-1.13a8.26,8.26,0,0,0,1.53-.2c1.51-.29,3-.46,4.58-.63a26.53,26.53,0,0,0,2.67-.4c3.6-.79,7.23-1.53,10.76-2.49A82.36,82.36,0,0,1,67,59.8a164.43,164.43,0,0,1,16.4-1.44,15.9,15.9,0,0,0,2.3-.25,24.5,24.5,0,0,1,2.87-.36c1.29-.08,2.58-.17,3.87-.29,5.61-.53,11.25-.51,16.88-.61,2.35,0,4.64.29,7,.42s4.39.24,6.6.25c1.36,0,2.71.14,4.07.24s2.7.28,4.06.3q6.12.09,12.25.06c2.59,0,5.17-.21,7.76-.15a78,78,0,0,1,8.53.35c.44.06.9.05,1.36.08,2.52.15,5,.37,7.51.72,2,.28,4.05.64,6.12.82a20.24,20.24,0,0,1,3.76.7c2.55.71,5.11,1.38,7.68,2a34.72,34.72,0,0,0,6,1.18c.34,0,.8,0,1,.36a9.56,9.56,0,0,1-2.68.14,87.14,87.14,0,0,1-10.18-1.15,48.06,48.06,0,0,1-4.75-.73,22.56,22.56,0,0,0-2.82-.55c-3.2-.37-6.4-.76-9.63-1-2.39-.14-4.78-.33-7.17-.48-2.13-.13-4.27-.19-6.41-.14s-4.28.07-6.41,0c-2.84-.14-5.67-.42-8.51-.65a87.42,87.42,0,0,0-12.23-.26c-1.35.08-2.72.06-4.08.06-4.87,0-9.72.23-14.56.53-4.39.27-8.75.76-13.12,1.15-4.77.42-9.54.73-14.35.78-1.87,0-3.76.16-5.62.34-3.27.32-6.53.76-9.8,1.07-3.48.33-6.88,1-10.34,1.34-.7.08-1.38.27-2.07.41-1.69.35-3.35.75-5.06,1-2.41.38-4.84.68-7.27,1-1.85.24-3.72.38-5.55.68a100.44,100.44,0,0,1-11.66,1.49c-1,0-2.07.12-3.09.21-.64.06-1.27.17-1.9.27a1.24,1.24,0,0,0-1.14,1c-.08.39.15.63.71.65C14.11,71.47,15,71.5,15.79,71.47Z"/><path class="cls-1" d="M13.7,68s0,0,0,0h0Z"/><path class="cls-1" d="M186.63,75.2c-2,0-4.05.06-6.24.09.22.11.28.16.33.16,4.28.11,8.55.19,12.83,0,.39,0,.77-.11,1.15-.11a1.46,1.46,0,0,0,1.39-.82c.52-.91.15-1.5-1.15-1.71a13,13,0,0,0-2.71,0,36.38,36.38,0,0,1-5.62-.24c-.64-.07-1.28-.15-1.93-.16-4.28-.09-8.54-.34-12.8-.64-2-.14-4-.2-6-.29-3.17-.15-6.34-.19-9.51-.44a62.94,62.94,0,0,0-7.37-.3c-4.85.18-9.71.35-14.57.45-2.92.06-5.83.22-8.73.41s-5.81.36-8.68.78a31.15,31.15,0,0,1-3.28.27c-3.37.13-6.74.1-10.11,0-2.27-.07-4.53-.1-6.8-.15L80.3,72.12,76.22,72a46.4,46.4,0,0,0-10,.62c-3.18.65-6.47,1-9.64,1.72a57.33,57.33,0,0,1-12,1.48,24.17,24.17,0,0,0-5,.53c-1.74.39-3.52.64-5.3.91a57.29,57.29,0,0,0-7.46,1.57,41.64,41.64,0,0,1-7.65,1.61,16.81,16.81,0,0,0-1.71.28,3.43,3.43,0,0,0-2.11,1.19c-.09.12-.19.3-.13.4s.43.15.66.09a12.7,12.7,0,0,1,2.1-.26,31.64,31.64,0,0,0,4.59-.6c3-.73,6-1.22,9-1.69,1.84-.28,3.68-.58,5.49-.93a29.81,29.81,0,0,1,5-.53,49.56,49.56,0,0,0,8.86-.82c3.88-.8,7.83-1.33,11.77-1.92a48.3,48.3,0,0,1,8.49-.64c3.56.09,7.12.17,10.69.25,1.1,0,2.21,0,3.3.07,7.18.36,14.38.36,21.56.55a49.29,49.29,0,0,0,8.72-.38c3.76-.58,7.59-.64,11.39-.95.77-.06,1.55-.09,2.33-.12,5.63-.2,11.26-.41,16.89-.59a62,62,0,0,1,7.38,0c2.7.24,5.41.44,8.13.52,3,.09,6,.16,8.92.47.9.09,1.81.12,2.71.17a3.28,3.28,0,0,0,1.52-.12,4.39,4.39,0,0,1,2.08-.21c1.55.1,3.1.25,4.65.27,3.3,0,6.61,0,9.91,0a3.85,3.85,0,0,1,1.69.18C190.75,75.2,188.69,75.18,186.63,75.2Z"/><path class="cls-1" d="M44.42,87.4c.26,0,.51-.08.76-.11,1.79-.22,3.57-.55,5.37-.62q5.63-.2,11.27-.15c2.59,0,5.18.11,7.78.09,5.06,0,10.11.18,15.15.44A34.28,34.28,0,0,0,89.22,87c1.55-.12,3.1-.19,4.66-.21,7.19-.09,14.39-.14,21.58-.25,2.85,0,5.7-.18,8.54-.34,2.33-.13,4.64-.36,7-.53l8.13-.58c1.55-.11,3.09-.28,4.64-.33,4.27-.15,8.55-.28,12.82-.35,1.42,0,2.84-.07,4.25,0,3.95.1,7.89.32,11.83.45,4.21.13,8.41.22,12.62.31.84,0,1.69,0,2.52,0a23,23,0,0,1,2.91,0,3,3,0,0,0,2.31-.5,2.2,2.2,0,0,1,1.08-.28c.57-.08,1.14-.18,1.7-.29.74-.15.9-.28,1-.76s-.16-.79-.82-1a2.75,2.75,0,0,0-1.13-.11,68,68,0,0,1-7.18.14l-18.07-.47c-5.63-.14-11.27-.41-16.91-.2-3.5.13-7,.14-10.48.43-4.7.39-9.41.69-14.12,1-1.29.09-2.57.24-3.87.29-7.06.26-14.11.52-21.18.54-3.24,0-6.49,0-9.72.18-2.2.11-4.4.24-6.6.13-5-.24-10-.27-15.78-.25-1.45.07-3.71.26-6,.26-4,0-8,.24-12,.3a22.73,22.73,0,0,0-3.09.26,43.74,43.74,0,0,1-6.73.65,14.14,14.14,0,0,0-1.73.17c-3.26.4-6.53.75-9.83.93-.65,0-1.3,0-1.94.11a116.25,116.25,0,0,1-11.62.63c-1.23,0-2.46,0-3.69.14-1,.08-1.61.66-1.45,1.6.1.62.93.32,1.45.39a4.66,4.66,0,0,0,.58,0c3.12,0,6.21-.28,9.31-.41C30.92,88.71,37.63,87.76,44.42,87.4Zm146.17-2.65a4.33,4.33,0,0,1-2.13.18,35.53,35.53,0,0,0-5.23,0,5.9,5.9,0,0,1-2.31-.23C182.25,84.59,189.57,84.65,190.59,84.75Z"/><path class="cls-1" d="M12.61,54.95c0,.2.24.19.41.21a43.94,43.94,0,0,0,5.63.07c2.45-.07,4.9-.24,7.35-.44a29.72,29.72,0,0,1,4.07-.12,20.3,20.3,0,0,0,4.24-.28,38.61,38.61,0,0,0,5.37-1.25,16.29,16.29,0,0,1,2-.5,54.57,54.57,0,0,0,5.54-1.35c4.73-1.32,9.44-2.68,14.19-4,2.37-.64,4.79-1.2,7.23-1.67,1.82-.35,3.65-.64,5.44-1.08a61,61,0,0,1,9.1-1.44q3.18-.28,6.35-.62c3.2-.34,6.39-.81,9.61-1,4.38-.31,8.73-.77,13.16-.73,7.32.06,14.63-.26,22,0,3.1.11,6.2.22,9.3.36,1.29.06,2.59.11,3.87.25,3.78.4,7.56.85,11.34,1.25a29,29,0,0,0,4.45.27,51.79,51.79,0,0,1,7,.11c2.77.23,5.56.23,8.33.51a118.92,118.92,0,0,0,12.41.59,33.12,33.12,0,0,0,4.61-.46,2.72,2.72,0,0,0,.55-.12c.71-.26.92-.71.66-1.35s-.46-.79-1.4-.69c-1.73.18-3.46.23-5.21.25a74.37,74.37,0,0,1-7.92-.57c-2.77-.27-5.52-.56-8.31-.56a10.21,10.21,0,0,1-4-.42,2.84,2.84,0,0,0-1-.08c-.84,0-1.69-.05-2.53,0a43.05,43.05,0,0,1-7.16-.38c-3.27-.32-6.53-.79-9.81-1-4.64-.36-9.3-.56-14-.7-3.76-.11-7.51.17-10.07.13-5.8,0-10.38.4-15,.29-1.16,0-2.32.11-3.48.19l-8.32.61c-.84.06-1.67.15-2.51.24-3.91.43-7.81.92-11.73,1.29a68.63,68.63,0,0,0-11.54,1.92c-.55.15-1.12.24-1.69.34-4.23.75-8.36,1.74-12.43,2.87-3.46,1-6.9,2-10.3,3-3.89,1.22-8,1.89-11.92,3.11a16.35,16.35,0,0,1-3.95.71c-1,.06-2.06.17-3.08.3-4.86.62-9.77.82-14.68,1.08a4.07,4.07,0,0,0-2,.52A.57.57,0,0,0,12.61,54.95Z"/><path class="cls-1" d="M196.82,47.17a3.72,3.72,0,0,0-.75.09c-.76.1-1.52.24-2.29.31a24.56,24.56,0,0,1-4.63.13,48.4,48.4,0,0,0-6-.16,23.58,23.58,0,0,1-4.63-.24c-1.64-.28-3.26-.63-4.87-1a70.23,70.23,0,0,0-7.73-1.4c-1.09-.12-2.16-.32-3.24-.46-1.72-.22-3.44-.51-5.18-.62-2.26-.15-4.53-.2-6.8-.22-6.81-.06-13.61-.07-20.42-.15-3.24,0-6.47-.2-9.71-.31l-.39,0c-2.78-.16-5.56-.31-8.35-.2a36.39,36.39,0,0,1-4.66-.11,10,10,0,0,0-1.55,0,46.32,46.32,0,0,0-6,.61c-1.06.21-2.16.33-3.24.49-3.18.46-6.37.84-9.5,1.49a71.83,71.83,0,0,1-10.3,1.44A20.63,20.63,0,0,0,72,47.4c-2.77.82-5.73,1.24-8.46,2.14a3.31,3.31,0,0,1-1.48.26,4.17,4.17,0,0,0-2,.29c-.91.24-1.8.55-2.72.76a59.15,59.15,0,0,0-5.79,1.68,30.48,30.48,0,0,1-4,1.17,79.7,79.7,0,0,0-7.89,2,22.83,22.83,0,0,1-6.58,1.16,13,13,0,0,0-1.74.12,21.28,21.28,0,0,1-4.26.21,41.66,41.66,0,0,0-5.23.28c-1.61.1-3.22.23-4.82.42a26.46,26.46,0,0,0-2.62.54,2.87,2.87,0,0,0-.52.2c-.46.2-.92,1.13-.59,1.34s.55-.24.85-.34a3,3,0,0,1,.77,0l7.37-.31c1.1,0,2.2-.17,3.29-.15A41,41,0,0,0,30.26,59c1.16-.11,2.32-.2,3.48-.25a17.2,17.2,0,0,0,4-.63q2.91-.83,5.83-1.62A19.52,19.52,0,0,1,46,55.94a57.18,57.18,0,0,0,8.5-2c.48-.14,1-.3,1.46-.4C58.8,53,61.5,52,64.3,51.24c1.09-.3,2.16-.64,3.3-.84.82-.15,1.61-.35,2.41-.54a33.29,33.29,0,0,1,6.63-1,78.69,78.69,0,0,0,10.7-1.38c1.39-.24,2.77-.49,4.17-.69,3.05-.45,6.11-.87,9.16-1.29a26.54,26.54,0,0,1,4.83-.28c2.85.12,5.7.16,8.54.25,3.69.12,7.39.17,11.07.36,6,.32,12,.28,18.07.38,3.24.05,6.48,0,9.72.06,1.62,0,3.24.11,4.84.29,2.75.29,5.49.67,8.24,1s5.46.84,8.13,1.44a33.55,33.55,0,0,0,8.22.88,66.5,66.5,0,0,1,7.75.28,26.22,26.22,0,0,0,5.8-.15,14.57,14.57,0,0,0,2.73-.74c.3-.1.54-.3.47-.57a2,2,0,0,0-.8-1.28A3.68,3.68,0,0,0,196.82,47.17Z"/><path class="cls-1" d="M198.25,22c-.1-.34-.45-.48-.85-.49a12.28,12.28,0,0,0-3.08.07,21,21,0,0,1-3.06.38c-1.29.09-2.57.19-3.86.32a24,24,0,0,1-6.56-.17,9.54,9.54,0,0,0-1.54-.08,29.74,29.74,0,0,1-6.18-.33,5.59,5.59,0,0,0-1.16,0c-3,0-6.09,0-9.13,0-1.36,0-2.73,0-4.08.13-1.81.17-3.62.17-5.43.18-4.86,0-9.71,0-14.57,0a26.6,26.6,0,0,0-4.44.25c-1.89.34-3.77.7-5.66,1-3,.5-6,.79-9,1-3.61.25-7.24.4-10.86.51-3.17.1-6.34.23-9.52.14a73.63,73.63,0,0,0-8.92.18l-1,.07a53.2,53.2,0,0,0-10.09,1.44c-1.28.35-2.6.58-3.93.81a41.05,41.05,0,0,0-4.29.92c-3.38,1-6.79,1.91-10.08,3a45.64,45.64,0,0,1-6.55,1.82,38.1,38.1,0,0,0-7.06,2c-1.5.59-3.07,1-4.65,1.47a22.1,22.1,0,0,1-3.78.64c-2.12.22-4.31.13-6.38.46-2.6.42-5.22.64-7.85.91s-5.23.66-7.84,1a4.23,4.23,0,0,0-1.44.4c-.42.22-.87.41-1.39.65a1.81,1.81,0,0,0,1.19.17c2.27,0,4.53-.08,6.78-.33s4.28-.24,6.38-.51c2.63-.35,5.28-.42,7.92-.57a46.76,46.76,0,0,0,5.17-.6,49.11,49.11,0,0,0,7.45-2.08,22.06,22.06,0,0,1,3.81-1.07A51.15,51.15,0,0,0,60.25,34c3.53-1.08,7.08-2.14,10.62-3.21,2.53-.77,5.26-1,7.84-1.67A53.91,53.91,0,0,1,85.92,28a114,114,0,0,1,13.18-.51c.91,0,1.82,0,2.72,0,3.88-.16,7.78,0,11.64-.41a7.6,7.6,0,0,1,.78,0c2.33,0,4.65-.05,7-.29a102.71,102.71,0,0,0,10.87-1.53,25.42,25.42,0,0,1,5.17-.56c1.1,0,2.19-.11,3.29-.17.78,0,1.55-.11,2.33-.11,2.46,0,4.93,0,7.39,0,1.16,0,2.33.16,3.49.15,3.89,0,7.77-.14,11.65-.2,2.78,0,5.57-.09,8.35,0,1.55,0,3.1.24,4.65.15a43.33,43.33,0,0,1,5,0,32.75,32.75,0,0,0,3.88,0c1.36-.07,2.72-.15,4.07-.17,2.26,0,4.23-.86,6.33-1.32A.87.87,0,0,0,198.25,22Z"/><path class="cls-1" d="M14.39,45.37c4-.13,8-.19,12-.47a74.86,74.86,0,0,0,12.12-2,37.19,37.19,0,0,1,5.25-1,23,23,0,0,0,2.66-.41c2.12-.45,4.29-.74,6.35-1.33s4-1.14,6-1.66c2.45-.62,4.86-1.32,7.25-2.07a64,64,0,0,1,6.68-2A96.87,96.87,0,0,1,88,32.5c.9,0,1.79-.18,2.69-.28l.79,0,2.91.15A118.91,118.91,0,0,0,110.48,32c2.65-.23,5.23-.68,7.82-1.1l6.25-1,.78-.05a27.67,27.67,0,0,0,4.67-.5,3,3,0,0,0,1.17-.13l5.42-.7a1.57,1.57,0,0,0,.83,0c1.94,0,3.87-.07,5.81.09,2.63.21,5.27.44,7.91.57s5.29.23,7.94.15a7.81,7.81,0,0,0,2.45.17l1.53,0a12.16,12.16,0,0,0,3.14-.11c1.21.06,2.41.16,3.62.17,2.55,0,5.09.18,7.64,0a1.3,1.3,0,0,0,.8,0l.74,0a4.27,4.27,0,0,0,2,0h.74a2.24,2.24,0,0,0,1.23,0,2.41,2.41,0,0,0,1.08,0,3.6,3.6,0,0,0,1.61,0,12.2,12.2,0,0,0,2.7.05,27.14,27.14,0,0,0,4.23.32,9.77,9.77,0,0,0,4.09-.7c.76-.36,1.13-.94.91-1.57a1.74,1.74,0,0,0-2-1,19.36,19.36,0,0,1-2.89-.11c-5-.3-9.93-.25-14.9-.28-1.68,0-3.35,0-5,0a10.87,10.87,0,0,0-2.32,0c-.94-.07-1.88-.16-2.82-.21a4.22,4.22,0,0,0-1.86.16,4.6,4.6,0,0,0-1.55,0,23.33,23.33,0,0,0-5.08-.21c-2.69-.23-5.4-.14-8.11-.24a1.27,1.27,0,0,0-.84,0,30.92,30.92,0,0,0-3.88-.42,1.86,1.86,0,0,0-1.18,0,3.68,3.68,0,0,0-1.52-.12h-.81a2.12,2.12,0,0,0-1.13.06,1.78,1.78,0,0,0-1.19.07l-2.31.13a3.24,3.24,0,0,0-1.57.18,26.28,26.28,0,0,0-3.89.6,5.79,5.79,0,0,0-2,.17l-.73.1a10.37,10.37,0,0,0-3.12.33,2.39,2.39,0,0,0-1.19.15,9.77,9.77,0,0,0-2.69.4l-.77.08a1,1,0,0,0-.8.19,14.15,14.15,0,0,0-2.71.39,1,1,0,0,0-.8.19,18,18,0,0,0-3.47.49,1.2,1.2,0,0,0-.81.1l-.39,0a4.91,4.91,0,0,0-2,.22,6.69,6.69,0,0,0-1.91.09l-.79,0a37.79,37.79,0,0,0-5.81.17,13.42,13.42,0,0,0-3.15,0A34.24,34.24,0,0,0,93,29.42l-2.74.19a20.78,20.78,0,0,0-4,.28,84.65,84.65,0,0,0-16.83,3.36c-2.73.88-5.52,1.67-8.29,2.47-2.11.61-4.26,1.15-6.35,1.8A49.22,49.22,0,0,1,47,39.21a43.25,43.25,0,0,0-5.62,1.11,54.69,54.69,0,0,1-8.05,1.61,49.24,49.24,0,0,1-7.68.79,4,4,0,0,0-1.13.16,17,17,0,0,1-3.23.44,42.35,42.35,0,0,1-6.2.11,3.31,3.31,0,0,0-3.27,1.43.3.3,0,0,0,.29.43C12.84,45.33,13.62,45.4,14.39,45.37ZM183.54,29.26a3.19,3.19,0,0,0-.63.06h0a3.19,3.19,0,0,1,.63-.06.37.37,0,0,1,.22.08A.37.37,0,0,0,183.54,29.26Z"/><path class="cls-1" d="M28.12,91.86c3.31,0,6.61-.17,9.9-.41s6.46-.38,9.7-.39c2.79,0,5.57.16,8.36.18,5.45,0,10.89,0,16.34,0,5.25,0,10.5,0,15.75-.16,5.76-.16,11.53-.22,17.3-.36,5.12-.13,10.24-.14,15.35-.24,6.94-.14,13.88-.33,20.94-.5a4.18,4.18,0,0,1-2.07-.4,81.89,81.89,0,0,1,8.25.08.44.44,0,0,0,.14,0c-.3-.46.24-.32.46-.33,3.76-.1,7.51-.24,11.27-.27,6.29-.05,12.58-.05,18.87,0,4.93,0,9.84-.27,14.74-.64.9-.07,1.8-.2,2.69-.32.48-.07.67-.51.34-.8a1.65,1.65,0,0,0-.59-.36,9.45,9.45,0,0,0-3.37-.55c-2,.13-4,.23-6,.24-5.83,0-11.66.29-17.5.21-4.53-.07-9.07.07-13.61.18-6.67.17-13.34.4-20,.59q-8.55.24-17.1.45c-6.29.15-12.57.26-18.86.38-2.59.05-5.19,0-7.78.14-4.86.2-9.72.21-14.58.21-5.19,0-10.37,0-15.54.36a42.22,42.22,0,0,1-5.25,0,136.68,136.68,0,0,0-15.73.31c-2.71.15-5.42.41-8.14.44-2.07,0-4.14,0-6.22.18-2.71.2-5.39.64-8.12.63a3.71,3.71,0,0,0-3,1.37c-.15.16,0,.44.27.43,1.75,0,3.49,0,5.24-.13C23.07,92.1,25.58,91.85,28.12,91.86Z"/><path class="cls-1" d="M197.07,71.19c-.09-.18-.28-.33-.35-.52-.27-.75-.94-1.07-1.93-1.23a14.54,14.54,0,0,0-2.89-.18c-2.85.08-5.7.23-8.55.24s-5.44.15-8.16-.09c-1.48-.13-3-.23-4.45-.29a59.61,59.61,0,0,1-7.86-.9c-3.79-.66-7.6-1.21-11.46-1.6-5.79-.58-11.6-.91-17.44-1-5.26,0-10.49.2-15.73.45-2.07.1-4.14.25-6.18.49s-4.11.43-6.17.53c-4.08.2-8.17.18-12.25,0-2.21-.1-4.4,0-6.6.08-4.85.19-9.7.49-14.57.25a21.29,21.29,0,0,0-4.45.19c-2,.32-4,.54-5.92.83A26.27,26.27,0,0,0,55.66,70a5.71,5.71,0,0,1-1.5.28,29.13,29.13,0,0,1-7.33.33,11,11,0,0,0-1.11,0c-1.17-.07-2.64.19-4.12.26C37.78,71,34,71.61,30.24,72c-1.86.18-3.66.65-5.52.82-3,.28-5.92,1.05-8.9,1.51a2.73,2.73,0,0,0-2.5,1.95c-.27.91.19,1.35,1.36,1.31a9.11,9.11,0,0,0,1-.05,38.16,38.16,0,0,0,4-.6,56.8,56.8,0,0,1,6.83-1.09,6,6,0,0,0,1.63-.44,13.67,13.67,0,0,1,6.56-.9,10.06,10.06,0,0,0,4-.36A14.1,14.1,0,0,1,42,73.55c1.35-.11,2.71-.21,4.06-.34,2.76-.26,5.56-.33,8.28-.83A28.8,28.8,0,0,0,60.29,71,7.27,7.27,0,0,1,62,70.64c1.27-.2,2.54-.4,3.82-.52a58.59,58.59,0,0,1,7.73-.49,171.5,171.5,0,0,0,18.84-.37c.9-.07,1.81-.08,2.72-.08l9.34,0a45,45,0,0,0,4.65-.24c1.54-.16,3.09-.28,4.64-.37,4-.24,8-.41,12-.7a105.08,105.08,0,0,1,11.45-.28c2.65.1,5.32,0,8,.23,2.83.25,5.67.46,8.49.76s5.65.58,8.42,1.12A110,110,0,0,0,179,71.46c4,.15,8,.12,12.06,0a11,11,0,0,1,3.26.23,6.78,6.78,0,0,0,2.5,0C197.1,71.6,197.18,71.39,197.07,71.19Z"/><path class="cls-1" d="M20.38,64.16a9.82,9.82,0,0,0,1.72-.22,23,23,0,0,1,2.49-.31c2.38-.22,4.78-.35,7.12-.73,5.51-.89,10.93-2,16.29-3.34,1.85-.45,3.68-.92,5.51-1.41,3.85-1,7.55-2.32,11.49-3.14,1.25-.26,2.5-.53,3.71-.87,1.4-.39,2.81-.74,4.26-1,5.21-1,10.4-2,15.73-2.62,3.27-.37,6.53-.76,9.83-.85a105.82,105.82,0,0,1,11.64.37c1.22.1,2.45.18,3.68.24,2.78.12,5.57.16,8.35.33,4.46.28,8.93.32,13.4.33,1.62,0,3.24,0,4.85.08q8.92.46,17.83,1c3.68.22,7.37.31,11.05.6a70.88,70.88,0,0,1,10.47,1.51c4.45,1,9,1.82,13.44,2.84.68.16,1.39.23,2.08.37.88.17,1.75.36,2.61.57.54.13,1.13.49,1.6.11s0-.72-.16-1.09a1.58,1.58,0,0,0-1.06-1,11.38,11.38,0,0,0-2.51-.74,22.31,22.31,0,0,1-2.78-.63,134.59,134.59,0,0,0-13.45-2.83,129.32,129.32,0,0,0-14.24-1.43l-19.2-1a4.74,4.74,0,0,1-1.15-.12,19.68,19.68,0,0,0-6.09-.64c-2.27,0-4.54,0-6.8,0-4.14-.1-8.29-.23-12.43-.41-3.17-.14-6.35-.19-9.5-.53a72.38,72.38,0,0,0-17.8.4c-4.32.6-8.68,1.09-12.92,2-3,.65-6,1.14-9,1.78-2.24.48-4.42,1.1-6.64,1.63-2,.47-3.92,1-5.85,1.57-2.84.83-5.65,1.72-8.55,2.39-4.33,1-8.6,2.14-13,2.93-2,.35-3.88.81-5.85,1-4.73.57-9.5,1-14.29,1.12a12.11,12.11,0,0,0-2.26.38c-.49.1-.75.34-.78.73a5.44,5.44,0,0,1-.14.71A70.54,70.54,0,0,0,20.38,64.16Z"/><path class="cls-1" d="M185.33,34.93a93.53,93.53,0,0,1-9.82-.83c-.5-.08-1-.08-1.54-.12a2.91,2.91,0,0,0-1.56-.29,2.31,2.31,0,0,0-1.13-.35,3,3,0,0,0-1.59-.22,4.82,4.82,0,0,0-2-.18l-6-.45a5,5,0,0,0-.58,0,7.94,7.94,0,0,0-2.35-.15,40,40,0,0,0-4.65-.12,4.25,4.25,0,0,0-2-.15c-1.82-.13-3.64-.26-5.45-.38a10.78,10.78,0,0,0-1.13,0,5.92,5.92,0,0,0-2,0,14.46,14.46,0,0,0-3.48.25,4.57,4.57,0,0,0-2,.16c-.44,0-.89,0-1.33,0-2.56.1-5.05.53-7.58.79a1.12,1.12,0,0,0-.8.13,7.47,7.47,0,0,0-2.31.22,1,1,0,0,0-.79.1,5.1,5.1,0,0,0-1.55.1,1.33,1.33,0,0,0-.81.1,11,11,0,0,0-3.09.14,3.16,3.16,0,0,0-1.57.22,59.71,59.71,0,0,0-6.2.27c-3.61.21-7.23.31-10.85.61-5.34.44-10.71.73-16,1.21-1.93.17-3.87.35-5.75.68-3.21.57-6.46,1-9.59,1.84-.37.1-.75.17-1.12.23a119.26,119.26,0,0,0-11.94,3.05,7.38,7.38,0,0,0-1.22.45,41,41,0,0,1-5.63,2,52.42,52.42,0,0,1-6,1.58c-2.26.41-4.57.67-6.81,1.16a20,20,0,0,1-5.12.7,7.48,7.48,0,0,0-.77.08,10.42,10.42,0,0,1-1.54.07,37.77,37.77,0,0,0-9.62.68,24.6,24.6,0,0,1-4,.56c-.9,0-1.49.54-2.3.72a1,1,0,0,0-.87.77c.3,0,.55,0,.79,0l4.82-.46a61.48,61.48,0,0,1,7.15-.51A81.59,81.59,0,0,0,36.89,49a55.75,55.75,0,0,0,7.6-1.16,72.91,72.91,0,0,0,10.58-3.26,11.46,11.46,0,0,1,1.77-.6C60.23,43.15,63.48,42,67,41.4c2.89-.52,5.68-1.34,8.63-1.71,2.43-.31,4.84-.65,7.29-.86,3.48-.29,6.94-.64,10.42-.92,2.32-.19,4.66-.23,7-.46,2.06-.21,4.12-.27,6.2-.28s3.89-.11,5.82-.22c2.19-.12,4.38-.34,6.58-.43,3-.13,6.08-.35,9.08-.72,3.84-.48,7.72-.67,11.58-.94.77-.05,1.55-.05,2.33-.06,4.8-.07,9.58.35,14.36.52,3.11.11,6.19.46,9.31.45a34.16,34.16,0,0,1,6.15.6,8,8,0,0,0,1.91.23,2.46,2.46,0,0,0,1.46.23,10.3,10.3,0,0,0,2.81.09,58.75,58.75,0,0,0,6.31.75,54.94,54.94,0,0,0,6.58.3,65.09,65.09,0,0,0,6.54-.63c2-.31,2.26-.61,1.92-2.08a1.4,1.4,0,0,0-1.52-.87c-.38,0-.76.14-1.14.17A80.61,80.61,0,0,1,185.33,34.93Z"/><path class="cls-1" d="M18,36.48a3.72,3.72,0,0,0,.72-.18,4.78,4.78,0,0,0,1.57-.11,3.74,3.74,0,0,0,1.53-.11,22.66,22.66,0,0,1,7.41-.86,60.45,60.45,0,0,0,10.84-.35,21.28,21.28,0,0,0,7.84-2.34A2.24,2.24,0,0,0,49.18,32c.42-.13.86-.23,1.25-.39,2.9-1.18,5.9-2.22,8.91-3.25a17.74,17.74,0,0,0,3-1.1,2,2,0,0,0,1.09-.43c2.4-.7,4.88-1.24,7.26-2a40.84,40.84,0,0,1,8.65-1.53c2.76-.24,5.54-.35,8.31-.52.38,0,.76-.1,1.15-.14a2.49,2.49,0,0,0,1.18,0l5.89-.34a5.26,5.26,0,0,0,.73-.15l.19,0,.18-.05a9.2,9.2,0,0,0,2.3,0,19.13,19.13,0,0,1,3.26-.08,81.46,81.46,0,0,0,9.6-.29,2.94,2.94,0,0,0,1.57-.2,9.43,9.43,0,0,0,2.11-.19,81.88,81.88,0,0,1,9.13-1.37c1.55-.1,3.08-.3,4.62-.42,2.64-.2,5.28-.48,7.93-.53,6-.11,11.91-.11,17.87-.14,4.73,0,9.45,0,14.18,0a11,11,0,0,0,2.5-.18,6,6,0,0,0,2-.05,46.6,46.6,0,0,0,9.69-.28,4.69,4.69,0,0,0,.57,0c3.87-.13,7.73-.25,11.6-.4,1.09,0,2.18-.18,3.26-.31A.91.91,0,0,0,200,17a1,1,0,0,0-.52-1.17,3.56,3.56,0,0,0-2.13-.52c-3.74.05-7.48.14-11.21.35-2.12.12-4.25.18-6.34.5l-.74,0a4.64,4.64,0,0,1-.55.55,4.64,4.64,0,0,0,.55-.55,8.35,8.35,0,0,0-2.76-.15A20.73,20.73,0,0,0,172,16a1.39,1.39,0,0,0-.81.06l-.74.05a21.85,21.85,0,0,0-4.3.08,19.22,19.22,0,0,0-4.75-.23,21.39,21.39,0,0,1-2.29.11l-3.45.06a5.8,5.8,0,0,0-2.37,0,3.85,3.85,0,0,0-1.54,0,2.3,2.3,0,0,0-1.17,0c-3,0-6-.08-8.93.17a14.63,14.63,0,0,0-3.54-.05,2.37,2.37,0,0,0-1.12.1,4,4,0,0,0-1.59.11,8.28,8.28,0,0,0-2.75.2c-3,.1-6,.47-9,.79a1.44,1.44,0,0,0-.34.13l-.76.06a21.26,21.26,0,0,0-4.51.68,35.18,35.18,0,0,1-6.45.77c-1.28,0-2.55.18-3.83.27l-3.5,0a2.67,2.67,0,0,0-1.57,0,20.44,20.44,0,0,0-3.48.07,5.83,5.83,0,0,0-2.34.25,13.73,13.73,0,0,0-2.71.12,1,1,0,0,0-.82.12l-2.29.16a17.16,17.16,0,0,0-4.29.2l-.77.05a1,1,0,0,0-.78.15c-1.34,0-2.68.09-4,.06a12.26,12.26,0,0,0-3.76.41,1,1,0,0,0-.81.17,30.12,30.12,0,0,0-5,1.27,1.12,1.12,0,0,0-.78.22,8.59,8.59,0,0,0-2.41.51c-3,1.06-6,2.11-8.91,3.21a47.13,47.13,0,0,0-4.65,1.78,2.78,2.78,0,0,0-1.56.58,11.07,11.07,0,0,0-3.09,1.2,4.54,4.54,0,0,0-2,.84,1.2,1.2,0,0,0-.75.33,2.23,2.23,0,0,0-1.22.54,1.1,1.1,0,0,0-.74.31,2.45,2.45,0,0,0-1.16.31,4.67,4.67,0,0,0-1.56.34,2.21,2.21,0,0,0-1.2.17.49.49,0,0,0-.37,0,56.67,56.67,0,0,0-5.83.59l-2.33.09c-1.39,0-2.78,0-4.17,0a4.19,4.19,0,0,0-.89.21A9.38,9.38,0,0,0,25,34a1.29,1.29,0,0,0-.78.25,11.51,11.51,0,0,0-3.11.31c-1-.05-1.8.38-2.75.39a21.25,21.25,0,0,0-3.48.17,1.87,1.87,0,0,0-1.58.56c-.45,0-.9.07-1,.58A31.86,31.86,0,0,0,18,36.48Z"/><path class="cls-1" d="M199.91,92.44c.08-.38-.06-.77-.62-.73-1,.06-2.05-.12-3.1,0-2,.22-4,.4-6,.5-3.94.21-7.88.49-11.82.72-7.62.45-15.26.71-22.9.88-2.4.05-4.79.05-7.19,0-1.75,0-3.5-.14-5.24-.11q-4.76.07-9.52.28c-1.43.06-2.85.07-4.27,0-2.4-.07-4.79-.15-7.19-.19s-4.8,0-7.19-.08c-3.49-.15-7-.4-10.46-.62-1.87-.11-3.74-.22-5.63-.21-1.68,0-3.38,0-5-.1-5.36-.47-10.73-.44-16.11-.44a10.8,10.8,0,0,0-1.16,0,60.25,60.25,0,0,1-7.18.14c-.65,0-1.29,0-1.94,0-3,.06-5.95.26-8.93.29-3.69,0-7.39,0-11.07.36-1.09.11-2.18.23-3.28.32-2.65.21-5.3.24-8,.27-2.46,0-4.93,0-7.38.16-1.55.08-3.1.19-4.65.15a11.33,11.33,0,0,0-2.52.09,12.85,12.85,0,0,1-2.5.27,5.16,5.16,0,0,0-2.63.83.41.41,0,0,0,0,.75,3.78,3.78,0,0,0,2.23.31c3.8-.32,7.64-.1,11.45-.42,1.67-.14,3.37,0,5.05,0,3.18,0,6.36-.06,9.5-.38,2.51-.25,5-.36,7.55-.47,4.14-.17,8.3.09,12.42-.36a7.43,7.43,0,0,1,.78,0c3,0,6.1.09,9.13-.05,2.27-.11,4.53-.07,6.79,0,2.07,0,4.15,0,6.22.09,1.29,0,2.59.08,3.87.2,2.19.19,4.37.38,6.58.41,1.81,0,3.62.11,5.43.21,3.1.17,6.2.43,9.3.56,5.56.22,11.13.36,16.69.52,1,0,2.07,0,3.11,0,4.85-.13,9.7-.37,14.56-.35,1.62,0,3.24.08,4.86.11,7,.1,14-.33,21-.64,3.1-.14,6.2-.35,9.3-.55,2.07-.13,4.13-.32,6.19-.42a90.22,90.22,0,0,0,10-1,8.71,8.71,0,0,0,1.13-.07C200.56,93.51,200.63,93.17,199.91,92.44Z"/><path class="cls-1" d="M103.53,80.39l3.91-.24a15.06,15.06,0,0,0,2.71,0,4.51,4.51,0,0,0,2,.08,1.18,1.18,0,0,0,.74,0,4.57,4.57,0,0,0,.57.08c4.76.11,9.53.23,14.29.3a11.65,11.65,0,0,0,3.44-.23,2.74,2.74,0,0,0,1.16,0c.58,0,1.16,0,1.74,0,1.23-.07,2.45-.19,3.67-.24,6.66-.26,13.33-.27,20-.32,3.82,0,7.63,0,11.44-.28A93.51,93.51,0,0,1,182,79.4c4.22.25,8.41,0,12.61-.16a4.72,4.72,0,0,0,2.55-.85,1.2,1.2,0,0,0,.6-1.44c-.18-.52-.8-.73-1.49-.78-.38,0-.77,0-1.16,0-3.95,0-7.89.23-11.84,0a14.57,14.57,0,0,0-1.54.07l-1.15,0a3.26,3.26,0,0,0-1.34,0,58.41,58.41,0,0,0-8.33.21,1.11,1.11,0,0,0-.8,0c-3.26,0-6.53,0-9.79.06a40.1,40.1,0,0,0-5,.15,1.43,1.43,0,0,0-.82,0,2.11,2.11,0,0,0-1.13,0,5.18,5.18,0,0,0-2.37.05,34.22,34.22,0,0,0-4.07,0c-3.76,0-7.51.1-11.24.44a72.4,72.4,0,0,1-8.14.26c-6-.13-12,0-18.06-.34a18.06,18.06,0,0,0-5.54.56,1.74,1.74,0,0,0-1.18.25c-.95.13-1.89.27-2.84.38a68.51,68.51,0,0,1-9.62.1,5.22,5.22,0,0,0-1.52.06,1.28,1.28,0,0,0-.81.05c-1,0-1.94-.06-2.91-.06-1.42,0-2.85.07-4.27,0a182.21,182.21,0,0,0-22.48,1c-2.51.22-5,.41-7.54.47A109.27,109.27,0,0,0,37.06,81c-4,.6-8,1.25-12,1.68-1,.11-2,.26-3,.43-1.26.21-2.49.52-3.75.69a13.32,13.32,0,0,0-2.93.71,2,2,0,0,0-1.44,1.14c.79,0,1.57,0,2.34,0,4.84-.36,9.66-.8,14.41-1.58a117.15,117.15,0,0,1,17.71-1.61c1.68,0,3.36-.16,5-.25a2.6,2.6,0,0,0,1.18,0l1.15,0A3.36,3.36,0,0,0,57.25,82a24.52,24.52,0,0,0,3.87-.12l.81,0,.74-.08a1.86,1.86,0,0,0,1.19-.1,30.47,30.47,0,0,0,3.88-.11,1.39,1.39,0,0,0,.82-.1l5.8-.12a2.5,2.5,0,0,0,1.18,0,10.39,10.39,0,0,0,2.32,0,1.89,1.89,0,0,0,1.19,0,16.3,16.3,0,0,0,3.85.05,16.59,16.59,0,0,0,3.27.09c2-.06,4-.07,6,0a13,13,0,0,0,4-.14,9.14,9.14,0,0,0,2.28-.18,23.27,23.27,0,0,0,4.29-.79l.77-.07a2.5,2.5,0,0,1,.79-.49A2.5,2.5,0,0,0,103.53,80.39Zm63.91-2.66a.34.34,0,0,1-.28.2.34.34,0,0,0,.28-.2,1.84,1.84,0,0,0-.16-.16A1.87,1.87,0,0,1,167.43,77.72Zm-61.79,2a4,4,0,0,0-.9.08A4,4,0,0,1,105.64,79.69Z"/><path class="cls-2" d="M53.67,77.79v-.27a.25.25,0,0,0,0-.26c0-.15,0-.31-.07-.46a15.07,15.07,0,0,0-1.93-4.41,2.44,2.44,0,0,0-.53-1,1,1,0,0,0-.06-.19A13.29,13.29,0,0,0,46,66.16a25.89,25.89,0,0,0-4.27-1.85,33,33,0,0,0-5.32-1.24,15.83,15.83,0,0,0-3.5-.21,22.76,22.76,0,0,0-2.81.32,15.6,15.6,0,0,0-4.24,1.31A8.37,8.37,0,0,0,23.46,66a15.91,15.91,0,0,0-4.2,7.13,15,15,0,0,0-.55,4.6c.07,1.39.16,2.78.35,4.17a19.64,19.64,0,0,0,.89,3.8c.14.4.3.8.44,1.21a22.24,22.24,0,0,0,1.56,3.51,9.48,9.48,0,0,0,1.18,1.72,1,1,0,0,0,.4.51c.11.14.21.29.33.42a13.2,13.2,0,0,0,1.47,1.38,10.45,10.45,0,0,0,1.82,1.27c.73.39,1.49.74,2.24,1.08a9.09,9.09,0,0,0,2.77.8,26.41,26.41,0,0,0,3.43.17,28.53,28.53,0,0,0,4.62-.45A17.6,17.6,0,0,0,45,95.67,12.92,12.92,0,0,0,49.2,92.3a13.85,13.85,0,0,0,2.49-4.14,5.07,5.07,0,0,1,.2-.5,23,23,0,0,0,.94-2.45,6.82,6.82,0,0,0,.42-2.44,13.49,13.49,0,0,1,.44-3.66A2.23,2.23,0,0,0,53.67,77.79ZM46.2,74.3a.69.69,0,0,0,.44.24,1.37,1.37,0,0,0,.51.29c.1.19.3.25.47.35s.43.24.63.37a23.38,23.38,0,0,1,2.43,1.84,1.59,1.59,0,0,0,.26.54,2.16,2.16,0,0,0,.13.59.46.46,0,0,1,0,.39.48.48,0,0,1-.36-.15,10.09,10.09,0,0,0-2-1.29,4.61,4.61,0,0,1-.73-.48l-1.65-1.17a4.27,4.27,0,0,0-2.13-.75c-1-.09-2.05-.22-3.08-.33-.33,0-.67,0-1,0-.15,0-.32,0-.42-.15.21-.07.43-.13.63-.21a8.9,8.9,0,0,1,2.13-.53,8.51,8.51,0,0,1,2.53.13A8,8,0,0,1,46.2,74.3ZM24.74,89.74a.89.89,0,0,1-.25.08,15.77,15.77,0,0,1-2-3.53c-.4-1-.77-2.06-1.09-3.12A12.6,12.6,0,0,1,21,80.78c-.06-.63-.14-1.25-.26-1.87a4.23,4.23,0,0,1,0-1.48,11.34,11.34,0,0,0,.08-1.21,18.64,18.64,0,0,1,.35-3.15,11.29,11.29,0,0,1,2.73-5.27,6.4,6.4,0,0,1,1.81-1.39,15.77,15.77,0,0,1,5.81-1.62,16.18,16.18,0,0,1,3.7,0c.73.1,1.46.25,2.2.35a16.27,16.27,0,0,1,4.32,1.27l1.56.65a8.45,8.45,0,0,1,2,1.26.15.15,0,0,1,.07.17c0,.08-.1.08-.16.08-.4,0-.81,0-1.21,0a9.7,9.7,0,0,0-5,1.62,14.89,14.89,0,0,0-3.5,3.34A10.19,10.19,0,0,0,34.1,76c-.39,1-.73,1.94-1.14,2.89A35.59,35.59,0,0,1,30.32,84a2.89,2.89,0,0,0-.17.36.6.6,0,0,0-.27.41,1.06,1.06,0,0,0-.4.54,1.08,1.08,0,0,0-.41.54c-.33.36-.66.72-1,1.09A16.8,16.8,0,0,1,24.74,89.74Zm26.18-4.65a33.67,33.67,0,0,1-1.77,4.15,11.3,11.3,0,0,1-1,1.53A4.91,4.91,0,0,1,46.77,92a20.91,20.91,0,0,1-4.7,2.18,19.35,19.35,0,0,1-3,.6,26.08,26.08,0,0,1-3.36.23,18.7,18.7,0,0,1-3.23-.22A9,9,0,0,1,30.14,94c-.61-.28-1.22-.58-1.82-.89A7.55,7.55,0,0,1,26.54,92a3.86,3.86,0,0,0-.32-.25,1.93,1.93,0,0,1,.86-.82,5.61,5.61,0,0,0,1-.85A36.17,36.17,0,0,0,31,86.84a41.48,41.48,0,0,0,3.2-4.67c.29-.51.52-1,.76-1.58.35-.78.74-1.54,1.11-2.31.11-.22.23-.44.33-.66a2,2,0,0,1,.63-.77,2.36,2.36,0,0,0,.75-.29c.27-.12.53-.26.8-.35a3,3,0,0,1,1.32-.2l3.76.29a3.1,3.1,0,0,1,1.27.4,12.5,12.5,0,0,1,1.95,1.2,1.91,1.91,0,0,0,.52.31,13.62,13.62,0,0,1,1.72.91c.76.43,1.49.91,2.21,1.4a.14.14,0,0,0,0,.1c0,.54,0,1.08,0,1.62A7,7,0,0,1,50.93,85.08Z"/><path class="cls-3" d="M112.52,84.76a4.38,4.38,0,0,0,0-1.32.54.54,0,0,0-.09-.4,3.09,3.09,0,0,0-.47-1.23c-.24-.47-.5-.94-.75-1.41s-.38-.7-.59-1a45.15,45.15,0,0,0-2.78-4.06,15.39,15.39,0,0,0-2.46-2.78.65.65,0,0,0-.32-.33h0a1,1,0,0,0-.47-.44,5.81,5.81,0,0,0-1.18-1,3.24,3.24,0,0,0-.91-.68h0a8.25,8.25,0,0,0-1.77-1.14.37.37,0,0,0-.26-.15,1.29,1.29,0,0,0-.2-.17,42.25,42.25,0,0,0-4.84-2.37,25.54,25.54,0,0,0-4.78-1.41,28.48,28.48,0,0,0-5.16-.53,25.38,25.38,0,0,0-5,.38,20.73,20.73,0,0,0-3,.66,29.17,29.17,0,0,0-3.73,1.58,17.79,17.79,0,0,0-4,2.67A16.19,16.19,0,0,0,66.77,73c-.42.68-.8,1.38-1.16,2.09a23.85,23.85,0,0,0-2.25,5.81q-.25,1.14-.46,2.28a16.85,16.85,0,0,0-.26,2.58,16.58,16.58,0,0,0,.53,4.48,6.29,6.29,0,0,0,.43,1.19,35.1,35.1,0,0,0,4,6.53,15.08,15.08,0,0,0,3.34,3.32,34.13,34.13,0,0,0,3,1.9,27.21,27.21,0,0,0,5.6,2.42,15.57,15.57,0,0,0,2.8.54,24.49,24.49,0,0,0,4,.11c1.08-.08,2.16-.21,3.25-.29a33.9,33.9,0,0,0,5.59-.82,18.2,18.2,0,0,0,5-1.89c.92-.54,1.8-1.13,2.67-1.75a19.3,19.3,0,0,0,3.29-3.09,13.28,13.28,0,0,0,1-1.28c.49-.72,1-1.4,1.56-2.07a22.17,22.17,0,0,0,2.18-3.18,1.47,1.47,0,0,0,.24-.61,2.66,2.66,0,0,1,.3-1,11.34,11.34,0,0,0,.86-2.93c.09-.61.13-1.23.26-1.84A1.73,1.73,0,0,0,112.52,84.76Zm-5.46,9.7c-.17.26-.36.51-.54.76s-.49.69-.75,1a21.77,21.77,0,0,1-4.41,4.49,17.31,17.31,0,0,1-6,2.72,41.65,41.65,0,0,1-4.34.61c-.79.1-1.59.17-2.38.23-.62,0-1.24.06-1.86.09a19,19,0,0,1-4-.4,21.3,21.3,0,0,1-4.33-1.51,36.1,36.1,0,0,1-3.29-1.75c-.66-.4-1.31-.84-1.95-1.28A14.12,14.12,0,0,1,70,96.26a33.33,33.33,0,0,1-3.77-6,10.14,10.14,0,0,1-.72-2.14,15.57,15.57,0,0,1-.23-5.62A22.79,22.79,0,0,1,67,76.15a27.45,27.45,0,0,1,2.07-3.79,1.81,1.81,0,0,1,.66-.73.83.83,0,0,0,.23-.23,10.47,10.47,0,0,1,3.32-2.62,32.48,32.48,0,0,1,3.34-1.5c.21-.08.42-.14.63-.2a.36.36,0,0,1,.37.06,4.89,4.89,0,0,0,1.07.66A6,6,0,0,1,80.21,69a15.51,15.51,0,0,1,1.4,1.77,27.75,27.75,0,0,0,3.12,3.72c1,1.06,2.11,2.1,3.21,3.09.68.61,1.34,1.22,2,1.85,1.09,1,2,2.24,3,3.37a11.46,11.46,0,0,1,.77,1,13.51,13.51,0,0,0,2.35,2.52c1.45,1.24,2.89,2.49,4.33,3.75a16.89,16.89,0,0,0,3.21,2.13c.84.45,1.7.87,2.54,1.32a9.81,9.81,0,0,1,.85.52A.26.26,0,0,1,107.06,94.47Zm1.64-3c-.33.68-.25.8-1,.35a30.91,30.91,0,0,1-3.39-2.1c-1.12-.9-2.23-1.83-3.29-2.8q-1.25-1.14-2.49-2.3A11.15,11.15,0,0,1,97,82.81a39.69,39.69,0,0,0-4.42-5.21c-.92-.93-1.91-1.78-2.86-2.68s-1.8-1.7-2.64-2.62-1.64-1.75-2.36-2.7a27.73,27.73,0,0,0-2.65-3.15l-.08-.1a.13.13,0,0,1,.08-.2c.4,0,.79-.1,1.19-.13a20,20,0,0,1,3.06.06c.31,0,.62,0,.93,0a.1.1,0,0,0,.09,0,9.88,9.88,0,0,1,1.35,2.43,41.71,41.71,0,0,0,1.95,3.93c.37.66.7,1.34,1,2a3.46,3.46,0,0,0,.94,1.19,6.25,6.25,0,0,0,2.13,1.19,4.29,4.29,0,0,1,1.25.6,17.43,17.43,0,0,1,3.08,2.62,15.68,15.68,0,0,0,1.19,1.16,5,5,0,0,1,1.07,1.43c.2.4.41.79.6,1.19a5.22,5.22,0,0,0,1.39,1.76c.55.48,1.13.93,1.71,1.37s1.16,1,1.72,1.46a3.27,3.27,0,0,0,.93.63,3.21,3.21,0,0,1,1.2.82,1.36,1.36,0,0,0,.21.16v.41A5.3,5.3,0,0,0,108.7,91.48Zm.93-4.12c0,.21-.13.28-.32.21a2.56,2.56,0,0,1-1-.57,22.4,22.4,0,0,0-2.71-2.15c-.48-.36-1-.73-1.42-1.1a2.89,2.89,0,0,1-.78-1c-.19-.38-.38-.75-.56-1.13a5.57,5.57,0,0,0-1.4-1.84c-.56-.48-1.05-1-1.56-1.55a16,16,0,0,0-3.16-2.53A6.68,6.68,0,0,0,95.24,75a4.62,4.62,0,0,1-1.44-.81,3.61,3.61,0,0,1-1.14-1.45c-.29-.7-.68-1.35-1-2-.62-1.15-1.22-2.32-1.82-3.48a1.82,1.82,0,0,1-.26-.67c.12-.12.25-.08.38-.05a28.61,28.61,0,0,1,4.37,1.4,32.85,32.85,0,0,1,5.25,2.72c.52.33,1,.68,1.55,1a.37.37,0,0,0,.23.17,1.69,1.69,0,0,0,.22.24,14,14,0,0,1,1.8,1.63c.3.31.62.61.94.92a15.52,15.52,0,0,0,1.33,1.6l.11.14a3.28,3.28,0,0,0,.6.85l0,0a1.68,1.68,0,0,0,.45.6,5.29,5.29,0,0,0,.87,1.24l0,0,1.42,2.17a.34.34,0,0,0,.13.27.56.56,0,0,0,.24.44l0,.24c-.19.21,0,.42,0,.63a5.3,5.3,0,0,1,.27,2.09A13.07,13.07,0,0,1,109.63,87.35Z"/><path class="cls-2" d="M133.4,32.17c-.22-1.14-.42-2.29-.64-3.44a8.5,8.5,0,0,0-.63-2,11.44,11.44,0,0,0-2.25-3.21,3.84,3.84,0,0,0-.89-.84.08.08,0,0,0-.08-.05,12,12,0,0,0-1.21-1.15,21.59,21.59,0,0,0-4-2.26l-1.83-1a.8.8,0,0,0-.27-.1,6.36,6.36,0,0,1-1-.3c-.14-.09-.28-.19-.43-.26A19.42,19.42,0,0,0,115,16l-.42-.07a2,2,0,0,0-.34-.11,22.16,22.16,0,0,0-3.11-.3c-1.46,0-2.91,0-4.37.12a39.45,39.45,0,0,0-5.27.7,40.94,40.94,0,0,0-6.69,2,23.34,23.34,0,0,0-6.85,4.07,20.51,20.51,0,0,0-1.52,1.46,21.5,21.5,0,0,0-2.61,3.59,21.27,21.27,0,0,0-1.86,3.46c-.32.84-.59,1.69-.89,2.54l-.28,1.15c-.15.81-.17,1.64-.26,2.46a24,24,0,0,0,.12,5.31c.15,1.28.39,2.54.6,3.81a2.36,2.36,0,0,0,.11.5,17.78,17.78,0,0,1,.58,2.18,20,20,0,0,0,.73,2.29A15.33,15.33,0,0,0,84,54a17.15,17.15,0,0,0,4.52,4.59c.28.2.58.35.86.54a22.07,22.07,0,0,0,3.75,2.09,47.85,47.85,0,0,0,4.62,1.57c1.27.41,2.58.67,3.88,1a35.63,35.63,0,0,0,5.56,1.12,14.26,14.26,0,0,0,4.06-.1A18.68,18.68,0,0,0,116,63.08a2.7,2.7,0,0,0,.69-.41,7.26,7.26,0,0,1,1.26-.86c.7-.44,1.39-.89,2-1.39s1.46-1.12,2.21-1.67a22,22,0,0,0,3.29-3c.8-.88,1.52-1.83,2.24-2.78a21.07,21.07,0,0,0,1.57-2.36c.74-1.31,1.43-2.65,2.14-4a2.81,2.81,0,0,0,.2-.47c.27-.83.54-1.66.79-2.5a26,26,0,0,0,1.12-7.54c0-.8,0-1.6,0-2.4A8.24,8.24,0,0,0,133.4,32.17Zm-30,29.26c-.62-.12-1.25-.22-1.85-.38-2-.53-4-1.13-5.9-1.85a22.41,22.41,0,0,1-6.22-3.58,18.31,18.31,0,0,1-2.92-3,11.24,11.24,0,0,1-1.52-2.65,24.79,24.79,0,0,1-1.62-5.88c-.18-1.18-.41-2.34-.52-3.53a20.61,20.61,0,0,1-.09-3.78c.08-.83.11-.88.9-.46a11.23,11.23,0,0,1,1.39.93,7.49,7.49,0,0,0,1.37.83,6,6,0,0,1,1.37.82A1.13,1.13,0,0,0,88,39a2.39,2.39,0,0,0,.68.64,38,38,0,0,1,3,2.72c.48.44.88,1,1.4,1.36l.06,0-.06,0h0a7.35,7.35,0,0,0,1.09,1.22,1.2,1.2,0,0,0,.41.47A11,11,0,0,0,95.89,47a.53.53,0,0,0,.27.31.6.6,0,0,0,.32.41c.34.47.7.93,1,1.4a45,45,0,0,1,3,4.71,9.1,9.1,0,0,0,.48.81A12.63,12.63,0,0,1,102.67,58a1.63,1.63,0,0,0,.13.26.4.4,0,0,0,.12.28c.07.5.33.94.45,1.43s.18.8.25,1.21C103.65,61.36,103.55,61.46,103.36,61.42ZM126,52.68c-.38.56-.81,1.09-1.22,1.63a14.26,14.26,0,0,1-2.27,2.24q-1.72,1.41-3.54,2.67A25.35,25.35,0,0,1,115,61.58a5.92,5.92,0,0,1-1.09.39c-.42.1-.84.23-1.26.35a6,6,0,0,1-1.73.21c-.41,0-.82,0-1.24,0a26.21,26.21,0,0,1-3.33-.29,2.44,2.44,0,0,1-.34-.61c0-.16-.09-.33-.14-.49-.21-.67-.46-1.33-.61-2a11.59,11.59,0,0,0-.49-1.59c-.46-1.21-1.14-2.31-1.68-3.47a1.1,1.1,0,0,0-.28-.5.12.12,0,0,0-.07-.12h0a3.71,3.71,0,0,0-.77-1.29h0a.6.6,0,0,0-.28-.44,5.22,5.22,0,0,0-.75-1.16.67.67,0,0,0-.28-.44,10.78,10.78,0,0,0-1.06-1.65c-1.12-1.59-2.2-3.2-3.47-4.67a30.52,30.52,0,0,0-3.88-3.93c-.87-.7-1.74-1.41-2.66-2L87,36.09c-.69-.45-1.39-.88-2.11-1.29-.42-.24-.87-.42-1.31-.62-.22-.1-.45-.2-.54-.45a7.51,7.51,0,0,0,.36-1.33,13.72,13.72,0,0,1,1.25-3.17,34.87,34.87,0,0,1,2.26-3.56,14.3,14.3,0,0,1,3.78-3.39,27.81,27.81,0,0,1,7.46-3.4,36.94,36.94,0,0,1,4.9-1.12c.74-.11,1.49-.2,2.24-.28.29,0,.4.09.39.38a20.41,20.41,0,0,0,0,2.69,3.64,3.64,0,0,1,0,.73,7.91,7.91,0,0,0,.39,3,27.63,27.63,0,0,0,1.32,3.55c.36.85.75,1.69,1.12,2.53.28.65.51,1.31.83,1.94a19.83,19.83,0,0,0,2.24,3.57,13.06,13.06,0,0,1,1.05,1.57,22.61,22.61,0,0,1,1.18,2.33A2.45,2.45,0,0,0,115,41l.72.35a4.68,4.68,0,0,1,2,2A21.43,21.43,0,0,0,119,45.46a4.45,4.45,0,0,0,1.4,1.25,36.1,36.1,0,0,1,4.12,2.87l.17.14a4.75,4.75,0,0,1,1.47,1.49.59.59,0,0,0,.48.28l0,0A3.57,3.57,0,0,1,126,52.68Zm1.91-3.14a.17.17,0,0,1-.3,0,3.86,3.86,0,0,0-1-.9c-.53-.38-1-.79-1.55-1.2a20.81,20.81,0,0,0-2.89-2,3.77,3.77,0,0,1-1.15-1,17.26,17.26,0,0,1-1.41-2c-.18-.32-.38-.62-.59-.92a3.6,3.6,0,0,0-1.72-1.41L117,40a2.55,2.55,0,0,1-1.37-1.14,13.74,13.74,0,0,1-1-1.93,7.55,7.55,0,0,0-1.33-2.16,14.1,14.1,0,0,1-1.94-3.07c-.54-1.06-1-2.16-1.46-3.25s-1-2.39-1.47-3.57a15.7,15.7,0,0,1-.82-2.56,4.57,4.57,0,0,1-.15-1.15,29.11,29.11,0,0,0-.13-3.2c-.06-.62,0-.67.61-.69.95,0,1.89,0,2.84,0a4.86,4.86,0,0,1,.65.05c.22,0,.32.14.27.34a3,3,0,0,0,0,1,2,2,0,0,1,0,.65,4.4,4.4,0,0,0,0,1.59c0,.48.07,1,.09,1.45a4.79,4.79,0,0,0,.34,1.48c.46,1.25.94,2.5,1.53,3.7,0,0,0,.09.06.13.41.69.72,1.43,1.06,2.15a4.84,4.84,0,0,0,.6,1,3.45,3.45,0,0,1,.39.61,26.3,26.3,0,0,0,1.72,2.7,2.73,2.73,0,0,0,.24.27h0a1.34,1.34,0,0,0,.37.5,21.38,21.38,0,0,0,1.78,2.54,4.14,4.14,0,0,1,.3.41A36.62,36.62,0,0,0,123,41.5L124,42.77a3.46,3.46,0,0,0,.79,1c.95,1,2.05,1.76,3,2.7a1.37,1.37,0,0,0,.23.17.46.46,0,0,0,.48,0l.43,0A6.37,6.37,0,0,1,127.9,49.53Zm3-12.29a39.75,39.75,0,0,1-.55,4.4,1.64,1.64,0,0,1-.05.21A.19.19,0,0,1,130,42a4.36,4.36,0,0,1-.35-.26,5.47,5.47,0,0,0-.86-.55c-.68-.38-1.34-.78-2-1.19a5.25,5.25,0,0,1-1.08-1l-.6-.63c-1.11-1.83-2-3.78-3-5.67-.55-1.05-1.16-2.07-1.75-3.11-.06-.11-.13-.2-.18-.31-1-2.2-2.21-4.32-3.15-6.56a12.27,12.27,0,0,1-.8-4.12c0-.25.13-.36.37-.3s.37.12.55.18a21.07,21.07,0,0,1,3.51,1.76,22,22,0,0,1,3.46,2.54,1.28,1.28,0,0,0,.47.34h0a2.23,2.23,0,0,0,.55.56c1,.83,2.07,1.63,3,2.55l0,0a1.35,1.35,0,0,0,.5.52,1.34,1.34,0,0,0,.19.22,3,3,0,0,1,.92,1.19,33.48,33.48,0,0,1,1,5,7.07,7.07,0,0,1,.08,1.16C130.91,35.3,130.93,36.27,130.87,37.24Z"/><path class="cls-3" d="M190.53,29.57l-.07-.45a.4.4,0,0,0,0-.34,2,2,0,0,0,0-.28,17,17,0,0,0-.88-2.93.85.85,0,0,0,0-.17,24,24,0,0,0-2-4.87,19.69,19.69,0,0,0-4-5.18,31.91,31.91,0,0,0-4.13-3.16,18.49,18.49,0,0,0-6.87-2.86,39.42,39.42,0,0,0-5.11-.64,27.71,27.71,0,0,0-5.65.3,6.92,6.92,0,0,0-1.45.32,1.28,1.28,0,0,0-.57.14.71.71,0,0,0-.17,0,23.85,23.85,0,0,0-2.36.7,19.2,19.2,0,0,0-6.66,4.35c-.38.37-.76.75-1.11,1.15s-.93,1.07-1.36,1.63-.7,1-1,1.51a21,21,0,0,0-3.16,6.82,20.79,20.79,0,0,0-.51,3.33,41.26,41.26,0,0,0,0,4.58,34.94,34.94,0,0,0,.49,4.84,21.23,21.23,0,0,0,2.19,6.36,15.55,15.55,0,0,0,3.1,4A29.4,29.4,0,0,0,153.42,52,11.68,11.68,0,0,0,156,53.33l.86.3a21.07,21.07,0,0,0,7.76,1.23,29,29,0,0,0,6.12-.81,23.12,23.12,0,0,0,5.4-2,22.13,22.13,0,0,0,5-3.72,28.69,28.69,0,0,0,2.75-2.91c.27-.34.54-.69.83-1a5.73,5.73,0,0,0,.46-.58c.39-.59.76-1.19,1.2-1.75a12,12,0,0,0,1.35-2.25,4.54,4.54,0,0,0,.31-.67,5.89,5.89,0,0,1,.38-.89,24.09,24.09,0,0,0,1.25-2.82c.27-.86.48-1.73.7-2.59a4.71,4.71,0,0,0,.14-1.13,4,4,0,0,1,.11-1.07A1.85,1.85,0,0,0,190.53,29.57ZM163.84,10.34l.34,0a26,26,0,0,1,4.62.21l.23,0a26.77,26.77,0,0,1,3.1.52,14.56,14.56,0,0,1,3.28,1.16A26.41,26.41,0,0,1,179,14.39a24.92,24.92,0,0,1,2.48,1.94,17.48,17.48,0,0,1,3.37,3.95,22.86,22.86,0,0,1,1.45,2.66c.05.12.11.24.16.37s0,.18-.14.19h-.23a9.4,9.4,0,0,0-2.71.38,5.57,5.57,0,0,1-1.13.17c-.59,0-1.18.08-1.77.1a11.35,11.35,0,0,1-2.56-.24c-.67-.13-1.35-.22-2-.33-1-.15-2-.34-2.93-.49l-4.58-.7a1.6,1.6,0,0,0-.23,0c-.15-.06-.33,0-.45-.16a2.29,2.29,0,0,0-.07-.79c-.13-.52-.21-1-.33-1.56a36.5,36.5,0,0,0-1.1-4,5.69,5.69,0,0,0-.53-1.25A7.58,7.58,0,0,0,165,13.1c-.41-.85-.85-1.69-1.27-2.54C163.7,10.46,163.72,10.37,163.84,10.34Zm-14,6.61c.13-.16.26-.33.4-.48a16.81,16.81,0,0,1,2.87-2.61,20.07,20.07,0,0,1,3.19-1.9,21.24,21.24,0,0,1,2.43-.83l.32-.12h.46a1.59,1.59,0,0,0,.43.64.4.4,0,0,0,.13.23c.12.13.23.27.34.41a2.42,2.42,0,0,0,.34.71.35.35,0,0,1,.09.15,7.53,7.53,0,0,0,.77,1.77,29.44,29.44,0,0,1,1.55,4.3c.2.68.35,1.37.53,2.05a2.12,2.12,0,0,1,.06.39.13.13,0,0,1-.14.14,5.5,5.5,0,0,1-.57,0,16.82,16.82,0,0,1-4-1c-1-.39-2-.71-3-1a7.74,7.74,0,0,1-.92-.32c-1.13-.51-2.28-1-3.38-1.55a5.64,5.64,0,0,0-1.55-.56l-.43-.1A.24.24,0,0,1,149.86,17ZM169,52.65c-.26.06-.52.1-.79.13a27.46,27.46,0,0,1-4.11.23,19.77,19.77,0,0,1-4.52-.65,18.28,18.28,0,0,1-4.66-2,25.32,25.32,0,0,1-2.2-1.55A28.58,28.58,0,0,1,150,46.5a13.6,13.6,0,0,1-2.65-3.71,21.19,21.19,0,0,1-2.06-6.87,44.23,44.23,0,0,1-.34-6.23,20.64,20.64,0,0,1,.35-3.87,16.25,16.25,0,0,1,.74-2.58A16,16,0,0,1,147,21c.53-.93,1.11-1.83,1.73-2.69a.7.7,0,0,1,.14-.11,2.34,2.34,0,0,0,.76.38,1.15,1.15,0,0,1,.26.12c1,.56,2,.95,3,1.45a11.78,11.78,0,0,0,2.29.87,21.16,21.16,0,0,1,2.22.75,21.05,21.05,0,0,0,3.23.95c1.14.24,2.3.38,3.44.57.24,1.16.43,2.32.6,3.49a1.91,1.91,0,0,1,0,.74,1,1,0,0,0,0,.34q.1.82.2,1.65a1.2,1.2,0,0,0,.06.28,3.81,3.81,0,0,1,.23,1.74,2.36,2.36,0,0,0,0,.46c.1.93.2,1.86.31,2.79,0,.34.1.68.17,1a2.77,2.77,0,0,1,.08,1,1.17,1.17,0,0,0,0,.45,12.83,12.83,0,0,1,.32,2.15,47,47,0,0,0,.78,5.2,27,27,0,0,0,1,3.35c.47,1.37.83,2.78,1.23,4.17a2.69,2.69,0,0,1,.06.28C169.24,52.54,169.21,52.6,169,52.65Zm19.54-19.16a16.15,16.15,0,0,1-.93,3.12c-.37.82-.78,1.61-1.15,2.43A25.21,25.21,0,0,1,184,43.12c-.37.53-.8,1-1.21,1.52a25.13,25.13,0,0,1-2.43,2.66c-.68.63-1.39,1.24-2.12,1.83a14.8,14.8,0,0,1-3.74,2.06l-.91.35a2,2,0,0,1-.33.08.2.2,0,0,1-.23-.12,4.25,4.25,0,0,1-.15-.43c-.18-.64-.36-1.28-.53-1.93s-.41-1.43-.65-2.13a31.07,31.07,0,0,1-1.26-4.34c-.22-1.12-.4-2.25-.54-3.39-.2-1.69-.42-3.37-.63-5.05-.13-1.1-.24-2.2-.37-3.3q-.25-2.1-.53-4.2c-.12-.91-.27-1.81-.4-2.72a2.33,2.33,0,0,1,0-.28,5.64,5.64,0,0,1,1.3.12c1.24.18,2.49.35,3.72.58,1.61.3,3.24.46,4.85.76a8.33,8.33,0,0,0,1.77,0c.51,0,1-.06,1.54-.1a9.79,9.79,0,0,0,2.29-.48,6.4,6.4,0,0,1,2.13-.33h1a.29.29,0,0,1,.3.21c.1.29.21.57.3.86a6.71,6.71,0,0,0,.49,1.22c0,.23-.09.46,0,.68a.63.63,0,0,0,.13.42h0l.09.39.47,2.18a8.5,8.5,0,0,1,.2,2.22A5.79,5.79,0,0,1,188.53,33.49Z"/><path class="cls-4" d="M158.44,100.35a12.76,12.76,0,0,0,2.08-.82c.93-.47,1.87-.91,2.78-1.41s1.56-.87,2.31-1.37c1-.69,2.07-1.42,3.09-2.16a4.61,4.61,0,0,0,1.25-1.09l.26-.14h0a1.65,1.65,0,0,0,.7-.64.42.42,0,0,0,.23-.23,1.11,1.11,0,0,0,.42-.38,9.52,9.52,0,0,1,.64-.78A8.85,8.85,0,0,0,173.67,89a5,5,0,0,0,.56-1.47l0-.15a3.5,3.5,0,0,0,.17-.4,20.81,20.81,0,0,0,.82-5.8,21.64,21.64,0,0,0-2-9.7,31.1,31.1,0,0,0-3.2-5.25,39.08,39.08,0,0,0-3.2-3.64A19.83,19.83,0,0,0,165,60.87c-.81-.65-1.69-1.2-2.56-1.77a7.73,7.73,0,0,0-1-.51,18.31,18.31,0,0,0-7.09-1.65,22.66,22.66,0,0,0-5.34.37,25,25,0,0,0-3.55,1,31.15,31.15,0,0,0-4.21,1.76q-2.24,1.2-4.43,2.48a36,36,0,0,0-7.4,5.79,19.78,19.78,0,0,0-4,5.64,11.41,11.41,0,0,0-.93,3,22.49,22.49,0,0,0,0,6.14c.09.77.24,1.53.33,2.3a22.28,22.28,0,0,0,1,4.45,14.84,14.84,0,0,0,1.06,2.54,20.2,20.2,0,0,0,2.76,3.62,16.82,16.82,0,0,0,2.77,2.33,29.16,29.16,0,0,0,3.2,1.85,5.25,5.25,0,0,0,1.68.66,23.25,23.25,0,0,1,2.33.52,14.62,14.62,0,0,0,2.36.39l1.08.1c.92.07,1.83.17,2.75.15,1.3,0,2.61,0,3.91,0a18.33,18.33,0,0,0,2.59-.17l.72-.08a13.76,13.76,0,0,0,3.12-.65C156.95,100.91,157.68,100.58,158.44,100.35ZM142.91,61.59a27.38,27.38,0,0,1,5.9-2.37,17.85,17.85,0,0,1,5.44-.69c.6,0,1.21,0,1.81,0a14.35,14.35,0,0,1,3.87.89,7.45,7.45,0,0,1,1.24.6c.51.32,1,.63,1.53,1a.25.25,0,0,1,.05.43c-.13.14-.27.27-.42.4A9.7,9.7,0,0,1,160,63.49a6.48,6.48,0,0,1-3.14.73c-.36,0-.72,0-1.08,0a2.71,2.71,0,0,1-1.07-.14c-.34-.12-.69-.23-1-.38a6.85,6.85,0,0,0-1.66-.51,4.23,4.23,0,0,1-1.1-.35,16.06,16.06,0,0,0-2.26-.76,1.64,1.64,0,0,0-.57-.08c-1,.07-2,0-3,.14-.14,0-.29,0-.43.07a6.68,6.68,0,0,1-2.6-.06A5.81,5.81,0,0,1,142.91,61.59ZM129,73.35c-.17-.06-.22-.17-.11-.34a11.89,11.89,0,0,1,.72-1.08q.77-1,1.58-1.88a23.31,23.31,0,0,1,2.48-2.43,37.58,37.58,0,0,1,3.72-2.89c.61-.39,1.23-.77,1.84-1.15l.14,0a.33.33,0,0,0,.44.14,4.5,4.5,0,0,1,1.14-.17,5.64,5.64,0,0,1,1.58.13,17.3,17.3,0,0,0,2.38.22,1.83,1.83,0,0,0,.65-.07,7.76,7.76,0,0,1,1.43-.21l2-.15a3.08,3.08,0,0,1,1.55.32,10.34,10.34,0,0,0,2.27.73,3.24,3.24,0,0,1,.69.22,12.49,12.49,0,0,0,2.21.7,4.7,4.7,0,0,0,1.44.12c.39,0,.77,0,1.16,0a4.73,4.73,0,0,0,2.6-.79c.68-.46,1.41-.84,2.05-1.36a10.11,10.11,0,0,0,1-.89.25.25,0,0,1,.38,0c.24.23.48.48.7.73a.3.3,0,0,1,0,.4l-.09.11a19.24,19.24,0,0,1-2,2c-.63.49-1.28.95-1.93,1.41-.84.61-1.68,1.22-2.53,1.81a19.48,19.48,0,0,1-3.36,1.84,9.64,9.64,0,0,1-1.17.39c-.44.13-.89.23-1.33.34a6.21,6.21,0,0,1-1.29.18,27.87,27.87,0,0,0-6.3.93c-1,.26-1.88.63-2.82.93a20.79,20.79,0,0,1-6.12,1,20,20,0,0,1-2.45-.18,33.85,33.85,0,0,1-4.32-.9Zm23.69,26.44a30.6,30.6,0,0,1-5.61.63,43.37,43.37,0,0,1-5.36-.16,15.28,15.28,0,0,1-9-3.71,13.7,13.7,0,0,1-3.08-4,20.17,20.17,0,0,1-1.89-5.84c-.26-1.4-.51-2.81-.64-4.23a20.67,20.67,0,0,1,0-4.92c.07-.45.18-.9.28-1.35a.56.56,0,0,1,.2-.37.4.4,0,0,1,.14,0,9.25,9.25,0,0,0,2.76.84c.4.06.8.19,1.2.29a27.13,27.13,0,0,0,4.85.87,18.7,18.7,0,0,0,5.19-.37A36.31,36.31,0,0,0,147,76a18.37,18.37,0,0,1,3.52-.85,28.59,28.59,0,0,1,3.53-.39,4.21,4.21,0,0,0,.72-.11A17.93,17.93,0,0,0,161,72a38.25,38.25,0,0,0,4.06-3,6.4,6.4,0,0,0,1.18-1.06.46.46,0,0,0,.25-.21.59.59,0,0,0,.32-.32,1.72,1.72,0,0,0,.58-.61,1,1,0,0,0,.42-.51l.13,0a13.69,13.69,0,0,1,1.71,2.24,27.88,27.88,0,0,1,1.81,3.13,18.9,18.9,0,0,1,1.7,5.59,18.41,18.41,0,0,1,.24,2.67,20,20,0,0,1-1.17,7.25,1.14,1.14,0,0,0,0,.21l-.62.81a4.74,4.74,0,0,0-1.35.84,9.3,9.3,0,0,0-.81.92c-.34.41-.67.83-1,1.24a7.66,7.66,0,0,1-1.67,1.6c-1.37.95-2.72,1.94-4.13,2.82A32.35,32.35,0,0,1,152.73,99.79Z"/><path class="cls-4" d="M43.27,21.74a.3.3,0,0,0-.28,0,1.23,1.23,0,0,0-.52.06.49.49,0,0,0-.41.06l-.26,0a3.14,3.14,0,0,0-1.34.19l-.38.05a.46.46,0,0,0-.4.09l-.26,0a8.08,8.08,0,0,0-1.48.31,35.15,35.15,0,0,0-5.34,1.88,17,17,0,0,0-2.36,1.31,15.21,15.21,0,0,0-4.32,4.65A22.26,22.26,0,0,0,23.8,35c-.48,1.39-.95,2.79-1.37,4.19a16.53,16.53,0,0,0-.73,4.21.82.82,0,0,0-.12.49,3.84,3.84,0,0,0,.37,1.49,10.75,10.75,0,0,0,1.17,3.48,1.25,1.25,0,0,0,.22.33c.52.52.9,1.14,1.38,1.68a4.35,4.35,0,0,0,.35.39c.67.6,1.35,1.19,2.08,1.73,1.19.87,2.45,1.64,3.69,2.43a15.33,15.33,0,0,0,1.62.88,74.31,74.31,0,0,0,8.36,3.41A32,32,0,0,0,46.68,61c1.11.15,2.23.22,3.35.26,1.89.08,3.78.14,5.67.1a34.28,34.28,0,0,0,3.82-.25,28.42,28.42,0,0,0,7-1.94,8.58,8.58,0,0,0,2.55-1.62,16.82,16.82,0,0,0,2.82-3.3,27.53,27.53,0,0,0,1.53-2.54,11.65,11.65,0,0,0,1-3.59,7.67,7.67,0,0,0,.13-1.58,17,17,0,0,0-.82-4.46,14.4,14.4,0,0,0-1.08-2.55A18.2,18.2,0,0,0,70.87,37a7.32,7.32,0,0,0-.6-.61c-.85-.8-1.78-1.5-2.69-2.23a24.31,24.31,0,0,0-2.71-2,12,12,0,0,1-1.26-.85c-1-.78-2-1.57-2.91-2.38a29.19,29.19,0,0,0-4.56-3.25q-1.43-.81-2.83-1.7a8.34,8.34,0,0,0-2.14-1,17,17,0,0,0-2.58-.56c-.2,0-.39,0-.59,0a.6.6,0,0,0-.36-.15,1.43,1.43,0,0,0-1-.35l-.39-.05a.71.71,0,0,0-.53-.08l-.25,0h-.28A6.23,6.23,0,0,0,43.27,21.74ZM26.23,35a2.34,2.34,0,0,0,.32-.65,16.14,16.14,0,0,1,3.59-5.25,12.45,12.45,0,0,1,3.1-2.1,33.78,33.78,0,0,1,4.41-1.76,1.48,1.48,0,0,0,.54-.23.62.62,0,0,0,.4-.12.94.94,0,0,0,.2,0c1.34-.31,2.69-.58,4.05-.78l.24,0c.4.15.43.2.39.55a.88.88,0,0,1-.15.43,6.47,6.47,0,0,1-.52.68,21.63,21.63,0,0,0-1.66,1.87c-.4.52-.8,1-1.22,1.55a5.84,5.84,0,0,1-.77.81c-.51.42-1,.89-1.44,1.35a14.16,14.16,0,0,1-2.29,1.77,3.1,3.1,0,0,1-.41.21,20.34,20.34,0,0,1-2.53.9l-.92.17a.26.26,0,0,0-.27.07,4.47,4.47,0,0,0-.45.05c-1.08.23-2.17.47-3.25.71a4.41,4.41,0,0,1-1,.1A.38.38,0,0,1,26.23,35Zm34.48-4c.7.54,1.39,1.08,2.09,1.61a16.81,16.81,0,0,0,1.43.95,22.65,22.65,0,0,1,3.55,2.63,11.66,11.66,0,0,1,2.1,2.44,12.51,12.51,0,0,1,1.9,5.36c0,.39.08.79.14,1.18a10.1,10.1,0,0,1-.9,5.4,13.4,13.4,0,0,1-1.12,2,20.54,20.54,0,0,1-2.22,2.95,9,9,0,0,1-3.26,2.3,25.92,25.92,0,0,1-6,1.66c-.65.09-1.31.15-2,.19a35.53,35.53,0,0,1-4.29.06c-1.91-.13-3.83-.12-5.73-.34l-.91-.13a36.7,36.7,0,0,1-4.44-1,44.91,44.91,0,0,1-4.84-1.74c-1.21-.52-2.42-1.05-3.6-1.64-.28-.14-.55-.28-.81-.44-.89-.53-1.78-1.05-2.65-1.62a16.37,16.37,0,0,1-3.09-2.46A9.51,9.51,0,0,1,24,46.81a5,5,0,0,1-.25-1.69L24,45a1.36,1.36,0,0,0,.25-.07,50.7,50.7,0,0,1,5.37-2.19A15.15,15.15,0,0,1,33.09,42c1.6-.18,3.19-.39,4.77-.64,1.37-.22,2.73-.49,4.07-.83s2.94-.75,4.41-1.15a39.42,39.42,0,0,0,4-1.21,22.43,22.43,0,0,0,2.41-1.07,7.61,7.61,0,0,0,1.71-1.23,10.3,10.3,0,0,1,2.29-1.78,12.93,12.93,0,0,1,1.25-.6,3.75,3.75,0,0,0,1.74-1.56c.24-.36.43-.76.63-1.13C60.52,30.77,60.6,30.88,60.71,31ZM60,29.91a.31.31,0,0,1-.14.24.31.31,0,0,0,.14-.24.93.93,0,0,0-.27-.58A.93.93,0,0,1,60,29.91Zm-13.59-6h.67a10.49,10.49,0,0,0,2,.35,11.05,11.05,0,0,1,2.52.5,4.41,4.41,0,0,1,.84.39l3.8,2.26a15.59,15.59,0,0,1,2,1.34,3.3,3.3,0,0,1,.34.31.28.28,0,0,1,0,.36,4,4,0,0,1-1.73,1.66A11.32,11.32,0,0,0,54,32.77a8.93,8.93,0,0,0-.75.65,9.08,9.08,0,0,1-2.87,1.84A38.27,38.27,0,0,1,45.06,37l-4.4,1.16a55.23,55.23,0,0,1-5.55,1.14c-1.15.18-2.32.26-3.47.42A14.93,14.93,0,0,0,27,41.08a3.6,3.6,0,0,0-.86.31A5.68,5.68,0,0,1,24,42a40.47,40.47,0,0,1,1.32-4.49c0-.15.09-.29.14-.44.12-.33.17-.36.47-.19a3.19,3.19,0,0,0,1.13.35.93.93,0,0,0,.58-.07l.26,0a2.29,2.29,0,0,0,.84-.11c1.69-.37,3.39-.73,5.07-1.14A8.6,8.6,0,0,0,36.2,35a12.73,12.73,0,0,0,2.87-2.2c.45-.48.94-.92,1.41-1.39s.72-.71,1-1.09.55-.68.82-1c.48-.63,1-1.19,1.57-1.78a3.39,3.39,0,0,0,.92-1.65c.12-.65.31-1.28.5-1.91a1.77,1.77,0,0,1,.77-.09C46.15,24,46.26,24,46.39,23.94Z"/></svg>