<?xml version="1.0" encoding="UTF-8"?>
<svg width="162px" height="37px" viewBox="0 0 162 37" version="1.1" xmlns="http://www.w3.org/2000/svg" xmlns:xlink="http://www.w3.org/1999/xlink">
    <!-- Generator: Sketch 46.2 (44496) - http://www.bohemiancoding.com/sketch -->
    <title>doopoll logo</title>
    <desc>Created with Sketch.</desc>
    <defs>
        <polygon id="path-1" points="0.5371 0.962 4.8041 0.962 4.8041 28.6125 0.5371 28.6125"></polygon>
        <polygon id="path-3" points="0.4882 0.962 4.755 0.962 4.755 28.6125 0.4882 28.6125 0.4882 0.962"></polygon>
    </defs>
    <g id="Page-1" stroke="none" stroke-width="1" fill="none" fill-rule="evenodd">
        <g id="Home-Copy" transform="translate(-76.000000, -52.000000)">
            <g id="doopoll-logo" transform="translate(76.000000, 51.000000)">
                <path d="M20.6469,21.9844 C20.3439,21.6814 19.9259,21.4944 19.4659,21.4944 C18.5439,21.4944 17.7949,22.2444 17.7949,23.1654 C17.7949,23.6114 17.9689,24.0314 18.2849,24.3464 C18.5999,24.6624 19.0199,24.8364 19.4659,24.8364 C20.3869,24.8364 21.1359,24.0864 21.1359,23.1654 C21.1359,22.7044 20.9489,22.2874 20.6469,21.9844" id="Fill-1" fill="#0098FF"></path>
                <path d="M10.1166,12.1456 C10.1166,11.6846 9.9296,11.2676 9.6266,10.9646 C9.3246,10.6626 8.9066,10.4746 8.4466,10.4746 C7.5246,10.4746 6.7756,11.2246 6.7756,12.1456 C6.7756,12.5916 6.9496,13.0106 7.2646,13.3276 C7.5806,13.6426 7.9996,13.8166 8.4466,13.8166 C9.3676,13.8166 10.1166,13.0666 10.1166,12.1456" id="Fill-3" fill="#0098FF"></path>
                <path d="M23.3636,23.1905 C23.3636,25.3545 21.6146,27.0765 19.4666,27.0765 C18.4246,27.0765 17.4456,26.6645 16.7096,25.9275 C15.9726,25.1915 15.5676,24.2095 15.5676,23.1685 C15.5676,21.0185 17.3166,19.2815 19.4666,19.2815 C21.6146,19.2815 23.3636,21.0275 23.3636,23.1905 L23.3636,23.1905 Z M8.8506,24.5825 L7.0296,22.7595 C6.8676,22.5985 6.8676,22.3365 7.0296,22.1755 L18.4746,10.7295 C18.6366,10.5685 18.8976,10.5685 19.0586,10.7295 L20.8816,12.5515 C21.0426,12.7125 21.0426,12.9745 20.8816,13.1355 L9.4346,24.5825 C9.2736,24.7435 9.0116,24.7435 8.8506,24.5825 L8.8506,24.5825 Z M4.5486,12.1455 C4.5486,9.9965 6.3056,8.2485 8.4556,8.2475 C10.6046,8.2475 12.3616,9.9965 12.3616,12.1455 C12.3616,14.2945 10.6046,16.0435 8.4556,16.0435 C7.4146,16.0435 6.4306,15.6375 5.6946,14.9015 C4.9586,14.1655 4.5486,13.1865 4.5486,12.1455 L4.5486,12.1455 Z M27.7116,4.5465 C27.7116,3.9765 27.2496,3.5145 26.6786,3.5145 L1.0326,3.5145 C0.4626,3.5145 0.0006,3.9765 0.0006,4.5465 L0.0006,30.1935 C0.0006,30.7635 0.4626,31.2265 1.0326,31.2265 L26.6786,31.2265 C27.2496,31.2265 27.7116,30.7635 27.7116,30.1935 L27.7116,4.5465 Z" id="Fill-5" fill="#0098FF"></path>
                <path d="M54.9398,28.0001 L54.9398,1.7711 C54.9398,1.3781 55.2578,1.0601 55.6508,1.0601 L58.4958,1.0601 C58.8878,1.0601 59.2068,1.3781 59.2068,1.7711 L59.2068,28.0001 C59.2068,28.3931 58.8878,28.7111 58.4958,28.7111 L55.6508,28.7111 C55.2578,28.7111 54.9398,28.3931 54.9398,28.0001" id="Fill-7" fill="#0098FF"></path>
                <path d="M49.7181,13.461 C48.3981,13.461 47.0771,14.019 46.0721,15.136 C44.0631,17.369 44.0631,21.003 46.0721,23.235 C47.0461,24.318 48.3411,24.914 49.7181,24.914 C51.0941,24.914 52.3891,24.318 53.3631,23.236 C55.3721,21.003 55.3721,17.369 53.3631,15.136 C52.3581,14.02 51.0371,13.461 49.7181,13.461 M49.7181,28.712 C47.1731,28.712 44.7811,27.722 42.9821,25.922 C39.2681,22.208 39.2681,16.165 42.9821,12.45 C46.6961,8.736 52.7391,8.736 56.4531,12.45 C60.1671,16.165 60.1671,22.208 56.4531,25.922 C54.6551,27.722 52.2621,28.712 49.7181,28.712" id="Fill-9" fill="#0098FF"></path>
                <path d="M71.5306,13.461 C70.2106,13.461 68.8896,14.02 67.8846,15.136 C65.8766,17.369 65.8766,21.003 67.8856,23.236 C68.8586,24.318 70.1536,24.914 71.5306,24.914 C72.9076,24.914 74.2016,24.318 75.1756,23.236 C77.1846,21.003 77.1846,17.369 75.1756,15.136 C74.1706,14.02 72.8496,13.461 71.5306,13.461 M71.5306,28.713 C68.9856,28.713 66.5936,27.722 64.7946,25.922 C61.0806,22.208 61.0806,16.165 64.7946,12.451 C68.5086,8.736 74.5516,8.737 78.2656,12.45 L78.2656,12.451 C81.9796,16.165 81.9796,22.208 78.2656,25.922 C76.4676,27.722 74.0746,28.713 71.5306,28.713" id="Fill-11" fill="#0098FF"></path>
                <path d="M92.2347,13.461 C90.9147,13.461 89.5937,14.02 88.5887,15.136 C86.5797,17.369 86.5797,21.003 88.5887,23.236 C89.5627,24.318 90.8577,24.914 92.2347,24.914 C93.6107,24.914 94.9057,24.318 95.8797,23.236 C97.8887,21.003 97.8887,17.369 95.8797,15.136 C94.8747,14.02 93.5537,13.461 92.2347,13.461 M92.2347,28.713 C89.6897,28.713 87.2977,27.722 85.4987,25.922 C81.7847,22.208 81.7847,16.165 85.4987,12.451 C89.2127,8.736 95.2557,8.737 98.9697,12.45 L98.9697,12.451 C102.6837,16.165 102.6837,22.208 98.9697,25.922 C97.1717,27.722 94.7787,28.713 92.2347,28.713" id="Fill-13" fill="#0098FF"></path>
                <path d="M135.5424,13.461 C134.2224,13.461 132.9014,14.02 131.8964,15.136 C129.8884,17.369 129.8884,21.003 131.8974,23.236 C132.8704,24.318 134.1654,24.914 135.5424,24.914 C136.9194,24.914 138.2134,24.318 139.1874,23.236 C141.1964,21.003 141.1964,17.369 139.1874,15.136 C138.1824,14.02 136.8614,13.461 135.5424,13.461 M135.5424,28.713 C132.9974,28.713 130.6054,27.722 128.8064,25.922 C125.0924,22.208 125.0924,16.165 128.8064,12.451 C132.5204,8.736 138.5634,8.737 142.2774,12.45 L142.2774,12.451 C145.9914,16.165 145.9914,22.208 142.2774,25.922 C140.4794,27.722 138.0864,28.713 135.5424,28.713" id="Fill-15" fill="#0098FF"></path>
                <path d="M108.9535,10.0977 L108.9535,36.3267 C108.9535,36.7197 108.6355,37.0377 108.2415,37.0377 L105.3965,37.0377 C105.0045,37.0377 104.6855,36.7197 104.6855,36.3267 L104.6855,10.0977 C104.6855,9.7047 105.0045,9.3867 105.3965,9.3867 L108.2415,9.3867 C108.6355,9.3867 108.9535,9.7047 108.9535,10.0977" id="Fill-17" fill="#0098FF"></path>
                <g id="Group-21" transform="translate(148.000000, 0.038500)">
                    <mask id="mask-2" fill="white">
                        <use xlink:href="#path-1"></use>
                    </mask>
                    <g id="Clip-20"></g>
                    <path d="M4.8041,1.6725 L4.8041,27.9015 C4.8041,28.2945 4.4861,28.6125 4.0931,28.6125 L1.2481,28.6125 C0.8561,28.6125 0.5371,28.2945 0.5371,27.9015 L0.5371,1.6725 C0.5371,1.2795 0.8561,0.9615 1.2481,0.9615 L4.0931,0.9615 C4.4861,0.9615 4.8041,1.2795 4.8041,1.6725" id="Fill-19" fill="#0098FF" mask="url(#mask-2)"></path>
                </g>
                <g id="Group-24" transform="translate(157.000000, 0.038500)">
                    <mask id="mask-4" fill="white">
                        <use xlink:href="#path-3"></use>
                    </mask>
                    <g id="Clip-23"></g>
                    <path d="M4.7552,1.6725 L4.7552,27.9015 C4.7552,28.2945 4.4372,28.6125 4.0442,28.6125 L1.1992,28.6125 C0.8072,28.6125 0.4882,28.2945 0.4882,27.9015 L0.4882,1.6725 C0.4882,1.2795 0.8072,0.9615 1.1992,0.9615 L4.0442,0.9615 C4.4372,0.9615 4.7552,1.2795 4.7552,1.6725" id="Fill-22" fill="#0098FF" mask="url(#mask-4)"></path>
                </g>
                <path d="M114.1752,24.6378 C115.4952,24.6378 116.8152,24.0788 117.8202,22.9618 C119.8292,20.7288 119.8292,17.0948 117.8202,14.8628 C116.8462,13.7808 115.5512,13.1848 114.1752,13.1848 C112.7982,13.1848 111.5032,13.7808 110.5302,14.8618 C108.5212,17.0948 108.5212,20.7288 110.5302,22.9628 L110.5302,22.9618 C111.5342,24.0788 112.8552,24.6378 114.1752,24.6378 M114.1752,9.3858 C116.7192,9.3858 119.1122,10.3768 120.9102,12.1758 C124.6242,15.8898 124.6242,21.9338 120.9102,25.6478 C117.1962,29.3618 111.1532,29.3618 107.4392,25.6478 C103.7252,21.9338 103.7252,15.8898 107.4392,12.1758 C109.2382,10.3768 111.6302,9.3858 114.1752,9.3858" id="Fill-25" fill="#0098FF"></path>
            </g>
        </g>
    </g>
</svg>
