<svg id="Layer_1" data-name="Layer 1" xmlns="http://www.w3.org/2000/svg" viewBox="0 0 380 189.03"><defs><style>.cls-1{fill:#fff9ec;}</style></defs><title>Artboard 10 copy</title><path class="cls-1" d="M114.58,51.55c-1.06.52-1.49,2.38-2.11,3.69a.89.89,0,0,0,.81,1.36c2.58.22,5.16.43,7.75.54a8,8,0,0,0,3.78-.84,1.75,1.75,0,0,0,.67-2.81c-1.54-2.15-3.89-2.09-6.13-2.1C117.74,51.39,115.88,50.9,114.58,51.55Z"/><path class="cls-1" d="M177.6,104.67a1.8,1.8,0,0,0-.73-2.81,8.88,8.88,0,0,0-5.25-.32,13.53,13.53,0,0,1-2.88,0c-1.49-.33-2.45.57-3.55,1.2-.95.54-.85,1.23-.24,2C167.64,107.88,174.76,107.87,177.6,104.67Z"/><path class="cls-1" d="M157.64,68.55c1.83.27,3.43-.84,4.84-2a1.52,1.52,0,0,0-.11-2.49A6.71,6.71,0,0,0,160.2,63c-4.71-.85-8.66.26-11.64,4.94a5.48,5.48,0,0,0,1.34.45A41.5,41.5,0,0,1,157.64,68.55Z"/><path class="cls-1" d="M190.14,111.76a6.15,6.15,0,0,0,3.26-.9,2.48,2.48,0,0,0,1.19-2.48,2.05,2.05,0,0,0-1.62-1.64,17.88,17.88,0,0,0-8.21-.37,2.32,2.32,0,0,0-2.13,2.33,2.33,2.33,0,0,1-.6,1.74A15.36,15.36,0,0,0,190.14,111.76Z"/><path class="cls-1" d="M16.88,68.55c.32,0,.65-.07,1-.14,1.2-.23,2.4-1.27,2.42-2.13a2.26,2.26,0,0,0-1.65-2.22c-3.09-1-6.23-1.76-9.35-2.6a.82.82,0,0,0-.48,0,3.08,3.08,0,0,0-1.65,1.71c-.21.44-.37,1,.05,1.33A16.47,16.47,0,0,0,16.88,68.55Z"/><path class="cls-1" d="M98.7,43.24V43c1,0,1.94.06,2.91.15a9.21,9.21,0,0,0,4.25-.83,2,2,0,0,0,1.5-1.72,2.19,2.19,0,0,0-1.1-2,8.38,8.38,0,0,0-2.64-1.12,8.82,8.82,0,0,0-9.32,3.8c-.27.38-.57.9-.17,1.32a2,2,0,0,0,1.18.64C96.44,43.3,97.57,43.24,98.7,43.24Z"/><path class="cls-1" d="M175.54,124.85a1.77,1.77,0,0,0,.32-3.33,6.78,6.78,0,0,0-5.49-.79,11.06,11.06,0,0,0-5.84,1c-.8.39-1.49.76-1.53,1.65-.06,1.16.84,1,1.66,1.13,1.1.17,2.15.68,3.24,1A11.53,11.53,0,0,0,175.54,124.85Z"/><path class="cls-1" d="M158.31,161.52c1.62-.31,2.63-1.78,3.41-3.23a2.71,2.71,0,0,0,.12-.94,1.47,1.47,0,0,0-1.35-1.17,13.72,13.72,0,0,0-9.34,3.22,4.53,4.53,0,0,0-1.43,3c-.08.63-.07,1.39.53,1.75a1.77,1.77,0,0,0,1.34-.08C153.8,163.17,155.88,162,158.31,161.52Z"/><path class="cls-1" d="M69.06,61c1.73-.51,2.78-1.31,2.67-2.35-.15-1.5-1.28-2.16-2.48-2.73a2.5,2.5,0,0,0-.94-.25c-3.86-.16-7.84-.64-10.42,3.86,2.45,1.27,4.93,1.15,7.32,1.52A8.49,8.49,0,0,0,69.06,61Z"/><path class="cls-1" d="M124.64,63.5c-1.44-1-3.12-.65-4.45-1-.87,0-1.52,0-2.16,0a15.57,15.57,0,0,0-1.91.29c-1.17.24-3.22,2.42-2.89,3.42.43,1.33,1.89,1.06,2.91.93,1.53-.21,2.86.39,4.27.64a5.64,5.64,0,0,0,4.19-.73A2,2,0,0,0,124.64,63.5Z"/><path class="cls-1" d="M193.31,78.42c-1.11-.18-2.25-.22-3-.29-1.79-.32-3.15-.47-4.53.46A3,3,0,0,0,184.53,81c-.2,1.27.81,1.09,1.43,1.43a13,13,0,0,0,5.65,1.23,5.48,5.48,0,0,0,4-1.48,1.39,1.39,0,0,0,.28-1.76A3.29,3.29,0,0,0,193.31,78.42Z"/><path class="cls-1" d="M195.91,62c.84-.53.73-1.39.31-2.15A3.54,3.54,0,0,0,193.5,58c-1.29-.18-2.59-.27-3.88-.4-3.69-.39-3.74-.36-5.45,3.55,2.41.69,4.58,1.27,6.71,2C192.81,63.72,194.39,63,195.91,62Z"/><path class="cls-1" d="M184.24,125.66c3,1.09,6,1.41,8.79-.52a1.79,1.79,0,0,0,.13-2.9c-1.49-1.32-3.27-1.18-5.48-1.08-1.59-1.2-3.36,0-5.2.55a2,2,0,0,0-1.4,1.81c-.19,1.18.67,1.11,1.49,1.25C183.16,124.87,183.65,125.44,184.24,125.66Z"/><path class="cls-1" d="M186,166.48c.78.08,1.5.62,2.28.72,2.56.33,5.14.66,7.49-.89.71-.47,1.37-1,1.25-1.89a2.72,2.72,0,0,0-1.47-1.82c-1.35-.83-2.81-.53-4.47-.49-.58,0-1.39-.06-2.19-.16-1.42-.18-2.46.69-3.55,1.31-.8.45-.58,1.39-.54,2.19S185.26,166.41,186,166.48Z"/><path class="cls-1" d="M157.39,48.39a5.48,5.48,0,0,0,4.3-1.92,1.6,1.6,0,0,0-.18-2.52,5.13,5.13,0,0,0-2.16-1c-4.49-.33-8.37.62-10.52,5.84C151.93,48.86,154.6,48,157.39,48.39Z"/><path class="cls-1" d="M37.46,72.7c1.36-.78,1.58-2.25.4-3.15a4.79,4.79,0,0,0-3.51-1.37A13.68,13.68,0,0,1,30.5,68c-2.17-.41-3.8.3-5.46,2.32,2.88,2.15,6,2.78,9.2,3.2A5.07,5.07,0,0,0,37.46,72.7Z"/><path class="cls-1" d="M191.41,74a8,8,0,0,0,4.18-1,2.17,2.17,0,0,0,.17-3.37,3,3,0,0,0-1.25-.73c-2.56-.41-5.13-.79-7.7-1-.57-.06-1.21.41-1.8.67a1.33,1.33,0,0,0-.52,2.29C186.27,73,188.8,73.58,191.41,74Z"/><path class="cls-1" d="M123.48,130.66a21.91,21.91,0,0,0-5.3.64c-2.62.69-3.82,2.16-3.85,4.91,3,.88,5.83-.15,8.69-.18,1,0,2-.93,2.95-1.6a1.72,1.72,0,0,0-.25-2.88A3.72,3.72,0,0,0,123.48,130.66Z"/><path class="cls-1" d="M177.09,95.52a2.07,2.07,0,0,0,1.29-1.9,2.24,2.24,0,0,0-1.45-1.82,10.19,10.19,0,0,0-5.86-.77c-1.47-.13-3.06-.47-4.61.44-1.12.65-1.4,1.3-.6,2.23C168.19,96.41,173.76,97.32,177.09,95.52Z"/><path class="cls-1" d="M178.74,58.7a2,2,0,0,0,.13-3.56,3.55,3.55,0,0,0-1.73-.84c-3.47,0-7.18-1-10.48,2.54l7.38,2.49A5.58,5.58,0,0,0,178.74,58.7Z"/><path class="cls-1" d="M164.72,115.64c1.42-.39,2.51.5,3.73.87a13,13,0,0,0,7.24.05c1.25-.34,2.21-1.47,2.1-2.38-.14-1.16-1.06-1.53-2-1.88a10.46,10.46,0,0,0-5.26-.29s-1,0-2,0a5.52,5.52,0,0,0-4.16,2.21,1.2,1.2,0,0,0-.25.88C164.16,115.34,164.56,115.68,164.72,115.64Z"/><path class="cls-1" d="M171.26,79a6.89,6.89,0,0,0,5.13-.6c.72-.41,1.46-.77,1.35-1.75a2.09,2.09,0,0,0-1.41-1.82c-3.72-1.21-7.46-2.22-11,.49-.35.27-.78.57-.5,1.62C167.08,76.73,168.92,78.45,171.26,79Z"/><path class="cls-1" d="M17.72,86c-2.53.46-4.78-.85-7-.75-.38-.08-.53-.13-.7-.14-1.46-.1-2,1-2.37,2-.51,1.34.65,1.58,1.48,2,2.36,1.21,5,1.41,7.53,1.87a4.54,4.54,0,0,0,3.61-1.12,1.72,1.72,0,0,0,.25-2.21C19.78,86.85,18.78,85.81,17.72,86Z"/><path class="cls-1" d="M133.61,154.61a13.32,13.32,0,0,1,4.32-.62,4.84,4.84,0,0,0,3.1-1.23c.63-.53,1.31-1.14,1.23-2-.09-1.09-1.08-1.59-1.92-2-.54-.29-1.24-.28-.91-.21a12.13,12.13,0,0,0-7.43,1.83,2.74,2.74,0,0,0-1,3.42A2.13,2.13,0,0,0,133.61,154.61Z"/><path class="cls-1" d="M61.4,39c2.3.76,4.6,1.57,6.95,2.15a4.29,4.29,0,0,0,4.43-1.31,2,2,0,0,0,.08-2.64c-1.21-1.62-2.87-2-4.88-1.71-2.55-.75-4.56.74-6.63,2a1,1,0,0,0-.42.77A.93.93,0,0,0,61.4,39Z"/><path class="cls-1" d="M159.15,52.42a9.3,9.3,0,0,0-5.72.63,6.4,6.4,0,0,0-3.94,4.63c3,.53,5.66-.38,8.39.1,1.46.25,2.68-1,3.62-2.15a1.39,1.39,0,0,0-.22-2.13A5.51,5.51,0,0,0,159.15,52.42Z"/><path class="cls-1" d="M86.53,91.63a11.49,11.49,0,0,0-2.44-.21,10.45,10.45,0,0,0-5.67,1.27c-.7.39-1.47,1-1.44,1.86,0,1,1.16,1.05,1.85,1.12a24.11,24.11,0,0,1,6.24,1,3,3,0,0,0,1.45,0c2-.34,3.95-1.85,3.57-2.78C89.46,92.33,87.9,92,86.53,91.63Z"/><path class="cls-1" d="M131.33,86.3c1.8.22,3.51-.87,5.31-.33a5.87,5.87,0,0,0,5.1-1,1.66,1.66,0,0,0,1-1.56,1.88,1.88,0,0,0-1.36-1.82,14.21,14.21,0,0,0-9.54.54,3,3,0,0,0-1.72,2.16C129.7,85.55,130.16,86.15,131.33,86.3Z"/><path class="cls-1" d="M16.62,57.45a2.7,2.7,0,0,0,2.52-1.91A2.3,2.3,0,0,0,17.31,53a55.36,55.36,0,0,0-6.56-1.47c-1.36-.2-2.91-.4-4.17,1.22,1.32,1.11,2.49,2.54,4,3.27A12.24,12.24,0,0,0,16.62,57.45Z"/><path class="cls-1" d="M19.35,96.67c-2.53-.55-5.07-1-7.61-1.53a4.24,4.24,0,0,0-1-.07,2.8,2.8,0,0,0-2,1.88c-.15.86.57,1,1,1.41a11.5,11.5,0,0,0,7,2.81c1.71.16,2.77,0,3.72-.84a1.75,1.75,0,0,0,.06-2.88A3.61,3.61,0,0,0,19.35,96.67Z"/><path class="cls-1" d="M188.19,146a6.38,6.38,0,0,0,4.36-1.14,2.29,2.29,0,0,0,1-2.11,2,2,0,0,0-1.61-1.63,13.72,13.72,0,0,0-6.69.18,5.29,5.29,0,0,0-3.4,2.58c-.21.41-.23,1.11.46,1C184.44,144.72,186.26,146.32,188.19,146Z"/><path class="cls-1" d="M103.24,71.73c-2.14.35-5,.3-7,2.57-.63.69-.44,1.69.48,1.83a80.2,80.2,0,0,0,8.12,1c2,.09,4.1-1.76,3.88-3s-1.94-2.21-3.91-2.39C104.45,71.71,104.13,71.73,103.24,71.73Z"/><path class="cls-1" d="M112.87,45.53c2.55.19,5.11-.27,7.67.5,1.22.37,2.46-.61,3.58-1.25a1.89,1.89,0,0,0,.39-2.58,4.14,4.14,0,0,0-3.83-1.72c-3.84-.36-6.34,1.26-8.48,3.65a.93.93,0,0,0-.05.84A1.09,1.09,0,0,0,112.87,45.53Z"/><path class="cls-1" d="M173.07,63.26c-2.2-.39-3.7.78-5.16,2.08a.6.6,0,0,0,.31,1.08A22.66,22.66,0,0,1,172.75,68a31.07,31.07,0,0,0,3.7,1c.69,0,.85,0,1,0,1.63-.18,3.23-.52,4.08-2.08.55-1-1.54-2.84-3.67-3.17C176.28,63.51,174.65,63.53,173.07,63.26Z"/><path class="cls-1" d="M169.62,146a30.77,30.77,0,0,0,3.35.58,6.81,6.81,0,0,0,4.56-1.58,1.63,1.63,0,0,0,.88-1.6,1.91,1.91,0,0,0-1.22-1.43,6.74,6.74,0,0,0-2.35-.59,34.84,34.84,0,0,0-6.33.1,4.87,4.87,0,0,0-3.61,2.12c-.36.6-.14,1.57.46,1.51C166.9,144.9,168.22,145.56,169.62,146Z"/><path class="cls-1" d="M97,68.68c.64.08,1.3,0,2.88,0a24.47,24.47,0,0,0,2.46.26,5.24,5.24,0,0,0,4-1.33,1.76,1.76,0,0,0,0-2.88,4.12,4.12,0,0,0-1.22-.79,11.46,11.46,0,0,0-9.34,1.33c-1,.64-1.86,2.39-1.48,2.84C95,69,96,68.57,97,68.68Z"/><path class="cls-1" d="M172,156.28c1.91-.11,3.43,0,4.58-1.14.56-.58,1.26-1.23.93-2.08a3.26,3.26,0,0,0-1.37-1.24,2.5,2.5,0,0,0-1.37-.42A61.88,61.88,0,0,0,168,152a3.75,3.75,0,0,0-2.71,1.9c-.31.58-.07,1.69.47,1.59C168.13,155.08,170.21,156.58,172,156.28Z"/><path class="cls-1" d="M107.42,81.84a5.32,5.32,0,0,0-2.1-1.13,16.67,16.67,0,0,0-7.18.36,3.75,3.75,0,0,0-3,3.15c3,.51,6,1.07,9,1.49a4.44,4.44,0,0,0,3.15-1A1.69,1.69,0,0,0,107.42,81.84Z"/><path class="cls-1" d="M112.39,95.62c2.83.75,5.71-.59,8.56.23.48.14,1.21-.39,1.74-.73.82-.52,1.72-1.15,1.56-2.24A2.94,2.94,0,0,0,122,90.64a8.66,8.66,0,0,0-1.9-.18c-3.33-.12-5.8,1.64-8.13,3.7A.88.88,0,0,0,112.39,95.62Z"/><path class="cls-1" d="M155.53,89.59c.95,0,2-1,2.88-1.64a1.59,1.59,0,0,0,.62-1.71,2.11,2.11,0,0,0-1.5-1.73c-4.49-1.23-8.09.62-10.5,5.37.27.14.54.39.82.4C150.43,90.37,152.92,89.51,155.53,89.59Z"/><path class="cls-1" d="M31.68,90.78c-1.68.42-3.22,0-4.58.73a.7.7,0,0,0-.19,1.2,14.66,14.66,0,0,0,8.27,3.7,4.93,4.93,0,0,0,3.69-1,1.66,1.66,0,0,0,.06-2.84C36.66,91,33.91,91.49,31.68,90.78Z"/><path class="cls-1" d="M78.27,69.31c2.37.3,4.74.61,7.11.77a4.94,4.94,0,0,0,3.48-1.47,1.58,1.58,0,0,0-.26-2.47c-1.41-1-3.07-.84-5-1.14A11.69,11.69,0,0,0,78,66.6a2.4,2.4,0,0,0-1,1.57C76.9,68.94,77.64,69.23,78.27,69.31Z"/><path class="cls-1" d="M191.1,114.47c-2.4,0-4.82-.22-7.21.37a4.42,4.42,0,0,0-3.18,2.76c2.44.64,4.6,1.24,6.77,1.78a6.48,6.48,0,0,0,5.48-1.22,1.75,1.75,0,0,0,.21-2.56A2.82,2.82,0,0,0,191.1,114.47Z"/><path class="cls-1" d="M8,44.11c2.22,2.19,5,2.74,8,3.06a5.75,5.75,0,0,0,1-.09,2.3,2.3,0,0,0,1.94-1.91,2.05,2.05,0,0,0-1.36-2.33q-3.87-1.42-7.82-2.6c-1-.31-2.67.89-2.92,2C6.57,43.27,7.46,43.57,8,44.11Z"/><path class="cls-1" d="M102.76,52.78a4.81,4.81,0,0,0,3.13-1.19,2,2,0,0,0-.32-3.57,6.25,6.25,0,0,0-3.26-.51c-2.63-.49-4.81.72-7,1.75a2.23,2.23,0,0,0-1.06,1.51c-.1.75.71,1,1.32,1.1C98,52.21,100.36,52.55,102.76,52.78Z"/><path class="cls-1" d="M190.57,156.86a5.9,5.9,0,0,0,5-1.3,1.8,1.8,0,0,0-.39-3.13,7.25,7.25,0,0,0-4.57-.4c-.51-.08-1.32-.16-2.1-.34-1.77-.41-3.14.43-4.34,1.5a2.5,2.5,0,0,0-.41,1.78c0,.54.63.58,1.12.68C186.78,156,188.68,156.43,190.57,156.86Z"/><path class="cls-1" d="M134.21,125.94a7,7,0,0,0,5.24-.16c1.29-.63,2.22-1.59,2-2.44-.28-1.28-1.33-1.78-2.43-2.13a9.54,9.54,0,0,0-1.44-.15c-3.41-.54-5.75,1.73-8.36,3.25-.19.11-.28.59-.24.88a.92.92,0,0,0,.88.89A7.93,7.93,0,0,0,134.21,125.94Z"/><path class="cls-1" d="M158.69,149.75a6.69,6.69,0,0,0,.51-1.11,2.38,2.38,0,0,0-2.23-2.31,9.19,9.19,0,0,0-9.06,6.5c-.18.65.44,1.18,1.18,1,2.3-.68,4.61-1.36,6.89-2.1A5,5,0,0,0,158.69,149.75Z"/><path class="cls-1" d="M103,114.66c1.47.28,2.73-.76,3.68-1.93a1.29,1.29,0,0,0-.09-1.76,3.89,3.89,0,0,0-2.83-1.45c-3.7.26-6.29.4-8.47,2a2.39,2.39,0,0,0-.92,1.61c0,.7.83,1,1.43,1A41.26,41.26,0,0,1,103,114.66Z"/><path class="cls-1" d="M184.7,91.26a19.3,19.3,0,0,0,6.14,2,6.62,6.62,0,0,0,3.55-.78,1.87,1.87,0,0,0,.66-3.12c-1.61-1.69-8.58-2.39-10.53-1.05A1.69,1.69,0,0,0,184.7,91.26Z"/><path class="cls-1" d="M100.87,135.54c.51.09,1.3.24,2.09.35,2,.29,3.41-.67,4.7-2a1.38,1.38,0,0,0-.2-2.1,5.51,5.51,0,0,0-2.63-1.09c-3.21-.39-5.94,1.16-8.8,2.14-.61.21-.65,1.08-.61,1.73s.63,1,1.3,1.15A11.41,11.41,0,0,0,100.87,135.54Z"/><path class="cls-1" d="M185.16,101.86c1.45,1.21,3.29,1.32,5.09,1.48a4.59,4.59,0,0,0,2.81-.67,2,2,0,0,0,1-1.57,2.09,2.09,0,0,0-1.08-2c-1.31-.9-2.85-.56-4.23-.79a8.9,8.9,0,0,0-3.45.23c-1.68.57-3,1.66-2.72,2.37C183.09,102.1,184.38,101.21,185.16,101.86Z"/><path class="cls-1" d="M125.71,144a2.4,2.4,0,0,0-2.2-1.63c-4.06-.34-7.74.3-10.19,4.61,3.32,1.22,6.23-.05,9.08.54.59.12,1.45-.61,2.06-1.11S126.06,145.16,125.71,144Z"/><path class="cls-1" d="M124.54,76.93a1.37,1.37,0,0,0,0-1.78,3.55,3.55,0,0,0-1.44-1.23c-1.82-.57-3.66-1.25-5.64-.71-2.18.6-4.31,1.29-5.75,4.07,3.08.69,5.86.41,8.5,1.24A4,4,0,0,0,124.54,76.93Z"/><path class="cls-1" d="M132.13,76.64c1,0,1.93-.12,3-.21.66.08,1.46.2,2.26.28a6.13,6.13,0,0,0,4.1-1.23,1.92,1.92,0,0,0,1.08-2,2.15,2.15,0,0,0-1.56-1.69,13,13,0,0,0-6.71-.13,15.42,15.42,0,0,0-3.16,1.17,2.94,2.94,0,0,0-1.11,3C130.47,76.77,131.38,76.63,132.13,76.64Z"/><path class="cls-1" d="M176.4,85.86c1.27-.86,1.34-2.31,0-3.08a5.8,5.8,0,0,0-3.69-1,30.87,30.87,0,0,1-3.86.41c-1.7,0-2.62,1-3.59,2.52A17.25,17.25,0,0,0,168,86.06C170.81,86.81,173.63,87.73,176.4,85.86Z"/><path class="cls-1" d="M138.59,67.73a3.9,3.9,0,0,0,2.66-1.1c.77-.64,1.54-1.36,1.19-2.46a2.25,2.25,0,0,0-1.86-1.42,20.15,20.15,0,0,0-6.32.16c-2.71.42-4,1.8-4,4.64C133.08,68.17,135.85,67.51,138.59,67.73Z"/><path class="cls-1" d="M36.5,59.07c-2.37-.52-4.77-.91-7.17-1.28A2.76,2.76,0,0,0,27,58.3c-.48.42-1.06.9-.91,1.6a1.93,1.93,0,0,0,.88,1,21.18,21.18,0,0,0,8.2,3h.45a3.08,3.08,0,0,0,3-2C38.94,61,37.84,59.36,36.5,59.07Z"/><path class="cls-1" d="M152.05,135.72a7.7,7.7,0,0,0-3.43,5c.43.16.76.42,1,.37,2.51-.56,5-1.14,7.52-1.78a4.71,4.71,0,0,0,3-2.32c.79-1.35-.13-3.29-1.66-3.17A12.26,12.26,0,0,0,152.05,135.72Z"/><path class="cls-1" d="M175.89,129.67c-2.75-.62-5.52.05-8.28.08-.87,0-1.48,1.43-1.21,2.33a3.05,3.05,0,0,0,2.37,2.24c1.11.24,2.26.31,3.39.45a7.5,7.5,0,0,0,5.51-1.61,1.88,1.88,0,0,0-.06-2.63A5.2,5.2,0,0,0,175.89,129.67Z"/><path class="cls-1" d="M19,74.83c-2.27-.85-4.84-.54-6.66-1.83-1.5.25-2.63.4-3.74.64a1,1,0,0,0-.64.62,1.07,1.07,0,0,0,.21.88c2.54,2.52,5.77,3.51,9.18,4a2.78,2.78,0,0,0,1.41-.33,2.28,2.28,0,0,0,1.64-2.18A2.08,2.08,0,0,0,19,74.83Z"/><path class="cls-1" d="M117.14,124.69c1.34.09,2.14.21,2.95.19a5.48,5.48,0,0,0,3.51-1.44,2,2,0,0,0-.35-3.26,2.66,2.66,0,0,0-.87-.4c-2.92-.4-5.81-.55-8.2,1.64-.92.85-2.62,1.62-2.26,2.85.47,1.63,2.19.46,3.35.53A10.73,10.73,0,0,0,117.14,124.69Z"/><path class="cls-1" d="M160,73.83c-2.2-.48-4.46-1-6.64,0a8.36,8.36,0,0,0-4.6,5.07c3.31-.12,6.29-.16,9.27-.37a4.62,4.62,0,0,0,2.86-1.68A1.86,1.86,0,0,0,160,73.83Z"/><path class="cls-1" d="M103.71,91.32a13.9,13.9,0,0,0-1.46,0,8.35,8.35,0,0,0-7.1,2.52c-.55.52-.46,1.4.21,1.5,2.72.39,5.45.82,8.18,1,1.73.1,3.76-1.41,3.9-2.49S105.8,91.54,103.71,91.32Z"/><path class="cls-1" d="M34.56,80.71A3.84,3.84,0,0,0,37.33,80a1.74,1.74,0,0,0,.32-2.87,4.88,4.88,0,0,0-2-1.22c-2.08-.36-4.19-.5-6.07-.7-1.18.12-2.14,0-3,.62s-1.15,1.72-.23,2.33C28.78,79.81,31.67,80.27,34.56,80.71Z"/><path class="cls-1" d="M132.92,143.44c2.42,0,4.85-.11,7.27-.19a2.2,2.2,0,0,0,.95-.19c1.24-.68,2.89-.94,3.12-2.72.16-1.24-1.59-2.32-3.71-2.36a12.43,12.43,0,0,0-8.35,3.34,2.12,2.12,0,0,0-.3,1.33C131.9,143.27,132.49,143.44,132.92,143.44Z"/><path class="cls-1" d="M130.22,95.23c1.12.07,2.25,0,3.37,0,0-.08,0-.17,0-.25,1.28.06,2.57.14,3.86.18a4.46,4.46,0,0,0,3.37-1.64,1.79,1.79,0,0,0-.73-3.08,10.71,10.71,0,0,0-8,.71c-1,.5-2.18.77-2.67,1.94a4,4,0,0,0-.26,1.38C129.16,95.2,129.8,95.21,130.22,95.23Z"/><path class="cls-1" d="M35.59,125.21c-2.91-.15-5.85-.43-8.72.27a2.31,2.31,0,0,0-1.74,2.6c2.87,2.16,6.19,1.57,9.39,1.53a3.86,3.86,0,0,0,1.75-.78,1.92,1.92,0,0,0,1-2.06A1.85,1.85,0,0,0,35.59,125.21Z"/><path class="cls-1" d="M38,87.6a1.73,1.73,0,0,0,.25-2.82c-1.56-1.74-3.6-1-5.5-1.28-2,0-4.15-.08-6.08,1a1,1,0,0,0-.44.7,1.11,1.11,0,0,0,.4.81,17.34,17.34,0,0,0,8.69,2.56A4.23,4.23,0,0,0,38,87.6Z"/><path class="cls-1" d="M160.15,116.22a2,2,0,0,0-1.73-1.51,8.91,8.91,0,0,0-6.19.73c-2,1.08-3.8,2.52-4.31,5.26,3.1-.08,5.9-1.11,8.83-.93,1,.06,1.77-.77,2.5-1.42A2.17,2.17,0,0,0,160.15,116.22Z"/><path class="cls-1" d="M35.2,116.42c-1,0-1.93.14-3.59.28-.61,0-1.91,0-3.21,0a2.52,2.52,0,0,0-2.16.9,2.65,2.65,0,0,0-.63,1.23c0,.51.43.83.92.94,2.7.58,5.4,1.16,8.11,1.68a4.61,4.61,0,0,0,3.2-1,1.75,1.75,0,0,0,.34-2.56A4.3,4.3,0,0,0,35.2,116.42Z"/><path class="cls-1" d="M16.5,141.5a4.72,4.72,0,0,0,2.71-1c1.36-1.17,1.34-2.06,0-3.16-1.74-1.38-3.77-.62-5.52-.87-1.77.12-3.42.14-5,.39a2.35,2.35,0,0,0-1.34,1.25c-.36.73.27,1,.86,1.41A12.61,12.61,0,0,0,16.5,141.5Z"/><path class="cls-1" d="M85.4,156a36.46,36.46,0,0,0-4.6,1.06c-1,.33-2.62.77-2.45,2,.2,1.5,1.88,1.28,3.1,1.41l3.36.33a9.88,9.88,0,0,0,1.92.14c2-.21,4-1.73,4-2.91C90.8,156.62,89.14,155.83,85.4,156Z"/><path class="cls-1" d="M37,100.22c-3.2-.44-6.45-1-9.65.06-.15,0-.35.15-.39.27s-.24.75-.13.84a16.71,16.71,0,0,0,9.4,3.43,3.71,3.71,0,0,0,2.92-1.58,2,2,0,0,0-2.14-3Z"/><path class="cls-1" d="M105.84,104.5a1.45,1.45,0,0,0,0-2.14,4.15,4.15,0,0,0-1.56-1.11,11.72,11.72,0,0,0-8.53,1,3.16,3.16,0,0,0-1.58,3.48c2.71.12,5.44.29,8.17.35A4.83,4.83,0,0,0,105.84,104.5Z"/><path class="cls-1" d="M117.63,115.24a3.87,3.87,0,0,0,4.28-.78,2.21,2.21,0,0,0,1.05-2,2.75,2.75,0,0,0-1.8-2.1,8.82,8.82,0,0,0-9.08,2.79c-.36.49-.87,1-.57,1.73s1,.58,1.64.68C114.6,115.74,116,114.67,117.63,115.24Z"/><path class="cls-1" d="M142.83,133.51a1.58,1.58,0,0,0-.42-2.14c-.81-.69-1.74-.79-3.42-.78-2.89-.3-5.52,1.48-7.83,3.93a1.42,1.42,0,0,0-.21.9c0,.65.57.79,1,.76q3.86-.24,7.71-.58A4.6,4.6,0,0,0,142.83,133.51Z"/><path class="cls-1" d="M70.71,126.59a29.14,29.14,0,0,0-6.79.82,3.23,3.23,0,0,0-2.52,3c3.06,1.23,6.3,1,9.51.88a3.47,3.47,0,0,0,2.33-1.66,1.48,1.48,0,0,0-.31-2.13A3.62,3.62,0,0,0,70.71,126.59Z"/><path class="cls-1" d="M35.45,142.84c-3.84-.63-7.7-1.06-11.31,1.95a13.2,13.2,0,0,0,9.16,2.43,3.81,3.81,0,0,0,2.66-1,3.21,3.21,0,0,0,.87-1.64A1.63,1.63,0,0,0,35.45,142.84Z"/><path class="cls-1" d="M171.76,165.9a7.85,7.85,0,0,0,5.72-.55,2,2,0,0,0,1.37-2.31,2.12,2.12,0,0,0-2.14-1.67,10.9,10.9,0,0,0-2.41.22c-1,.13-1.93.28-2.67.39-2.45-1-3.28,1-4.63,2a2.49,2.49,0,0,0,.27.7C169.06,164.08,170.28,165.46,171.76,165.9Z"/><path class="cls-1" d="M125.47,162.88a3.74,3.74,0,0,0-1.26-.63,10.26,10.26,0,0,0-8.17,2.12,2.78,2.78,0,0,0-.82,3.2c3,.55,6-.59,9-.75.55,0,1.11-.63,1.58-1.05A1.78,1.78,0,0,0,125.47,162.88Z"/><path class="cls-1" d="M150,109.3c1.43-.26,2.88-.47,4.32-.68a5.11,5.11,0,0,0,3.34-1.83,2.09,2.09,0,0,0,.49-2.25,2.47,2.47,0,0,0-1.89-1.39,6.28,6.28,0,0,0-1,0c-3.17,0-5,.84-7.09,3.53-.65.82-1.87,1.79-.94,2.89C148,110.38,149.12,109.47,150,109.3Z"/><path class="cls-1" d="M19.14,148.28a18.62,18.62,0,0,0-9.08-.34c-.86.18-1.3.9-1.78,1.92A11.7,11.7,0,0,1,10.19,151c1.84,1.68,4.19,1.51,6.38,1.8a3.79,3.79,0,0,0,3.12-1.06C21,150.53,20.77,148.75,19.14,148.28Z"/><path class="cls-1" d="M187.77,50c-1.05-.14-1.8.6-2.58,1.15a.87.87,0,0,0-.21,1.27c1.76,1.66,3.66,3.11,6.68,3.28a16.33,16.33,0,0,0,2.75-.9,2.17,2.17,0,0,0,1-2.08A1.74,1.74,0,0,0,194,51C191.92,50.62,189.84,50.31,187.77,50Z"/><path class="cls-1" d="M130.94,56.52a2.1,2.1,0,0,0-.36.89c-.21.7-.07,1.41.69,1.49a36.88,36.88,0,0,0,3.86,0l0-.25c.79.14,1.58.3,2.38.41A5.29,5.29,0,0,0,141.64,58a2.71,2.71,0,0,0,1-1.56,1.87,1.87,0,0,0-1.27-1.87C138.57,53.31,133.21,54.29,130.94,56.52Z"/><path class="cls-1" d="M26.76,42.52c2.49,1.68,5.39,2,8.25,2.35a3,3,0,0,0,2.48-1.3,1.36,1.36,0,0,0-.21-2.08,28.75,28.75,0,0,0-8.8-2.3,5.13,5.13,0,0,0-1,.06A2.31,2.31,0,0,0,25.95,41C25.67,41.77,26.22,42.16,26.76,42.52Z"/><path class="cls-1" d="M78.16,78.4c2.21.46,4.5.12,6.72.76,1.25.36,2.51-.41,3.57-1.23a1.57,1.57,0,0,0,0-2.5c-1.31-1.34-3-.91-4.85-1.27-1.83.17-4,.15-5.82,1.36a1.9,1.9,0,0,0-.91,1.63C76.92,77.87,77.48,78.25,78.16,78.4Z"/><path class="cls-1" d="M132.59,103a4.91,4.91,0,0,0,.77-.14c.68-.33,1.64.08,2.61.09a6.8,6.8,0,0,0,3.68-1.1c.69-.43,1.38-1,1.29-1.9-.11-1.17-1.06-1.61-2-1.74a11.4,11.4,0,0,0-7.54,1.13c-1.92,1.11-3,2.42-2.37,3.17C130,103.78,131.38,103,132.59,103Z"/><path class="cls-1" d="M84.48,106.17a4.93,4.93,0,0,0,4.08-1.07,1.7,1.7,0,0,0-.18-2.83c-1.59-1.07-3.35-1-5.1-.77a8.1,8.1,0,0,0-5.59,1,1.61,1.61,0,0,0-.82,1.61,1,1,0,0,0,1,.91C80,105.44,82.26,105.82,84.48,106.17Z"/><path class="cls-1" d="M78.6,41.46a2.15,2.15,0,0,0-.91,1c-.27.56-.48,1.28.42,1.51,2.47.62,5.19-.2,7.15,1.24a6.15,6.15,0,0,0,4-1,1.5,1.5,0,0,0,.28-2.44,5.29,5.29,0,0,0-3-1.48A14.71,14.71,0,0,0,78.6,41.46Z"/><path class="cls-1" d="M78.28,116c2.54.47,5.14-.06,7.7.78,1.39.46,2.79-.65,3.86-1.69a1.23,1.23,0,0,0,0-1.75c-1.3-1.57-3.06-1.68-4.77-1.53-2.66-.23-4.91.77-7.15,1.7a1.6,1.6,0,0,0-.67,1.72C77.33,115.79,77.84,115.89,78.28,116Z"/><path class="cls-1" d="M81.59,125.5c.81.11,1.61.25,2.42.33a5.71,5.71,0,0,0,4.4-1.76,1.25,1.25,0,0,0,.13-1.75,2.83,2.83,0,0,0-1.9-1.44c-3.49-.41-6.88-.28-9.58,2.41-.3.3-.62.91-.5,1.19s.73.6,1.16.81C79,125.92,80.3,125.37,81.59,125.5Z"/><path class="cls-1" d="M189.84,130.6c-1.77,0-2.75-.06-3.73,0-1.73.13-3.6,1.11-3.83,2.48-.3,1.75,2,.69,3,1.42,1.5,1.09,3.37,1.09,5.18,1.06a4.7,4.7,0,0,0,3.41-1.66,1.83,1.83,0,0,0-.55-2.88A5.76,5.76,0,0,0,189.84,130.6Z"/><path class="cls-1" d="M26.47,51.36c2.39,1.56,5.18,1.79,7.88,2.26a3.53,3.53,0,0,0,3.06-1.24c.47-.45,1-1.07.69-1.7a2.28,2.28,0,0,0-1.36-1.22c-2.39-.41-4.81-.66-7.22-1-.94.24-2-.19-2.8.58a4.14,4.14,0,0,0-.84,1.16C25.6,50.8,26.09,51.12,26.47,51.36Z"/><path class="cls-1" d="M87,137.27c-2.81,0-5.35,1.45-7.85,2.9-.32.18-.44.84-.5,1.3a.88.88,0,0,0,.82,1c3.23.63,6.35-.24,9.49-.75.57-.09,1.08-.67,1.57-1.09a1.46,1.46,0,0,0-.14-2.43A4.87,4.87,0,0,0,87,137.27Z"/><path class="cls-1" d="M78.5,52.88c2.22.33,4.47.15,6.69.83,1.47.45,2.8-.55,3.93-1.52.21-.18.26-.57.39-.87a2.23,2.23,0,0,0-1.87-2,12.5,12.5,0,0,0-9.81,1.2,1.67,1.67,0,0,0-.65,1.24C77.17,52.55,77.84,52.79,78.5,52.88Z"/><path class="cls-1" d="M88.24,83.64a5.86,5.86,0,0,0-1.81-.6,15.57,15.57,0,0,0-7.19.5,2.39,2.39,0,0,0-1.79,2.63,21.3,21.3,0,0,0,10.42,1,1.78,1.78,0,0,0,1.58-1.6A2,2,0,0,0,88.24,83.64Z"/><path class="cls-1" d="M108,150.42c-3.41-.25-6.77,0-9.66,2.17a1.56,1.56,0,0,0-.55,1.26c.07.36.6.71,1,.91,1.24.62,2.55.09,4.2.14l3,.19a3.84,3.84,0,0,0,2.66-1c.63-.51,1.24-1.09,1-2A2.18,2.18,0,0,0,108,150.42Z"/><path class="cls-1" d="M106.21,58.88a1.88,1.88,0,0,0-.14-3.23,3.82,3.82,0,0,0-1.3-.63,13.22,13.22,0,0,0-7.68.71c-1.24.56-2.24,1.33-2.18,3,2.55.42,5.09.9,7.64,1.25A4.94,4.94,0,0,0,106.21,58.88Z"/><path class="cls-1" d="M67.07,137.62c-1.43,0-2.42-.08-3.38,0a5.89,5.89,0,0,0-2.31.66,3.09,3.09,0,0,0-1,1.55c0,.13.63.61,1,.82,2.37,1.24,5.09,1,7.58,1.74a3.82,3.82,0,0,0,3.2-.92,1.69,1.69,0,0,0,0-2.83C70.52,137.12,68.51,137.72,67.07,137.62Z"/><path class="cls-1" d="M138.19,105.81c-3.53-.44-6.24,1.37-8.84,3.38-.2.15-.24.59-.23.89a1,1,0,0,0,.91.94c.48.09,1,.08,1.8.14a13.7,13.7,0,0,1,5-.38c1.85.26,3-.95,4.11-2.18a1.34,1.34,0,0,0-.46-2.06A7.76,7.76,0,0,0,138.19,105.81Z"/><path class="cls-1" d="M132.78,117.64l2.74.17a5.89,5.89,0,0,0,4-1.38,1.86,1.86,0,0,0-.38-3.19,6.42,6.42,0,0,0-1.85-.48c-3.47-.4-6.25,1.19-8.86,3.2-.45.35-.17,1.36.36,1.62A5.26,5.26,0,0,0,132.78,117.64Z"/><path class="cls-1" d="M140.63,162.68a2,2,0,0,0,.94-.22c1.63-.58,3-2.21,2.61-3.1a2.69,2.69,0,0,0-2.25-1.51c-4.35-.21-7,1.29-9.62,3-.29.2-.39.87-.36,1.31.06.81.75,1,1.41,1C135.79,163.13,138.16,162.24,140.63,162.68Z"/><path class="cls-1" d="M156.33,97.93a1.88,1.88,0,0,0-.81-2.83,12.53,12.53,0,0,0-1.85-.36c-3.58-.32-5.78,1.77-7.68,4.32a1.59,1.59,0,0,0-.21,1.34,1.37,1.37,0,0,0,1.16.48c2.08-.24,4.16-.55,6.23-.9A4.63,4.63,0,0,0,156.33,97.93Z"/><path class="cls-1" d="M72.28,93A3.35,3.35,0,0,0,70.09,92H67.16c0-.05,0-.1,0-.16a27.84,27.84,0,0,0-2.92,0,7,7,0,0,0-2.34.62,2.06,2.06,0,0,0-1.1,2c.05.74.82,1,1.4,1.11,2.57.4,5.15.78,7.74,1a4.56,4.56,0,0,0,2.28-.75A1.89,1.89,0,0,0,72.28,93Z"/><path class="cls-1" d="M112.47,85.28a1.91,1.91,0,0,0-.33,1.31c0,.58.57.79,1,.82,1.12.07,2.25,0,3.38,0v-.11c1.13.09,2.25.22,3.38.25a5.17,5.17,0,0,0,3.55-1.31,1.66,1.66,0,0,0,.07-2.52,3.73,3.73,0,0,0-1.2-.79A10.06,10.06,0,0,0,112.47,85.28Z"/><path class="cls-1" d="M168.28,50.43a11.75,11.75,0,0,0,6,1.72,5.87,5.87,0,0,0,3.61-1.27,2,2,0,0,0-.23-3.3c-1.18-.75-2.48-.65-4.17-.65-.75.08-1.87.25-3,.32s-1.66.81-2.24,1.63C167.84,49.48,167.48,50,168.28,50.43Z"/><path class="cls-1" d="M54.72,41.3a17,17,0,0,0-3.4-.28,14,14,0,0,0-6.22.91,1.1,1.1,0,0,0-.7,1.14,1.08,1.08,0,0,0,.85,1q3.79.93,7.6,1.74a3.18,3.18,0,0,0,2.32-.57c.73-.44,1.43-1,1.37-1.87A2.43,2.43,0,0,0,54.72,41.3Z"/><path class="cls-1" d="M17.07,32.39a2.64,2.64,0,0,0,2.88-2,1.48,1.48,0,0,0-.85-1.68,21,21,0,0,0-8.47-2.1,8.88,8.88,0,0,0-1.9.34,1.06,1.06,0,0,0-.41,1.58A14.62,14.62,0,0,0,17.07,32.39Z"/><path class="cls-1" d="M141.8,46.39a12.9,12.9,0,0,0-3.3-.64,9.37,9.37,0,0,0-6.75,2.17,1.43,1.43,0,0,0-.52,1.73,1.64,1.64,0,0,0,1.15.62c2.08.24,4.23-.5,5.84.32,1.6.1,2.75,0,3.67-.77a2.92,2.92,0,0,0,1.09-1.5A1.79,1.79,0,0,0,141.8,46.39Z"/><path class="cls-1" d="M191.83,47.09a4.6,4.6,0,0,0,2.85-.42,2.7,2.7,0,0,0,1.69-2.23,2.16,2.16,0,0,0-1.83-2c-1.41-.33-2.92-.24-4.35-.52-2.37-.48-4.09.44-5.86,2.53,1,.73,2.09.46,2.93,1.15A8.62,8.62,0,0,0,191.83,47.09Z"/><path class="cls-1" d="M81.58,133.78a18.43,18.43,0,0,0,1.93-.27c1,.07,1.94.14,2.91.2a4.6,4.6,0,0,0,2.8-.67c.69-.44,1.45-.91,1.42-1.82a2.15,2.15,0,0,0-1.45-1.79,3.63,3.63,0,0,0-2.34-.47c-1.91.38-3.85.66-5.7,1.21-1.19.36-2.57.78-2.84,2.35C78.16,133.35,79.48,133.86,81.58,133.78Z"/><path class="cls-1" d="M26.85,110.75c2.35,1.3,5,1.32,7.71,1.88a11.32,11.32,0,0,0,1.32-.12,3.31,3.31,0,0,0,2.32-2.3c.12-.81-1.05-2-2.3-2.14-2.11-.17-4.24-.24-6.36-.25a6.25,6.25,0,0,0-2.39.47c-.53.22-1.28.59-1.12,1.37A1.81,1.81,0,0,0,26.85,110.75Z"/><path class="cls-1" d="M70.17,68.29a1.87,1.87,0,0,0,.2-2.59A2.88,2.88,0,0,0,68,64.37a23.46,23.46,0,0,1-4.33,0,5.67,5.67,0,0,0-5.24,2.12c2.79,1.94,6.06,2.14,9.15,2.81A3.44,3.44,0,0,0,70.17,68.29Z"/><path class="cls-1" d="M25.94,136.72a8.51,8.51,0,0,0,5,.71c3.54,0,3.7-.06,4.8-1.05a1.66,1.66,0,0,0-.66-3c-3.19-.52-6.42-.74-9.49.6a2.3,2.3,0,0,0-1.2,1.4C24.14,136.53,25.26,136.45,25.94,136.72Z"/><path class="cls-1" d="M89.34,147.3c-3.43-.15-6.8.05-9.71,2.19a1,1,0,0,0-.28.83,1.2,1.2,0,0,0,.6.66,5.64,5.64,0,0,0,4.1.41c.68-.4,1.56.24,2.51.38a5,5,0,0,0,4-1.25,1.58,1.58,0,0,0,0-2.49C90.18,147.75,89.76,147.32,89.34,147.3Z"/><path class="cls-1" d="M101.37,146.4c.84,0,2,.12,3.1.17a3.8,3.8,0,0,0,2.7-.87c.61-.52,1.31-1,1.16-2a2.3,2.3,0,0,0-1.94-1.92c-3.35-.66-6.35.42-9.16,2.14-.24.15-.35.53-.51.8a1.17,1.17,0,0,0,.52,1.59A9.87,9.87,0,0,0,101.37,146.4Z"/><path class="cls-1" d="M112.92,105.17c1.11.09,2.24,0,3.36,0V105c.48,0,1,0,1.45.08a11.46,11.46,0,0,0,1.44.16,7.9,7.9,0,0,0,1.9-.27,2.65,2.65,0,0,0,1.72-2.62,2.19,2.19,0,0,0-2-1.8,8.74,8.74,0,0,0-8.76,2.71c-.31.33-.69.82-.3,1.28A1.88,1.88,0,0,0,112.92,105.17Z"/><path class="cls-1" d="M55.29,97.15c-3.5-1.59-7-1.05-10.46.14a1.42,1.42,0,0,0-.73,1.64c.08.56.55.79,1,.92,2.23.61,4.59-.2,7,.71,1-.32,2.43,0,3.36-1.3C56,98.53,56,97.48,55.29,97.15Z"/><path class="cls-1" d="M53.62,130.48a11.59,11.59,0,0,0-8.82,1.16,2.07,2.07,0,0,0-.79,1.11c-.2.64.44.71.84.89a8,8,0,0,0,4.5.42,9.58,9.58,0,0,0,4.57-.21,2.47,2.47,0,0,0,1.83-2.07C55.77,130.39,54.52,130.68,53.62,130.48Z"/><path class="cls-1" d="M98.81,126.36c2.2.19,3.34.33,4.48.38a3.3,3.3,0,0,0,2.58-1.19,1.62,1.62,0,0,0-.15-2.53,4.29,4.29,0,0,0-1.73-.82,15.6,15.6,0,0,0-8.91,1.92c-.31.15-.5.85-.5,1.3a.91.91,0,0,0,.9.94C96.94,126.38,98.41,126.36,98.81,126.36Z"/><path class="cls-1" d="M9.81,117a2,2,0,0,0-1.13.82c-.47.79.35,1,.77,1.44a8.65,8.65,0,0,0,6.7,2.65,3.63,3.63,0,0,0,3.74-1.37c.58-.78.35-2.28-.55-2.5C16.22,117.29,13.11,116.17,9.81,117Z"/><path class="cls-1" d="M149.36,131.91c2-.53,4.09-1.07,6.12-1.64a7.41,7.41,0,0,0,1.8-.7,2.31,2.31,0,0,0,1.15-2.51,1.94,1.94,0,0,0-2.25-1.48c-4,0-5.82,1.06-8,4.57-.32.53-.78,1.1-.24,1.72C148.39,132.33,148.92,132,149.36,131.91Z"/><path class="cls-1" d="M54.69,119.72a34.79,34.79,0,0,0-6.79.38c-1.29.26-3.46.71-3.37,2.3.11,2,2.26,1.18,3.59,1.4a19,19,0,0,0,2.22,0c.22,0,1.19.22,2.16.29a3.82,3.82,0,0,0,3.11-1.16c.46-.46.94-.94.75-1.69A1.81,1.81,0,0,0,54.69,119.72Z"/><path class="cls-1" d="M105.46,159.61c-3.22.33-6.56.27-8.55,3.88.69.35,1,.62,1.26.62,2.57,0,5.14.06,7.71,0a3.64,3.64,0,0,0,2.43-1.49,1.55,1.55,0,0,0-.19-2.15A3.22,3.22,0,0,0,105.46,159.61Z"/><path class="cls-1" d="M55.7,106.58a2.08,2.08,0,0,0-1.6-1.66,23.75,23.75,0,0,0-3.36-.28c-2,.11-4.16.08-6.11,1a1.57,1.57,0,0,0-.8,1.1,1.32,1.32,0,0,0,.72,1.06c2.69.48,5.39.89,8.1,1.21a3.46,3.46,0,0,0,1.81-.52A1.93,1.93,0,0,0,55.7,106.58Z"/><path class="cls-1" d="M28.89,34.37a9.42,9.42,0,0,0,4.62,1c1.61.26,3.08.33,3.93-1.28.21-.4.52-1,0-1.3-2.64-1.64-5.3-3.33-8.59-1.74-.84.41-2.25.34-2.33,1.46C26.38,33.95,28,33.82,28.89,34.37Z"/><path class="cls-1" d="M52.45,53.34a4.16,4.16,0,0,0,1.33-.56,1.49,1.49,0,0,0,0-2.45c-3.56-1.73-7.11-2.05-11.08.4C45.83,52.59,50.27,53.71,52.45,53.34Z"/><path class="cls-1" d="M19,108a17.45,17.45,0,0,0-6.28-1.69c-1,.25-2.28.54-3.51.91a.93.93,0,0,0-.44.73,1.09,1.09,0,0,0,.39.8,16.78,16.78,0,0,0,8.13,2.86,2.69,2.69,0,0,0,2.18-.89A1.64,1.64,0,0,0,19,108Z"/><path class="cls-1" d="M60.89,87c2.67.5,5.37.88,8.07,1.27a2.32,2.32,0,0,0,.92-.25,1.44,1.44,0,0,0,.48-2.35,7.55,7.55,0,0,0-5.77-2c-1.4,0-2.87-.11-4,1.09C59.8,85.5,59.87,86.77,60.89,87Z"/><path class="cls-1" d="M54,81.7c-1.73-.28-3.29-1.51-5.17-1a7.72,7.72,0,0,0-4.29.42,1.33,1.33,0,0,0-1.06,1.42,1.56,1.56,0,0,0,.88,1c2.44,1,5.07.93,7.63,1.21a4,4,0,0,0,2.19-.86,2,2,0,0,0,.66-1.25C54.88,82.12,54.46,81.78,54,81.7Z"/><path class="cls-1" d="M44.45,76.34c2.37.48,4.77.84,7.17,1.18a2.36,2.36,0,0,0,1.4-.29,1.87,1.87,0,0,0,.9-1.05,1.72,1.72,0,0,0-.44-1.29c-1.71-1.85-4.13-1.59-6.26-2a21.9,21.9,0,0,1-2.44.37,1.63,1.63,0,0,0-1.66,1.43C42.85,75.8,43.7,76.19,44.45,76.34Z"/><path class="cls-1" d="M69.9,156.87c-3.17-.85-6.32-1.1-9.4.39a1.76,1.76,0,0,0-1.09,1.48c0,.72.63,1.09,1.3,1.16,1.44.15,2.88.23,4.32.34v-.08c1.12.07,2.24.21,3.36.2a2.73,2.73,0,0,0,2.12-1A1.78,1.78,0,0,0,71,157.6,1.75,1.75,0,0,0,69.9,156.87Z"/><path class="cls-1" d="M123.61,152.32a8.55,8.55,0,0,0-7.68,1.7,1.71,1.71,0,0,0-.57,2.16c.32.62,1,.67,1.69.66,1.59,0,3.08-1.05,5-.4.39,0,1,0,1.66,0a3.6,3.6,0,0,0,.92-.29,1.47,1.47,0,0,0,.77-2.31A2.91,2.91,0,0,0,123.61,152.32Z"/><path class="cls-1" d="M63.11,45.58a2.28,2.28,0,0,0-1.87,1.34c-.37,1.08.66,1.27,1.28,1.67a10.89,10.89,0,0,0,5.87,2c.16,0,.32,0,.48,0a2.76,2.76,0,0,0,2.44-1.31C71.86,48,70.62,47.55,70,47A8.17,8.17,0,0,0,63.11,45.58Z"/><path class="cls-1" d="M77.87,62c2.15,1,4.56,0,6.7,1.06a14.53,14.53,0,0,0,2.4-.51,1.88,1.88,0,0,0,1.38-1.81,1.71,1.71,0,0,0-1.47-1.67,13.27,13.27,0,0,0-9,.92A1.9,1.9,0,0,0,77,61.09C76.88,61.66,77.44,61.82,77.87,62Z"/><path class="cls-1" d="M52.76,38.08A2.38,2.38,0,0,0,54.83,37c.41-.55.67-1.21,0-1.68A10.13,10.13,0,0,0,49,33.43c-2.22-.08-3.54,1.18-5.31,2.48a14.85,14.85,0,0,0,2.89,1.3A62.23,62.23,0,0,0,52.76,38.08Z"/><path class="cls-1" d="M69.53,76.8a1.08,1.08,0,0,0,.37-1.65c-1.54-2.28-3.91-2.64-6.57-2.66-1.06.22-2.43-.08-3.46,1-.44.46-.51,1.4,0,1.66a25.29,25.29,0,0,0,7.86,2.26A3.21,3.21,0,0,0,69.53,76.8Z"/><path class="cls-1" d="M43.41,60c2.69,1.25,5.61,1.08,8.46,1.31a2.53,2.53,0,0,0,.91-.29c.62-.22,1-1.12.58-1.54-1.21-1.32-2.47-2.58-4.93-2.28-1.57-.45-3.33.4-5.13,1-.24.08-.41.46-.54.74C42.46,59.58,43,59.79,43.41,60Z"/><path class="cls-1" d="M16.55,130.53a1.56,1.56,0,0,0,1.24-1.35,1.52,1.52,0,0,0-.7-1.65c-3.12-2.16-6.35-2.11-9.92-.59C9.52,130.49,12.86,131,16.55,130.53Z"/><path class="cls-1" d="M70.73,102.22c-2.88-1.9-5.85-1.54-8.82-.27a2,2,0,0,0-1.13,1.59,5.77,5.77,0,0,0,4,1.3c1.79,0,3.54.72,5.35.26a1.84,1.84,0,0,0,1.37-1.26A1.36,1.36,0,0,0,70.73,102.22Z"/><path class="cls-1" d="M65.46,114.1a8.68,8.68,0,0,0,1.93.26,9.39,9.39,0,0,0,2.34-.56,1.15,1.15,0,0,0,.35-2c-2.18-2.06-6.94-2.19-9.47-.24a2.26,2.26,0,0,0-.3.38,1.24,1.24,0,0,0,.33,1.67A10,10,0,0,0,65.46,114.1Z"/><path class="cls-1" d="M70,121.77a.94.94,0,0,0,.46-.14c.34-.33.81-.66.9-1.06a1.5,1.5,0,0,0-.41-1.26c-3.21-2.59-7.14-2.2-10.26,1a3.45,3.45,0,0,0,2.55,1.16C65.47,121.4,67.69,122.2,70,121.77Z"/><path class="cls-1" d="M52.37,68.77a.92.92,0,0,0,.93-.94,1.84,1.84,0,0,0-.22-.92c-1.52-2.17-3.85-2.18-6.16-2.34a28.93,28.93,0,0,0-3.36.48,1.54,1.54,0,0,0-.83,1.12,1.42,1.42,0,0,0,.57,1.2A18.49,18.49,0,0,0,52.37,68.77Z"/><path class="cls-1" d="M51.19,116.48c.55,0,.87,0,1.19,0a2.15,2.15,0,0,0,2-1.77A1.86,1.86,0,0,0,53,112.93c-3.27-1.52-6.23-.57-9.06,1.19a1,1,0,0,0-.23.85,1,1,0,0,0,.52.67C46.57,116.66,49.11,115.58,51.19,116.48Z"/><path class="cls-1" d="M44.71,91.15c2.36.44,4.73.82,7.11,1.15A3.16,3.16,0,0,0,53.21,92a.78.78,0,0,0,.42-1.16,3.88,3.88,0,0,0-2.85-2.38c-2.5-.27-5.15-.81-7.26,1.29A1.64,1.64,0,0,0,44.71,91.15Z"/><path class="cls-1" d="M60.6,149.09c2.54,1,5,1.13,7.34-.62a1,1,0,0,0,.37-.82,1.11,1.11,0,0,0-.62-.7c-.74-.28-1.52-.45-2.28-.66a7.74,7.74,0,0,0-4.65,1.26,1.19,1.19,0,0,0-.5.78A.89.89,0,0,0,60.6,149.09Z"/><path class="cls-1" d="M43.22,156c-.32.25-.41.76.18,1.14,1.89,1.21,4,1.24,6.13,1.25.65,0,1.3,0,2,0a2.48,2.48,0,0,0,.95-.2,1.81,1.81,0,0,0,.67-.6.94.94,0,0,0-.32-1.28C50.44,154.27,45.65,154.11,43.22,156Z"/><path class="cls-1" d="M43.9,141.93a8.3,8.3,0,0,0,4.55.76c.48,0,1.28-.07,2.09-.13a7,7,0,0,0,1-.17c.63-.14,1.31-.27,1.35-1.09a1.51,1.51,0,0,0-1-1.48,9.27,9.27,0,0,0-7.93.56,1,1,0,0,0-.45.77A1.07,1.07,0,0,0,43.9,141.93Z"/><path class="cls-1" d="M102.37,117.46a8.36,8.36,0,0,0-7.32,1.45,1,1,0,0,0-.17.88,1.13,1.13,0,0,0,.58.66,10.78,10.78,0,0,0,1.59.42c1.6-.34,3.34-.76,5.09-1.08.76-.14,1.24-.5,1.09-1.24A1.57,1.57,0,0,0,102.37,117.46Z"/><path class="cls-1" d="M33.15,152.87c-1.72-.56-3.21-.08-4.78.27a1,1,0,0,0-.82,1.05c0,.6.4.85.87,1,1.39.44,2.79.85,3.71,1.13,1.86-.07,3.16-.25,3.92-1.55C36.45,154.07,35.36,153.6,33.15,152.87Z"/><path class="cls-1" d="M50.07,149.88c.42-.2,1-.2,1-.83s-.3-.81-.8-1c-2.56-1-5-1.16-7.6.65C45.11,151.27,47.51,151.11,50.07,149.88Z"/><path class="cls-1" d="M266.07,51.15c1.06.52,1.49,2.38,2.11,3.69a.89.89,0,0,1-.81,1.36c-2.58.22-5.16.43-7.75.54a8,8,0,0,1-3.78-.84,1.75,1.75,0,0,1-.67-2.81c1.54-2.15,3.89-2.09,6.13-2.1C262.92,51,264.78,50.51,266.07,51.15Z"/><path class="cls-1" d="M203.05,104.28a1.8,1.8,0,0,1,.73-2.81,8.88,8.88,0,0,1,5.25-.32,13.53,13.53,0,0,0,2.88,0c1.49-.33,2.45.57,3.55,1.2.95.54.85,1.23.24,2C213,107.48,205.89,107.48,203.05,104.28Z"/><path class="cls-1" d="M223,68.15c-1.83.27-3.43-.84-4.84-2a1.52,1.52,0,0,1,.11-2.49,6.71,6.71,0,0,1,2.17-1.07c4.71-.85,8.66.26,11.64,4.94a5.48,5.48,0,0,1-1.34.45A41.5,41.5,0,0,0,223,68.15Z"/><path class="cls-1" d="M363.78,68.16c-.32,0-.65-.07-1-.14-1.2-.23-2.4-1.27-2.42-2.13A2.26,2.26,0,0,1,362,63.67c3.09-1,6.23-1.76,9.35-2.6a.82.82,0,0,1,.48,0,3.08,3.08,0,0,1,1.65,1.71c.21.44.37,1-.05,1.33A16.47,16.47,0,0,1,363.78,68.16Z"/><path class="cls-1" d="M282,42.84v-.23c-1,0-1.94.06-2.91.15a9.21,9.21,0,0,1-4.25-.83,2,2,0,0,1-1.5-1.72,2.19,2.19,0,0,1,1.1-2A8.38,8.38,0,0,1,277,37.05a8.82,8.82,0,0,1,9.32,3.8c.27.38.57.9.17,1.32a2,2,0,0,1-1.18.64C284.22,42.9,283.08,42.84,282,42.84Z"/><path class="cls-1" d="M205.12,124.45a1.77,1.77,0,0,1-.32-3.33,6.78,6.78,0,0,1,5.49-.79,11.06,11.06,0,0,1,5.84,1c.8.39,1.49.76,1.53,1.65.06,1.16-.84,1-1.66,1.13-1.1.17-2.15.68-3.24,1A11.53,11.53,0,0,1,205.12,124.45Z"/><path class="cls-1" d="M222.35,161.12c-1.62-.31-2.63-1.78-3.41-3.23a2.71,2.71,0,0,1-.12-.94,1.47,1.47,0,0,1,1.35-1.17,13.72,13.72,0,0,1,9.34,3.22,4.53,4.53,0,0,1,1.43,3c.08.63.07,1.39-.53,1.75a1.77,1.77,0,0,1-1.34-.08C226.86,162.77,224.77,161.6,222.35,161.12Z"/><path class="cls-1" d="M311.59,60.58c-1.73-.51-2.78-1.31-2.67-2.35.15-1.5,1.28-2.16,2.48-2.73a2.5,2.5,0,0,1,.94-.25c3.86-.16,7.84-.64,10.42,3.86-2.45,1.27-4.93,1.15-7.32,1.52A8.49,8.49,0,0,1,311.59,60.58Z"/><path class="cls-1" d="M256,63.1c1.44-1,3.12-.65,4.45-1,.87,0,1.52,0,2.16,0a15.57,15.57,0,0,1,1.91.29c1.17.24,3.22,2.42,2.89,3.42-.43,1.33-1.89,1.06-2.91.93-1.53-.21-2.86.39-4.27.64a5.64,5.64,0,0,1-4.19-.73A2,2,0,0,1,256,63.1Z"/><path class="cls-1" d="M223.27,48a5.48,5.48,0,0,1-4.3-1.92,1.6,1.6,0,0,1,.18-2.52,5.13,5.13,0,0,1,2.16-1c4.49-.33,8.37.62,10.52,5.84C228.72,48.46,226,47.64,223.27,48Z"/><path class="cls-1" d="M343.19,72.31c-1.36-.78-1.58-2.25-.4-3.15a4.79,4.79,0,0,1,3.51-1.37,13.68,13.68,0,0,0,3.86-.14c2.17-.41,3.8.3,5.46,2.32-2.88,2.15-6,2.78-9.2,3.2A5.07,5.07,0,0,1,343.19,72.31Z"/><path class="cls-1" d="M257.18,130.26a21.91,21.91,0,0,1,5.3.64c2.62.69,3.82,2.16,3.85,4.91-3,.88-5.83-.15-8.69-.18-1,0-2-.93-2.95-1.6a1.72,1.72,0,0,1,.25-2.88A3.72,3.72,0,0,1,257.18,130.26Z"/><path class="cls-1" d="M203.56,95.13a2.07,2.07,0,0,1-1.29-1.9,2.24,2.24,0,0,1,1.45-1.82,10.19,10.19,0,0,1,5.86-.77c1.47-.13,3.06-.47,4.61.44,1.12.65,1.4,1.3.6,2.23C212.46,96,206.9,96.93,203.56,95.13Z"/><path class="cls-1" d="M201.91,58.31a2,2,0,0,1-.13-3.56,3.55,3.55,0,0,1,1.73-.84c3.47,0,7.18-1,10.48,2.54l-7.38,2.49A5.58,5.58,0,0,1,201.91,58.31Z"/><path class="cls-1" d="M215.94,115.25c-1.42-.39-2.51.5-3.73.87a13,13,0,0,1-7.24.05c-1.25-.34-2.21-1.47-2.1-2.38.14-1.16,1.06-1.53,2-1.88a10.46,10.46,0,0,1,5.26-.29s1,0,2,0a5.52,5.52,0,0,1,4.16,2.21,1.2,1.2,0,0,1,.25.88C216.49,114.94,216.09,115.29,215.94,115.25Z"/><path class="cls-1" d="M209.39,78.57a6.89,6.89,0,0,1-5.13-.6c-.72-.41-1.46-.77-1.35-1.75a2.09,2.09,0,0,1,1.41-1.82c3.72-1.21,7.46-2.22,11,.49.35.27.78.57.5,1.62C213.58,76.34,211.73,78.05,209.39,78.57Z"/><path class="cls-1" d="M362.93,85.61c2.53.46,4.78-.85,7-.75.38-.08.53-.13.7-.14,1.46-.1,2,1,2.37,2,.51,1.34-.65,1.58-1.48,2-2.36,1.21-5,1.41-7.53,1.87a4.54,4.54,0,0,1-3.61-1.12,1.72,1.72,0,0,1-.25-2.21C360.88,86.45,361.87,85.42,362.93,85.61Z"/><path class="cls-1" d="M247,154.22a13.32,13.32,0,0,0-4.32-.62,4.84,4.84,0,0,1-3.1-1.23c-.63-.53-1.31-1.14-1.23-2,.09-1.09,1.08-1.59,1.92-2,.54-.29,1.24-.28.91-.21a12.13,12.13,0,0,1,7.43,1.83,2.74,2.74,0,0,1,1,3.42A2.13,2.13,0,0,1,247,154.22Z"/><path class="cls-1" d="M319.26,38.58c-2.3.76-4.6,1.57-6.95,2.15a4.29,4.29,0,0,1-4.43-1.31,2,2,0,0,1-.08-2.64c1.21-1.62,2.87-2,4.88-1.71,2.55-.75,4.56.74,6.63,2a1,1,0,0,1,.42.77A.93.93,0,0,1,319.26,38.58Z"/><path class="cls-1" d="M221.51,52a9.3,9.3,0,0,1,5.72.63,6.4,6.4,0,0,1,3.94,4.63c-3,.53-5.66-.38-8.39.1-1.46.25-2.68-1-3.62-2.15a1.39,1.39,0,0,1,.22-2.13A5.51,5.51,0,0,1,221.51,52Z"/><path class="cls-1" d="M294.13,91.23a11.49,11.49,0,0,1,2.44-.21,10.45,10.45,0,0,1,5.67,1.27c.7.39,1.47,1,1.44,1.86,0,1-1.16,1.05-1.85,1.12a24.11,24.11,0,0,0-6.24,1,3,3,0,0,1-1.45,0c-2-.34-3.95-1.85-3.57-2.78C291.19,91.94,292.75,91.65,294.13,91.23Z"/><path class="cls-1" d="M249.32,85.9c-1.8.22-3.51-.87-5.31-.33a5.87,5.87,0,0,1-5.1-1,1.66,1.66,0,0,1-1-1.56,1.88,1.88,0,0,1,1.36-1.82,14.21,14.21,0,0,1,9.54.54,3,3,0,0,1,1.72,2.16C251,85.15,250.49,85.76,249.32,85.9Z"/><path class="cls-1" d="M364,57.05a2.7,2.7,0,0,1-2.52-1.91,2.3,2.3,0,0,1,1.83-2.49,55.36,55.36,0,0,1,6.56-1.47c1.36-.2,2.91-.4,4.17,1.22-1.32,1.11-2.49,2.54-4,3.27A12.24,12.24,0,0,1,364,57.05Z"/><path class="cls-1" d="M361.3,96.27c2.53-.55,5.07-1,7.61-1.53a4.24,4.24,0,0,1,1-.07,2.8,2.8,0,0,1,2,1.88c.15.86-.57,1-1,1.41a11.5,11.5,0,0,1-7,2.81c-1.71.16-2.77,0-3.72-.84a1.75,1.75,0,0,1-.06-2.88A3.61,3.61,0,0,1,361.3,96.27Z"/><path class="cls-1" d="M277.41,71.33c2.14.35,5,.3,7,2.57.63.69.44,1.69-.48,1.83a80.2,80.2,0,0,1-8.12,1c-2,.09-4.1-1.76-3.88-3s1.94-2.21,3.91-2.39C276.2,71.31,276.53,71.33,277.41,71.33Z"/><path class="cls-1" d="M267.78,45.13c-2.55.19-5.11-.27-7.67.5-1.22.37-2.46-.61-3.58-1.25a1.89,1.89,0,0,1-.39-2.58A4.14,4.14,0,0,1,260,40.08c3.84-.36,6.34,1.26,8.48,3.65a.93.93,0,0,1,.05.84A1.09,1.09,0,0,1,267.78,45.13Z"/><path class="cls-1" d="M207.58,62.86c2.2-.39,3.7.78,5.16,2.08a.6.6,0,0,1-.31,1.08,22.66,22.66,0,0,0-4.53,1.62,31.07,31.07,0,0,1-3.7,1c-.69,0-.85,0-1,0-1.63-.18-3.23-.52-4.08-2.08-.55-1,1.54-2.84,3.67-3.17C204.37,63.11,206,63.14,207.58,62.86Z"/><path class="cls-1" d="M211,145.57a30.77,30.77,0,0,1-3.35.58,6.81,6.81,0,0,1-4.56-1.58,1.63,1.63,0,0,1-.88-1.6,1.91,1.91,0,0,1,1.22-1.43,6.74,6.74,0,0,1,2.35-.59,34.84,34.84,0,0,1,6.33.1,4.87,4.87,0,0,1,3.61,2.12c.36.6.14,1.57-.46,1.51C213.75,144.51,212.44,145.17,211,145.57Z"/><path class="cls-1" d="M283.7,68.28c-.64.08-1.3,0-2.88,0a24.47,24.47,0,0,1-2.46.26,5.24,5.24,0,0,1-4-1.33,1.76,1.76,0,0,1,0-2.88,4.12,4.12,0,0,1,1.22-.79,11.46,11.46,0,0,1,9.34,1.33c1,.64,1.86,2.39,1.48,2.84C285.66,68.59,284.61,68.17,283.7,68.28Z"/><path class="cls-1" d="M208.62,155.88c-1.91-.11-3.43,0-4.58-1.14-.56-.58-1.26-1.23-.93-2.08a3.26,3.26,0,0,1,1.37-1.24,2.5,2.5,0,0,1,1.37-.42,61.88,61.88,0,0,1,6.75.61,3.75,3.75,0,0,1,2.71,1.9c.31.58.07,1.69-.47,1.59C212.52,154.69,210.45,156.18,208.62,155.88Z"/><path class="cls-1" d="M273.23,81.44a5.32,5.32,0,0,1,2.1-1.13,16.67,16.67,0,0,1,7.18.36,3.75,3.75,0,0,1,3,3.15c-3,.51-6,1.07-9,1.49a4.44,4.44,0,0,1-3.15-1A1.69,1.69,0,0,1,273.23,81.44Z"/><path class="cls-1" d="M268.27,95.23c-2.83.75-5.71-.59-8.56.23-.48.14-1.21-.39-1.74-.73-.82-.52-1.72-1.15-1.56-2.24a2.94,2.94,0,0,1,2.28-2.25,8.66,8.66,0,0,1,1.9-.18c3.33-.12,5.8,1.64,8.13,3.7A.88.88,0,0,1,268.27,95.23Z"/><path class="cls-1" d="M225.12,89.19c-.95,0-2-1-2.88-1.64a1.59,1.59,0,0,1-.62-1.71,2.11,2.11,0,0,1,1.5-1.73c4.49-1.23,8.09.62,10.5,5.37-.27.14-.54.39-.82.4C230.22,90,227.73,89.11,225.12,89.19Z"/><path class="cls-1" d="M349,90.39c1.68.42,3.22,0,4.58.73a.7.7,0,0,1,.19,1.2,14.66,14.66,0,0,1-8.27,3.7,4.93,4.93,0,0,1-3.69-1,1.66,1.66,0,0,1-.06-2.84C344,90.59,346.74,91.09,349,90.39Z"/><path class="cls-1" d="M302.39,68.91c-2.37.3-4.74.61-7.11.77a4.94,4.94,0,0,1-3.48-1.47,1.58,1.58,0,0,1,.26-2.47c1.41-1,3.07-.84,5-1.14a11.69,11.69,0,0,1,5.62,1.59,2.4,2.4,0,0,1,1,1.57C303.76,68.55,303,68.84,302.39,68.91Z"/><path class="cls-1" d="M372.64,43.72c-2.22,2.19-5,2.74-8,3.06a5.75,5.75,0,0,1-1-.09,2.3,2.3,0,0,1-1.94-1.91,2.05,2.05,0,0,1,1.36-2.33Q367,41,371,39.84c1-.31,2.67.89,2.92,2C374.08,42.87,373.2,43.17,372.64,43.72Z"/><path class="cls-1" d="M277.89,52.38a4.81,4.81,0,0,1-3.13-1.19,2,2,0,0,1,.32-3.57,6.25,6.25,0,0,1,3.26-.51c2.63-.49,4.81.72,7,1.75a2.23,2.23,0,0,1,1.06,1.51c.1.75-.71,1-1.32,1.1C282.69,51.81,280.3,52.15,277.89,52.38Z"/><path class="cls-1" d="M246.44,125.54a7,7,0,0,1-5.24-.16c-1.29-.63-2.22-1.59-2-2.44.28-1.28,1.33-1.78,2.43-2.13a9.54,9.54,0,0,1,1.44-.15c3.41-.54,5.75,1.73,8.36,3.25.19.11.28.59.24.88a.92.92,0,0,1-.88.89A7.93,7.93,0,0,1,246.44,125.54Z"/><path class="cls-1" d="M222,149.35a6.69,6.69,0,0,1-.51-1.11,2.38,2.38,0,0,1,2.23-2.31,9.19,9.19,0,0,1,9.06,6.5c.18.65-.44,1.18-1.18,1-2.3-.68-4.61-1.36-6.89-2.1A5,5,0,0,1,222,149.35Z"/><path class="cls-1" d="M277.63,114.26c-1.47.28-2.73-.76-3.68-1.93a1.29,1.29,0,0,1,.09-1.76,3.89,3.89,0,0,1,2.83-1.45c3.7.26,6.29.4,8.47,2a2.39,2.39,0,0,1,.92,1.61c0,.7-.83,1-1.43,1A41.26,41.26,0,0,0,277.63,114.26Z"/><path class="cls-1" d="M279.78,135.14c-.51.09-1.3.24-2.09.35-2,.29-3.41-.67-4.7-2a1.38,1.38,0,0,1,.2-2.1,5.51,5.51,0,0,1,2.63-1.09c3.21-.39,5.94,1.16,8.8,2.14.61.21.65,1.08.61,1.73s-.63,1-1.3,1.15A11.41,11.41,0,0,1,279.78,135.14Z"/><path class="cls-1" d="M254.94,143.65a2.4,2.4,0,0,1,2.2-1.63c4.06-.34,7.74.3,10.19,4.61-3.32,1.22-6.23-.05-9.08.54-.59.12-1.45-.61-2.06-1.11S254.6,144.77,254.94,143.65Z"/><path class="cls-1" d="M256.11,76.53a1.37,1.37,0,0,1,0-1.78,3.55,3.55,0,0,1,1.44-1.23c1.82-.57,3.66-1.25,5.64-.71,2.18.6,4.31,1.29,5.75,4.07-3.08.69-5.86.41-8.5,1.24A4,4,0,0,1,256.11,76.53Z"/><path class="cls-1" d="M248.52,76.25c-1,0-1.93-.12-3-.21-.66.08-1.46.2-2.26.28a6.13,6.13,0,0,1-4.1-1.23,1.92,1.92,0,0,1-1.08-2,2.15,2.15,0,0,1,1.56-1.69,13,13,0,0,1,6.71-.13,15.42,15.42,0,0,1,3.16,1.17,2.94,2.94,0,0,1,1.11,3C250.18,76.38,249.27,76.24,248.52,76.25Z"/><path class="cls-1" d="M204.25,85.46c-1.27-.86-1.34-2.31,0-3.08a5.8,5.8,0,0,1,3.69-1,30.87,30.87,0,0,0,3.86.41c1.7,0,2.62,1,3.59,2.52a17.25,17.25,0,0,1-2.76,1.31C209.84,86.41,207,87.33,204.25,85.46Z"/><path class="cls-1" d="M242.06,67.33a3.9,3.9,0,0,1-2.66-1.1c-.77-.64-1.54-1.36-1.19-2.46a2.25,2.25,0,0,1,1.86-1.42,20.15,20.15,0,0,1,6.32.16c2.71.42,4,1.8,4,4.64C247.57,67.78,244.8,67.12,242.06,67.33Z"/><path class="cls-1" d="M344.15,58.67c2.37-.52,4.77-.91,7.17-1.28a2.76,2.76,0,0,1,2.31.51c.48.42,1.06.9.91,1.6a1.93,1.93,0,0,1-.88,1,21.18,21.18,0,0,1-8.2,3H345a3.08,3.08,0,0,1-3-2C341.71,60.59,342.82,59,344.15,58.67Z"/><path class="cls-1" d="M228.6,135.33a7.7,7.7,0,0,1,3.43,5c-.43.16-.76.42-1,.37-2.51-.56-5-1.14-7.52-1.78a4.71,4.71,0,0,1-3-2.32c-.79-1.35.13-3.29,1.66-3.17A12.26,12.26,0,0,1,228.6,135.33Z"/><path class="cls-1" d="M204.77,129.28c2.75-.62,5.52.05,8.28.08.87,0,1.48,1.43,1.21,2.33a3.05,3.05,0,0,1-2.37,2.24c-1.11.24-2.26.31-3.39.45a7.5,7.5,0,0,1-5.51-1.61,1.88,1.88,0,0,1,.06-2.63A5.2,5.2,0,0,1,204.77,129.28Z"/><path class="cls-1" d="M361.65,74.43c2.27-.85,4.84-.54,6.66-1.83,1.5.25,2.63.4,3.74.64a1,1,0,0,1,.64.62,1.07,1.07,0,0,1-.21.88c-2.54,2.52-5.77,3.51-9.18,4a2.78,2.78,0,0,1-1.41-.33,2.28,2.28,0,0,1-1.64-2.18A2.08,2.08,0,0,1,361.65,74.43Z"/><path class="cls-1" d="M263.51,124.3c-1.34.09-2.14.21-2.95.19a5.48,5.48,0,0,1-3.51-1.44,2,2,0,0,1,.35-3.26,2.66,2.66,0,0,1,.87-.4c2.92-.4,5.81-.55,8.2,1.64.92.85,2.62,1.62,2.26,2.85-.47,1.63-2.19.46-3.35.53A10.73,10.73,0,0,1,263.51,124.3Z"/><path class="cls-1" d="M220.68,73.44c2.2-.48,4.46-1,6.64,0a8.36,8.36,0,0,1,4.6,5.07c-3.31-.12-6.29-.16-9.27-.37a4.62,4.62,0,0,1-2.86-1.68A1.86,1.86,0,0,1,220.68,73.44Z"/><path class="cls-1" d="M276.94,90.92a13.9,13.9,0,0,1,1.46,0,8.35,8.35,0,0,1,7.1,2.52c.55.52.46,1.4-.21,1.5-2.72.39-5.45.82-8.18,1-1.73.1-3.76-1.41-3.9-2.49S274.85,91.14,276.94,90.92Z"/><path class="cls-1" d="M346.09,80.32a3.84,3.84,0,0,1-2.77-.73,1.74,1.74,0,0,1-.32-2.87,4.88,4.88,0,0,1,2-1.22c2.08-.36,4.19-.5,6.07-.7,1.18.12,2.14,0,3,.62s1.15,1.72.23,2.33C351.87,79.41,349,79.88,346.09,80.32Z"/><path class="cls-1" d="M247.73,143c-2.42,0-4.85-.11-7.27-.19a2.2,2.2,0,0,1-.95-.19c-1.24-.68-2.89-.94-3.12-2.72-.16-1.24,1.59-2.32,3.71-2.36a12.43,12.43,0,0,1,8.35,3.34,2.12,2.12,0,0,1,.3,1.33C248.76,142.87,248.16,143,247.73,143Z"/><path class="cls-1" d="M250.43,94.84c-1.12.07-2.25,0-3.37,0,0-.08,0-.17,0-.25-1.28.06-2.57.14-3.86.18a4.46,4.46,0,0,1-3.37-1.64,1.79,1.79,0,0,1,.73-3.08,10.71,10.71,0,0,1,8,.71c1,.5,2.18.77,2.67,1.94a4,4,0,0,1,.26,1.38C251.49,94.8,250.85,94.81,250.43,94.84Z"/><path class="cls-1" d="M345.06,124.81c2.91-.15,5.85-.43,8.72.27a2.31,2.31,0,0,1,1.74,2.6c-2.87,2.16-6.19,1.57-9.39,1.53a3.86,3.86,0,0,1-1.75-.78,1.92,1.92,0,0,1-1-2.06A1.85,1.85,0,0,1,345.06,124.81Z"/><path class="cls-1" d="M342.7,87.2a1.73,1.73,0,0,1-.25-2.82c1.56-1.74,3.6-1,5.5-1.28,2,0,4.15-.08,6.08,1a1,1,0,0,1,.44.7,1.11,1.11,0,0,1-.4.81,17.34,17.34,0,0,1-8.69,2.56A4.23,4.23,0,0,1,342.7,87.2Z"/><path class="cls-1" d="M220.5,115.82a2,2,0,0,1,1.73-1.51,8.91,8.91,0,0,1,6.19.73c2,1.08,3.8,2.52,4.31,5.26-3.1-.08-5.9-1.11-8.83-.93-1,.06-1.77-.77-2.5-1.42A2.17,2.17,0,0,1,220.5,115.82Z"/><path class="cls-1" d="M345.46,116c1,0,1.93.14,3.59.28.61,0,1.91,0,3.21,0a2.52,2.52,0,0,1,2.16.9,2.65,2.65,0,0,1,.63,1.23c0,.51-.43.83-.92.94-2.7.58-5.4,1.16-8.11,1.68a4.61,4.61,0,0,1-3.2-1,1.75,1.75,0,0,1-.34-2.56A4.3,4.3,0,0,1,345.46,116Z"/><path class="cls-1" d="M364.15,141.1a4.72,4.72,0,0,1-2.71-1c-1.36-1.17-1.34-2.06,0-3.16,1.74-1.38,3.77-.62,5.52-.87,1.77.12,3.42.14,5,.39a2.35,2.35,0,0,1,1.34,1.25c.36.73-.27,1-.86,1.41A12.61,12.61,0,0,1,364.15,141.1Z"/><path class="cls-1" d="M295.25,155.62a36.46,36.46,0,0,1,4.6,1.06c1,.33,2.62.77,2.45,2-.2,1.5-1.88,1.28-3.1,1.41l-3.36.33a9.88,9.88,0,0,1-1.92.14c-2-.21-4-1.73-4-2.91C289.86,156.23,291.51,155.43,295.25,155.62Z"/><path class="cls-1" d="M343.68,99.83c3.2-.44,6.45-1,9.65.06.15,0,.35.15.39.27s.24.75.13.84a16.71,16.71,0,0,1-9.4,3.43,3.71,3.71,0,0,1-2.92-1.58,2,2,0,0,1,2.14-3Z"/><path class="cls-1" d="M274.81,104.1a1.45,1.45,0,0,1,0-2.14,4.15,4.15,0,0,1,1.56-1.11,11.72,11.72,0,0,1,8.53,1,3.16,3.16,0,0,1,1.58,3.48c-2.71.12-5.44.29-8.17.35A4.83,4.83,0,0,1,274.81,104.1Z"/><path class="cls-1" d="M263,114.84a3.87,3.87,0,0,1-4.28-.78,2.21,2.21,0,0,1-1.05-2,2.75,2.75,0,0,1,1.8-2.1,8.82,8.82,0,0,1,9.08,2.79c.36.49.87,1,.57,1.73s-1,.58-1.64.68C266.05,115.34,264.7,114.27,263,114.84Z"/><path class="cls-1" d="M237.82,133.12a1.58,1.58,0,0,1,.42-2.14c.81-.69,1.74-.79,3.42-.78,2.89-.3,5.52,1.48,7.83,3.93a1.42,1.42,0,0,1,.21.9c0,.65-.57.79-1,.76q-3.86-.24-7.71-.58A4.6,4.6,0,0,1,237.82,133.12Z"/><path class="cls-1" d="M309.95,126.19a29.14,29.14,0,0,1,6.79.82,3.23,3.23,0,0,1,2.52,3c-3.06,1.23-6.3,1-9.51.88a3.47,3.47,0,0,1-2.33-1.66,1.48,1.48,0,0,1,.31-2.13A3.62,3.62,0,0,1,309.95,126.19Z"/><path class="cls-1" d="M345.2,142.44c3.84-.63,7.7-1.06,11.31,1.95a13.2,13.2,0,0,1-9.16,2.43,3.81,3.81,0,0,1-2.66-1,3.21,3.21,0,0,1-.87-1.64A1.63,1.63,0,0,1,345.2,142.44Z"/><path class="cls-1" d="M208.89,165.5a7.85,7.85,0,0,1-5.72-.55,2,2,0,0,1-1.37-2.31,2.12,2.12,0,0,1,2.14-1.67,10.9,10.9,0,0,1,2.41.22c1,.13,1.93.28,2.67.39,2.45-1,3.28,1,4.63,2a2.49,2.49,0,0,1-.27.7C211.6,163.68,210.38,165.06,208.89,165.5Z"/><path class="cls-1" d="M255.19,162.49a3.74,3.74,0,0,1,1.26-.63,10.26,10.26,0,0,1,8.17,2.12,2.78,2.78,0,0,1,.82,3.2c-3,.55-6-.59-9-.75-.55,0-1.11-.63-1.58-1.05A1.78,1.78,0,0,1,255.19,162.49Z"/><path class="cls-1" d="M230.61,108.9c-1.43-.26-2.88-.47-4.32-.68a5.11,5.11,0,0,1-3.34-1.83,2.09,2.09,0,0,1-.49-2.25,2.47,2.47,0,0,1,1.89-1.39,6.28,6.28,0,0,1,1,0c3.17,0,5,.84,7.09,3.53.65.82,1.87,1.79.94,2.89C232.66,110,231.54,109.07,230.61,108.9Z"/><path class="cls-1" d="M361.51,147.88a18.62,18.62,0,0,1,9.08-.34c.86.18,1.3.9,1.78,1.92a11.7,11.7,0,0,0-1.91,1.12c-1.84,1.68-4.19,1.51-6.38,1.8a3.79,3.79,0,0,1-3.12-1.06C359.68,150.14,359.88,148.36,361.51,147.88Z"/><path class="cls-1" d="M249.72,56.13a2.1,2.1,0,0,1,.36.89c.21.7.07,1.41-.69,1.49a36.88,36.88,0,0,1-3.86,0l0-.25c-.79.14-1.58.3-2.38.41A5.29,5.29,0,0,1,239,57.64a2.71,2.71,0,0,1-1-1.56,1.87,1.87,0,0,1,1.27-1.87C242.08,52.91,247.44,53.89,249.72,56.13Z"/><path class="cls-1" d="M353.89,42.13c-2.49,1.68-5.39,2-8.25,2.35a3,3,0,0,1-2.48-1.3,1.36,1.36,0,0,1,.21-2.08,28.75,28.75,0,0,1,8.8-2.3,5.13,5.13,0,0,1,1,.06,2.31,2.31,0,0,1,1.52,1.72C355,41.37,354.43,41.76,353.89,42.13Z"/><path class="cls-1" d="M302.5,78c-2.21.46-4.5.12-6.72.76-1.25.36-2.51-.41-3.57-1.23a1.57,1.57,0,0,1,0-2.5c1.31-1.34,3-.91,4.85-1.27,1.83.17,4,.15,5.82,1.36a1.9,1.9,0,0,1,.91,1.63C303.73,77.48,303.17,77.86,302.5,78Z"/><path class="cls-1" d="M248.06,102.64a4.91,4.91,0,0,1-.77-.14c-.68-.33-1.64.08-2.61.09a6.8,6.8,0,0,1-3.68-1.1c-.69-.43-1.38-1-1.29-1.9.11-1.17,1.06-1.61,2-1.74A11.4,11.4,0,0,1,249.28,99c1.92,1.11,3,2.42,2.37,3.17C250.64,103.38,249.28,102.59,248.06,102.64Z"/><path class="cls-1" d="M296.17,105.77a4.93,4.93,0,0,1-4.08-1.07,1.7,1.7,0,0,1,.18-2.83c1.59-1.07,3.35-1,5.1-.77a8.1,8.1,0,0,1,5.59,1,1.61,1.61,0,0,1,.82,1.61,1,1,0,0,1-1,.91C300.61,105,298.39,105.43,296.17,105.77Z"/><path class="cls-1" d="M302.05,41.06a2.15,2.15,0,0,1,.91,1c.27.56.48,1.28-.42,1.51-2.47.62-5.19-.2-7.15,1.24a6.15,6.15,0,0,1-4-1,1.5,1.5,0,0,1-.28-2.44,5.29,5.29,0,0,1,3-1.48A14.71,14.71,0,0,1,302.05,41.06Z"/><path class="cls-1" d="M302.37,115.58c-2.54.47-5.14-.06-7.7.78-1.39.46-2.79-.65-3.86-1.69a1.23,1.23,0,0,1,0-1.75c1.3-1.57,3.06-1.68,4.77-1.53,2.66-.23,4.91.77,7.15,1.7a1.6,1.6,0,0,1,.67,1.72C303.32,115.4,302.81,115.49,302.37,115.58Z"/><path class="cls-1" d="M299.07,125.11c-.81.11-1.61.25-2.42.33a5.71,5.71,0,0,1-4.4-1.76,1.25,1.25,0,0,1-.13-1.75,2.83,2.83,0,0,1,1.9-1.44c3.49-.41,6.88-.28,9.58,2.41.3.3.62.91.5,1.19s-.73.6-1.16.81C301.69,125.53,300.36,125,299.07,125.11Z"/><path class="cls-1" d="M354.19,51c-2.39,1.56-5.18,1.79-7.88,2.26A3.53,3.53,0,0,1,343.25,52c-.47-.45-1-1.07-.69-1.7a2.28,2.28,0,0,1,1.36-1.22c2.39-.41,4.81-.66,7.22-1,.94.24,2-.19,2.8.58a4.14,4.14,0,0,1,.84,1.16C355.05,50.4,354.57,50.72,354.19,51Z"/><path class="cls-1" d="M293.64,136.88c2.81,0,5.35,1.45,7.85,2.9.32.18.44.84.5,1.3a.88.88,0,0,1-.82,1c-3.23.63-6.35-.24-9.49-.75-.57-.09-1.08-.67-1.57-1.09a1.46,1.46,0,0,1,.14-2.43A4.87,4.87,0,0,1,293.64,136.88Z"/><path class="cls-1" d="M302.15,52.49c-2.22.33-4.47.15-6.69.83-1.47.45-2.8-.55-3.93-1.52-.21-.18-.26-.57-.39-.87a2.23,2.23,0,0,1,1.87-2,12.5,12.5,0,0,1,9.81,1.2,1.67,1.67,0,0,1,.65,1.24C303.49,52.15,302.81,52.39,302.15,52.49Z"/><path class="cls-1" d="M292.41,83.24a5.86,5.86,0,0,1,1.81-.6,15.57,15.57,0,0,1,7.19.5,2.39,2.39,0,0,1,1.79,2.63,21.3,21.3,0,0,1-10.42,1,1.78,1.78,0,0,1-1.58-1.6A2,2,0,0,1,292.41,83.24Z"/><path class="cls-1" d="M272.63,150c3.41-.25,6.77,0,9.66,2.17a1.56,1.56,0,0,1,.55,1.26c-.07.36-.6.71-1,.91-1.24.62-2.55.09-4.2.14l-3,.19a3.84,3.84,0,0,1-2.66-1c-.63-.51-1.24-1.09-1-2A2.18,2.18,0,0,1,272.63,150Z"/><path class="cls-1" d="M274.44,58.48a1.88,1.88,0,0,1,.14-3.23,3.82,3.82,0,0,1,1.3-.63,13.22,13.22,0,0,1,7.68.71c1.24.56,2.24,1.33,2.18,3-2.55.42-5.09.9-7.64,1.25A4.94,4.94,0,0,1,274.44,58.48Z"/><path class="cls-1" d="M313.58,137.22c1.43,0,2.42-.08,3.38,0a5.89,5.89,0,0,1,2.31.66,3.09,3.09,0,0,1,1,1.55c0,.13-.63.61-1,.82-2.37,1.24-5.09,1-7.58,1.74a3.82,3.82,0,0,1-3.2-.92,1.69,1.69,0,0,1,0-2.83C310.13,136.72,312.14,137.33,313.58,137.22Z"/><path class="cls-1" d="M242.46,105.42c3.53-.44,6.24,1.37,8.84,3.38.2.15.24.59.23.89a1,1,0,0,1-.91.94c-.48.09-1,.08-1.8.14a13.7,13.7,0,0,0-5-.38c-1.85.26-3-.95-4.11-2.18a1.34,1.34,0,0,1,.46-2.06A7.76,7.76,0,0,1,242.46,105.42Z"/><path class="cls-1" d="M247.87,117.24l-2.74.17a5.89,5.89,0,0,1-4-1.38,1.86,1.86,0,0,1,.38-3.19,6.42,6.42,0,0,1,1.85-.48c3.47-.4,6.25,1.19,8.86,3.2.45.35.17,1.36-.36,1.62A5.26,5.26,0,0,1,247.87,117.24Z"/><path class="cls-1" d="M240,162.28a2,2,0,0,1-.94-.22c-1.63-.58-3-2.21-2.61-3.1a2.69,2.69,0,0,1,2.25-1.51c4.35-.21,7,1.29,9.62,3,.29.2.39.87.36,1.31-.06.81-.75,1-1.41,1C244.86,162.73,242.49,161.84,240,162.28Z"/><path class="cls-1" d="M224.33,97.53a1.88,1.88,0,0,1,.81-2.83,12.53,12.53,0,0,1,1.85-.36c3.58-.32,5.78,1.77,7.68,4.32a1.59,1.59,0,0,1,.21,1.34,1.37,1.37,0,0,1-1.16.48c-2.08-.24-4.16-.55-6.23-.9A4.63,4.63,0,0,1,224.33,97.53Z"/><path class="cls-1" d="M308.37,92.56a3.35,3.35,0,0,1,2.19-.93h2.94c0-.05,0-.1,0-.16a27.84,27.84,0,0,1,2.92,0,7,7,0,0,1,2.34.62,2.06,2.06,0,0,1,1.1,2c-.05.74-.82,1-1.4,1.11-2.57.4-5.15.78-7.74,1a4.56,4.56,0,0,1-2.28-.75A1.89,1.89,0,0,1,308.37,92.56Z"/><path class="cls-1" d="M268.18,84.89a1.91,1.91,0,0,1,.33,1.31c0,.58-.57.79-1,.82-1.12.07-2.25,0-3.38,0v-.11c-1.13.09-2.25.22-3.38.25a5.17,5.17,0,0,1-3.55-1.31,1.66,1.66,0,0,1-.07-2.52,3.73,3.73,0,0,1,1.2-.79A10.06,10.06,0,0,1,268.18,84.89Z"/><path class="cls-1" d="M212.37,50a11.75,11.75,0,0,1-6,1.72,5.87,5.87,0,0,1-3.61-1.27,2,2,0,0,1,.23-3.3c1.18-.75,2.48-.65,4.17-.65.75.08,1.87.25,3,.32s1.66.81,2.24,1.63C212.81,49.08,213.17,49.58,212.37,50Z"/><path class="cls-1" d="M325.94,40.91a17,17,0,0,1,3.4-.28,14,14,0,0,1,6.22.91,1.1,1.1,0,0,1,.7,1.14,1.08,1.08,0,0,1-.85,1q-3.79.93-7.6,1.74a3.18,3.18,0,0,1-2.32-.57c-.73-.44-1.43-1-1.37-1.87A2.43,2.43,0,0,1,325.94,40.91Z"/><path class="cls-1" d="M363.58,32a2.64,2.64,0,0,1-2.88-2,1.48,1.48,0,0,1,.85-1.68,21,21,0,0,1,8.47-2.1,8.88,8.88,0,0,1,1.9.34,1.06,1.06,0,0,1,.41,1.58A14.62,14.62,0,0,1,363.58,32Z"/><path class="cls-1" d="M238.86,46a12.9,12.9,0,0,1,3.3-.64,9.37,9.37,0,0,1,6.75,2.17,1.43,1.43,0,0,1,.52,1.73,1.64,1.64,0,0,1-1.15.62c-2.08.24-4.23-.5-5.84.32-1.6.1-2.75,0-3.67-.77a2.92,2.92,0,0,1-1.09-1.5A1.79,1.79,0,0,1,238.86,46Z"/><path class="cls-1" d="M299.08,133.39a18.43,18.43,0,0,1-1.93-.27c-1,.07-1.94.14-2.91.2a4.6,4.6,0,0,1-2.8-.67c-.69-.44-1.45-.91-1.42-1.82a2.15,2.15,0,0,1,1.45-1.79,3.63,3.63,0,0,1,2.34-.47c1.91.38,3.85.66,5.7,1.21,1.19.36,2.57.78,2.84,2.35C302.49,133,301.17,133.47,299.08,133.39Z"/><path class="cls-1" d="M353.8,110.36c-2.35,1.3-5,1.32-7.71,1.88a11.32,11.32,0,0,1-1.32-.12,3.31,3.31,0,0,1-2.32-2.3c-.12-.81,1.05-2,2.3-2.14,2.11-.17,4.24-.24,6.36-.25a6.25,6.25,0,0,1,2.39.47c.53.22,1.28.59,1.12,1.37A1.81,1.81,0,0,1,353.8,110.36Z"/><path class="cls-1" d="M310.48,67.9a1.87,1.87,0,0,1-.2-2.59A2.88,2.88,0,0,1,312.7,64,23.46,23.46,0,0,0,317,64a5.67,5.67,0,0,1,5.24,2.12c-2.79,1.94-6.06,2.14-9.15,2.81A3.44,3.44,0,0,1,310.48,67.9Z"/><path class="cls-1" d="M354.71,136.33a8.51,8.51,0,0,1-5,.71c-3.54,0-3.7-.06-4.8-1.05a1.66,1.66,0,0,1,.66-3c3.19-.52,6.42-.74,9.49.6a2.3,2.3,0,0,1,1.2,1.4C356.52,136.13,355.4,136.06,354.71,136.33Z"/><path class="cls-1" d="M291.31,146.9c3.43-.15,6.8.05,9.71,2.19a1,1,0,0,1,.28.83,1.2,1.2,0,0,1-.6.66,5.64,5.64,0,0,1-4.1.41c-.68-.4-1.56.24-2.51.38a5,5,0,0,1-4-1.25,1.58,1.58,0,0,1,0-2.49C290.48,147.36,290.89,146.92,291.31,146.9Z"/><path class="cls-1" d="M279.29,146c-.84,0-2,.12-3.1.17a3.8,3.8,0,0,1-2.7-.87c-.61-.52-1.31-1-1.16-2a2.3,2.3,0,0,1,1.94-1.92c3.35-.66,6.35.42,9.16,2.14.24.15.35.53.51.8a1.17,1.17,0,0,1-.52,1.59A9.87,9.87,0,0,1,279.29,146Z"/><path class="cls-1" d="M267.73,104.77c-1.11.09-2.24,0-3.36,0v-.2c-.48,0-1,0-1.45.08a11.46,11.46,0,0,1-1.44.16,7.9,7.9,0,0,1-1.9-.27,2.65,2.65,0,0,1-1.72-2.62,2.19,2.19,0,0,1,2-1.8,8.74,8.74,0,0,1,8.76,2.71c.31.33.69.82.3,1.28A1.88,1.88,0,0,1,267.73,104.77Z"/><path class="cls-1" d="M325.36,96.75c3.5-1.59,7-1.05,10.46.14a1.42,1.42,0,0,1,.73,1.64c-.08.56-.55.79-1,.92-2.23.61-4.59-.2-7,.71-1-.32-2.43,0-3.36-1.3C324.63,98.14,324.64,97.08,325.36,96.75Z"/><path class="cls-1" d="M327,130.09a11.59,11.59,0,0,1,8.82,1.16,2.07,2.07,0,0,1,.79,1.11c.2.64-.44.71-.84.89a8,8,0,0,1-4.5.42,9.58,9.58,0,0,1-4.57-.21,2.47,2.47,0,0,1-1.83-2.07C324.89,130,326.13,130.29,327,130.09Z"/><path class="cls-1" d="M281.84,126c-2.2.19-3.34.33-4.48.38a3.3,3.3,0,0,1-2.58-1.19,1.62,1.62,0,0,1,.15-2.53,4.29,4.29,0,0,1,1.73-.82,15.6,15.6,0,0,1,8.91,1.92c.31.15.5.85.5,1.3a.91.91,0,0,1-.9.94C283.71,126,282.24,126,281.84,126Z"/><path class="cls-1" d="M370.84,116.62a2,2,0,0,1,1.13.82c.47.79-.35,1-.77,1.44a8.65,8.65,0,0,1-6.7,2.65,3.63,3.63,0,0,1-3.74-1.37c-.58-.78-.35-2.28.55-2.5C364.44,116.89,367.55,115.78,370.84,116.62Z"/><path class="cls-1" d="M231.29,131.52c-2-.53-4.09-1.07-6.12-1.64a7.41,7.41,0,0,1-1.8-.7,2.31,2.31,0,0,1-1.15-2.51,1.94,1.94,0,0,1,2.25-1.48c4,0,5.82,1.06,8,4.57.32.53.78,1.1.24,1.72C232.26,131.93,231.74,131.63,231.29,131.52Z"/><path class="cls-1" d="M326,119.32a34.79,34.79,0,0,1,6.79.38c1.29.26,3.46.71,3.37,2.3-.11,2-2.26,1.18-3.59,1.4a19,19,0,0,1-2.22,0c-.22,0-1.19.22-2.16.29a3.82,3.82,0,0,1-3.11-1.16c-.46-.46-.94-.94-.75-1.69A1.81,1.81,0,0,1,326,119.32Z"/><path class="cls-1" d="M275.2,159.22c3.22.33,6.56.27,8.55,3.88-.69.35-1,.62-1.26.62-2.57,0-5.14.06-7.71,0a3.64,3.64,0,0,1-2.43-1.49,1.55,1.55,0,0,1,.19-2.15A3.22,3.22,0,0,1,275.2,159.22Z"/><path class="cls-1" d="M325,106.19a2.08,2.08,0,0,1,1.6-1.66,23.75,23.75,0,0,1,3.36-.28c2,.11,4.16.08,6.11,1a1.57,1.57,0,0,1,.8,1.1,1.32,1.32,0,0,1-.72,1.06c-2.69.48-5.39.89-8.1,1.21a3.46,3.46,0,0,1-1.81-.52A1.93,1.93,0,0,1,325,106.19Z"/><path class="cls-1" d="M351.76,34a9.42,9.42,0,0,1-4.62,1c-1.61.26-3.08.33-3.93-1.28-.21-.4-.52-1,0-1.3,2.64-1.64,5.3-3.33,8.59-1.74.84.41,2.25.34,2.33,1.46C354.27,33.55,352.64,33.43,351.76,34Z"/><path class="cls-1" d="M328.21,52.94a4.16,4.16,0,0,1-1.33-.56,1.49,1.49,0,0,1,0-2.45c3.56-1.73,7.11-2.05,11.08.4C334.82,52.19,330.39,53.31,328.21,52.94Z"/><path class="cls-1" d="M361.66,107.62a17.45,17.45,0,0,1,6.28-1.69c1,.25,2.28.54,3.51.91a.93.93,0,0,1,.44.73,1.09,1.09,0,0,1-.39.8,16.78,16.78,0,0,1-8.13,2.86,2.69,2.69,0,0,1-2.18-.89A1.64,1.64,0,0,1,361.66,107.62Z"/><path class="cls-1" d="M319.76,86.57c-2.67.5-5.37.88-8.07,1.27a2.32,2.32,0,0,1-.92-.25,1.44,1.44,0,0,1-.48-2.35,7.55,7.55,0,0,1,5.77-2c1.4,0,2.87-.11,4,1.09C320.85,85.11,320.79,86.37,319.76,86.57Z"/><path class="cls-1" d="M326.7,81.31c1.73-.28,3.29-1.51,5.17-1a7.72,7.72,0,0,1,4.29.42,1.33,1.33,0,0,1,1.06,1.42,1.56,1.56,0,0,1-.88,1c-2.44,1-5.07.93-7.63,1.21a4,4,0,0,1-2.19-.86,2,2,0,0,1-.66-1.25C325.77,81.73,326.19,81.39,326.7,81.31Z"/><path class="cls-1" d="M336.2,75.95c-2.37.48-4.77.84-7.17,1.18a2.36,2.36,0,0,1-1.4-.29,1.87,1.87,0,0,1-.9-1.05,1.72,1.72,0,0,1,.44-1.29c1.71-1.85,4.13-1.59,6.26-2a21.9,21.9,0,0,0,2.44.37,1.63,1.63,0,0,1,1.66,1.43C337.8,75.4,336.95,75.8,336.2,75.95Z"/><path class="cls-1" d="M310.75,156.48c3.17-.85,6.32-1.1,9.4.39a1.76,1.76,0,0,1,1.09,1.48c0,.72-.63,1.09-1.3,1.16-1.44.15-2.88.23-4.32.34v-.08c-1.12.07-2.24.21-3.36.2a2.73,2.73,0,0,1-2.12-1,1.78,1.78,0,0,1-.48-1.77A1.75,1.75,0,0,1,310.75,156.48Z"/><path class="cls-1" d="M257,151.92a8.55,8.55,0,0,1,7.68,1.7,1.71,1.71,0,0,1,.57,2.16c-.32.62-1,.67-1.69.66-1.59,0-3.08-1.05-5-.4-.39,0-1,0-1.66,0a3.6,3.6,0,0,1-.92-.29,1.47,1.47,0,0,1-.77-2.31A2.91,2.91,0,0,1,257,151.92Z"/><path class="cls-1" d="M317.54,45.18a2.28,2.28,0,0,1,1.87,1.34c.37,1.08-.66,1.27-1.28,1.67a10.89,10.89,0,0,1-5.87,2c-.16,0-.32,0-.48,0a2.76,2.76,0,0,1-2.44-1.31c-.55-1.19.69-1.68,1.36-2.18A8.17,8.17,0,0,1,317.54,45.18Z"/><path class="cls-1" d="M302.79,61.62c-2.15,1-4.56,0-6.7,1.06a14.53,14.53,0,0,1-2.4-.51,1.88,1.88,0,0,1-1.38-1.81,1.71,1.71,0,0,1,1.47-1.67,13.27,13.27,0,0,1,9,.92,1.9,1.9,0,0,1,.82,1.09C303.77,61.26,303.21,61.43,302.79,61.62Z"/><path class="cls-1" d="M327.89,37.68a2.38,2.38,0,0,1-2.07-1.08c-.41-.55-.67-1.21,0-1.68a10.13,10.13,0,0,1,5.9-1.88c2.22-.08,3.54,1.18,5.31,2.48a14.85,14.85,0,0,1-2.89,1.3A62.23,62.23,0,0,1,327.89,37.68Z"/><path class="cls-1" d="M311.13,76.4a1.08,1.08,0,0,1-.37-1.65c1.54-2.28,3.91-2.64,6.57-2.66,1.06.22,2.43-.08,3.46,1,.44.46.51,1.4,0,1.66A25.29,25.29,0,0,1,312.9,77,3.21,3.21,0,0,1,311.13,76.4Z"/><path class="cls-1" d="M337.24,59.58c-2.69,1.25-5.61,1.08-8.46,1.31a2.53,2.53,0,0,1-.91-.29c-.62-.22-1-1.12-.58-1.54,1.21-1.32,2.47-2.58,4.93-2.28,1.57-.45,3.33.4,5.13,1,.24.08.41.46.54.74C338.2,59.19,337.64,59.39,337.24,59.58Z"/><path class="cls-1" d="M364.11,130.14a1.56,1.56,0,0,1-1.24-1.35,1.52,1.52,0,0,1,.7-1.65c3.12-2.16,6.35-2.11,9.92-.59C371.13,130.09,367.79,130.6,364.11,130.14Z"/><path class="cls-1" d="M309.92,101.83c2.88-1.9,5.85-1.54,8.82-.27a2,2,0,0,1,1.13,1.59,5.77,5.77,0,0,1-4,1.3c-1.79,0-3.54.72-5.35.26a1.84,1.84,0,0,1-1.37-1.26A1.36,1.36,0,0,1,309.92,101.83Z"/><path class="cls-1" d="M315.19,113.71a8.68,8.68,0,0,1-1.93.26,9.39,9.39,0,0,1-2.34-.56,1.15,1.15,0,0,1-.35-2c2.18-2.06,6.94-2.19,9.47-.24a2.26,2.26,0,0,1,.3.38,1.24,1.24,0,0,1-.33,1.67A10,10,0,0,1,315.19,113.71Z"/><path class="cls-1" d="M310.68,121.37a.94.94,0,0,1-.46-.14c-.34-.33-.81-.66-.9-1.06a1.5,1.5,0,0,1,.41-1.26c3.21-2.59,7.14-2.2,10.26,1a3.45,3.45,0,0,1-2.55,1.16C315.18,121,313,121.81,310.68,121.37Z"/><path class="cls-1" d="M328.28,68.38a.92.92,0,0,1-.93-.94,1.84,1.84,0,0,1,.22-.92c1.52-2.17,3.85-2.18,6.16-2.34a28.93,28.93,0,0,1,3.36.48,1.54,1.54,0,0,1,.83,1.12,1.42,1.42,0,0,1-.57,1.2A18.49,18.49,0,0,1,328.28,68.38Z"/><path class="cls-1" d="M329.46,116.08c-.55,0-.87,0-1.19,0a2.15,2.15,0,0,1-2-1.77,1.86,1.86,0,0,1,1.33-1.78c3.27-1.52,6.23-.57,9.06,1.19a1,1,0,0,1,.23.85,1,1,0,0,1-.52.67C334.09,116.26,331.55,115.19,329.46,116.08Z"/><path class="cls-1" d="M335.94,90.76c-2.36.44-4.73.82-7.11,1.15a3.16,3.16,0,0,1-1.39-.29.78.78,0,0,1-.42-1.16,3.88,3.88,0,0,1,2.85-2.38c2.5-.27,5.15-.81,7.26,1.29A1.64,1.64,0,0,1,335.94,90.76Z"/><path class="cls-1" d="M320.05,148.7c-2.54,1-5,1.13-7.34-.62a1,1,0,0,1-.37-.82,1.11,1.11,0,0,1,.62-.7c.74-.28,1.52-.45,2.28-.66a7.74,7.74,0,0,1,4.65,1.26,1.19,1.19,0,0,1,.5.78A.89.89,0,0,1,320.05,148.7Z"/><path class="cls-1" d="M337.44,155.58c.32.25.41.76-.18,1.14-1.89,1.21-4,1.24-6.13,1.25-.65,0-1.3,0-2,0a2.48,2.48,0,0,1-.95-.2,1.81,1.81,0,0,1-.67-.6.94.94,0,0,1,.32-1.28C330.22,153.87,335,153.71,337.44,155.58Z"/><path class="cls-1" d="M336.76,141.54a8.3,8.3,0,0,1-4.55.76c-.48,0-1.28-.07-2.09-.13a7,7,0,0,1-1-.17c-.63-.14-1.31-.27-1.35-1.09a1.51,1.51,0,0,1,1-1.48,9.27,9.27,0,0,1,7.93.56,1,1,0,0,1,.45.77A1.07,1.07,0,0,1,336.76,141.54Z"/><path class="cls-1" d="M278.28,117.07a8.36,8.36,0,0,1,7.32,1.45,1,1,0,0,1,.17.88,1.13,1.13,0,0,1-.58.66,10.78,10.78,0,0,1-1.59.42c-1.6-.34-3.34-.76-5.09-1.08-.76-.14-1.24-.5-1.09-1.24A1.57,1.57,0,0,1,278.28,117.07Z"/><path class="cls-1" d="M347.51,152.48c1.72-.56,3.21-.08,4.78.27a1,1,0,0,1,.82,1.05c0,.6-.4.85-.87,1-1.39.44-2.79.85-3.71,1.13-1.86-.07-3.16-.25-3.92-1.55C344.21,153.68,345.29,153.2,347.51,152.48Z"/><path class="cls-1" d="M330.59,149.49c-.42-.2-1-.2-1-.83s.3-.81.8-1c2.56-1,5-1.16,7.6.65C335.54,150.88,333.14,150.71,330.59,149.49Z"/></svg>