<svg id="Layer_1" data-name="Layer 1" xmlns="http://www.w3.org/2000/svg" viewBox="0 0 233.49 133.79"><defs><style>.cls-1{fill:#fff;}</style></defs><title>Artboard 1</title><path class="cls-1" d="M214.35,56.73a.69.69,0,0,1-.22-.84,1.42,1.42,0,0,0,.12-.62c-.13-1.23,0-1.48-1.37-1.09-.91.27-1.82.56-2.74.81-.23.06-.4-.09-.41-.34a2.32,2.32,0,0,1,0-.47c.23-1.57.47-3.14.7-4.7.09-.61-.14-.9-.72-.94a1.18,1.18,0,0,0-.89.26,2.15,2.15,0,0,0-.78,1.33c-.15,1-.37,2.08-.58,3.12a.4.4,0,0,1-.6.29,17.79,17.79,0,0,1-2.15-1.32c-1-.77-1.25-.73-2.24,0-.17.12-.35.24-.51.38a2.54,2.54,0,0,0-1.08,2.63c.11.56.18.7.81.72a4.53,4.53,0,0,1,2.85.89,4,4,0,0,1-2.08.76,7.46,7.46,0,0,0-2.11.67c-.68.36-.83.9-.53,1.72.07.2.13.39.19.56a33.78,33.78,0,0,0,3.8-1.1c.73-.31,1.5-.53,2.25-.77s.89-.07.91.6.05,1.59,0,2.38a7,7,0,0,0,.21,1.72.47.47,0,0,0,.75.25,2.48,2.48,0,0,0,.51-.59c.26-.45.47-.92.71-1.4.57.29.76.82,1.09,1.21a.68.68,0,0,0,1.15-.07c.3-.65.7-1.26.28-2.09a7.58,7.58,0,0,1-.42-2,1.09,1.09,0,0,1,.94-.06c.36.08.72.2,1.08.25.82.1,1.17-.18,1.34-1A1.16,1.16,0,0,0,214.35,56.73Z"/><path class="cls-1" d="M167.67,51.83a.79.79,0,0,0-.7-.29,3.16,3.16,0,0,0-.73.31c-1.4.74-2.79,1.51-4.21,2.23a15,15,0,0,1-4,1.51c-.49.09-.7-.08-.71-.58a35,35,0,0,1,.17-4.28c.11-1,.14-2,.19-3a2.29,2.29,0,0,0,0-.63.8.8,0,0,0-1.28-.38,1.76,1.76,0,0,0-.64,1.4c.07,2-.36,3.9-.37,5.86a5.63,5.63,0,0,1-.06.79.44.44,0,0,1-.7.33,4.14,4.14,0,0,1-1.11-.89c-1.16-1.23-2.35-2.44-3.5-3.69a21.72,21.72,0,0,0-2.64-2.27,1.14,1.14,0,0,0-1.78.27,1.21,1.21,0,0,0,.17,1.8c1,.91,1.88,1.84,2.81,2.77a1.58,1.58,0,0,1,.2.47,1.91,1.91,0,0,1-1.25,0c-1.43-.39-2.86-.77-4.28-1.18-.87-.25-1.3-.15-1.79.49a1.19,1.19,0,0,0,.12,1.57,2.87,2.87,0,0,0,1.09.62,28.92,28.92,0,0,0,4.93,1.18c1.14.22,2.28.44,3.42.69.27.06.63.06.66.48a1.37,1.37,0,0,1-.28.17c-2.89.85-5.74,1.86-8.69,2.52a12.32,12.32,0,0,0-2,.65,3,3,0,0,0-1.43,1.21,3.31,3.31,0,0,0-.3.55c-.23.59,0,1,.63.92a8.06,8.06,0,0,0,.94-.16,45.71,45.71,0,0,0,5.06-1.36c2.56-.85,5.13-1.68,7.69-2.52l.3-.1a.7.7,0,0,1,.73.16,1.19,1.19,0,0,1,.38,1.42c-.43,1.47-.83,2.95-1.24,4.42-.25.92-.44,1.85-.61,2.79a3,3,0,0,0,.57,2.48c.86-.49.86-1.33,1-2.1a37.6,37.6,0,0,1,1.75-5.93.35.35,0,0,1,.63-.13c.73.93,1.91,1.55,2,2.92a.79.79,0,0,0,.21.41,16.42,16.42,0,0,0,2,2.18c.28-.29.37-.61.68-.77a1.49,1.49,0,0,0,.7-1.75,3.56,3.56,0,0,0-.9-1.82Q160.2,62.15,159,60.7c-.21-.25-.66-.53-.31-.9s.59.06.9.11A29.65,29.65,0,0,0,165,62.2a5.74,5.74,0,0,0,.92.2c.06,0,.18-.08.21-.15A.14.14,0,0,0,166,62c-.51,0-.81-.48-1.26-.64.58.11,1.16.22,1.75.3a.46.46,0,0,0,.39-.17.6.6,0,0,0,0-.45,1.71,1.71,0,0,0-1-.78c-1.8-.9-3.58-1.82-5.37-2.73-.24-.12-.49-.22-.55-.52.07-.07.12-.18.21-.22,2.16-1.12,4.32-2.25,6.49-3.33a2,2,0,0,0,1-.93A.6.6,0,0,0,167.67,51.83Zm-7.12,7.9c.24.06.52,0,.64.32a1.44,1.44,0,0,1,.95.32c.23.07.5.08.65.33a2.52,2.52,0,0,1,.93.3,1.46,1.46,0,0,1,.83.34c-.27-.12-.62,0-.82-.33l-.94-.31h0l-.6-.3,0,0h0l0,0-1-.32h0l0,0h0l-.64-.32h0l0,0-.65-.33-.31-.07c.15-.19.21,0,.32.07S160.4,59.49,160.54,59.73Z"/><path class="cls-1" d="M159.92,59.42h0Z"/><path class="cls-1" d="M163.72,61h0l0,0h0Z"/><path class="cls-1" d="M118.23,58.12a.4.4,0,0,0-.09.11c.05,0,.09,0,.1-.09h0Z"/><path class="cls-1" d="M129,51.43a6.7,6.7,0,0,0-2.51.29A12.8,12.8,0,0,0,124,52c-1.51.27-3,.54-4.52.79-.4.07-.63-.22-.45-.56.28-.57.61-1.11.91-1.67A24,24,0,0,0,122,46.47a8.31,8.31,0,0,0,1.16-2.18.75.75,0,0,0-.94-1,3,3,0,0,0-2.06,1.49,7.3,7.3,0,0,0-1.48,2.2c-.5,1.09-1.06,2.17-1.66,3.21-.26.45-.34,1.3-1,1.16-.5-.1-.47-.86-.63-1.34-.55-1.64-1.08-3.28-1.62-4.92a7.35,7.35,0,0,0-.67-2.08A1.4,1.4,0,0,0,111,42.2a3.44,3.44,0,0,0-1,1c-.34.4-.9.73-1,1.17s.56.94.8,1.45a6.17,6.17,0,0,1,.25,2.05,3.3,3.3,0,0,1-1.86-.8c-1.28-.84-2.53-1.73-3.8-2.59a1.72,1.72,0,0,0-2.44.09c-.35.3-.83.49-1,1a7.29,7.29,0,0,0,.62.85,8.67,8.67,0,0,0,1.17,1.06c1.24.9,2.5,1.78,3.77,2.63,1.54,1,3.1,2,4.65,3,.3.2.74.37.7.78s-.57.36-.9.42c-.57.11-1.15.18-1.72.26-1.52.22-3,.37-4.55.66a4.05,4.05,0,0,0-3.21,2.28c-.09.2-.17.39-.05.59a.52.52,0,0,0,.54.26c.63-.08,1.26-.2,1.89-.24a51.8,51.8,0,0,0,6.76-.91c.67-.13,1.35-.24,2-.33a.49.49,0,0,1,.51.63c-.2.49-.43,1-.68,1.43-.59,1.12-1.19,2.24-1.81,3.35a5.17,5.17,0,0,0-.59,2,2.28,2.28,0,0,0,.07.78c.1.43.46.53.8.24a10.69,10.69,0,0,0,2.66-3.51c.18-.37.26-.82.78-1a7.91,7.91,0,0,1,.41.83,16.69,16.69,0,0,0,2.58,4.89c.37.46.52.53,1,.21a3.25,3.25,0,0,0,1.26-4.4,24.89,24.89,0,0,1-1.41-3.7.57.57,0,0,1,0-.43l-.07,0s0-.1,0-.12.14-.06.19,0l0,0v0a.85.85,0,0,1,.29.08c1.81,1.36,3.71,2.6,5.6,3.86a1.63,1.63,0,0,0,1.72.3A1.41,1.41,0,0,0,127,62.1c1.35-.77,1.41-1.87.13-2.67a1.21,1.21,0,0,0-.29-.09h0l-1.52-1.13c-1.06-.78-2.13-1.56-3.19-2.36a.63.63,0,0,1-.22-.39c0-.2.18-.22.32-.25A17,17,0,0,1,124,55a9.1,9.1,0,0,0,3.8-1,2.05,2.05,0,0,0,1.91-1.41A.74.74,0,0,0,129,51.43Zm-18.93-3.35,0-.09,0,.09Z"/><path class="cls-1" d="M193.3,48.35c0-.24-.26-.28-.46-.36a7.42,7.42,0,0,0-3-.33,18.29,18.29,0,0,1-3.47-.18c-.4-.05-.52-.29-.34-.67a11.6,11.6,0,0,1,1.28-2.17c.64-.84,1.23-1.7,1.84-2.56.4-.48.83-.94,1.2-1.44a4.75,4.75,0,0,0,.57-1.11.46.46,0,0,0-.16-.56c-1.08-.61-2.21-.47-2.69.31-.3.49-.63,1-.95,1.44h0l-2.83,3.62c-.19.24-.34.56-.78.49-.08-.17-.18-.36-.27-.55-.27-.58-.38-1.34-.83-1.68A8.38,8.38,0,0,1,181.15,41a1.13,1.13,0,0,0-1.08-.52,7.17,7.17,0,0,1-1.52.31c-.64,0-.77-.81-1.25-1.14a5,5,0,0,1-.82-.74,1.2,1.2,0,0,0-1-.35,1.68,1.68,0,0,0-1.57,1.13.73.73,0,0,0,.2,1,5,5,0,0,1,1.23,1.21,33.83,33.83,0,0,0,4.34,4.63c.15.14.35.25.28.51-.36.28-.8.17-1.21.19-2,.09-3.91.17-5.87.23a2.23,2.23,0,0,0-1.67.77.88.88,0,0,0-.14.88c.07.33.4.36.62.38a18.63,18.63,0,0,0,2.21,0c1.9-.12,3.81-.19,5.71-.13.4,0,.94-.16,1.14.3s-.26.65-.46.95c-.86,1.27-1.74,2.53-2.59,3.8a6.07,6.07,0,0,0-.51,1,1.15,1.15,0,0,0,.44,1.1c.27.18.49,0,.72-.12a6.7,6.7,0,0,0,2.37-1.82c.5-.56.58-1.5,1.49-1.69.49.59.44,1.39.78,2a2.4,2.4,0,0,1,.23.75c.07.46.35.6.77.63a1.49,1.49,0,0,0,1.83-1.45c0-.26,0-.53.07-.79a.67.67,0,0,1,.22-.39c.15-.11.31,0,.41.12a7.56,7.56,0,0,1,1.31,1.78c.36.76.56.91,1.28.69s1.73-.29,1.9-1.39a4.93,4.93,0,0,0-1.22-1.76,10.82,10.82,0,0,0-1.69-2.27,4.31,4.31,0,0,1-.47-.63.28.28,0,0,1,.16-.38,2.18,2.18,0,0,1,.61-.1c.89,0,1.79,0,2.68,0a3.37,3.37,0,0,0,1.95-.54A.85.85,0,0,0,193.3,48.35Z"/><path class="cls-1" d="M92.46,68.08a21.79,21.79,0,0,0-3.11-2.17c-.25-.17-.59-.27-.59-.68a2.45,2.45,0,0,1,1.31-.45,7.21,7.21,0,0,0,2-.64,1.43,1.43,0,0,0,.61-.47c.21-.34.56-.69.34-1.15s-.7-.44-1.11-.42a8.88,8.88,0,0,0-1.25.21c-.78.15-1.55.34-2.33.46s-1.36.13-2,.16c-.3,0-.43-.3-.25-.55s.52-.67.78-1c.72-.91,1.45-1.82,2.15-2.74a9.37,9.37,0,0,0,1.18-2.41.69.69,0,0,0-.48-.87,2.07,2.07,0,0,0-2.2.51,11.45,11.45,0,0,0-2.24,2.83,5.58,5.58,0,0,1-1.46,2,.43.43,0,0,1-.75-.18c-.14-.4-.25-.8-.38-1.21-.32-1-.63-2-1-3a2.38,2.38,0,0,0-.89-1.45,3.38,3.38,0,0,0-.53-1.31,1.8,1.8,0,0,0-1.83-1,3.12,3.12,0,0,0-1.93.94c-.67.53-.68.52-.16,1.35.26.69.52,1.38.78,2.07a.29.29,0,0,1-.11.4.35.35,0,0,1-.3-.06c-.62-.49-1.24-1-1.82-1.51a2.5,2.5,0,0,0-2.51-.48.86.86,0,0,0-.58,1.23,2,2,0,0,0,.35.52c.58.61,1.16,1.23,1.77,1.81A41.73,41.73,0,0,0,78,62.13c.34.26,1,.45.76,1s-.74.32-1.14.37c-1.47.18-2.93.36-4.39.63a4,4,0,0,0-2.72,1.72c-.08.12-.26.23-.13.38a.58.58,0,0,0,.4.21q1.26-.1,2.51-.26A45.05,45.05,0,0,1,79,66c.42,0,.59.27.4.61s-.28.45-.43.67L76.56,70.8a1,1,0,0,0-.5.73.42.42,0,0,0,.56.48c.55-.25,1.2-.32,1.6-.85a7,7,0,0,0,2-1.52c.79-.7.93-.44,1.27.37a19.15,19.15,0,0,0,1.95,3.94c.39.55.43.61,1,.33a9.13,9.13,0,0,0,1.35-.8,3.08,3.08,0,0,0,1-1.55c.17-.51-.13-.91-.3-1.35s-.36-1-.54-1.48a2.55,2.55,0,0,1-.22-1.38c-.14-.08-.25-.21-.13-.35s.27,0,.39,0A35.43,35.43,0,0,1,90,70c.31.88,1.11.87,1.82,1,.91.13,1.54-.35,1.92-1.41C93.68,68.72,93,68.47,92.46,68.08Z"/><path class="cls-1" d="M119.13,26.09a6.42,6.42,0,0,0-1.86-1.45c-.07-.21-.32-.45.08-.59a2.07,2.07,0,0,0,.9-.52,1.09,1.09,0,0,0,.62-.43c.43-.59.26-1.13-.43-1.28a3.77,3.77,0,0,0-1.83.06l-2.48,0a.4.4,0,0,1-.38-.63c.4-.78.83-1.54,1.25-2.31a8.38,8.38,0,0,0,1.31-2.68c.32-.88-.27-1.39-1.3-1.16a2.85,2.85,0,0,0-2.41,1.58c-.55.37-.18.89-.22,1.34-.08.13-.15.26-.23.39s-.36.35-.59.07-.23-.32-.35-.49c-.36-1-.5-1.1-1.62-1.1a2.65,2.65,0,0,0-2,.84.51.51,0,0,0,0,.83l.12.11c.2.19.41.43.26.68s-.47.06-.68-.05c-.7-.36-1.4-.76-2.1-1.12a1.73,1.73,0,0,0-1.67-.06,2.33,2.33,0,0,0-1,1c-.21.42.2.78.34,1.17a1.22,1.22,0,0,0,1.18.84,6,6,0,0,1,2.84,1.5c-.15.37-.44.39-.68.45-.92.23-1.87.38-2.77.67a2.83,2.83,0,0,0-2.15,2.14,37.39,37.39,0,0,0,4.81-.4c.58-.06,1.16-.13,1.74-.17a.36.36,0,0,1,.34.54c-.24.53-.5,1-.74,1.57a2.5,2.5,0,0,0-.09,1.86c.13.42.45.54.87.31a5.17,5.17,0,0,0,1.42-1.24c.23-.27.48-.21.58.11a8.49,8.49,0,0,0,.53,1.66c.32.56,0,1.25.34,1.74a1.65,1.65,0,0,0,1.5-1.15,6.43,6.43,0,0,0,.48-2.31c0-.59-.34-1.24.15-1.79a4.47,4.47,0,0,1,2.37,1.06,6.82,6.82,0,0,1,.49.62c.83-.26,1.72-.15,2.43-.71l.42-.21A.74.74,0,0,0,119.13,26.09Z"/><path class="cls-1" d="M56.4,100a6,6,0,0,0-2.37.06l-3.86.93c-.82.19-1.66.35-2.48.55a2.59,2.59,0,0,1-1.83-.34.53.53,0,0,1-.28-.66,4.13,4.13,0,0,1,.23-.59c.8-1.85,1.61-3.69,2.39-5.54A23,23,0,0,0,49,92.21c.21-.69-.22-1.13-.95-1a2,2,0,0,0-.75.25A4.61,4.61,0,0,0,45.28,94c-.36,1.35-1.15,2.49-1.57,3.8a.38.38,0,0,1-.34.28c-.2,0-.29-.12-.35-.26-.44-1-.88-1.92-1.32-2.88a12.74,12.74,0,0,0-1.46-3.15,1.49,1.49,0,0,0-1.84-.82,2.53,2.53,0,0,0-1.42.94c-1,1.18-1,1.17,0,2.39.3.79.6,1.58.88,2.37a.65.65,0,0,1,0,.44c-.08.19-.28.11-.41.06a15.56,15.56,0,0,1-2.58-1.22c-.88-.48-1.79-.92-2.66-1.41a2.79,2.79,0,0,0-2-.22c-.48.1-1.16.65-1.16.94a1.23,1.23,0,0,0,.67,1c.88.59,1.76,1.19,2.68,1.69,2.23,1.21,4.49,2.37,6.73,3.56a2.84,2.84,0,0,1,.65.43.77.77,0,0,1,.31.84c-.11.28-.41.3-.68.32-1.32.12-2.64.22-4,.37a14.43,14.43,0,0,0-5.86,1.83,3.24,3.24,0,0,0-1.67,2.52c0,.28.15.45.47.47a.82.82,0,0,0,.74-.2,3.26,3.26,0,0,1,2.56-1q3.72-.36,7.4-1a.88.88,0,0,1,.76.11,1.9,1.9,0,0,1-.2,1.07c-.31.84-.64,1.68-.94,2.53a15.9,15.9,0,0,0-.86,3.05,1.65,1.65,0,0,0,.09.93c.1.23.46.41.66.27a4.61,4.61,0,0,0,1.65-1.65,32.68,32.68,0,0,0,1.85-3.68c.09-.26.13-.63.56-.65a5,5,0,0,1,.69,1.41,36.41,36.41,0,0,0,1.94,4.16c.09.24.2.47.27.71s.13.57.19.85a2.26,2.26,0,0,0,2.17-.83,1,1,0,0,0,.57-1,8.6,8.6,0,0,0-.15-1l-.1-.61a2.76,2.76,0,0,0-.43-2.24,37.31,37.31,0,0,1-1.13-3.66c-.08-.11-.19-.24-.06-.35s.25,0,.35.09c.79.39,1.57.79,2.36,1.16a6.89,6.89,0,0,0,2.29.91,5.76,5.76,0,0,0,1.38.74c.68.37,1,.25,1.68-.35.19-.18.31-.43.48-.62a.86.86,0,0,0,0-1.15,1.8,1.8,0,0,0-.52-.57,8.12,8.12,0,0,0-2.37-1.22l.2.42-.2-.42c-.27-.16-.55-.31-.82-.48a.39.39,0,0,1-.18-.24c0-.18.14-.26.29-.31.56-.18,1.16,0,1.72-.24a21,21,0,0,1,2.35-.95,2.08,2.08,0,0,0,1.37-1.2C57.27,100.39,57.18,100.15,56.4,100Z"/><path class="cls-1" d="M190.57,69.14a.94.94,0,0,1,.33-1,2.6,2.6,0,0,0,.72-.82c.32-.74.1-1.14-.69-1.13a7.92,7.92,0,0,0-2.46.59c-.5.17-1,.36-1.5.5a.43.43,0,0,1-.61-.47c.06-.79.15-1.58.21-2.37,0-.57-.15-.85-.6-.95a.91.91,0,0,0-1.09.44,7.33,7.33,0,0,0-.35,1,2.84,2.84,0,0,1-.52,1.39L182.68,66c-1.48-.35-1.76-.21-2.54,1.14a2.22,2.22,0,0,0-.25,2.1c.32.58.42.7-.23,1s-.82,1.06-1.13,1.65a.46.46,0,0,0,.07.43c.27.25,0,.77.47.9l3.37-1.42c.23-.09.5-.27.72,0s.1.51,0,.76-.21.71-.31,1.07a3.78,3.78,0,0,0-.13.62.65.65,0,0,0,.36.66.52.52,0,0,0,.69-.2c.3-.49.56-1,.83-1.53.17-.32.21-.72.68-.94l1.51,1.74L187,75c.6-.59,1.29-.87,1.28-1.74,0-.15.05-.29.08-.44.14-.62.14-.62.77-.63.15,0,.3,0,.45,0,.36.16.65.15.79-.3a2.63,2.63,0,0,1,.28-.49c.93-.22,1.07-.42.87-1.35C191.51,69.48,191.07,69.29,190.57,69.14Zm-9.12.33a.56.56,0,0,1-.56,0,.32.32,0,0,1-.11-.25c0-.16.11-.26.41-.2a1.41,1.41,0,0,1,.28.16.42.42,0,0,1,.1.24S181.49,69.46,181.45,69.47Z"/><path class="cls-1" d="M65.13,65.91a1.65,1.65,0,0,0-.46,0l-6,.4c-1.42.1-2.85.21-4.27.3-.3,0-.7.14-.88-.15s.12-.69.33-1c.36-.52.77-1,1.16-1.51a52.91,52.91,0,0,0,3.14-4.76c.46-.72.11-1.24-.74-1.19a2,2,0,0,0-.92.19,7.31,7.31,0,0,0-2.78,2.49c-.62,1.1-1.36,2.13-2.06,3.19a.27.27,0,0,1-.48-.1L50.1,59.93c0-.86-.63-1.38-1.12-2h0c-.49-1.32-1.19-1.59-2.3-.89-.26.17-.52.34-.77.52a1.09,1.09,0,0,0-.52.9c0,.44.36.59.66.79a6.79,6.79,0,0,1,.39,2c0,.32-.24.5-.51.35-.51-.28-1-.61-1.48-.91A16.75,16.75,0,0,0,40,58.43a1.92,1.92,0,0,0-1.33.25c-.2.08-.23.33-.1.55.25.4.9.56.92,1,0,.68.49.87.92,1.16.61.41,1.23.83,1.82,1.26s1,.95,1.82.75c.12,0,.3.09.43.18,1,.7,2,1.4,3,2.11a.66.66,0,0,1,.31.68c-.07.37-.34.51-.66.58-1.29.29-2.58.6-3.87.86a8.82,8.82,0,0,1-3,.09,12.51,12.51,0,0,0-2.69,0,8.06,8.06,0,0,0-2.27.67s-.12,0-.14.08a1.46,1.46,0,0,0-.26.55c0,.25.24.3.45.33a39.63,39.63,0,0,0,6.81.3,30.77,30.77,0,0,0,4.24-.62,1.66,1.66,0,0,1,1.22,0,2.18,2.18,0,0,1-.18.47c-1.44,2-2.75,4.15-4.35,6.06a3.17,3.17,0,0,0-.77,1.36c0,.17.25.45.4.38a8.6,8.6,0,0,0,3.16-2.05c1-1.19,2.18-2.16,3-3.44a1.49,1.49,0,0,1,.22-.23.3.3,0,0,1,.5.13c.29,1,.55,1.93.85,2.89s.65,2.12,1,3.17a4.72,4.72,0,0,0,.62,1.1.57.57,0,0,0,.71.21A3.32,3.32,0,0,0,54,78.15a1,1,0,0,0,.16-1,1.1,1.1,0,0,0-.16-1l-.54-4.29c0-.12-.06-.3,0-.36s.23,0,.31.11c.8.33,1.29,1.13,2.14,1.39A3.81,3.81,0,0,0,59,74.21a2,2,0,0,0,1.39-.55c.67-.66.69-1.08-.08-1.66s-1.41-.91-2.12-1.36c0,.16,0,.32.07.47,0-.16-.05-.32-.07-.47l-1.6-1.79a3.57,3.57,0,0,1,1.49-.3c1,0,1.91,0,2.85-.08s2.09-.28,3.14-.43a1.82,1.82,0,0,0,1.51-1.43A.61.61,0,0,0,65.13,65.91Z"/><path class="cls-1" d="M30,64.24A11,11,0,0,0,28.14,64c-2.06.06-4.12.18-6.18.29-.46,0-1,.31-1.29-.24s.14-.81.35-1.16a40.26,40.26,0,0,1,2.86-4.39,6.74,6.74,0,0,0,1.29-2.17.55.55,0,0,0-.43-.71,2.43,2.43,0,0,0-2.07.58,5.82,5.82,0,0,0-1.52,1.8A17.45,17.45,0,0,1,19,61a.3.3,0,0,1-.52-.07A12.8,12.8,0,0,1,18,59.6a27.61,27.61,0,0,0-1.08-3.31,2.41,2.41,0,0,0-.78-1,.58.58,0,0,0-.57-.06c-.72.21-1.07.82-1.55,1.27a1.46,1.46,0,0,0-.38,1.85,2.85,2.85,0,0,1,.14.61c.08.13.12.27,0,.36s-.14-.09-.21-.14a3.2,3.2,0,0,1-1.31-.86c-.47-.42-.92-.88-1.39-1.3C9.59,56,8.69,56,7.38,57a17.31,17.31,0,0,0,5.3,4.88c.68.41,1.31.9,2,1.35a1.3,1.3,0,0,1,.6.88c.06.38-.07.66-.43.68-.58,0-1.16.08-1.74.07-1.16,0-2.33-.07-3.49-.09a4.68,4.68,0,0,0-4,2.13.46.46,0,0,0-.07.29c0,.21.2.2.35.22a60.56,60.56,0,0,0,7.93.24c.26,0,.53,0,.79,0a.24.24,0,0,1,.22.33,2.4,2.4,0,0,1-.3.55c-1,1.52-1.91,3-2.86,4.57a3.77,3.77,0,0,0-.41.85.65.65,0,0,0,.28.69.43.43,0,0,0,.57,0,6.6,6.6,0,0,0,2.13-1.86c.73-1,1.58-2,2.38-3a.3.3,0,0,1,.51.07c.21.54.44,1.08.62,1.63.59,1.92,1.14,3.85,1.74,5.76a15.42,15.42,0,0,0,.71,1.76.5.5,0,0,0,.8.18A2.73,2.73,0,0,0,22.1,77a8.75,8.75,0,0,0-.27-2.36c-.38-1.38-.53-2.8-.79-4.2-.07-.14-.1-.28.06-.37s.14.09.21.14a1.22,1.22,0,0,1,1.62.43,3.77,3.77,0,0,0,.7.63,1.77,1.77,0,0,0,.81.9l.32.32c.2.52.67.81,1,1.19a1.23,1.23,0,0,0,1.92-1.46,29.53,29.53,0,0,0-2.38-3.36c-.39-.43-.76-.88-1.14-1.33-.23-.28,0-.48.13-.69a16.09,16.09,0,0,0,3.94-.27,3.05,3.05,0,0,0,2.16-1.48A.55.55,0,0,0,30,64.24Z"/><path class="cls-1" d="M117,84.48a9.12,9.12,0,0,0-1.58-.11c-1.53,0-3.06.06-4.59.08-.31,0-.63,0-.94,0a.31.31,0,0,1-.21-.48c.25-.4.52-.79.78-1.19a9.59,9.59,0,0,0,1.18-1.86,1.51,1.51,0,0,0,.63-1h0a1.79,1.79,0,0,0,.34-.31,1.28,1.28,0,0,0,0-1.56,1,1,0,0,0-1.17-.09,1.94,1.94,0,0,0-.47.37,10.15,10.15,0,0,0-3.33,3.54,10.77,10.77,0,0,1-1.14,1.52.44.44,0,0,1-.68-.07,3.59,3.59,0,0,1-.39-.68c-.3-.79-.58-1.58-.87-2.38a8.41,8.41,0,0,0-1.47-3.71c-.59-1-1-1-2.09-.57a3.41,3.41,0,0,0-1.12.81c-.55-.14-.82-.65-1.23-1A3,3,0,0,0,96,75.26a.63.63,0,0,0-.47.71,4.5,4.5,0,0,0,1.26,2.32c.81.76,1.58,1.56,2.31,2.39s1.61,2,2.37,3c.34.45.16.79-.4.88a4.76,4.76,0,0,1-.63.06c-1.85.06-3.7.12-5.54.15a2.28,2.28,0,0,0-1.48.44,1.82,1.82,0,0,1-.67.41,1.71,1.71,0,0,0-1.29,1.28,22.06,22.06,0,0,0,2.56.58c1.85,0,3.7.06,5.55-.08a23.94,23.94,0,0,1,2.53,0c.45,0,.65.28.72.69a1.1,1.1,0,0,1,0,.77,15.55,15.55,0,0,1-1.44,2.26,24,24,0,0,0-2.84,4.56,2,2,0,0,0-.15.45.45.45,0,0,0,.41.55,2.66,2.66,0,0,0,2.17-1.06c.48-.55.89-1.17,1.33-1.76s.69-1.05,1.48-1.08c.16.49.35,1,.49,1.48a6.72,6.72,0,0,1,.16.94q.17,1.26.33,2.51a.52.52,0,0,0,.34.49,1.9,1.9,0,0,0,2.55-2.08c0-1.32-.08-2.64-.11-4,0-.4.17-.48.61-.28a2.12,2.12,0,0,1,.27.17c.21.57.79,1,.78,1.67,0,.47.26.56.74.56a3.74,3.74,0,0,0,1.34-.41,2,2,0,0,0,.45-3.44c-.17-.53-.65-.82-1-1.23s-.74-.9-1.09-1.36a.36.36,0,0,1,.24-.59,14.52,14.52,0,0,1,3.47.11l-.76.76a.15.15,0,0,0,0,.13c.06.12.14.13.26,0l.51-.33a1.3,1.3,0,0,0,1.34.12,17.3,17.3,0,0,1,2-.85,2,2,0,0,0,1.17-1.21C118.23,85.15,118,84.64,117,84.48Z"/><path class="cls-1" d="M150.6,110.91a4.21,4.21,0,0,0-2.31-.16c-.74,0-1.47,0-2.21.06l-6.8.35c-.2,0-.43,0-.57-.16s0-.42.11-.58c1.39-1.8,2.34-3.9,3.87-5.59a.94.94,0,0,0,.1-.12.83.83,0,0,0-.63-1.28,2.8,2.8,0,0,0-2.24,1,19.75,19.75,0,0,0-3.4,4.35c-.34.59-.74,1.15-1.14,1.71a.31.31,0,0,1-.51-.08c-.11-.3-.19-.6-.28-.9a28.43,28.43,0,0,0-1-3.65,1.19,1.19,0,0,0-.22-1l-.09-.63c-.05-.31-.1-.61-.15-.92-.15-.95-.91-1.56-2.3-1.07a5.16,5.16,0,0,0-1.29.85c-1.11.84-1.1.85-.25,2.08-.08.73.4,1.43.17,2.15a.89.89,0,0,1-.64-.12,40.11,40.11,0,0,1-4.37-2.56c-1.43-.92-2.41-1.15-3.84.16a.68.68,0,0,0-.12.23,8.22,8.22,0,0,0,2.79,2.54c1.81,1.09,3.61,2.21,5.41,3.31l1.07.68c.14.09.24.22.16.39a.37.37,0,0,1-.23.17,6.29,6.29,0,0,1-.63.08c-3.15.37-6.28.85-9.39,1.5a6.51,6.51,0,0,0-2.36,1.21.48.48,0,0,0-.08.43.47.47,0,0,0,.32.28,9.32,9.32,0,0,0,1.42,0q2.37-.21,4.73-.48c1.89-.21,3.78-.45,5.67-.67.47-.05.95-.09,1.42-.1a.66.66,0,0,1,.66.57,1.14,1.14,0,0,1-.13,1.06c-.29.38-.56.77-.86,1.14-.87,1.07-1.73,2.14-2.63,3.18a2.88,2.88,0,0,0-.65,1.41c0,.17.22.42.39.37a4.49,4.49,0,0,0,1.55-.79,17.6,17.6,0,0,0,2.11-1.92,7.77,7.77,0,0,1,.8-.77.42.42,0,0,1,.65.18c.29.85.55,1.71.82,2.57a10.11,10.11,0,0,0,.28,1c0,.1.28.24.35.21.81-.38,1.78-.54,2.17-1.51a1.41,1.41,0,0,0,.59-1c.53-.75.13-1.48-.06-2.22l-.18-1.29c.15-.14.3-.35.53-.23a10.12,10.12,0,0,1,1.07.66c.61.43,1.17.92,1.8,1.3a6.26,6.26,0,0,0,3.26,1.11,1.89,1.89,0,0,0,1.71-.94.84.84,0,0,0-.35-1.31c-.77-.45-1.57-.87-2.32-1.37s-1.62-1.18-2.42-1.79a.33.33,0,0,1-.09-.28c0-.08.12-.21.2-.21l4.75-.3a.57.57,0,0,1,.31.07,1.7,1.7,0,0,0,1.38,0c.61-.16,1.24-.25,1.86-.38a2.66,2.66,0,0,0,2.53-1.23A.53.53,0,0,0,150.6,110.91Z"/><path class="cls-1" d="M100.57,30.69a10.42,10.42,0,0,1-2.11-.12c-.09,0-.19.07-.28.11a32.85,32.85,0,0,1-3.9.89.4.4,0,0,1-.08-.49,7.54,7.54,0,0,1,1-2A3.1,3.1,0,0,0,96,27.41a.87.87,0,0,0-.33-.84,1,1,0,0,0-1.06,0,1.9,1.9,0,0,0-.54.57,15.42,15.42,0,0,0-1.64,2.72,4.17,4.17,0,0,1-.4.68.27.27,0,0,1-.41,0,3.71,3.71,0,0,1-.5-.6c-.64-1-1.26-2-1.92-2.92-.39-.57-.81-1.11-1.25-1.64a.68.68,0,0,0-1,.07c-.2.3-.56.51-.57.92,0,.68-.09,1.39.58,1.87a1.2,1.2,0,0,1,.31.35.36.36,0,0,1,0,.3A.31.31,0,0,1,87,29c-.26-.05-.5-.15-.76-.22-1.45-.39-2.22.15-2.38,1.63a.94.94,0,0,0,.44.95,5.45,5.45,0,0,0,1,.51c.83.35,1.67.67,2.5,1,.22.09.5.16.47.57-.44.11-.91.2-1.35.35s-1.09.4-1.62.63A2.48,2.48,0,0,0,84,36.16a.32.32,0,0,0,.31.44,2.14,2.14,0,0,0,.63,0,33.52,33.52,0,0,0,4.74-1.28c.64-.22.81-.08.72.53-.16,1.1-.35,2.19-.49,3.29a10.88,10.88,0,0,0-.05,1.58c0,.25,0,.59.35.6a.71.71,0,0,0,.5-.32,9.42,9.42,0,0,0,1.36-3c.11-.48-.08-1.23.55-1.32.43-.06.66.61.92,1a10.76,10.76,0,0,1,.54,1,4.93,4.93,0,0,0,.88,1.31c.15.32.3.65.47,1a.37.37,0,0,0,.26.15c.19,0,.24-.13.26-.28.06-.39.37-.77,0-1.16a5.62,5.62,0,0,0-1.13-3.49l.17-.39,1.25.28a5.86,5.86,0,0,0,2,.48c.14,0,.41,0,.44-.08.26-.6,1-.8,1.2-1.45s.09-1.08-.49-1.29-1-.29-1.52-.43c-.26-.17-.76-.34-.75-.5,0-.46.54-.37.85-.51a2.13,2.13,0,0,0,.26-.17c.82-.31,1.64-.62,2.46-.94a.29.29,0,0,0,.11-.25A.26.26,0,0,0,100.57,30.69Z"/><path class="cls-1" d="M165.54,25.31c.42-.07.84-.09,1.25-.15a2,2,0,0,0,1.23-.65,1.22,1.22,0,0,0,.3-1.31c-.25-.38-.65-.27-1-.27s-.53,0-.79,0l-4.26.12a2.21,2.21,0,0,1-1.5-.35c-.45-.34-.52-.6-.24-1.06a16.5,16.5,0,0,0,1.54-2.18,7.79,7.79,0,0,0,1.53-2.74.87.87,0,0,0-.51-1c-.62-.07-1.28-.13-1.63.59a4.5,4.5,0,0,0-1.56,2.07,3.8,3.8,0,0,1-1,1.38c-.44-1.07-.91-2.13-1.32-3.21a1.38,1.38,0,0,0-1.43-1,3,3,0,0,0-1.8.42h0a4.3,4.3,0,0,0-1.16.48.78.78,0,0,1-1.21-.06,1.85,1.85,0,0,0-1.95-.21,1.06,1.06,0,0,0-.57,1.65,4.66,4.66,0,0,0,1.19,1.26c1.16.92,2.34,1.81,3.51,2.72a3,3,0,0,1,1,1,.51.51,0,0,1-.33.75c-.68.1-1.36.17-2,.25a.68.68,0,0,0-.66.12h0l-1.57.28a.71.71,0,0,0-.65.06,1.69,1.69,0,0,0-1.58.72c-.54.1-.56.15-.29.69a.12.12,0,0,0,.14.11.77.77,0,0,0,.79.14,9.4,9.4,0,0,0,3,.21c.58,0,1.17,0,1.75,0a.32.32,0,0,1,.31.43,2.55,2.55,0,0,1-.27.57,21.18,21.18,0,0,0-1.51,2.79,3.82,3.82,0,0,0-.36.67c-.24.78-.14,1.49.24,1.53a1.17,1.17,0,0,0,1.26-.88h0a1,1,0,0,0,.67-.92,6.3,6.3,0,0,0,.92-1.63,1.34,1.34,0,0,0,.73-.88c.14-.16.27-.32.42-.47.32-.3.56-.26.71.13a7.16,7.16,0,0,1,.29.9c.26,1.13.52,2.26.75,3.4a17,17,0,0,1,.26,1.72c.06.62.68.89.87,1.42.6,0,.71-.55,1-.88a3.87,3.87,0,0,0,.92-2.15,8.92,8.92,0,0,0,.13-1.42,12.31,12.31,0,0,1,.29-2.67c.29.13.54.45.91.27v-.3a.52.52,0,0,1-.3-.3h-.32l-.26-.37c-.08-.12,0-.24.07-.2s.57.15.53.53c.22,0,.34.08.32.31.23,0,.34.08.32.31.33-.13.47.12.63.34a.5.5,0,0,1,.31.31c.21.17.46.31.34.63q.33,0,.31.32c.25,0,.33.12.32.36l.41.13c.88.27,1,.18,1.53-.77a.86.86,0,0,0,.23-1.11,4.5,4.5,0,0,0-1.58-2C165,25.53,165,25.39,165.54,25.31Z"/><path class="cls-1" d="M162.06,27.4h0l0,0h0S162.06,27.42,162.06,27.4Z"/><path class="cls-1" d="M163.34,28.38h0l0,0Z"/><path class="cls-1" d="M162.38,27.71h0v0l0,0S162.38,27.73,162.38,27.71Z"/><path class="cls-1" d="M163.3,28.35s0,0,0,0l0,0Z"/><path class="cls-1" d="M164.24,29.63h0l0,0s0,0,0,0h0Z"/><path class="cls-1" d="M164.24,29.63l-.28-.28v0h-.06l0,0c-.26-.15-.47-.32-.35-.65-.23,0-.34-.08-.32-.31-.35.17-.5-.05-.63-.32h-.3c-.12.27,0,.47.2.65.44.51.9,1,1.35,1.5s.35.37.66-.24l0,0h0A.53.53,0,0,1,164.24,29.63Z"/><path class="cls-1" d="M163.62,28.71h0l0,0h0S163.62,28.69,163.62,28.71Z"/><path class="cls-1" d="M162.67,28.07h0s0,0,0-.05l-.05,0Z"/><path class="cls-1" d="M162.35,28v0h0s0,0,0,0Z"/><path class="cls-1" d="M87.06,95.35a3.17,3.17,0,0,0-.77-.12,10.09,10.09,0,0,0-3.52.59L81.06,96c-.59,0-1.34.51-1.71-.08s.34-1,.61-1.52c.1-.18.23-.35.33-.53a28.93,28.93,0,0,0,2.8-5.94c.39-.79.81-1.57,1.17-2.38a.79.79,0,0,0-.71-1.11,2,2,0,0,0-1.92.8,2.33,2.33,0,0,1-.52.57A2.81,2.81,0,0,0,80,87.89c-.3.55-.64,1.08-.9,1.65-.4.85-.73,1.74-1.12,2.6-.19.41-.31.9-.79,1.1-.38-.21-.41-.6-.53-.94a21.07,21.07,0,0,0-1-2.81,1.31,1.31,0,0,0-.42-.87l-.13-.41-.62-.11.62.11a2.06,2.06,0,0,0-1.68-1.62.49.49,0,0,0-.55.18c-.87,0-1.2.8-1.7,1.3a1.05,1.05,0,0,0-.1,1.44,11.19,11.19,0,0,1,1.14,2.61.64.64,0,0,1-.13.77,7.68,7.68,0,0,1-1.92-1q-1.28-.94-2.58-1.86c-.52-.37-1.72-.48-2.08-.07s-1,.65-1.17,1.3a1.64,1.64,0,0,1,.53.27,21.21,21.21,0,0,0,4.77,3.66c.71.45,1.41.94,2.1,1.43.07,0,.08.18.1.28s-.06.17-.19.2L69,97.74a6.33,6.33,0,0,0-3.12,2.07,1.32,1.32,0,0,0-.24.58.37.37,0,0,0,.33.45.88.88,0,0,0,.47,0,21.79,21.79,0,0,1,5.15-.9c.48-.06,1.13-.48,1.43,0,.21.37-.34.83-.57,1.23a23.55,23.55,0,0,0-1.57,3.29,2.81,2.81,0,0,0-.16,1.71c.06.25.4.46.61.34a3.06,3.06,0,0,0,1-.75,6.59,6.59,0,0,0,.84-1.34,7.57,7.57,0,0,1,1.57-2.36c.29-.28.54-.22.71.17a5.57,5.57,0,0,1,.3.74c.46,1.64,1.16,3.18,1.7,4.78.37,1.08,1,2.12.75,3.35,0,.07.22.29.31.28a2.4,2.4,0,0,0,2.2-2.13,4.09,4.09,0,0,0,0-1.42c-.23-1.14-.15-2.32-.46-3.46a2.33,2.33,0,0,1,0-1.45,2.27,2.27,0,0,0,.6.12c.3,0,.61-.21.88-.15a4.52,4.52,0,0,1,1,.51,1.59,1.59,0,0,0,.3.09c.27.23.76.45.78.7,0,.59.21.57.64.36a1.46,1.46,0,0,1,.61,0,2,2,0,0,0,2-1.21.65.65,0,0,0-.08-.59,1.88,1.88,0,0,0-.73-.81,10,10,0,0,0-1.9-1.07c-.88-.65-1.77-1.3-2.64-2-.06,0-.08-.18-.09-.28s.06-.19.18-.21l3.54-.69a2.43,2.43,0,0,0,1.55-.63,1.34,1.34,0,0,0,.57-.89A.72.72,0,0,0,87.06,95.35Z"/><path class="cls-1" d="M143.86,81.25a2.26,2.26,0,0,0-1.3-.54c-.42,0-.85,0-1.27-.06a38.62,38.62,0,0,1-4.36-.45c.25-.62.43-1.17.69-1.68.35-.71.74-1.4,1.12-2.1a9.45,9.45,0,0,0,1-2.48,5.06,5.06,0,0,0,.87-2.18c.14-.6-.33-1-1-.89a2.06,2.06,0,0,0-1.33.79,1.85,1.85,0,0,0-1.43,1.51,8.29,8.29,0,0,1-.91,2.17c-.48.93-1,1.85-1.52,2.76-.12.21-.22.54-.55.46s-.24-.42-.32-.65-.17-.61-.25-.91l-.73-2.74a3.3,3.3,0,0,0-.55-1.6.73.73,0,0,0-.27-.65.89.89,0,0,0-.4-.61c-.1-.4-.18-.82-.69-.88a1.06,1.06,0,0,1-.63-.38,1,1,0,0,0-1.5-.06.87.87,0,0,0-.4,1.36c.12.21.19.46.43.59.12,1,.76,2,.59,3.06a1.32,1.32,0,0,1-1.12-.58,10.66,10.66,0,0,0-1-1,2.12,2.12,0,0,0-2.79.55,2.8,2.8,0,0,0,0,1.31l3.75,3.16a6.78,6.78,0,0,1,1.68,1.61c-.69.64-1.57.39-2.37.49a12.37,12.37,0,0,0-3.52.88,2.05,2.05,0,0,0-.92.83.61.61,0,0,0,.45.95,3,3,0,0,0,.78,0c.74-.06,1.48-.12,2.21-.24a28.3,28.3,0,0,1,3.8-.24c1,0,1.36.4,1.13,1.38a9.46,9.46,0,0,1-.63,1.62c-.47,1.06-1,2.11-1.45,3.17a1.25,1.25,0,0,0,0,1.22c.18.29.41.49.78.36a3.31,3.31,0,0,0,1.6-1c.18-.23.29-.58.8-.54.31.85.62,1.74,1,2.62.51,1.33.59,1.35,1.92.74a1.73,1.73,0,0,0,1-2.17c-.3-1.23-.62-2.46-.93-3.69-.1-.41-.17-.83-.23-1.24a.32.32,0,0,1,.13-.26.38.38,0,0,1,.3,0,2,2,0,0,1,.39.26l2.64,2c.68.56,1.38,1.1,2,1.68a1.12,1.12,0,0,0,1.43.11c.23-.13.47-.23.7-.35.42-.21.5-.67.66-1s-.27-.52-.51-.72A4.78,4.78,0,0,0,141.67,86l-.27-.32a.88.88,0,0,0-.68-.65c-.5-.47-1-.93-1.5-1.41a.4.4,0,0,1-.11-.27c0-.21.21-.24.35-.22a10,10,0,0,0,3.74-.48,1.18,1.18,0,0,0,.81-.68A.49.49,0,0,0,143.86,81.25Z"/><path class="cls-1" d="M116.06,115a2.48,2.48,0,0,0-1.09-.07l-5.52.65c-.84.1-1.68.22-2.52.3a.56.56,0,0,1-.4-.16c-.13-.13,0-.3.06-.43s.23-.35.35-.53a22.29,22.29,0,0,0,2-3.22,14.76,14.76,0,0,0,2-2.46c.36-.45-.16-1.17-.6-1.2a2.19,2.19,0,0,0-1.65.43,3.58,3.58,0,0,0-1,1,11.14,11.14,0,0,0-1.83,2.29c-.42.52-.67,1.18-1.26,1.55-.7-.42-.33-1.25-.7-1.8a1.28,1.28,0,0,1-.07-.14.87.87,0,0,0-.18-.68.26.26,0,0,0-.06-.27,6.19,6.19,0,0,0-.49-2.14,1,1,0,0,0-.61-.69c-.79-.27-1.59-.51-2.39-.78a1.81,1.81,0,0,0-1.22.12c-.68.24-.8.56-.38,1.15a4.41,4.41,0,0,1,.6,1.27c.25.8.54,1.59.81,2.38,0,.05,0,.11,0,.16s.13.44-.06.6-.39,0-.54-.12c-1.76-1.42-3.73-2.58-5.22-4.33a1.67,1.67,0,0,0-1.26-.53,2.06,2.06,0,0,0-1.7.67c-.27,0-.5.15-.47.42,0,.12.28.21.43.32a1.23,1.23,0,0,0,.3.72,20.45,20.45,0,0,0,2.68,2.69c1.49,1.26,3,2.51,4.47,3.8.29.25.82.48.67.94s-.63.3-1,.35c-1.68.21-3.36.4-5,.63a5.06,5.06,0,0,0-3.69,1.9c-.18.24-.1.57.18.6a20.12,20.12,0,0,0,3.32.18,42,42,0,0,0,6.1-1c.27-.06.59-.25.87.17-.79,1.1-1.59,2.21-2.36,3.33a9.31,9.31,0,0,0-1.45,2.26,3.71,3.71,0,0,0-.41.64c-.19.51-.11,1,.17,1.13s.51-.24.8-.29a1.2,1.2,0,0,0,.8-.67.87.87,0,0,0,.69-.62,10.94,10.94,0,0,0,1.85-1.93c.44-.59,1-1.13,1.44-1.68.27-.3.57-.22.68.2.16.61.29,1.23.45,1.85a23,23,0,0,0,1.27,4.07.35.35,0,0,0,.52.2,3.11,3.11,0,0,0,1.92-2.84,13.37,13.37,0,0,1,.12-1.58c0-.43.28-.51.62-.23,1.1.9,2.21,1.8,3.29,2.73a3.36,3.36,0,0,0,2,.72c.12,0,.24-.15.37-.23a3,3,0,0,0,.53-.33c.6-.57.67-.88.27-1.51a3.22,3.22,0,0,0-1.42-1.42,21.63,21.63,0,0,0-2.46-2.45c-.71-.63-1.41-1.28-2.1-1.93-.31-.29-.22-.6.17-.67.62-.11,1.25-.22,1.88-.28a43.87,43.87,0,0,0,5.45-.92,1.92,1.92,0,0,0,1.42-1.13C116.85,115.49,116.74,115.17,116.06,115Z"/><path class="cls-1" d="M80.15,28.7a1.73,1.73,0,0,0-1.34-.35,32.62,32.62,0,0,0-7.71,1.77c-.39.16-.81.26-1.19.43a3.11,3.11,0,0,1-2.75-.14c-.81-.37-.82-.36-.69-1.47a.81.81,0,0,0,.3-.64L68.26,26c.62-.85,1.25-1.69,1.86-2.55a3.16,3.16,0,0,0,.41-.85.69.69,0,0,0-.63-.89,1.44,1.44,0,0,0-1.2.26,5.81,5.81,0,0,0-2.42,1.59,1.19,1.19,0,0,0-.4,1l-.65,1a.55.55,0,0,1-.57-.43c-.15-.39-.3-.77-.46-1.16a11.57,11.57,0,0,0-.38-1.2c-.48-1.09-1-1.33-2.12-.94a3.45,3.45,0,0,0-.82.44c-.34.24-.63.56-1,.77-1.09.64-.72.8-.45,1.5a7.47,7.47,0,0,0,.63,1.08l.23,1c.12.51.11.52-.35.41-1.77-.83-3.54-1.65-5.29-2.5a3.49,3.49,0,0,0-1.53-.33c-.69,0-1.56,0-1.76.69S52,26,52.51,26.37a2.44,2.44,0,0,0,.58.25c.24.1.49.18.73.3L61,30.66c.52.28.75.62.65,1s-.53.48-.89.53a50.36,50.36,0,0,1-7.87.92,7,7,0,0,0-1.42.09,4.13,4.13,0,0,0-3.06,2.07,14.84,14.84,0,0,0,4.06.27c2.1-.2,4.2-.44,6.31-.67a5.38,5.38,0,0,1,1.84-.08c.21.38,0,.67-.07,1-.44,1.46-.9,2.93-1.35,4.39a1.72,1.72,0,0,0-.44,1c-.07.37.22.63.56.46.63-.32,1.42-.4,1.83-1.1A8.63,8.63,0,0,0,63.35,37l.59-.13a47.58,47.58,0,0,0,2.33,5.37c.45,1,.86,1.08,1.73.73.15-.06.31-.09.45-.15a3.46,3.46,0,0,0,1.75-1.77c.28-.66-.1-1.24-.3-1.83-.12-.35-.3-.68-.44-1-.29-.68-.58-1.36-.85-2a4.25,4.25,0,0,1-.31-1.54l1.94,1c.59.42,1.19.83,1.77,1.27a1.13,1.13,0,0,0,1,.2,2.37,2.37,0,0,0,1.8-1.56.72.72,0,0,0-.19-.84,7.22,7.22,0,0,0-2.11-1.58c-.12-.22-.5-.32-.4-.62.05-.14.32-.24.51-.29s.63-.1.94-.16c1.55-.32,3.11-.63,4.66-1a3.54,3.54,0,0,0,2.11-1.3A.73.73,0,0,0,80.15,28.7Z"/><path class="cls-1" d="M142.32,32.61l.77-.14a1.86,1.86,0,0,0,1.39-1.15.57.57,0,0,0-.41-.84c-.47,0-.94,0-1.4.06l-.93,0a4.34,4.34,0,0,0-1.61,0h-1.27a5.1,5.1,0,0,1-1.2-.29c-.8-.41-.79-.74-.4-1.35a21,21,0,0,0,1.93-3.2,9.16,9.16,0,0,0,1.3-1.9,1.55,1.55,0,0,0,.2-.73c.08-.81-.23-1.07-1.21-1.06a3.3,3.3,0,0,0-3.05,2.22,1.51,1.51,0,0,1-.86,1c-.55-.48-.37-1.3-.88-1.77-.13-.51-.25-1-.41-1.52a1.91,1.91,0,0,0-2-1.31,2.09,2.09,0,0,0-.93.13c-.61.27-1.44.36-1.71,1s.36,1,.6,1.56a.92.92,0,0,0,.09.13c0,.64.47,1.19.4,1.85a.27.27,0,0,1-.33.25,5.07,5.07,0,0,1-.83-.45c-.85-.54-1.68-1.11-2.55-1.61a2.65,2.65,0,0,0-3,.15c-.5.34-.63.78-.18,1.15a29.29,29.29,0,0,0,2.74,2.38c1.48.93,2.92,1.93,4.36,2.92.23.16.66.26.53.66s-.43.27-.69.31-.53.06-.79.1l-3.77.57a1.38,1.38,0,0,0-1,.43c-.33.46-1.28.6-1.09,1.2.24.76,1.1.34,1.69.34,1.11,0,2.22-.1,3.33-.14.49,0,.64.27.36.71-.43.67-.89,1.32-1.3,2a13.89,13.89,0,0,0-.85,1.53c-.37.81-.34,1.35.09,1.59s.92-.07,1.29-.34a9.16,9.16,0,0,0,2.72-2.62,9,9,0,0,1,.86-1.14.34.34,0,0,1,.61.1c.2.71.36,1.44.56,2.15a15.61,15.61,0,0,0,1.16,3.77c.22.67.24.68.67.34a1.5,1.5,0,0,0,1.26-.71,1,1,0,0,0,.56-.92,4.38,4.38,0,0,0,.64-2.53c-.15-1-.34-2.05-.52-3.08l.52,0,2.58,1.58c.3.63.93.62,1.48.75a2.25,2.25,0,0,0,1.53-.27,2.16,2.16,0,0,0,.59-.51.71.71,0,0,0,0-1,5.36,5.36,0,0,0-1.93-1.34C141.67,32.79,141.68,32.75,142.32,32.61Z"/><path class="cls-1" d="M200.46,92.76a3.13,3.13,0,0,0-.78-.12c-.95,0-1.9-.11-2.85-.1-1.37,0-2.74.07-4.11.1-.66,0-.82-.13-1-.74a1.41,1.41,0,0,1,.13-1.21c.36-.7.69-1.42,1-2.13a1.76,1.76,0,0,0,.51-1.06.32.32,0,0,0,.11-.26,6.06,6.06,0,0,0,.93-1.93,2,2,0,0,0,0-1.35c-.28-1-.39-1-1.55-.77a2.72,2.72,0,0,0-1.68,2.08c-.3.3-.18.65-.13,1-.19.48-.35,1-.56,1.44a.3.3,0,0,1-.5.1,9.64,9.64,0,0,1-.86-1.09c-.2-.29-.3-.66-.67-.81a3,3,0,0,0-1.24-1.19c-.63-.38-1.28-.52-1.83.18l-.45.14a.59.59,0,0,0-.14.08c-.56.38-.66.69-.24,1.16A9.06,9.06,0,0,1,186.12,89a.32.32,0,0,1-.08.28.28.28,0,0,1-.27,0c-1.06-.69-2.13-1.39-3.18-2.1-1.36-.93-1.9-.86-2.92.42a2.09,2.09,0,0,0-.2.41,20.51,20.51,0,0,1,2.58,1.78c.85.53,1.65,1.15,2.48,1.71a21.33,21.33,0,0,1,2.53,1.68c-.05.34-.23.32-.37.35a20.72,20.72,0,0,1-4.54.68,3.86,3.86,0,0,0-2.68,1.19.86.86,0,0,0-.29,1c2.22.42,4.4-.29,6.67-.26a5.87,5.87,0,0,1-.13.73c-.24.75-.52,1.49-.75,2.25a2.38,2.38,0,0,0,.16,2c.12.19.23.37.45.38a.49.49,0,0,0,.47-.35c.63-1.4,1.26-2.79,1.91-4.18.17-.37.3-.9.82-.82s.37.57.51.9c.62,1.51.74,3.21,1.76,4.56.07.1,0,.3,0,.45,0,.43.23.54.58.34a3.07,3.07,0,0,0,1.44-2.66c.06-.52-.15-1.06.12-1.56.43-.17.77.29,1.18.17,0-.08-.07-.16-.09-.24s-.05-.18-.07-.27.2-.07.28,0c.26.1.51.23.56.55.19,0,.34.06.33.26.2-.14.42,0,.62,0a5.47,5.47,0,0,0,1.52,1.13,1.32,1.32,0,0,0,1.92-.77.61.61,0,0,0-.13-.73,16.73,16.73,0,0,0-3.58-2.58,2.54,2.54,0,0,1-.22-.23c-.09-.12-.17-.26-.26-.38.12-.07.25-.21.37-.21a11.61,11.61,0,0,1,2.05,0,6.19,6.19,0,0,0,2.17-.27,1.59,1.59,0,0,0,1-.72A.66.66,0,0,0,200.46,92.76Z"/><path class="cls-1" d="M194.39,98.32v0h0v0h0l0,0Z"/><path class="cls-1" d="M195,98.34h0v0h0A.37.37,0,0,0,195,98.34Z"/><path class="cls-1" d="M195.32,98.66h0a.38.38,0,0,0,0-.1l-.07.06S195.32,98.64,195.32,98.66Z"/><path class="cls-1" d="M195,98.34h-.59c.2.52.6.58,1.08.44a.16.16,0,0,1-.18-.12C195.14,98.63,195,98.55,195,98.34Z"/><path class="cls-1" d="M195.45,99l.08-.17h0Z"/><path class="cls-1" d="M185.22,28.54h0v0h0Z"/><path class="cls-1" d="M196.16,16.63c-.26,0-.53,0-.79,0a45.21,45.21,0,0,0-7.24.71,1.35,1.35,0,0,1-1.07-.06l.6-1,3.78-6.4a4.37,4.37,0,0,0,1.17-2.14.7.7,0,0,0-.54-.94,1.66,1.66,0,0,0-1.73.46,11.33,11.33,0,0,1-1.27.92c-.61.44-1.32.88-.87,1.86.06.14-.05.41-.16.57-.71,1-1.45,2-2.18,3.07l-.09-.07-1.65-4.68a7.86,7.86,0,0,0-1-2.82,1.74,1.74,0,0,0-2.79-.51,9,9,0,0,0-.8.76,1.14,1.14,0,0,0-.1,1.67c.28.44.38,1,.8,1.35.42,1.42.84,2.83,1.25,4.25.08.29.27.59,0,.95a4.27,4.27,0,0,1-1.5-.77c-1.47-.93-2.94-1.88-4.41-2.82s-1.91-.85-3.14.42c-.06.06,0,.18-.08.32a25.25,25.25,0,0,0,3.34,2.63q2.35,1.47,4.68,3c.29.19.7.29.7.77a6,6,0,0,1-1.86.37,42.27,42.27,0,0,0-4.69.76,3.5,3.5,0,0,0-2.82,2.41,5.39,5.39,0,0,0,1.85,0c1.15-.11,2.3-.3,3.45-.44a40,40,0,0,1,4.14-.29,2.88,2.88,0,0,1-.6,1.2,41.76,41.76,0,0,0-2.63,4.5,7.51,7.51,0,0,0-.35.71,1.3,1.3,0,0,0,.07,1.07.6.6,0,0,0,1,.18,17.72,17.72,0,0,0,1.87-2.34c.71-1.11,1.46-2.19,2.22-3.26.2-.28.37-.72.82-.61s.33.5.41.79a21.92,21.92,0,0,0,1.54,5c.1.19-.11.32-.27.45.75.38,1.29-.07,1.83-.5a1.88,1.88,0,0,0,.86-1.61c0-.42-.06-.85-.07-1.27s-.1-.72.06-.92a.73.73,0,0,0-.06-1.08.28.28,0,0,1,0-.27s.18,0,.27,0a.75.75,0,0,1,.29.13l3.25,2.53c.12.09.22.28.34.28a7.69,7.69,0,0,0,1.74,0,1.3,1.3,0,0,0,.86-.87c.41-.31.41-.42,0-.72-.36-.64-1.05-.81-1.64-1.13-.36-.3-.74-.6-1.09-.91q-1-.88-2-1.79a.35.35,0,0,1-.13-.41c.07-.17.24-.19.39-.21a4.39,4.39,0,0,1,.79,0,10,10,0,0,0,4.47-.77,1.37,1.37,0,0,1,.46-.11A1.24,1.24,0,0,0,197,18C197.4,17.17,197.08,16.65,196.16,16.63Z"/><path class="cls-1" d="M171.7,21.65h0v0h0S171.7,21.64,171.7,21.65Z"/><path class="cls-1" d="M171.61,21.79c.1,0,.12,0,.09-.13a.3.3,0,0,0-.1,0S171.6,21.79,171.61,21.79Z"/><path class="cls-1" d="M185.25,28.54l0,.07C185.35,28.54,185.34,28.52,185.25,28.54Z"/><path class="cls-1" d="M227.8,91.59a3.46,3.46,0,0,0-1.49-1.08c-.65-1-1.75-1.48-2.54-2.41.54-.24,1-.47,1.49-.67a1.3,1.3,0,0,0,.67-.64.66.66,0,0,0-.27-.94,3,3,0,0,0-1.81-.45,32.75,32.75,0,0,0-3.62.3,2.8,2.8,0,0,1-2.56-1.26,1.16,1.16,0,0,1-.2-1.19l.56-1.64h0a.73.73,0,0,0,.26-.66,1.16,1.16,0,0,0,.37-.94,9,9,0,0,0,1-2.46,10.27,10.27,0,0,0,.2-3.43c0-.56-.44-.8-1-.67a1.51,1.51,0,0,0-.56.25,6.2,6.2,0,0,0-2,2.09,1.58,1.58,0,0,1,.67,1.06l.51-.22-.51.22-.48,1.51c-.14.45-.28.91-.44,1.36a.45.45,0,0,1-.22.2c-.18.1-.3,0-.38-.17s-.21-.37-.32-.55a9.52,9.52,0,0,0-1.55-2.37c-.22-1-1-1.45-1.79-1.9-1.33-.8-2.4-.32-3,1.26.08.19.1.44.24.57a18,18,0,0,1,3.23,4.47.64.64,0,0,1,.08.69,1.79,1.79,0,0,1-1.19-.34c-1-.5-2.1-1-3.12-1.55-1.67-.88-2-.26-3,.65a.81.81,0,0,0,.15,1.19A9.86,9.86,0,0,0,207,83c1.67.79,3.33,1.6,5,2.41.33.16.66.33,1,.52a.54.54,0,0,1,.21.69,1,1,0,0,1-.71.77c-1.19.44-2.35,1-3.55,1.36A4.46,4.46,0,0,0,207.13,90a11.48,11.48,0,0,0-1,1.33.63.63,0,0,0,.62.07c1-.25,2.05-.49,3.07-.77,2.12-.59,2.12-.6,1.64,1.45a1.77,1.77,0,0,0-.29,1l-.09.62a2.3,2.3,0,0,0-.11,1.54.71.71,0,0,0,.46.58.57.57,0,0,0,.69-.23,4.25,4.25,0,0,0,1.17-2.51,3.06,3.06,0,0,0,.54-1.29c.18-.49.31-1,.46-1.5a1.68,1.68,0,0,1,.64-.87.76.76,0,0,1,1.18.29c.23.53.4,1.08.63,1.61.57,1.29.81,2.7,1.48,4a2.36,2.36,0,0,0,.09.3c.1.22-.09.61.24.66a1.06,1.06,0,0,0,.68-.29.87.87,0,0,0,.35-.66,2.23,2.23,0,0,0,.46-2.19,1,1,0,0,0-.11-1c0-.25,0-.51,0-.76,0-.57,0-.57.7-.66a1.11,1.11,0,0,0,.92.44v-.5c.18.13.38.24.35.52h0c.28-.12.49,0,.71.19s.54.3.81.45c1.23,1,1.23,1,1.53,2.06.14.06.3.19.41.15a7.21,7.21,0,0,0,1.9-.73.65.65,0,0,0,.55-.22C228.33,92.45,228.34,92.14,227.8,91.59ZM212.39,82h0s0-.05,0-.11.1-.06.14,0S212.42,82,212.39,82Z"/><path class="cls-1" d="M221.53,91.14h0v0h.24l-.23,0Z"/><path class="cls-1" d="M172.77,86c-1-.25-2-.45-2.94-.68-.16,0-.29-.15-.25-.33a.36.36,0,0,1,.17-.24c.64-.26,1.27-.53,1.92-.74a3.8,3.8,0,0,0,1.62-1.22c.32-.35.14-.71,0-1s-.51-.31-.83-.19c-.94.34-1.88.72-2.84,1a19.59,19.59,0,0,1-2.16.45.25.25,0,0,1-.29-.28,6.33,6.33,0,0,1,.17-.77c.28-1.13.58-2.25.85-3.38a3.19,3.19,0,0,0,0-1.57.73.73,0,0,0-.86-.52,1.05,1.05,0,0,0-.88.8c-.09.41-.16.83-.23,1.25a25.84,25.84,0,0,1-1.66,5.12.44.44,0,0,1-.76.17c-.26-.26-.5-.55-.74-.82-.7-.79-1.42-1.57-2.09-2.38a5.31,5.31,0,0,0-1.53-1.1,1.07,1.07,0,0,0-1.16.23A1.17,1.17,0,0,0,158,81c.13.23.34.4.48.62s.53.48.26.79-.5,0-.75,0-.7-.26-1-.37c-1.69-.53-2.22-.15-2.42,1.59a.92.92,0,0,0,.56,1,7.63,7.63,0,0,0,2.39.79c.74.59.74.59-.11,1-.34.15-.65.36-1,.5A2.37,2.37,0,0,0,155,89a.36.36,0,0,0,.47.43l5.89-1.82a4.6,4.6,0,0,1,1.37-.35c.44,0,.78.25.71.64a15.79,15.79,0,0,1-.38,2.81,1.39,1.39,0,0,0,.23,1.62c0,.34-.2.72.29,1.11-.1-.49.28-.71.32-1.08.56-.64.63-1.54,1.15-2.27,1.25.67,1.37,2.12,2.2,3a1.24,1.24,0,0,0,.75-1.45,9.48,9.48,0,0,0-.78-2.55c-.3-.74-.13-.94.69-.85s1.56.22,2.35.33c.39.49.91.4,1.42.31.06,0,.15-.16.14-.24a.35.35,0,0,0-.18-.22,2.12,2.12,0,0,0-1.22-.08l-.52-.33a1.75,1.75,0,0,1,1.28.1c1.15.42,1.83.1,2.17-1C173.52,86.52,173.37,86.19,172.77,86Zm-13.43-.51-.38-.15a.2.2,0,0,0,.19-.19l.18.21.15.13A.36.36,0,0,1,159.34,85.53Z"/><path class="cls-1" d="M178.1,117.63a1.89,1.89,0,0,0-.55-1.1,4.31,4.31,0,0,0-1.79-1.21,2.82,2.82,0,0,0-1.32-.91,1.81,1.81,0,0,0-.79-.59l-.08-.31,2.95-.58a2.27,2.27,0,0,0,1.41-.94.79.79,0,0,0-.53-1.31,3.43,3.43,0,0,0-.79,0c-.68,0-1.37.08-2.05.13-1.26.09-2.52.2-3.78.29-.4,0-.61-.27-.42-.6s.55-.9.84-1.34l3.22-4.87c.49-.54,1-1.06,1.47-1.63a.75.75,0,0,0-.57-1.24,2.53,2.53,0,0,0-2.62,1.37,3.61,3.61,0,0,0-1.46,1.17,24.33,24.33,0,0,0-2.22,3.25c-.24.08-.47.19-.71,0a8.36,8.36,0,0,0-.72-2.24l-.23-.63a1.15,1.15,0,0,0-.28-1,2.39,2.39,0,0,0-.62-1.39,1.27,1.27,0,0,0-1.56-.68,2.83,2.83,0,0,0-1.9,1.45c-.75.48-.77.56-.35,1.26l.57,1.15.18,1.29c0,.09.13.21.11.27s-.24.13-.38,0a3.2,3.2,0,0,1-.58-.26,40.32,40.32,0,0,1-4.92-3.48,1.82,1.82,0,0,0-2.57,0c-.31.27-.78.38-.92.83a19.66,19.66,0,0,0,2.89,3.08c1.82,1.36,3.79,2.49,5.61,3.85.33.25.66.52,1,.8,0,0,0,.26-.05.26a10.51,10.51,0,0,1-1.09.18,32.06,32.06,0,0,0-5.33.77,6,6,0,0,0-3.49,2,.92.92,0,0,0-.24,1,.93.93,0,0,0,1,.28,1.18,1.18,0,0,0,.44-.18,2.73,2.73,0,0,1,1.49-.48l6.78-.81c.08,0,.17.08.37.17a25.85,25.85,0,0,1-1.6,2.15,24.47,24.47,0,0,0-2.41,3.34,1.79,1.79,0,0,0-.77,1.11.6.6,0,0,0,.24.68.4.4,0,0,0,.55,0,3.53,3.53,0,0,0,1.76-1,20.66,20.66,0,0,0,2.89-2.93,16.12,16.12,0,0,1,1.14-1.32c.35-.38.67-.31.79.18.37,1.49.72,3,1.1,4.47a4.59,4.59,0,0,0,1.06,2.28,4.8,4.8,0,0,0,1.53-.79,1.53,1.53,0,0,0,.57-.74,6.51,6.51,0,0,0,.4-3.73,3.56,3.56,0,0,1-.14-1.87c.57-.05.9.34,1.29.58a8.19,8.19,0,0,0,2.19,1.26h0c.33.24.65.51,1,.73a2,2,0,0,0,2.87-.65A1,1,0,0,0,178.1,117.63Z"/></svg>