<svg id="Layer_1" data-name="Layer 1" xmlns="http://www.w3.org/2000/svg" viewBox="0 0 652.58 250"><defs><style>.cls-1{fill:none;stroke:#ccd8de;stroke-miterlimit:10;}.cls-2{fill:#fcc949;}.cls-3{fill:#0098ff;}</style></defs><title>Artboard 6 copy</title><rect class="cls-1" x="0.07" width="652.45" height="250"/><path class="cls-2" d="M145.31,139a5,5,0,1,0,1.47,3.55h0A5,5,0,0,0,145.31,139Z"/><path class="cls-2" d="M113.69,109.45a5,5,0,1,0-5,5A5,5,0,0,0,113.69,109.45Z"/><path class="cls-2" d="M166.53,86.63a3.1,3.1,0,0,0-3.1-3.1h-77a3.1,3.1,0,0,0-3.1,3.1v77a3.1,3.1,0,0,0,3.1,3.1h77a3.1,3.1,0,0,0,3.1-3.1ZM97,109.45a11.73,11.73,0,0,1,23.47,0h0a11.73,11.73,0,0,1-23.47,0Zm12.92,37.35-5.47-5.47a1.24,1.24,0,0,1,0-1.75l34.38-34.38a1.24,1.24,0,0,1,1.75,0l5.47,5.47a1.24,1.24,0,0,1,0,1.75l-34.38,34.38A1.24,1.24,0,0,1,109.89,146.81Zm43.59-4.18a11.71,11.71,0,1,1-11.71-11.74,11.66,11.66,0,0,1,11.71,11.74Z"/><rect class="cls-3" x="248.26" y="76.8" width="12.82" height="83.05" rx="2.14" ry="2.14" transform="translate(-0.57 1.23) rotate(-0.28)"/><path class="cls-3" d="M232.78,160a28.61,28.61,0,1,1,20-48.94h0a28.61,28.61,0,0,1-20,48.94Zm-.22-45.81a14.69,14.69,0,0,0-10.92,5.08,18.61,18.61,0,0,0,.12,24.33,14.41,14.41,0,0,0,21.89-.1,18.61,18.61,0,0,0-.12-24.33h0A14.69,14.69,0,0,0,232.55,114.15Z"/><path class="cls-3" d="M298.29,159.64a28.61,28.61,0,1,1,20-48.94h0a28.61,28.61,0,0,1-20,48.94Zm-.22-45.81a14.69,14.69,0,0,0-10.92,5.08,18.61,18.61,0,0,0,.12,24.33,14.41,14.41,0,0,0,21.89-.1,18.61,18.61,0,0,0-.12-24.33h0A14.69,14.69,0,0,0,298.07,113.83Z"/><path class="cls-3" d="M360.48,159.34a28.61,28.61,0,1,1,20-48.94h0a28.61,28.61,0,0,1-20,48.94Zm-.22-45.81a14.69,14.69,0,0,0-10.92,5.08,18.61,18.61,0,0,0,.12,24.33,14.41,14.41,0,0,0,21.89-.1,18.61,18.61,0,0,0-.12-24.33h0A14.69,14.69,0,0,0,360.26,113.53Z"/><path class="cls-3" d="M490.56,158.71a28.61,28.61,0,1,1,20-48.94h0a28.61,28.61,0,0,1-20,48.94Zm-.22-45.81A14.69,14.69,0,0,0,479.41,118a18.61,18.61,0,0,0,.12,24.33,14.41,14.41,0,0,0,21.89-.1,18.61,18.61,0,0,0-.12-24.33h0A14.69,14.69,0,0,0,490.33,112.9Z"/><rect class="cls-3" x="397.8" y="101.08" width="12.82" height="83.05" rx="2.14" ry="2.14" transform="translate(-0.69 1.96) rotate(-0.28)"/><rect class="cls-3" x="529.39" y="75.25" width="12.82" height="83.05" rx="2.14" ry="2.14" transform="translate(-0.56 2.6) rotate(-0.28)"/><rect class="cls-3" x="556.27" y="75.12" width="12.82" height="83.05" rx="2.14" ry="2.14" transform="translate(-0.56 2.73) rotate(-0.28)"/><path class="cls-3" d="M426.1,101a28.61,28.61,0,1,1-20,48.94h0a28.61,28.61,0,0,1,20-48.94Zm.22,45.81a14.69,14.69,0,0,0,10.92-5.08,18.61,18.61,0,0,0-.12-24.33,14.41,14.41,0,0,0-21.89.1,18.61,18.61,0,0,0,.12,24.33h0A14.69,14.69,0,0,0,426.32,146.78Z"/><path class="cls-1" d="M145.31,55.77a5,5,0,1,0,1.47,3.55h0A5,5,0,0,0,145.31,55.77Z"/><path class="cls-1" d="M113.69,26.22a5,5,0,1,0-5,5A5,5,0,0,0,113.69,26.22Z"/><path class="cls-1" d="M166.53,3.4a3.1,3.1,0,0,0-3.1-3.1h-77a3.1,3.1,0,0,0-3.1,3.1v77a3.1,3.1,0,0,0,3.1,3.1h77a3.1,3.1,0,0,0,3.1-3.1ZM97,26.22a11.73,11.73,0,0,1,23.47,0h0a11.73,11.73,0,0,1-23.47,0Zm12.92,37.35-5.47-5.47a1.24,1.24,0,0,1,0-1.75L138.79,22a1.24,1.24,0,0,1,1.75,0L146,27.44a1.24,1.24,0,0,1,0,1.75L111.64,63.57A1.24,1.24,0,0,1,109.89,63.57Zm43.59-4.18a11.71,11.71,0,1,1-11.71-11.74A11.66,11.66,0,0,1,153.48,59.4Z"/><path class="cls-1" d="M62.08,139a5,5,0,1,0,1.47,3.55h0A5,5,0,0,0,62.08,139Z"/><path class="cls-1" d="M30.45,109.45a5,5,0,1,0-5,5A5,5,0,0,0,30.45,109.45Z"/><path class="cls-1" d="M83.3,86.63a3.1,3.1,0,0,0-3.1-3.1h-77a3.1,3.1,0,0,0-3.1,3.1v77a3.1,3.1,0,0,0,3.1,3.1h77a3.1,3.1,0,0,0,3.1-3.1ZM13.73,109.45a11.73,11.73,0,0,1,23.47,0h0a11.73,11.73,0,0,1-23.47,0Zm12.92,37.35-5.47-5.47a1.24,1.24,0,0,1,0-1.75L55.56,105.2a1.24,1.24,0,0,1,1.75,0l5.47,5.47a1.24,1.24,0,0,1,0,1.75L28.41,146.81A1.24,1.24,0,0,1,26.65,146.81Zm43.59-4.18a11.71,11.71,0,1,1-11.71-11.74,11.66,11.66,0,0,1,11.71,11.74Z"/><path class="cls-1" d="M631.29,139a5,5,0,1,0,1.47,3.55h0A5,5,0,0,0,631.29,139Z"/><path class="cls-1" d="M599.67,109.45a5,5,0,1,0-5,5A5,5,0,0,0,599.67,109.45Z"/><path class="cls-1" d="M652.51,86.63a3.1,3.1,0,0,0-3.1-3.1h-77a3.1,3.1,0,0,0-3.1,3.1v77a3.1,3.1,0,0,0,3.1,3.1h77a3.1,3.1,0,0,0,3.1-3.1Zm-69.57,22.82a11.73,11.73,0,0,1,23.47,0h0a11.73,11.73,0,0,1-23.47,0Zm12.92,37.35-5.47-5.47a1.24,1.24,0,0,1,0-1.75l34.38-34.38a1.24,1.24,0,0,1,1.75,0l5.47,5.47a1.24,1.24,0,0,1,0,1.75l-34.38,34.38A1.24,1.24,0,0,1,595.86,146.81Zm43.59-4.18a11.71,11.71,0,1,1-11.71-11.74,11.66,11.66,0,0,1,11.71,11.74Z"/><path class="cls-1" d="M145.31,222.24a5,5,0,1,0,1.47,3.55h0A5,5,0,0,0,145.31,222.24Z"/><path class="cls-1" d="M113.69,192.69a5,5,0,1,0-5,5A5,5,0,0,0,113.69,192.69Z"/><path class="cls-1" d="M166.53,169.87a3.1,3.1,0,0,0-3.1-3.1h-77a3.1,3.1,0,0,0-3.1,3.1v77a3.1,3.1,0,0,0,3.1,3.1h77a3.1,3.1,0,0,0,3.1-3.1ZM97,192.69a11.73,11.73,0,0,1,23.47,0h0a11.73,11.73,0,0,1-23.47,0ZM109.89,230l-5.47-5.47a1.24,1.24,0,0,1,0-1.75l34.38-34.38a1.24,1.24,0,0,1,1.75,0l5.47,5.47a1.24,1.24,0,0,1,0,1.75L111.64,230A1.24,1.24,0,0,1,109.89,230Zm43.59-4.18a11.71,11.71,0,1,1-11.71-11.74,11.66,11.66,0,0,1,11.71,11.74Z"/></svg>