<svg id="Layer_1" data-name="Layer 1" xmlns="http://www.w3.org/2000/svg" viewBox="0 0 380 189.03"><defs><style>.cls-1{fill:#e5f4ff;}</style></defs><title>Artboard 10</title><path class="cls-1" d="M144.49,124.37c-.23-1.79.24-3.92-1.1-5.2-2.55-2.44-2.79-5.46-3.2-8.63a30.5,30.5,0,0,1-.45-4.77,6.17,6.17,0,0,0-1.83-4.35,2.59,2.59,0,0,0-4.13.45c-1.12,1.8-1.1,3.85-1.47,5.83-.2,1.09-.35,2.41-2.31,2.52a13.47,13.47,0,0,0-2.57-9,6.08,6.08,0,0,1-1.28-4.59c1.14-4.94-.49-9.57-1.24-14.31a3.51,3.51,0,0,1,2.88,0c2,1.1,3.39.12,4.53-1.5a4.11,4.11,0,0,0,.61-4.42c-1-2.32-.87-5.12-3.25-6.81a1.86,1.86,0,0,0-2.64.18,3.85,3.85,0,0,0-1.27,2.62c-.14,1.78-.33,3.56-.45,5.35a2.88,2.88,0,0,1-1.8,2.82c-1.28-1.35-2.49-1.22-3.63.18-1.09.14-2.19.67-3.25-.19-1.64-1.33-2.74-.47-3.65,1a12.81,12.81,0,0,0-2.2,7.45c-.05,1.56,1.73,3.22,3.59,3.52a3.39,3.39,0,0,0,3.8-3c.09-.59-.07-1.21,0-1.81,0-.45-.27-1.27.76-1A51.12,51.12,0,0,1,120.72,98c.08,1.2,0,2.71.63,3.52,2.06,2.55,2,5.61,2.59,8.52a19.2,19.2,0,0,0,1.53,4.57,2.51,2.51,0,0,0,4.29.21c.64-.82.72-2.35,2.49-2.1a29.56,29.56,0,0,0,4.52,8.4c1.64,2,2.53,4.57.67,7.27a5.67,5.67,0,0,0-.89,4.66,26.79,26.79,0,0,0,3.11,7.86,2.34,2.34,0,0,0,3.16.88c1.23-.59,2-1.66,1.34-2.93a8.08,8.08,0,0,1-.33-7.58C145.11,128.83,144.8,126.77,144.49,124.37Z"/><path class="cls-1" d="M141,67.24a13.13,13.13,0,0,1-3.17-5.55,11.74,11.74,0,0,1-.67-4.15c.17-2.11-1.39-3.27-2.67-4.5-.64-.62-1.49-.37-2.17.2a3.66,3.66,0,0,0-1.6,3.61A32.59,32.59,0,0,0,135,69.24c1.66,2.82,3,8.51,1.78,10.3-1.91,2.92-.51,5.55.19,8.11,1,3.73,2.52,4,6.1,2a5.88,5.88,0,0,1,1.34-.33c.66,2.73,1.67,5.32,4.19,7,.87.57,2.37.13,2.45-.8A21.49,21.49,0,0,0,150,86.6c-.52-1.48-1.43-3-3.05-3.51-1.27-.37-1.91,1.32-3.09,1.61a6.93,6.93,0,0,1-.76.09c-.21-.74-.38-1.52-.64-2.27-.72-2.07-.22-3.54,2-4.27,1-.33,1-1,.69-1.89-.83-2.64-2.85-4.79-3.11-7.68C142,68.18,141.38,67.69,141,67.24Z"/><path class="cls-1" d="M90.78,110c.81.53,1.65,1.23,2.73.57A3,3,0,0,0,95,108a5.8,5.8,0,0,0-.4-2.33,10.13,10.13,0,0,1-.33-6.53c1.26-4.06.08-7.86-.43-11.76,1.86-.64,3.66-1.59,3.61-3.79s-.2-4.95-1.26-6.93c-1.2-2.25-.68-2.85,1.26-3.9,1.14-.62,1.48-2.26,1.12-3.8-.27-1.16-.71-2.48-.4-3.53.91-3-.17-5.95,0-8.91.08-1.61-.88-2.62-1.7-3.72a1.93,1.93,0,0,0-3.09-.16,3.58,3.58,0,0,0-1.25,3.21c.25,2.17,1.1,4.57.49,6.49-1.07,3.36-.42,6.32.61,9.38.26.78.63,1.5,0,2.22-2.06,2.4-1.43,5.63-2.61,8.3.58,0,1.1.16,1.14.75.08,1.18,0,2.39-1.4,2.91.11-1.19-.59-2.41.09-3.59-.89,0-1.06-.71-1.31-1.37.32-.81,0-1.12-.82-1.08-1.35-.48-2.87-.91-3.62.69a9.3,9.3,0,0,0-.1,6.37c.51,1.92,2.28,2.56,4,3,.13,3,1.77,5.83.21,8.88-1.73,3.38,0,6.62.74,9.86C89.68,109.19,90.3,109.65,90.78,110Zm2.58-22.7a2.23,2.23,0,0,0,.11-.24c0-.11.23-.27.26-.26.37.22.37.43.07.62C93.6,87,93.42,87.19,93.37,87.27Z"/><path class="cls-1" d="M90.59,82.26h-.16s0,0,0,.06.09,0,.15,0Z"/><path class="cls-1" d="M219.91,89.25a3.51,3.51,0,0,0,.78-2.84,67.25,67.25,0,0,0-2.3-7.44c-.68-1.73-2.21-2.24-4-1.71-.35.45-.74.73-1.1.06,0-.08.39-.41.6-.63-.45-3.17-.81-6.35-1.37-9.49a3.41,3.41,0,0,0-3.95-2.88c-2.14.29-3-.41-3.37-2.31-.33-1.74-1.71-2.7-2.88-3.78a1.39,1.39,0,0,0-2.38.66c-.51,2-1.1,3.47-3.75,3.15-1.13-.14-2.23,1.28-2.15,2.55a15.75,15.75,0,0,0,5.23,11.2.92.92,0,0,0,1.46-.41c.24-.55.25-1.19.44-1.76.66-2,2.5-1.93,4-2s1.86,1.49,1.72,2.67a3.22,3.22,0,0,0,2.82,3.93c2.11.47,2.83,1.81,3.2,3.8a21.64,21.64,0,0,0,2.92,7.27A2.51,2.51,0,0,0,219.91,89.25Z"/><path class="cls-1" d="M73.53,103.63a4.23,4.23,0,0,0,.54-2.27c-.72-2.88-.39-6-2.44-8.58-.73-.9-1.81-2-1.43-3.2.62-2,.22-3.85-.16-5.85a6.54,6.54,0,0,1,1.33-5.13c1-1.24,2.29-1.3,3.78-1.37a3,3,0,0,0,2.64-3.44A36.27,36.27,0,0,0,76,67.51c-.85-2.2-1.82-2.22-3.19-.33-.58.8-1,1.88-1.82,2.29-1.1.58-1.63-.82-2.44-1.31a2.18,2.18,0,0,0-.46-.18c-.84-.25-1.16.35-1.54.78-1.33,1.5-1.24,3.34-1.14,5.16.06,1.19.76,2.54-.09,3.52-2.24,2.58-1.26,5.4-.56,8A5.35,5.35,0,0,1,64.37,90c-1,1.6-.81,3.26-.7,5.14.23,3.95,2.51,6.6,4.63,9.43S72.22,106.89,73.53,103.63ZM71.81,73.38h0l-.28-.09.28.09c.16.29.53.56.4.86C72.35,73.94,72,73.67,71.81,73.38Z"/><path class="cls-1" d="M259.33,115.71c-.29-1.17-3.16-2.48-4-2.11-1.34.61-1.44,1.92-1.36,3.1.15,2.25-1.74,2.38-3,3.19-1,.6-1.56,0-2-.59a5,5,0,0,1-.84-2.22c-.27-3.2-2.15-5.09-4.88-6.36.42-.67,1.33-1.47,1.19-2-.73-2.67-1.06-5.56-2.73-7.83a9.64,9.64,0,0,1-2.06-7.82c.45-2.6-.92-4.62-3.15-6a2.28,2.28,0,0,0-3.39,1.29,8.86,8.86,0,0,0,.19,5.91c1.68,4.29,3.3,8.62,5.12,12.85.61,1.42,1.26,3,2.83,3.78.88,1.65-.87,2.47-1.19,3.75s-1,2.17-.58,3.48a8.63,8.63,0,0,0,3.53,4.74c1.75,1.13,3.51,2.14,5.62,1.11,1.35-.66,1.66.1,2.07,1.14a8.15,8.15,0,0,1,.58,5.27,10.68,10.68,0,0,0,1.7,8.65c1,1.62,2.66,2.38,4,1.72,1-.5,1.48-2.09.58-3.76-1.16-2.13-1.53-4.09-.32-6.27a3.13,3.13,0,0,0,.44-1.74c-.24-2-.56-3.85,2.54-3.75,1,0,2-2.45,1.63-3.47C261,119.76,259.86,117.91,259.33,115.71Z"/><path class="cls-1" d="M247,65.05c.95.54,1.63,1,2.35,1.32,2.61,1.21,3.63.85,4.14-2,.33-1.86,1.36-2.51,2.77-3.48,3.31-2.28,3.39-6,.55-8.79a16.39,16.39,0,0,0-1.38-1.18c-2.17-1.72-2.75-1.71-4.36.91-.77,1.26-1.93,1.25-3,1.76-2.35,1.17-2.92,2.29-2.53,4.82.18,1.19.52,2.36.7,3.56A1.06,1.06,0,0,1,244.78,63c-.7-.37-1.28-1-2-1.35-2.22-1.21-4.77.26-4.45,2.8a19.45,19.45,0,0,0,3.82,10,2.43,2.43,0,0,0,1.56.77c2.38.18,5-3,4.55-5.25C248,68.5,246.33,67.39,247,65.05Z"/><path class="cls-1" d="M186.68,72.28c-1.29-2.65-3.39-4.9-4.71-7.62a6.77,6.77,0,0,0-2.21-2c-1-.74-1.85-.38-2.58.5a2.63,2.63,0,0,0-.44,3.26c1.46,2.8,2.72,5.7,4.06,8.57.29.47.67,1,.12,1.46s-1-.09-1.27-.57c-1.37-.08-2.85-.62-3.88.81a4.61,4.61,0,0,0-.72,4.55,45.89,45.89,0,0,0,2.42,5.5,11.67,11.67,0,0,0,2.38,2.65,1.83,1.83,0,0,0,2.22.39,3.1,3.1,0,0,0,1-2.1,7.59,7.59,0,0,0-.48-2.9,5.46,5.46,0,0,1-.62-2.88,1.77,1.77,0,0,1,.5-1,1.1,1.1,0,0,1,1,.13,14,14,0,0,1,1.24,1.29c.77.76,1.85,1.27,2.68.62a3.37,3.37,0,0,0,1.29-2.55C188.22,77.6,187.86,74.72,186.68,72.28Z"/><path class="cls-1" d="M159.3,74.61c-3.19-.32-4,.3-4.11,3.27a11.43,11.43,0,0,0,.07,1.21h-.11c0,2,0,4,.12,6,.11,1.85.9,2.49,3,3.12A2.8,2.8,0,0,0,161.43,87a7.11,7.11,0,0,0,1.41-2.64c.51-1.92.64-3.83,3.42-4,1.21-.08,1.59-1.82,1.6-3,0-2.6-.8-5.15-.61-7.81.06-.86-.74-1.84-1.27-2.69-1.1-1.78-3.2-1.71-4.49,0-1.6,2.06-1,4.14-.41,6.31C161.36,74.21,160.61,74.75,159.3,74.61Z"/><path class="cls-1" d="M268.47,103.05c-1.65-1.9-1.84-5-4.87-5.79a1.18,1.18,0,0,1-.67-.92c.28-2.21-1.44-3.74-1.84-5.7-.24-1.16-.52-2.52.67-3.33,2.51-1.7,2-3.62.63-5.7s-1.12-4.84-3.71-6c-.36-.16-.74-.3-1.11-.45-.3.22-.75.38-.89.68a8.65,8.65,0,0,0-.22,6.51,3,3,0,0,1-.66,3.3c-1.4,1.47-1.47,3.13-.7,5,.61,1.5,1.46,2.87,2.08,4.3.88,2,3.36,2.24,4.05,4.27s1.42,3.78,2.15,5.66a4.29,4.29,0,0,0,.27.54c.88,1.57,2.76,2.41,4,1.77S269.48,104.22,268.47,103.05Z"/><path class="cls-1" d="M164.83,46.69a3.4,3.4,0,0,0-3.28,2.16,22.32,22.32,0,0,0-.33,3c-.13,1.12.19,2.39-1.16,3.25-.77-.86-1.53-1.73-2.32-2.57a2.45,2.45,0,0,0-2.76-.62,3.26,3.26,0,0,0-2.21,2.62,7.14,7.14,0,0,0,.19,1.77c.18,1.8.35,3.59.52,5.39l-.13-.1-.11.09h.17c2.2,3.38,3,3.61,5.91,1.59,1.66-1.14,3.2-2.39,5.29-2.74a5.83,5.83,0,0,0,3.8-2.76c.3-.44.57-1.35.35-1.64-1.63-2.07-1.29-4.55-1.67-6.89A2.77,2.77,0,0,0,164.83,46.69Z"/><path class="cls-1" d="M301.1,158c-1.35-2.78-3.2-5.41-2.42-9,.69-3.17-1.52-6.15-4.63-7.48a3.54,3.54,0,0,0-3.8,1c-.68,1.08.1,1.84.69,2.64,1.06,1.44,2,3,3.13,4.37.57.7,1,1.44.44,2.12-1.78,2.21.31,3.59.86,5.39.63,2.08,2.3,2.66,3.76,3.64,1.16.79,2.27.41,3.39-.19s1.82.39,2.72.61c2.53.63,4.13,3.34,7.2,3.08,1.19-2.87.5-5.46-1.07-7.92a2.47,2.47,0,0,0-4.08-.18c-.34.48-.45,1.12-.74,1.63C305,160.38,302.39,160.64,301.1,158Z"/><path class="cls-1" d="M166.62,158a2.39,2.39,0,0,0,3.64.29c.95-.86,1.59-1.84.9-3.17-1.58-3.05-3.05-6.11-1.11-9.59a1.39,1.39,0,0,0-.11-1.15,14.05,14.05,0,0,1-1.54-5.1,5.12,5.12,0,0,0-3.55-4.1,2.24,2.24,0,0,0-2.48.84,9.38,9.38,0,0,0-1.35,6.32c.39,2.77,2.67,4.63,3.12,7.05.52,2.78.79,5.55,2.2,8.07C166.44,157.68,166.51,157.88,166.62,158Z"/><path class="cls-1" d="M322.49,62.45a3.4,3.4,0,0,0-2,2.11,3.66,3.66,0,0,0,.08,2.95c1.1,2.35,1.64,4.9,3.27,7.08,1.26,1.69,2.3,3.79.93,6.7.35,2.61.25,5.81,1.56,8.85.81,1.88,2.16,2.15,3.58.56,1.26-1.4,2.17-2.73.88-4.79-.93-1.48-.89-3.59-1.87-5a7.9,7.9,0,0,1-1.3-6.7,12.06,12.06,0,0,0-2.5-10.71A2.31,2.31,0,0,0,322.49,62.45Z"/><path class="cls-1" d="M230.16,74.76a36.81,36.81,0,0,0,2.13,3.63,4.79,4.79,0,0,0,3.56,2c1.27.19,2.63-.93,2.24-2.09a80.25,80.25,0,0,0-3.35-8.92c-1.09-2.31-2.28-2.73-4.95-1.66-1.79.72-2.76.24-3.32-1.21a10.33,10.33,0,0,0-3.29-4.85,1.27,1.27,0,0,0-1.93.65c-.22.77-.39,1.56-.45,1.81a11.59,11.59,0,0,0,1.31,6.93c1.3,2.56,1.57,2.86,4.67,2.2C228.48,72.91,229.42,73.26,230.16,74.76Z"/><path class="cls-1" d="M220.81,113.11c-.49-1-1.55-1.12-2.6-.75a2.36,2.36,0,0,0-1.77,2.77c.27,1.57.86,3.08,1.16,4.64a1.12,1.12,0,0,1-1.38,1.39,5.64,5.64,0,0,1-2.27-.69c-1.26-.82-2-.81-2.8.66-1,1.91-3,3.42-2.18,5.6,0,1-.05,1.58-.06,2.18,0,2.75,1.45,4.18,4,3.53a16.9,16.9,0,0,0,4.37-1.95,3.35,3.35,0,0,0,1.22-4.24c-.43-1.1-1.56-1.88-1.55-3.19,0-.77-.08-1.66,1.1-1.64.8,0,1.61.15,2.41.09a2.41,2.41,0,0,0,2.27-3.34A38.77,38.77,0,0,0,220.81,113.11Z"/><path class="cls-1" d="M83.72,130.5a3.22,3.22,0,0,0,2.18-2.66c0-1.15-.73-2.32-.7-3.47.13-4.65-2.48-8.87-2-13.57a4.59,4.59,0,0,0-.88-2.21,2.68,2.68,0,0,0-4.13-.49,9.12,9.12,0,0,0-2.08,6.74,3.68,3.68,0,0,0,.45,2.3c1.67,2.22,1.85,4.83,2.57,7.31A46.22,46.22,0,0,0,80.7,129,2.9,2.9,0,0,0,83.72,130.5Z"/><path class="cls-1" d="M193.92,111.61c.28-5-.75-9.9-1.91-14.73-.49-2-2.18-3.11-3.4-2.81a4.7,4.7,0,0,0-2.76,3.68,3.68,3.68,0,0,0,.13,1.8c.87,1.78.44,3.56.14,5.85a21.81,21.81,0,0,0-.05,3.14,30.28,30.28,0,0,0,.82,4.16c.49,2,1,2.18,3,1.86S193.8,113.73,193.92,111.61Z"/><path class="cls-1" d="M190.67,35.5a4,4,0,0,1-.78,3.41c-1.66,1.92-1.52,4-.57,6.22.55,1.29.79,2.71,1.27,4,.9,2.49,1.82,3.09,4.48,3.11a1.59,1.59,0,0,0,1.69-1.37c.22-1,.68-2,0-2.91-2.2-2.94-1.3-6.09-.76-9.23.14-.79.42-1.55.67-2.44a7.23,7.23,0,0,0-3.09-6.6,2.44,2.44,0,0,0-3.42,2.16C190.26,33.11,190.52,34.3,190.67,35.5Z"/><path class="cls-1" d="M238,34.44a4.86,4.86,0,0,0-1.43,5c.87,3.29.21,6.3-.71,9.38a6.86,6.86,0,0,0-.26,1.79,8.39,8.39,0,0,0,3.13,6.87c1.34,1.11,2.83.67,3-1.19.08-.78.48-1.69.21-2.31-1.08-2.51-1.08-5.54-3.86-7.46,2.09-1.64,4-3,5.79-4.6a2.88,2.88,0,0,0,.84-3.78c-.57-1.06-1.05-2.18-1.69-3.2C241.78,32.94,239.78,32.83,238,34.44Z"/><path class="cls-1" d="M45,101.45a23,23,0,0,0-1.6-5.17,7.21,7.21,0,0,1-.79-3.93c.07-2.8.22-5.66-.88-8.37-.71-1.76-1.67-2.59-3-2.37a3.52,3.52,0,0,0-3.1,3.82c.1.79.51,1.53.66,2.31.8,4.29,3,8.19,3,12.73,0,2.48.73,5.3,3.75,6.31A5.1,5.1,0,0,0,45,101.45Z"/><path class="cls-1" d="M98.31,35.49c-.28,1.1-.62,1.6-2,1-2.12-.92-4.34.43-4.17,2.38A25,25,0,0,0,94,47c.29.64,1.12,1.09,1.77,1.52,1.39.92,2.13.53,2.48-1.05a18.56,18.56,0,0,0,.06-5.39c-.12-1.9.48-2.46,2.35-2.57.6,0,1.21.1,1.8,0a3.66,3.66,0,0,0,3.27-3.6,7.41,7.41,0,0,0-2-4.93,7.58,7.58,0,0,0-1.71-1c-1.53-.07-2.44.53-2.81,1.45A33,33,0,0,0,98.31,35.49Z"/><path class="cls-1" d="M216.29,103.94c.63-.92-.15-1.35-.66-2A10.62,10.62,0,0,1,213,94.76c.05-2.87-1.66-4.9-3.51-6.78a2.7,2.7,0,0,0-4.2.55,4.14,4.14,0,0,0-.75,3.44,16.92,16.92,0,0,0,1.69,5.15c1,1.54,1.72,3.22,1.12,5.14-3,.3-3,.33-3.66,3.2-1.23.53-3.2-.06-3.32,2.18-.8,1.57-.33,3.17.07,4.69,1.41,5.36,3.32,6.25,8.55,4.14.18-.07.41,0,.59-.09,1.4-.61,2.44-2.08,1.76-3.23-1.43-2.44-.52-5.13-1.29-7.59,1.2.16,2.4.35,3.6.49C215.21,106.22,215.63,104.91,216.29,103.94Z"/><path class="cls-1" d="M52.92,65.74c.26,2.62,1.14,4.17,2.6,4.34a3.9,3.9,0,0,0,4.14-2.92C60.38,65,61,63.95,63.43,65c.8.36,1.26-.67,1.61-1.41,1.62-3.41-.43-6.15-1.63-9a1.11,1.11,0,0,0-1.55-.45c-.92.4-2,.67-2.31,1.77a4.5,4.5,0,0,1-4,3.82c-1.72.29-2.64,1.75-2.69,4.64A9.44,9.44,0,0,0,52.92,65.74Z"/><path class="cls-1" d="M116.31,38.11a2.39,2.39,0,0,0-2.65-.89,2.62,2.62,0,0,0-1.79,2.2,7.24,7.24,0,0,0,1,5.21c.76,1.27,1.08,3.32,3,3.3,1.69,0,1.71-1.94,2.39-3.1a1.18,1.18,0,0,1,2-.38c.85.79,1.41,2.14,2.88,1.6s1.16-2,1.66-3c1.3-2.71-.68-5-1.23-7.38a3,3,0,0,0-2.5-2.31c-1.6-.07-1.62,1.6-2,2.58a27,27,0,0,0-1,4.44C117,39.92,116.92,38.82,116.31,38.11ZM118.78,41c0,.51-.27.77-.52.48s-.13-.59-.16-.93C118.46,40.4,118.74,40.52,118.78,41Z"/><path class="cls-1" d="M269,48.39c-1.23-2.07-2.55-2.65-5-2a1.71,1.71,0,0,0-1.31,2.29c1.32,4.4,2.7,8.78,4.11,13.15a7.48,7.48,0,0,0,2.69,3.89c.83.61,1.66,1.17,2.71.6a2.27,2.27,0,0,0,1-2.06,5.5,5.5,0,0,0-.78-4,13.88,13.88,0,0,1-2.12-7.4A9.55,9.55,0,0,0,269,48.39Z"/><path class="cls-1" d="M279.48,95c-.28-1.34-1.28-2.55-1.46-3.89-.32-2.35-3.54-3.22-3-5.61.57-2.64-1.43-4.56-1.3-7,.1-1.83-1-3-2.35-3.93a4,4,0,0,0-1.09-.36,3.25,3.25,0,0,0-2.45,3c.36,3.6,1.23,7.11,4.24,9.45,1.15.89,1.49,1.54,1.12,2.91-.78,2.82.71,5.05,2.25,7.17a2.21,2.21,0,0,0,2.72.61A2.11,2.11,0,0,0,279.48,95Z"/><path class="cls-1" d="M204.28,158.29a22.61,22.61,0,0,1-.77-2.9c-.06-3.1-.52-6-2.62-8.48-.78-.91-.42-1.88.11-3.37.48-2.21-.48-4.64-1.7-7a1.78,1.78,0,0,0-1.44-.8,2,2,0,0,0-1.29,1.13c-1,2.87-.74,5.63,1.45,7.88a2.11,2.11,0,0,1,.26,3.16c-2,2.59-1.7,5.24-.3,8a29.4,29.4,0,0,0,1.59,3.25,4.33,4.33,0,0,0,1.93,1.31A2.09,2.09,0,0,0,204.28,158.29Z"/><path class="cls-1" d="M360.14,31.34c-1.11-2.7-2.55-3.18-5.22-1.82A3.25,3.25,0,0,0,353,32.32c-.15,1.86,0,3.76,1.29,5.12,1.79,1.91,2.27,4.09,2.43,6.58s1.74,3.93,4.67,4.57c.71-2.44,1.19-4.72-.42-6.55-1.48-1.68-1.1-3-.34-4.85S360.93,33.25,360.14,31.34Z"/><path class="cls-1" d="M323.26,34.61c-.55.73,0,1.93.36,2.9a16.2,16.2,0,0,0,4.75,6.27c.41-1.5,1.06-2.65.94-3.71A26.4,26.4,0,0,1,330.49,30c.65-2.4-.27-4.77-1-7A2.31,2.31,0,0,0,327,21.5a2.18,2.18,0,0,0-2.29,1.6,10.17,10.17,0,0,0-.66,3.55C324.47,29.4,325.18,32,323.26,34.61Z"/><path class="cls-1" d="M292.54,111.55c-2.27-.16-2.43-1.59-2.27-3.38s.16-3.67-1.06-5.18a3.32,3.32,0,0,0-1.93-1.24c-.87-.09-1.21.77-1.41,1.61-.48,2-.55,3.81,1.28,5.46a8.59,8.59,0,0,1,3.09,6.87c-.22,3.56,2.13,5.85,3.7,8.54a1.18,1.18,0,0,0,1.05.25,1.24,1.24,0,0,0,.75-.77c.21-1,.29-2,.43-3a12.19,12.19,0,0,0-.66-6.5C294.93,112.88,294.17,111.67,292.54,111.55Z"/><path class="cls-1" d="M200.57,97.21a57.29,57.29,0,0,1-1.13-9,8.88,8.88,0,0,0-3.27-5.63,2.91,2.91,0,0,0-4.49,1.13,6.46,6.46,0,0,0-.24,3A33.53,33.53,0,0,0,195.94,99a1.93,1.93,0,0,0,2.39,1.07C199.79,99.82,200.41,99.1,200.57,97.21Z"/><path class="cls-1" d="M175.25,37.21c.85,1,1.09,2.12.07,3.92a23.48,23.48,0,0,0,2,8.75,4.4,4.4,0,0,0,2.77,2.18c.9.36,1.48,0,1.87-.87a6.45,6.45,0,0,0,.26-3.54c-.22-2.17,0-4.4-.41-6.54-.31-1.84-2.63-2.72-3-4.35a15.68,15.68,0,0,0-1.58-5.05,5.24,5.24,0,0,0-.35-.49c-.66-.83-1.54-1.56-2.56-1.08s-1,1.7-.87,2.69A7.9,7.9,0,0,0,175.25,37.21Z"/><path class="cls-1" d="M301.25,99.3a7.25,7.25,0,0,0-1.64-5.67,2.07,2.07,0,0,0-2.17-.72,1.69,1.69,0,0,0-1.36,1.75,14.34,14.34,0,0,0,.28,4.21A34.08,34.08,0,0,1,297.9,109c.05,3.21,1.67,5.67,3.73,8.34a8.51,8.51,0,0,0,1-9.28A16,16,0,0,1,301.25,99.3Z"/><path class="cls-1" d="M134.5,36.25a19.08,19.08,0,0,0-.66,2c.18,1.16,0,2.75.67,3.89a43.72,43.72,0,0,1,3.3,9.05A4.24,4.24,0,0,0,140,54c.69.32,1.54.93,2.26.28a4.56,4.56,0,0,0,1.17-2,3.06,3.06,0,0,0-.2-1.73c-1.09-3.16-2.45-6.17-2.48-9.68,0-1.68-1.22-3.4-2.08-5C137.92,34.54,135.16,34.85,134.5,36.25Z"/><path class="cls-1" d="M309.68,137.9c.53,2.12,1.24,4.1,3.26,5.52,2.59,1.82,5.24,3.61,6.9,6.54a3.71,3.71,0,0,0,3.83,1.51,12.18,12.18,0,0,0,.18-2.89c-.48-2.8-1.18-5.94-4.26-6.6-2.38-.5-3.34-1.79-4.31-3.55a13.73,13.73,0,0,0-1.56-2.52,2.24,2.24,0,0,0-2.75-.47A2.11,2.11,0,0,0,309.68,137.9Z"/><path class="cls-1" d="M157.56,126.55a7.37,7.37,0,0,1-2.2-4.11,7.87,7.87,0,0,0-2.41-4.08,2.15,2.15,0,0,0-3.18,0,7.23,7.23,0,0,0-1.84,3.67c-.15,2,2.2,8.08,3.61,9.44a4.43,4.43,0,0,0,5,.24C158.41,130.09,159,128,157.56,126.55Z"/><path class="cls-1" d="M122.4,49.15a2.54,2.54,0,0,0-2.67,1.93,6.27,6.27,0,0,0-.14,2.37,10.16,10.16,0,0,1-.44,7c-1.1,2.31.12,4.71.62,7,.21,1,2.68,2.05,3.54,1.7a2.21,2.21,0,0,0,1.1-2.53,27.58,27.58,0,0,1,1.08-9.9c.05-.19.08-.39.2-1-.33-1.32-.79-3-1.2-4.76A2.2,2.2,0,0,0,122.4,49.15Z"/><path class="cls-1" d="M51.14,51.06c1.18-.09,1.49-1.26,1.87-2.15.87-2.07.52-4.5-1-5.65-2.5-1.93-2.51-4.23-2.48-6.84a7.89,7.89,0,0,0-.68-2.94c-.19-.46-.83-.74-1.07-.95a2.9,2.9,0,0,0-3.19,1.64,6.84,6.84,0,0,0,.14,5.9c1.81,2.91,3.46,5.64,3.52,9.22C48.3,50.22,49.83,51.17,51.14,51.06Z"/><path class="cls-1" d="M102.77,115.15c-.27,1.82.35,3.56.54,5.34.28,2.64,2.4,3.49,4.15,4.7.34.23,1.21,0,1.66-.29,1.66-1.09,2.73-3.19,2-4.61-1.23-2.34-1.26-5-2.64-7.21a3,3,0,0,0-2.32-1.69C104.79,111.42,103,113.34,102.77,115.15Z"/><path class="cls-1" d="M341.45,30a2.17,2.17,0,0,0-1.13,2.59c1.17,3.13,2,6.62,6.19,7.48,1.13-2.42,1.56-4.64,0-6.91a5.14,5.14,0,0,1-.38-5.17,7.66,7.66,0,0,0-1-7.47,1.73,1.73,0,0,0-2-.94,2.11,2.11,0,0,0-1.45,1.78,5.8,5.8,0,0,0,.8,4.07C343.49,27.28,343.61,28.88,341.45,30Z"/><path class="cls-1" d="M177,104.74a2,2,0,0,0,.68-3c-1.06-1.5-2.13-2.88-1.64-4.93a4.28,4.28,0,0,0-.45-2.3c-.81-2.08-2.61-3.56-3.83-3.28-1.43.32-2.65,2.18-2.81,4.26-.12,1.58.59,4.36,1.92,7.5S174.23,106.59,177,104.74Z"/><path class="cls-1" d="M342.24,153.1c-2,.51-2.28,1.9-1.15,3.73,1.8,2.91,4.68,4.19,7.78,5.69,1.69-3.61,1.26-7,.78-10.33-.19-1.31-2.65-2.24-3.39-1.24C345.17,152.43,343.79,152.69,342.24,153.1Z"/><path class="cls-1" d="M88.47,117.24a78.9,78.9,0,0,0,1.65,8.22,3.14,3.14,0,0,0,3.37,1.94c1.28-.42,1.75-1.56,2.16-2.69a1.78,1.78,0,0,0,.05-1.17c-.79-1.92-.66-3.87-.62-5.89a9.85,9.85,0,0,0-1.28-3.91c-.2-.45-.92-.66-1.23-.86a2.72,2.72,0,0,0-2.46.64A4.66,4.66,0,0,0,88.47,117.24Z"/><path class="cls-1" d="M61.36,119a1.76,1.76,0,0,0-.17-.1l.14.16Z"/><path class="cls-1" d="M62.91,121.18a3.74,3.74,0,0,0,1.94,2.1c1.84.94,3.34.32,3.33-1.66,0-2.76-.17-5.52-.32-8.27a5.3,5.3,0,0,0-.47-1.72,3,3,0,0,0-2.8-1.86,2.87,2.87,0,0,0-2.52,1.34,4.52,4.52,0,0,0-.81,4c.33,1.31,1,2.61.1,3.94A3.48,3.48,0,0,1,62.91,121.18Z"/><path class="cls-1" d="M147.73,59.29c-1.23.7-2.54,1.68-2.26,3.26.46,2.55.75,5.18,2.07,7.49a3.85,3.85,0,0,0,5.67,1.24,46,46,0,0,0,3.64-3.13,1,1,0,0,0,.11-1,1.26,1.26,0,0,0-1-.36,15.41,15.41,0,0,1-2.33.46,1.76,1.76,0,0,1-1.33-.94c-.52-1.69-.84-3.43.93-4.65-1.24.08-2.06-.76-2.92-1.44S148.82,58.67,147.73,59.29Z"/><path class="cls-1" d="M47.42,91.47c.27,3.47.74,5.64,5.63,4.24l1.15-.33c2.44-.74,2.64-1.29,2.15-3.93-.54-2.92-2.54-4.82-4.57-7.11C48,87.81,47.22,88.87,47.42,91.47Z"/><path class="cls-1" d="M13.47,55.56c.06-1.12-1.56-2.14-.45-3.27,1.33-1.37.9-3,1.12-4.5a24.36,24.36,0,0,0,.23-3.58,25.63,25.63,0,0,0-.76-4.11,2.39,2.39,0,0,0-2.14-1.83,2.48,2.48,0,0,0-2.52,1.29,5,5,0,0,0-.88,2.19c-.19,5.08,1.33,9.79,3.35,14.36a.74.74,0,0,0,.45.37c.36.08.83.23,1.09.08A1.37,1.37,0,0,0,13.47,55.56Z"/><path class="cls-1" d="M357.76,131.71a2.61,2.61,0,0,0-2.85.15,1.92,1.92,0,0,0-.4,2.69c1.82,2,1.73,5.46,4.78,6.58.91,2,2,3.94,2.7,6a4.58,4.58,0,0,0,3.49,3h0c.4.47.62,1.58,1.38,1s.26-1.26-.54-1.6c.94-3.62-.05-6.35-3.69-7.77a3,3,0,0,1-2.13-3.21,14.8,14.8,0,0,0-.32-3.55A4.52,4.52,0,0,0,357.76,131.71Z"/><path class="cls-1" d="M186.24,162.53c.59-.87,1-2,.15-2.76-1.66-1.53-1.66-3.55-2.1-5.49a11.28,11.28,0,0,0-1.34-3.29,2.59,2.59,0,0,0-4.46.25c-1.89,3.35,1.39,11,5.09,11.9C185,163.48,185.68,163.36,186.24,162.53Z"/><path class="cls-1" d="M169.22,115.08c-.83-2-.69-4.38-.44-6.81A4.4,4.4,0,0,0,168,106c-.69-1.28-1.62-2.35-3.26-2.3-1.29,0-2.68,1.63-2.79,3.51-.2,3.55,1.27,6.67,2.94,9.66a2.18,2.18,0,0,0,2.66.91C168.53,117.45,169,116.5,169.22,115.08Z"/><path class="cls-1" d="M29.67,72.18a17.49,17.49,0,0,0,3.25,7.49c.77-1.44,1.82-2.75,2.18-4.22a23.23,23.23,0,0,0,.48-6,8.22,8.22,0,0,0-1.08-4.63c-1.11-1.62-2.91-.71-4.27-1.32.09.2.15.37.09.47C28.66,66.62,29.18,69.4,29.67,72.18Z"/><path class="cls-1" d="M281,39.25c.78,2.26,1.55,4.52,2.36,6.78.47,1.31.93,2.7,2.65,2.85,1.26.11,2.11-1.28,2.28-4.15a15.78,15.78,0,0,0-2.65-9.14,2.35,2.35,0,0,0-3.64-.17A3.6,3.6,0,0,0,281,39.25Z"/><path class="cls-1" d="M44.62,124.57c.33-1.56,1.9-2.67,1.56-4.49.19-3,0-6-1.59-8.72a2.6,2.6,0,0,0-4.47,0,4.49,4.49,0,0,0-.65,3.47c.83,3.31,1.72,6.6,2.69,9.87.12.42.85.8,1.36.93C44.29,125.86,44.51,125.11,44.62,124.57Z"/><path class="cls-1" d="M224.63,38.34c.28,2-.46,3.51-1.31,5.12-.48.92.18,1.5.89,1.89a9.58,9.58,0,0,0,1.72.55,6.7,6.7,0,0,0,6.2-2.94c1.12-1.76-.14-3.46-1.12-5a10.74,10.74,0,0,1-.65-1,2.27,2.27,0,0,0-3-1.33C226.08,36.07,224.37,36.58,224.63,38.34Z"/><path class="cls-1" d="M215.14,157.84a79.81,79.81,0,0,1-1.22-8.2,4.12,4.12,0,0,0-2.74-3.43c-1.7-.32-2.92.58-4,1.25s-.06,1.86.19,2.7c.73,2.47,1.7,4.87,2.64,7.28a3.65,3.65,0,0,0,2.66,2.2C213.81,160,215.36,159,215.14,157.84Z"/><path class="cls-1" d="M299.43,58.13c-.9.12-1.31.75-1.59,1.56a5,5,0,0,0,1.34,5.91c2.55,2.48,4.57,5.51,6.94,8.47,1.22-1.91,2.42-3.38,1.61-5.61-.57-1.55-1-3.33-2.74-3.62s-2.16-1.46-2.56-2.81a12.83,12.83,0,0,0-1-2.8A2,2,0,0,0,299.43,58.13Z"/><path class="cls-1" d="M205.2,38.77a1.76,1.76,0,0,0,1.9,1.09c5.32-1,6.57-3.53,4-8.19a6.23,6.23,0,0,0-.89-1.53,2.69,2.69,0,0,0-1.53-.73A4.33,4.33,0,0,0,204,33.28,10.6,10.6,0,0,0,205.2,38.77Z"/><path class="cls-1" d="M254.2,36.57c-.65.68-1.34,1.38-2,2.11-.39.44-1,.93-1,1.4,0,2.62.22,5.27,2.26,7.21a3.68,3.68,0,0,0,4,.5,3.15,3.15,0,0,0,2-3.36C258.54,41.37,258.5,37.46,254.2,36.57Z"/><path class="cls-1" d="M181.56,179.48c.76-1.13,1.71-2.23,1.74-3.56-.28-2.74-.41-5.35-2-7.58a3.48,3.48,0,0,0-3.75-1.1,2.6,2.6,0,0,0-1.58,3.39c1.14,2.63.93,5.49,1.79,8.14a2,2,0,0,0,1.65,1.51A2.13,2.13,0,0,0,181.56,179.48Z"/><path class="cls-1" d="M128.44,143.41c-.48-1.59-2-2.27-3.9-2-1.34.16-2,1.3-2,3.18a7.7,7.7,0,0,0,.88,3.43c1.28,2.6,2.44,5.25,3.76,8.11C130.44,151.93,129.72,147.67,128.44,143.41Z"/><path class="cls-1" d="M108.73,100.56c-1-2.83-.73-6-2.38-8.61a2.38,2.38,0,0,0-1.9-1.33,3.18,3.18,0,0,0-1.14.29c-1.34,1-2.4,2.23-2.18,4a19.07,19.07,0,0,0,1.88,7c.6,1.1,2.49,2.17,3.47,1.94S109.11,101.67,108.73,100.56Z"/><path class="cls-1" d="M147.71,102.72c-.36.89-.84,2.06-.55,2.85,1.18,3.28,1.58,7.06,5,9.08,1.34-.71,2.77-2,2.65-3-.39-3.3-.5-6.79-2.76-9.6A2.53,2.53,0,0,0,147.71,102.72Z"/><path class="cls-1" d="M361.26,67.47c.21-1.89-.67-3.5-1.61-5.06a3.28,3.28,0,0,0-3.1-1.51c-.16-1-.28-2-.5-3a45.71,45.71,0,0,0-1.23-4.61,2.5,2.5,0,0,0-3-1.36c-1.25.33-1.41,1.4-1.39,2.36.06,2.22.45,4.31,2.41,5.84a34.47,34.47,0,0,1,3.34,3.41,4.37,4.37,0,0,0,2.11,5.67,12.09,12.09,0,0,1,5.91,7.82.94.94,0,0,0,.31.5,2.15,2.15,0,0,0,1,.54c.31,0,.87-.3.9-.52.28-2.14,1.34-4.18.47-6.45-.8-2.09-1.43-2.75-4.06-2.39C361.49,68.93,361.1,68.87,361.26,67.47Z"/><path class="cls-1" d="M257.41,104c-.69-3.68-1.27-7.48-4.32-10.17-.27-.23-.74-.24-1.11-.35a3.67,3.67,0,0,0-1.09.43,4,4,0,0,0-1.6,4.27,17.24,17.24,0,0,0,3.93,7.36,2.6,2.6,0,0,0,2.71.88A2.29,2.29,0,0,0,257.41,104Z"/><path class="cls-1" d="M209.55,168.28c-2.1-.21-4,1.54-3.7,3.28.42,2.37,1,4.72,1.65,7a1.92,1.92,0,0,0,1.3,1,3.83,3.83,0,0,0,4.72-4,11,11,0,0,0-2.69-6.61A4.6,4.6,0,0,0,209.55,168.28Z"/><path class="cls-1" d="M222.08,161.79a2.22,2.22,0,0,0-1.08,2.58c.74,3.29,1.59,6.56,2.47,9.81a1.58,1.58,0,0,0,1.86,1.15,2.08,2.08,0,0,0,1.86-1.32c.37-1.14.66-2.31,1-3.47.19-1.89-1.12-6.69-2.19-8A3.65,3.65,0,0,0,222.08,161.79Z"/><path class="cls-1" d="M313.56,46.12c-.76-1.31-3.24-1.17-4.27.1a3.78,3.78,0,0,0-.6,4c1.22,3.19,2.44,6.37,6.1,8.58C317.57,54,315.82,50,313.56,46.12Z"/><path class="cls-1" d="M209.91,45.49c-.45,3.1.8,5.85,1.92,8.63.86,2.13,3.16,1.29,4.92,2.71.36-3.56-.35-6.21-.77-8.92a5.87,5.87,0,0,0-2.5-3.84A2.22,2.22,0,0,0,209.91,45.49Z"/><path class="cls-1" d="M195.09,168.89a3.26,3.26,0,0,0-3.82-.72,2.19,2.19,0,0,0-1.14,2.51c.56,3.13,1.13,6.26,1.8,9.37.23,1.08,2.2,1.37,3,.48a8.08,8.08,0,0,0,2-4.68C196.68,173.33,196.7,170.89,195.09,168.89Z"/><path class="cls-1" d="M305.18,49.74c.33-.73.61-1.48.93-2.28-.28-2.94-.56-5.91-2.26-8.55a2.67,2.67,0,0,0-3-1.5,2.85,2.85,0,0,0-2.35,3c.6,3.56,1.49,7,4.14,9.75A1.63,1.63,0,0,0,305.18,49.74Z"/><path class="cls-1" d="M105.11,132.5a15.87,15.87,0,0,0,2.23,9.23c.73,1.2,2.57,1.08,3.65,0a2.52,2.52,0,0,0,.89-2.7,14.67,14.67,0,0,1-.88-5.31,7.82,7.82,0,0,0-1.32-3.32c-.26-.46-1-.68-1.55-1.07-.53.2-1.25.26-1.57.65A5.17,5.17,0,0,0,105.11,132.5Z"/><path class="cls-1" d="M111.86,111.94a1.67,1.67,0,0,0,2,.89c2.26-.28,2.94-1,2.88-3,0-.8-.18-1.6-.26-2.29s.1-1.32.14-1.92a11.62,11.62,0,0,0,.09-1.81c-.15-1.66-1.8-3.54-2.89-3.38a4.76,4.76,0,0,0-3.28,3.24,2,2,0,0,0-.09.6C110.78,106.83,110.7,109.5,111.86,111.94Z"/><path class="cls-1" d="M311.82,41.15a1.25,1.25,0,0,0,.8-.69,19.39,19.39,0,0,0,.41-2.34A13.64,13.64,0,0,0,311,29.65a2.67,2.67,0,0,0-3.64-.95c-1.46.74-2.14,2-1.45,3.38,1.54,3,3.21,5.93,4.89,8.85C310.88,41.15,311.49,41.23,311.82,41.15Z"/><path class="cls-1" d="M319.44,77.61c-.23-3.51-1.21-6.74-4-9.08a2.34,2.34,0,0,0-2.82-.18A3,3,0,0,0,311,71c.65,3.52,2.32,6.57,5.87,8.35A2.06,2.06,0,0,0,319.44,77.61Z"/><path class="cls-1" d="M274.19,42.06c-1.2.55-2,1.43-1.65,2.83a45.7,45.7,0,0,0,2,6.31c.59,1.39.61,3.24,2.35,4,1,.41,1.94-1.23,2.67-5.06A14.07,14.07,0,0,0,277,42.44C276.33,41.54,275.18,41.62,274.19,42.06Z"/><path class="cls-1" d="M156.55,150a71.51,71.51,0,0,0-1.7-8.16,3.06,3.06,0,0,0-2.63-2.49,4.9,4.9,0,0,0-1.44.38,3.43,3.43,0,0,0-1.85,3.52c.62,2.69,1.17,5.51,3.07,7.73a3,3,0,0,0,2.7,1A1.89,1.89,0,0,0,156.55,150Z"/><path class="cls-1" d="M332.26,54.82c-.81-2.66-1.4-5.47-3.81-7.29-.89-.67-2.86-.35-3.89.57a2.19,2.19,0,0,0-.47,2.74c1.47,3.23,2.73,6.63,6.19,8.61C331.43,58.08,332.89,56.88,332.26,54.82Z"/><path class="cls-1" d="M127.1,172c3.4-3.91,3.09-7.74,2-11.65a2.88,2.88,0,0,0-5.66,1,12,12,0,0,0,.7,3.46C124.92,167.09,125.91,169.23,127.1,172Z"/><path class="cls-1" d="M276.11,157.09a2.94,2.94,0,0,0-.33-1.69,39.68,39.68,0,0,0-2.75-3.94,2.32,2.32,0,0,0-2.12-.8,2.54,2.54,0,0,0-2.66,2.67,34,34,0,0,0,1,4.7c.66,2.33,2.16,3.79,3.49,3.59C274.21,161.4,275.93,159.17,276.11,157.09Z"/><path class="cls-1" d="M103.36,48.23a48.72,48.72,0,0,0,1.14,5.25,4.23,4.23,0,0,0,2.06,2.85c.82.4,1.81,1.34,2.71.56a3.73,3.73,0,0,0,1.4-2.48A20.65,20.65,0,0,0,109.55,48a5.3,5.3,0,0,0-3.27-3.1C104.93,44.74,103.13,46.76,103.36,48.23Z"/><path class="cls-1" d="M56.78,111.53c.39-.68.72-1.39,1.09-2.1-1.22-2.47.43-5.26-1.21-7.62-.57-.82-.94-1.83-2.17-1.7a2.69,2.69,0,0,0-2.64,2.08,19.41,19.41,0,0,0,.38,7.71c.32,1.32,1.49,1.81,2.56,2.33A1.41,1.41,0,0,0,56.78,111.53Z"/><path class="cls-1" d="M286.27,119.59a11.75,11.75,0,0,0-1.65-8,2.05,2.05,0,0,0-2-1.08,2.23,2.23,0,0,0-2,1.9c-.88,3.71.31,7,1.86,10.3.43.9.82,2,2.06,1.64a2,2,0,0,0,1.29-1.84C286,121.55,286.13,120.57,286.27,119.59Z"/><path class="cls-1" d="M39.18,36.06c.19-2.93.68-6-1.26-8.63A1.73,1.73,0,0,0,35,27.16a6.8,6.8,0,0,0-1.76,4.53c.12,1,.27,2.79.59,4.55C34,37.42,35.6,38.45,37,38.47,38.62,38.49,39.11,37.12,39.18,36.06Z"/><path class="cls-1" d="M344.21,119.07a11.91,11.91,0,0,0-3.87-8.84,3.18,3.18,0,0,0-3.91.21c-.85.61-1.61,1.54-1,2.54,1.58,2.53,3.28,5,5.09,7.37a2.16,2.16,0,0,0,2.76.5A2.51,2.51,0,0,0,344.21,119.07Z"/><path class="cls-1" d="M110.08,74.08c-1-2-1.91-4-4.19-5.55a7,7,0,0,0-2.48,3.67,7.15,7.15,0,0,0,.8,6.38,2.31,2.31,0,0,0,2,1.16A3.92,3.92,0,0,0,110.08,74.08Z"/><path class="cls-1" d="M284,68.45c-.32-3.35-.86-6.7-3.86-8.94a1.49,1.49,0,0,0-2.36.78c-.27.75-.48,1.52-.77,2.42a15,15,0,0,0,1.86,6.77,2.65,2.65,0,0,0,3,1.46A2.38,2.38,0,0,0,284,68.45Z"/><path class="cls-1" d="M55.94,82.77a2.77,2.77,0,0,0,2.62,2.1,2.57,2.57,0,0,0,2.51-1.29,5.71,5.71,0,0,0,1-4.13,15.82,15.82,0,0,0,.24-1.65,4.44,4.44,0,0,0-2.07-3.31c-.74-.22-3,1-3.41,1.86C55.93,78.4,55.28,80.51,55.94,82.77Z"/><path class="cls-1" d="M102.48,163.34a30.82,30.82,0,0,0,.56,5.3,3.25,3.25,0,0,0,2.16,2.64c.56.18,2.67-1.87,2.88-2.72a7,7,0,0,0,.1-1.18,11.88,11.88,0,0,0-.91-5.83,2.32,2.32,0,0,0-3.93-.35A4.12,4.12,0,0,0,102.48,163.34Z"/><path class="cls-1" d="M115.28,155.21a12,12,0,0,0-1.79-8.09,2.35,2.35,0,0,0-1.78-1c-2-.11-3.48,1.4-3.07,3.1a57.24,57.24,0,0,0,1.9,6.3,3.87,3.87,0,0,0,2.27,2.65C113.51,158.4,115.16,156.69,115.28,155.21Z"/><path class="cls-1" d="M164.41,177.88a2.07,2.07,0,0,0,1.59-.64c1.07-1.28,1.23-2.92,1.5-4.49a7.48,7.48,0,0,0-1.63-5.68,2.34,2.34,0,0,0-2.59-1.12,2.55,2.55,0,0,0-2,2.68,74.49,74.49,0,0,0,1.8,8.25A1.87,1.87,0,0,0,164.41,177.88Z"/><path class="cls-1" d="M185.45,142.59a21.39,21.39,0,0,1-1.54-5.79c-.13-1.21-2.55-2.77-3.63-2.67-.33.21-.81.35-1,.65-1.62,3.28-.82,8.71,1.68,11.34a2,2,0,0,0,2.26.35C184.48,146,185.9,143.7,185.45,142.59Z"/><path class="cls-1" d="M194.65,121.92a10.07,10.07,0,0,0,2,8,2.43,2.43,0,0,0,2.71.85c1.18-.37,2.55-2.87,2.07-3.9a49.88,49.88,0,0,1-1.85-5.09,6.94,6.94,0,0,0-2.38-2.61,1.18,1.18,0,0,0-2,.46A13.53,13.53,0,0,0,194.65,121.92Z"/><path class="cls-1" d="M263.93,136.6a11.07,11.07,0,0,0,3.8,9.09,1,1,0,0,0,1.5-.36c.84-1.61,1.66-3.23,2.39-4.9a2.14,2.14,0,0,0,.14-1.67c-1.35-2-2.92-3.86-5.68-3.87C265,135,264,135.41,263.93,136.6Z"/><path class="cls-1" d="M343.31,43.83a2,2,0,0,0-3.09,0,3.33,3.33,0,0,0-.69,2.81c.58,3.78,1.67,7.33,4.62,10.05,2.12-3.57,1.73-7.17.3-10.78A12.72,12.72,0,0,0,343.31,43.83Z"/><path class="cls-1" d="M87.33,169.81a10.51,10.51,0,0,0-.38-4.73,2.48,2.48,0,0,0-2.64-1.9,2.56,2.56,0,0,0-2.25,2.42,16.86,16.86,0,0,0,1.12,8.17,2.32,2.32,0,0,0,1.28,1.16c.95.28,1.27-.57,1.68-1.25A5.64,5.64,0,0,0,87.33,169.81Z"/><path class="cls-1" d="M231.91,157.16a4.83,4.83,0,0,0,.22-1.77q-.67-3.24-1.54-6.44c-.43-1.57-2-1.84-3.3-2.61-.42.31-1.11.54-1.3,1a9.19,9.19,0,0,0,3.72,11A1.47,1.47,0,0,0,231.91,157.16Z"/><path class="cls-1" d="M271.2,109.46c.38,2.14.82,4.37,2.41,6a3,3,0,0,0,3.25,1,2.51,2.51,0,0,0,1.48-3c-1-3.1-1.42-6.68-5.06-8.22C272.19,106.56,270.89,107.78,271.2,109.46Z"/><path class="cls-1" d="M290.57,90.77c.25-1.83-2.13-6.11-3.91-6.76a4,4,0,0,0-3.42.7c-1,.62-.85,1.69-.56,2.67.69,2.33,1.48,4.49,4.15,5.44C289.09,93.62,290.25,93.14,290.57,90.77Z"/><path class="cls-1" d="M181.69,113.59c-2.62,3.79-1,7.28.76,10.72.59,1.14,2.75,1.27,3.66.25s1.63-2.3.88-3.86a10.28,10.28,0,0,1-1.31-3.34C185.46,114.8,183.77,114.09,181.69,113.59Z"/><path class="cls-1" d="M79.27,95.22c-1.73,2.58-1.22,5.4-.44,8.16a2.14,2.14,0,0,0,1.75,1.5,2.6,2.6,0,0,0,2.63-1.09,4.91,4.91,0,0,0,.68-4.41,16.66,16.66,0,0,0,0-3.2,3.42,3.42,0,0,0-2-2.87C80.46,92.81,79.88,94.32,79.27,95.22Z"/><path class="cls-1" d="M61,39.15c-.37.92-.63,1.87-.77,2.28-.31,2.88.3,5,1.86,6.67.63.69,1.56,1.43,2.61.77.84-.53,1.74-1.42,1.53-2.4-.55-2.67-.43-5.58-2.58-7.77C62.6,37.66,61.54,37.73,61,39.15Z"/><path class="cls-1" d="M116.17,137.37c.67.95,1.74,1.83,3.08,1.2,2.13-1,3.53-2.51,2.92-5.12.39.1.78.21,1.17.3,1.09.23,2,1.61,3.27.61a3.84,3.84,0,0,0,1.67-3.08,44.77,44.77,0,0,0-1.1-8.22,3.32,3.32,0,0,0-2.78-2.83c-1.2-.09-2.75,1.25-3.48,2.91a4.33,4.33,0,0,0,.07,2.92c.22.94-.33,1.49-1,2-.79-.8-1.65-2.34-2.82-1.15A8.53,8.53,0,0,0,116.17,137.37Z"/><path class="cls-1" d="M293.32,73.48c-1.24,3-.08,8,2.27,9.79,1.28,1,3.79-.37,4.11-2.77-1.23-2.22-1.21-5.6-4.17-7.53C294.33,72.18,293.85,72.22,293.32,73.48Z"/><path class="cls-1" d="M138.48,149.63c.55-2.22-.42-4.43-1.33-6.64-.45-1.08-2.39-1.6-3.66-1a2.11,2.11,0,0,0-1.2,2.48c.45,1.92,1.25,3.76,1.72,5.68s.79,4.09,2.89,3.86C138.38,153.81,138.29,151.46,138.48,149.63Z"/><path class="cls-1" d="M78.32,43.53c2.61-2.85.94-6,.57-9a2.84,2.84,0,0,0-2.67-2C75,32.57,74.31,33.79,74,35a7.75,7.75,0,0,0,.53,5.22A5.15,5.15,0,0,0,78.32,43.53Z"/><path class="cls-1" d="M280.92,159.78c-2-.21-3.81,1.66-2.78,3.3a71.14,71.14,0,0,0,5.68,7.58c.54.65,1.53.12,2-.62a2.45,2.45,0,0,0,.47-1.66,66.46,66.46,0,0,0-2.42-6.73A3,3,0,0,0,280.92,159.78Z"/><path class="cls-1" d="M281.92,155.7a2.26,2.26,0,0,0,1.66.22,3,3,0,0,0,2.47-3.48,9,9,0,0,0-3.36-6,4.36,4.36,0,0,0-1.54-.55c-.44.25-.91.36-1.09.65C278.5,148.86,279.52,154,281.92,155.7Z"/><path class="cls-1" d="M239.77,157.67a3.67,3.67,0,0,0-2.28,0,1.53,1.53,0,0,0-1.17,1.82,26,26,0,0,0,4.11,9.09c.16.21.76.21,1.09.11a1.47,1.47,0,0,0,.81-.74,16.67,16.67,0,0,0,.56-2.29,38,38,0,0,0-.67-4.73A4.79,4.79,0,0,0,239.77,157.67Z"/><path class="cls-1" d="M249.26,152.57a33.37,33.37,0,0,0,1.36,5.83c.77,2.39,2,3.48,3.07,3,1.64-.73,1.1-2.43,1.73-3.79a16.16,16.16,0,0,0-1.64-6.19,2.44,2.44,0,0,0-3-1.25A2.28,2.28,0,0,0,249.26,152.57Z"/><path class="cls-1" d="M68.6,140.8c.14,2.54.17,5.16,1.24,7.53a2.89,2.89,0,0,0,1.69,1.55c1.2.23,1.47-.93,1.94-1.82,1.6-3,.81-5.8-1-8.38-.39-.56-1.34-.74-1.79-1C69.18,138.91,68.55,139.88,68.6,140.8Z"/><path class="cls-1" d="M84.73,66.92a3,3,0,0,0,2.51,1.48c1.17.17,1.84-.55,2.35-1.5.91-1.69.58-6.62-.65-8a4.74,4.74,0,0,0-1.39-.79,2.75,2.75,0,0,0-2.82,1.17C83.31,61.81,83.75,64.43,84.73,66.92Z"/><path class="cls-1" d="M83.55,146.15a2.67,2.67,0,0,0-2.75-1.91c-1.35.15-1.92,1.38-2.16,2.57a5.64,5.64,0,0,0,.22,2.34c.63,2.51,1.32,5,2.33,8.75,1.24-2.5,2.16-3.81,2.53-5.25A10.19,10.19,0,0,0,83.55,146.15Z"/><path class="cls-1" d="M61.19,118.89c0,.05-.07.11-.11.16a2.18,2.18,0,0,0,.24,0Z"/><path class="cls-1" d="M60.94,124a15,15,0,0,0-.45-2.36,3,3,0,0,1,.58-2.63,1.58,1.58,0,0,1-1.37-.44c-.81-.79-1.33-2.37-2.76-1.79A4,4,0,0,0,54.53,120a19.18,19.18,0,0,0,0,4.78c.25,1.79,2.06,2.88,4.07,2.77C60.11,127.51,61.1,126.06,60.94,124Z"/><path class="cls-1" d="M148.13,161.3c-.08-1.82.17-3.61-.5-5.35-.45-1.16-.83-2.25-2.42-2-1.33.19-2.4.91-2.44,2.2-.09,3.16,0,6.36,2.31,8.92a.87.87,0,0,0,1.47-.06C147.28,163.83,148.32,162.8,148.13,161.3Z"/><path class="cls-1" d="M56.39,131.58a3,3,0,0,0-3-3c-1.34,0-2.27,1.1-2.27,2.91,0,3.17.13,6.33,2.78,9.46a12,12,0,0,1,.93-1.95C56.52,136.74,56.45,134.14,56.39,131.58Z"/><path class="cls-1" d="M228.57,54.81c.24-2.31-1.22-4.18-1.83-6.28-.12-.42-.9-.65-1.21-.85a3,3,0,0,0-3.36,2.88c0,2.15,1.3,3.77,2.1,5.58.56,1.27,2.06,1.19,3.19,1.08C228.88,57.07,228.48,55.69,228.57,54.81Z"/><path class="cls-1" d="M224.16,133.09a2.53,2.53,0,0,0-1.68,2.81,11,11,0,0,0,1.64,4.41c1,2,2.92,1.74,4.61,2,.53.07.94-.58.82-1.54.55-2.67-1.73-4.43-2.91-6.65A1.87,1.87,0,0,0,224.16,133.09Z"/><path class="cls-1" d="M88.5,149.89a26.11,26.11,0,0,0,2.06,7.79c3.24-2.31,3.09-5.18,3.06-7.95,0-2.27-1.52-4-3.05-3.71C89.31,146.23,88.25,148,88.5,149.89Z"/><path class="cls-1" d="M233.79,120.79a2.17,2.17,0,0,0-2.46-1.25,2.81,2.81,0,0,0-2.34,2.37c-.37,1.48.76,2.63.84,4,.16,2.89,1.77,4.26,4.56,4.42.94.27,2.07.13,2.67,1.15a20.58,20.58,0,0,1,1.75,3.18c.78,2.12,2.67,2.24,4.39,2.72s2.45-1.16,3.63-1.77-.34-1.74-.19-2.58c.49-2.88-2.19-3.68-3.48-5.29-3.94-4.94-4.05-4.85-8.31-.09C235.78,125.18,234.65,123,233.79,120.79Z"/><path class="cls-1" d="M79,57.1A1.22,1.22,0,0,0,80.15,57c.38-.37.86-1,.77-1.42-.55-2.53-1.21-5-1.9-7.53a1.84,1.84,0,0,0-1-1.16c-2.22-.29-3.21.45-3.39,1.8A8,8,0,0,0,79,57.1Z"/><path class="cls-1" d="M273.2,126.92c-.92,3.27,1.19,5.24,3,7.34a2.24,2.24,0,0,0,1.42.78c.7,0,.81-.74,1.05-1.51-.17-2.35.43-5-1.21-7.33-.59-.85-1.22-1.61-2.4-1.33A2.5,2.5,0,0,0,273.2,126.92Z"/><path class="cls-1" d="M155.17,172.42c0-.2.05-.4.07-.55.52-2.32.39-4.46-1.39-6.2a2.13,2.13,0,0,0-2.23-.45,1.76,1.76,0,0,0-1.4,1.74,35.23,35.23,0,0,0,.9,5.9c.41,1.6,2.13,2.58,3.14,2.15C155.53,174.48,155.08,173.36,155.17,172.42Z"/><path class="cls-1" d="M311.12,95.73a2.06,2.06,0,0,0-1.61,2.14c-.24,3.68.92,6.67,4.21,9.46.29-1.13.43-1.91.7-2.66,1-2.92.1-5.52-1.31-8A1.66,1.66,0,0,0,311.12,95.73Z"/><path class="cls-1" d="M337.82,90.24c-1.44-.19-3,1.12-2.61,2.11,1,2.47.88,5.59,3.83,7,.66.31,1.3,1.3,2.07.57a3.33,3.33,0,0,0,.93-2.1,8.93,8.93,0,0,0-2.92-6.91A3.94,3.94,0,0,0,337.82,90.24Z"/><path class="cls-1" d="M352.48,118.21a5.48,5.48,0,0,0-1.51-.13,2.1,2.1,0,0,0-1.82,2.82c1.06,2.12,2.36,4.13,3.61,6.15a2.18,2.18,0,0,0,1,.62,1.32,1.32,0,0,0,2-.67C356.87,124.28,355.09,119.44,352.48,118.21Z"/><path class="cls-1" d="M233.25,143.23c-.14.59-.23,1.19-.33,1.69a9.52,9.52,0,0,0,1.87,6.89,3.06,3.06,0,0,0,3.28.87,2.81,2.81,0,0,0,1-3.15c-.46-1.32-1-2.61-1.39-4a5.76,5.76,0,0,0-2.12-2.85C234.62,141.91,233.5,142.15,233.25,143.23Z"/><path class="cls-1" d="M31.87,98.1c.55-1.46,1.88-2.64,1.6-4.35a7.71,7.71,0,0,0-1-4.64A2.34,2.34,0,0,0,29.9,88a2.08,2.08,0,0,0-1.53,1.69A11,11,0,0,0,30,98.17,1,1,0,0,0,31.87,98.1Z"/><path class="cls-1" d="M303.91,83.42c-.11,2-.29,4,1.69,5.33,1,.65.79,2.21,2.29,2.83a20.14,20.14,0,0,0,1.25-4.36,12.91,12.91,0,0,0-.82-4.05,2.23,2.23,0,0,0-2.66-1.8A2,2,0,0,0,303.91,83.42Z"/><path class="cls-1" d="M367.38,35.16a15.79,15.79,0,0,0,.88-2.94c-.28-1.26-.68-3.17-1.15-5.06a2.6,2.6,0,0,0-.7-.95,2.7,2.7,0,0,0-3.27-.34,2.22,2.22,0,0,0-.86,2.63,21.11,21.11,0,0,0,3.63,6.76A.9.9,0,0,0,367.38,35.16Z"/><path class="cls-1" d="M40.26,53.91c.49,2.64,1.49,5,4,6.35,2.44-3.11,1.75-6.28.48-9.44-.5-1.24-2.75-1.36-3.65-.3A3.93,3.93,0,0,0,40.26,53.91Z"/><path class="cls-1" d="M372.15,95.85c1.86-3.37,1.13-6.06-.86-8.58a3,3,0,0,0-3.73-.95c-.77.32-1.46,1-1.09,1.85C367.73,91,368.34,94.28,372.15,95.85Z"/><path class="cls-1" d="M44.74,70.06c-1.26,3.82.3,6.5,4,8.88a19.47,19.47,0,0,1,.61-2.23c1.19-2.78,0-5.07-1.51-7.26a1.63,1.63,0,0,0-2.07-.72A2.47,2.47,0,0,0,44.74,70.06Z"/><path class="cls-1" d="M166,41.12c.4.46,1.78,0,2-.71s.3-1.13.44-1.7c.44-2.51-1-4.22-2.4-6a1.87,1.87,0,0,0-2.09-.8c-1.17.37-1.37,1.41-1.41,2.41C162.39,37.25,164.24,39.17,166,41.12Z"/><path class="cls-1" d="M351.32,95.49a3.89,3.89,0,0,0-1.26,1.19,3.25,3.25,0,0,0-.28,1.16c-.19,2.55.27,4.74,2.83,6.07a1.89,1.89,0,0,0,2.62-.42c.69-.76,1.31-1.53.53-2.61-1.16-1.62-2.26-3.28-3.45-4.88C352.11,95.71,351.52,95.39,351.32,95.49Z"/><path class="cls-1" d="M100.68,154.58c.47-1.87,1-3.6,1.32-5.35a5.29,5.29,0,0,0-1.36-4.44,2.28,2.28,0,0,0-2.2-.66,1.57,1.57,0,0,0-1.49,1.62C97.48,148.9,97.14,152.48,100.68,154.58Z"/><path class="cls-1" d="M322.46,97.4a7.22,7.22,0,0,0,.47-1.37,32.94,32.94,0,0,1-.41-3.34,7.47,7.47,0,0,0-1.26-4,1.83,1.83,0,0,0-2.11-.74,1.77,1.77,0,0,0-1.4,1.69,9.74,9.74,0,0,0,2.81,8.26,1.26,1.26,0,0,0,1.06.25A1.75,1.75,0,0,0,322.46,97.4Z"/><path class="cls-1" d="M147.53,38.55a7.13,7.13,0,0,0,3.11,6.71c1.15.78,2.1.34,2.68-1.09,1.15-2.84-.88-4.88-1.73-7.2-.13-.35-1-.43-1.34-.55C148.6,36.49,147.58,37.3,147.53,38.55Z"/><path class="cls-1" d="M29.78,63a15.77,15.77,0,0,0,.35-5.94,2.6,2.6,0,0,0-2.63-2,2.34,2.34,0,0,0-2.14,1.82c-1,3.36.42,6.09,2.49,9.76C28.3,64.67,28.8,63.61,29.78,63Z"/><path class="cls-1" d="M29.78,63c.13.15.23.37.4.45l0,0c-.1-.2-.23-.43-.3-.62-.05,0-.09.08-.14.11V63Z"/><path class="cls-1" d="M365.58,107.89a1,1,0,0,0-1.46.61,10.92,10.92,0,0,0-.33,1.15,11.07,11.07,0,0,0,1.93,7.43,1.68,1.68,0,0,0,2.61-.13C369.56,114.43,368,109.08,365.58,107.89Z"/><path class="cls-1" d="M25.69,78.05a2.52,2.52,0,0,0-2.76-1.89c-1.3,0-1.61,1-1.8,2a8.58,8.58,0,0,0,2.68,8.44C26.86,84.09,26.25,81,25.69,78.05Z"/><path class="cls-1" d="M358.44,149.88c.18-2.92-.29-5.57-2.84-7.44-.76-.56-2.35-.32-2.58.45a6.57,6.57,0,0,0,4.05,7.68A1.06,1.06,0,0,0,358.44,149.88Z"/><path class="cls-1" d="M341.28,66.75c-.07,3.2,2,5,4.17,6.71,2.1-2.51,2-5.16.61-7.84a2.44,2.44,0,0,0-2.92-1.55A2.42,2.42,0,0,0,341.28,66.75Z"/><path class="cls-1" d="M19.79,67a6.27,6.27,0,0,0-.72-3.24,1.7,1.7,0,0,0-1.21-1.17,1.4,1.4,0,0,0-1.49.76c-2.08,2.89-.7,5.69.27,8.48.07.2,1,.36,1,.32C18.31,70.54,19.72,69.21,19.79,67Z"/><path class="cls-1" d="M312.9,117.4c-.43.22-.61.92-.7,1.06-.74,3.31.72,5.32,2.8,7,.45.37,1.08.65,1.59.2a2.79,2.79,0,0,0,.89-1.41c.5-2.59-.76-4.53-2.5-6.27A1.78,1.78,0,0,0,312.9,117.4Z"/><path class="cls-1" d="M289.9,51.87a2.8,2.8,0,0,0-1,.36,3.32,3.32,0,0,0-.57,3.71,23.33,23.33,0,0,0,1.55,2.53,2.35,2.35,0,0,0,1.4.95c.86.07,1.4-.66,1.69-1.39A4.76,4.76,0,0,0,289.9,51.87Z"/><path class="cls-1" d="M346.06,83.58a5.37,5.37,0,0,0-1,1.49c.34,1.75.07,3.71,1.2,5.18.67.87,2.08,1.91,2.93,1.74,1.5-.3.72-2,.7-3.06,0-1.89-1.42-3.29-2.31-4.85A1.06,1.06,0,0,0,346.06,83.58Z"/><path class="cls-1" d="M205,136c-.32.22-.8.36-.95.67-1.17,2.49-1.46,5,.25,7.39a1.78,1.78,0,0,0,2,.85,2.19,2.19,0,0,0,1.5-1.73c.49-2.54-.52-4.73-1.78-6.82C205.91,136.09,205.35,136.09,205,136Z"/><path class="cls-1" d="M86.93,139.66c.19.85.61,1.6,1.5,1.48a2.16,2.16,0,0,0,1.65-1.58c.19-.56.36-1.13.47-1.48a9,9,0,0,0-1.07-5.37,1.52,1.52,0,0,0-2.48,0C85.31,135.07,86.43,137.35,86.93,139.66Z"/><path class="cls-1" d="M60.89,150.42c.17-1.49-.43-3.08-.78-4.61-.13-.57-.58-1.13-1.25-1a2.7,2.7,0,0,0-1.36.91,15.07,15.07,0,0,0-1.16,2.13c.19,1,.33,1.94.59,2.88.34,1.26.3,3.27,2,3C59.78,153.64,60.75,151.65,60.89,150.42Z"/><path class="cls-1" d="M365.91,130c-.27,3.18.22,4.1,2.75,5.42,1.15.6,1.71.18,2-1.08.49-2.36-1.12-3.67-2.38-5.15-.33-.39-.79-1.08-1.44-.44A7.56,7.56,0,0,0,365.91,130Z"/><path class="cls-1" d="M67.34,158.13a.93.93,0,0,0-1.53,0c-1.95,2.5-2,4.28-.18,7,.33.49.63,1,1,1.55,1.24-1.3,1.29-3,1.73-4.49A4.76,4.76,0,0,0,67.34,158.13Z"/><path class="cls-1" d="M337.39,159.56a22.92,22.92,0,0,0-2-2.94c-.37-.51-.92-.84-1.43-.36a6.68,6.68,0,0,0-.94,1.61,24,24,0,0,0,.74,3.4c.45,1.24,3.32,2.81,3.71,2.19A3.9,3.9,0,0,0,337.39,159.56Z"/><path class="cls-1" d="M212.44,138.94a5.11,5.11,0,0,0,1,4.42,1.71,1.71,0,0,0,2.1.59,4.6,4.6,0,0,0,1.16-1,6.81,6.81,0,0,0-.94-4.63,1.9,1.9,0,0,0-1.91-1.06C212.87,137.37,212.65,138.21,212.44,138.94Z"/><path class="cls-1" d="M338.18,147.54c0-2-.18-4-2.11-5.19a2.11,2.11,0,0,0-1.65-.3c-.43.19-.62.92-.78,1.19-.46,2.63,1.07,3.9,2.67,5.12C336.84,148.76,338.16,148.17,338.18,147.54Z"/><path class="cls-1" d="M322.06,102.4c-1.11,3-.59,4.37,2.24,6.36.45.32.85.7,1.92,1.59a51,51,0,0,1-.77-5.12A6.12,6.12,0,0,0,324,102a1.15,1.15,0,0,0-1-.3A1.37,1.37,0,0,0,322.06,102.4Z"/><path class="cls-1" d="M296.43,134.1a3.33,3.33,0,0,0,.39,3.4,23.1,23.1,0,0,0,2.55,2.45c.2.17.72,0,1.07-.09a.61.61,0,0,0,.3-.49,19.92,19.92,0,0,0-.31-4.12c-.31-1.17-1.39-1.84-3-2.08C297,133,296.59,133.56,296.43,134.1Z"/><path class="cls-1" d="M362,53.14c-.25,2.83,1.88,3.49,4.33,4.45-.25-1.79-.35-3.34-.7-4.83a2.58,2.58,0,0,0-2.66-2C361.72,50.85,362.11,52.24,362,53.14Z"/><path class="cls-1" d="M96.51,132.9c-1,2.52-.1,4.7,2,8,.63-3.33,1.66-5.27,1.26-7.54-.15-.83-.64-1.67-1.42-1.77A1.88,1.88,0,0,0,96.51,132.9Z"/><path class="cls-1" d="M338,135.57a7.85,7.85,0,0,0-3.35-6c-.13-.1-.37,0-.57-.05-.2.26-.59.52-.62.82-.28,2.9,1.22,5.26,3.76,5.9C337.39,136.25,338,135.77,338,135.57Z"/><path class="cls-1" d="M71.38,135.35c-.05-2,0-3.7-.21-5.37,0-.37-.88-.79-1.42-.94-.78-.21-.87.53-1,1.06C68,132.41,69.2,133.85,71.38,135.35Z"/><path class="cls-1" d="M29.44,48.43c.49-1.3.11-2.62-.14-4.36a7.66,7.66,0,0,0-2.83,4.54c-.12.71.52,1,1.14,1A1.85,1.85,0,0,0,29.44,48.43Z"/><path class="cls-1" d="M332.14,97.78c-.44,1.34.42,2.3.68,3.34.13.53.43,1.09,1.08.66.22-.14.29-.71.24-1.05A4.14,4.14,0,0,0,332.14,97.78Z"/><path class="cls-1" d="M177.19,39.17l0,.05a.39.39,0,0,1,.09-.1Z"/><path class="cls-1" d="M177.22,39.22c-.13.16,0,.32.06.22l.06-.05A.37.37,0,0,1,177.22,39.22Z"/><path class="cls-1" d="M177.34,39.39c.17.09.27-.23,0,0Z"/></svg>