<?xml version="1.0" standalone="no"?>
<!DOCTYPE svg PUBLIC "-//W3C//DTD SVG 20010904//EN"
 "http://www.w3.org/TR/2001/REC-SVG-20010904/DTD/svg10.dtd">
<svg version="1.0" xmlns="http://www.w3.org/2000/svg"
 width="800.000000pt" height="800.000000pt" viewBox="0 0 800.000000 800.000000"
 preserveAspectRatio="xMidYMid meet">
<metadata>
Created by potrace 1.11, written by Peter Selinger 2001-2013
</metadata>
<g transform="translate(0.000000,800.000000) scale(0.100000,-0.100000)"
fill="#000000" stroke="none">
<path d="M0 4000 l0 -4000 4000 0 4000 0 0 4000 0 4000 -4000 0 -4000 0 0
-4000z m2623 2605 c428 -75 779 -402 894 -832 23 -88 26 -116 26 -273 1 -157
-2 -185 -25 -271 -36 -133 -78 -229 -146 -335 -173 -267 -457 -455 -764 -504
-124 -20 -360 -8 -477 24 -628 174 -979 837 -768 1451 104 301 347 557 640
675 74 29 198 64 262 73 75 10 279 6 358 -8z m2835 -679 c40 -21 579 -567 587
-594 4 -13 4 -40 0 -60 -6 -33 -202 -232 -1673 -1704 -1218 -1218 -1677 -1672
-1705 -1683 -30 -12 -46 -14 -71 -5 -43 14 -602 574 -611 613 -4 15 -4 39 -1
55 5 18 532 552 1689 1710 1645 1645 1683 1682 1720 1682 21 0 50 -6 65 -14z
m427 -2520 c368 -96 676 -386 789 -742 43 -136 51 -192 50 -354 0 -125 -4
-172 -22 -243 -138 -556 -643 -920 -1203 -867 -620 59 -1081 625 -1010 1240
58 497 426 892 918 985 123 23 351 14 478 -19z"/>
<path d="M2299 5965 c-77 -21 -140 -57 -206 -119 -191 -178 -202 -481 -22
-671 102 -108 211 -155 356 -155 187 1 347 99 428 265 135 276 -13 602 -310
681 -62 17 -185 16 -246 -1z"/>
<path d="M5481 2784 c-362 -97 -478 -552 -207 -812 178 -172 434 -184 633 -30
60 46 132 148 157 223 88 265 -68 549 -341 620 -71 19 -171 18 -242 -1z"/>
</g>
</svg>
