<svg id="Layer_1" data-name="Layer 1" xmlns="http://www.w3.org/2000/svg" viewBox="0 0 216 113.33"><defs><style>.cls-1{fill:#cceaff;}.cls-2{fill:#fcc949;}.cls-3{fill:#406c84;}.cls-4{fill:#0098ff;}</style></defs><title>Artboard 12 copy</title><path class="cls-1" d="M72.68,93.68a17.48,17.48,0,0,0,4-.12A1.64,1.64,0,0,0,77.85,93a1.29,1.29,0,0,0,.4-1,15.4,15.4,0,0,0-.14-3.42.78.78,0,0,0,0-1,1,1,0,0,0-.54-.85.61.61,0,0,0-.42-.62c-.19-.51-.73-.78-1.56-.65a12.56,12.56,0,0,0-3.89.82c-1.54.31-1.68.39-1.7,1.14a4.88,4.88,0,0,0,.15.91,34,34,0,0,1,.08,3.59C70.1,93,70.57,93.51,72.68,93.68Z"/><path class="cls-1" d="M61.2,97.21a6,6,0,0,0-.48-3.5c-.61-1.15-2-1.64-3.93-1.47a16.64,16.64,0,0,0-2.53.47c-.86.21-1.33.67-1.28,1.21a16.43,16.43,0,0,0,.36,1.73l-.15,0c.18.62.4,1.23.53,1.85s.76,1,1.71,1.06a13.68,13.68,0,0,0,4.26-.31C60.66,98,61.15,97.78,61.2,97.21Z"/><path class="cls-1" d="M69.68,84.13a4.78,4.78,0,0,0,0-.65c-.13-2.6-.22-5.2-.4-7.79a15.9,15.9,0,0,0-.51-2.36C69,72.1,68,71.21,67.49,70.2c-.19-.39-1-.44-1.75-.18-1.19.42-2.35.91-3.54,1.33-1.82.64-1.84.63-1.7,1.79a6.33,6.33,0,0,0,.25.93,9.88,9.88,0,0,0,.4,2.88c-.2.26-.18.48.08.66.1,1.84.15,3.68.32,5.51a7.73,7.73,0,0,0,.63,2.16c.34.84,1.27,1.23,2.73,1.09.68-.06,1.36-.12,2-.21C68.69,85.94,69.58,85.27,69.68,84.13Z"/><path class="cls-1" d="M39.74,83.7c-.2-2.31-.4-4.63-.54-6.95,0-.63-.14-1.23-1.07-1.42a15.06,15.06,0,0,0-5.63-.11c-.94.16-1.4.53-1.47,1.11a1.37,1.37,0,0,0,.18,1.1A2.26,2.26,0,0,1,31.64,79c0,2.48,1,4.71,1.64,7a2.46,2.46,0,0,0,.35.74c.76,1.13,2.39,1.56,4.43,1.14.83-.17,1.64-.42,2.82-.73A5.89,5.89,0,0,1,39.74,83.7Z"/><path class="cls-1" d="M27.74,88.21a1.24,1.24,0,0,0,.55-1.11,26,26,0,0,0-.36-6.27,1.94,1.94,0,0,0-.18-1.66.47.47,0,0,0-.26-.56,7.21,7.21,0,0,0-3.89-.83,4.44,4.44,0,0,0-1.91,0c-2.89.51-2.5.58-2.39,2a8.38,8.38,0,0,0,.4,1.53l.67,6.15c-.24.27-.38.52.12.64.24.71,1.21.87,2.13.89a13,13,0,0,0,3.89-.24A.91.91,0,0,0,27.74,88.21Z"/><path class="cls-1" d="M124,27.89a2,2,0,0,0,2.38,1.37,13.34,13.34,0,0,0,4.26-.83c.87-.36,1.09-.54,1-1.09-.33-2.35-.7-4.69-1-7-.05-.4-.42-.65-.61-1L122.4,21c0,.11,0,.22,0,.32A40,40,0,0,0,124,27.89Z"/><path class="cls-1" d="M169.19,16.57c-.51,2.88-1.08,5.77-1.48,8.65a34.89,34.89,0,0,0-.1,4.29c.17.54.68.89,1.61.88s1.85,0,2.78-.13c2.17-.21,2.94-.87,2.64-2.21a.78.78,0,0,0-.16-.29,2,2,0,0,1-.15-1.74c.45-2.33.83-4.65,1.27-7,.17-.92-.06-1.85.86-2.78.1-.1,0-.33-.09-.43a2.38,2.38,0,0,0-1.47-.66,16,16,0,0,0-3.73,0C169.69,15.43,169.35,15.64,169.19,16.57Z"/><path class="cls-1" d="M100.66,92.35a11.17,11.17,0,0,0,.39-2.81c.09-2.46.07-4.91.32-7.39.1-1-.62-1.43-1.77-1.71a12.67,12.67,0,0,0-4.41-.09c-1.1.13-1.6.48-1.61,1.17,0,2.46,0,4.91,0,7.36,0,.92.07,1.84.12,3.08-.12.76.88,1.2,2.28,1.28a10.76,10.76,0,0,0,3.73-.15C100.23,92.91,100.54,92.76,100.66,92.35Z"/><path class="cls-1" d="M112.28,93.74a10.37,10.37,0,0,0,.92-3.65c.15-1.86.76-3.76.63-5.61a1.72,1.72,0,0,0,0-1.68c0-.29-.08-.5-.46-.63a10.06,10.06,0,0,0-4-.69,3.75,3.75,0,0,0-1.93-.05c-1.78.25-2.06.48-2.07,1.59a1.75,1.75,0,0,0,.27,1.25,2.7,2.7,0,0,0-.1,1.66c-.26.36-.4.71-.19,1-.54,2.08-.11,4,.14,6a1.46,1.46,0,0,0,1,1.15,11,11,0,0,0,4.16.59A1.46,1.46,0,0,0,112.28,93.74Z"/><path class="cls-1" d="M100.52,76.73c1.73-.38,1.92-.52,2.08-1.32.55-2.83.57-5.62.84-8.42.05-.57-.27-.92-.9-1.16A12.27,12.27,0,0,0,96,65.54c-.75.13-1.06.38-1.14.86a2.85,2.85,0,0,0-.07,1A33.75,33.75,0,0,1,95,74.07a10.24,10.24,0,0,0,0,1.15,1.42,1.42,0,0,0,1.17,1.24A10,10,0,0,0,100.52,76.73Z"/><path class="cls-1" d="M130.48,41.95a11.63,11.63,0,0,0-4.87-.1c-1.18.15-1.85.69-2,1.47a20.09,20.09,0,0,0-.29,6.91,5.2,5.2,0,0,1,.41,1.39c0,1.22,1.23,1.53,2.81,1.63a31,31,0,0,0,3.54-.23,1.16,1.16,0,0,0,.94-.6,2,2,0,0,0,.25-.83,28.47,28.47,0,0,0,.14-4.6,6.16,6.16,0,0,1,.3-3.42C132.06,42.79,131.48,42.26,130.48,41.95Z"/><path class="cls-1" d="M90.51,90.32a3.64,3.64,0,0,0-.28-1.75,1.49,1.49,0,0,0,.19-2.05c-.17-.89.4-1.87,0-2.73a7.31,7.31,0,0,0,.09-4.59c0-.09-.17-.16-.25-.24-.32-.89-.59-1.1-1.6-.93a29.32,29.32,0,0,0-5.23,1.11c-.35.1-.64.22-.69.49a1.61,1.61,0,0,0,.12,1.27,24.16,24.16,0,0,0,.83,9.19c.36,1.23,1.27,2,3.37,1.87.25,0,.49,0,.74,0C90.31,92,90.44,91.9,90.51,90.32Z"/><path class="cls-1" d="M164.1,32.63c.12-.54.3-1.1-.08-1.6a2.06,2.06,0,0,1-.23-1.59c.21-1.71.45-3.43.66-5.14.08-.61.14-1.21.16-1.82s-.33-.76-1.08-.85a15.56,15.56,0,0,0-4.25.1c-1,.16-1.52.52-1.64,1.22,0,.22,0,.44,0,.66-.45,2.79,0,5.46,0,8.19a9.81,9.81,0,0,0,0,1c.07.71.55,1.18,1.68,1.26A5.78,5.78,0,0,0,162,34C163.47,33.7,163.92,33.42,164.1,32.63Z"/><path class="cls-1" d="M139.62,25.73a11,11,0,0,0-5.85,1.1c-.78.14-1.2.5-1.23,1a6.15,6.15,0,0,0,.16,1.22,30.08,30.08,0,0,0,.58,5.81c.25,1.22.8,1.54,2.68,1.46a13.48,13.48,0,0,0,4.26-.79c1.05-.4,1.36-.73,1.13-1.39a2,2,0,0,1-.16-1.27,4.33,4.33,0,0,0-.27-2.73c.38-.27.58-.56.48-.88s-.15-.9-.63-1.23l.09-.07-.06-.07a.84.84,0,0,0,0-1C140.86,26,140.67,25.77,139.62,25.73Z"/><path class="cls-1" d="M153.69,37.49a14.73,14.73,0,0,0-.32-4,3.09,3.09,0,0,1-.15-1.61c.3-.87-.31-1.13-1.28-1.39a10.85,10.85,0,0,0-5.41.24c-1,.25-1.39.65-1.31,1.35a10.56,10.56,0,0,0,.23,1.11c.43,1.72,1.07,3.39,1.47,5.12.22,1,1,1.27,2.58,1.19a15.39,15.39,0,0,0,2.29-.29C153.05,38.91,153.63,38.35,153.69,37.49Z"/><path class="cls-1" d="M152.33,55.72c-.07-.14-.18-.32-.11-.46.74-1.56.45-3.07.83-4.62a2,2,0,0,0-.07-1.45,3.16,3.16,0,0,0-.18-2.72c-.28-.6-.62-.67-1.61-.62a16.19,16.19,0,0,0-4.22,1,2.84,2.84,0,0,0-1.2.71c-.45.45-.57.85-.29,1.26a20.49,20.49,0,0,0-.52,3.8,12.93,12.93,0,0,0,.16,3.25c0,.49.4.77,1,.95a10.34,10.34,0,0,0,5.38-.13C152,56.56,152.56,56.19,152.33,55.72Z"/><path class="cls-1" d="M143.12,17.9a5.54,5.54,0,0,0,.47,2.54,13.75,13.75,0,0,1,.49,1.3c0,.41,0,.57,0,.73.15,1,.6,1.3,2.09,1.28a18.77,18.77,0,0,0,3.56-.39c1.64-.35,2.05-.69,1.9-1.74a20.41,20.41,0,0,1-.47-4.35c0-.61-.44-1-1.26-1.14a6.16,6.16,0,0,0-2.42-.14c-.93.16-1.87.31-2.8.51C143.55,16.74,143.14,17.09,143.12,17.9Z"/><path class="cls-1" d="M125.49,98.33a3.33,3.33,0,0,0,.06-.81c.92-2,.68-3.95,1.17-5.93.08-.3-.2-.48-.47-.66-1.67-1.09-3.9-1.13-6.37-.67-.91.17-1.56.63-1.69,1.26a4.11,4.11,0,0,0,0,1,3.24,3.24,0,0,0-.27,1.81c-.06.82-.14,1.64-.23,2.47,0,.33-.12.66-.15,1-.05.54.3.89,1,1.08a17.37,17.37,0,0,0,5.85.21A1.12,1.12,0,0,0,125.49,98.33Z"/><path class="cls-1" d="M116.48,77.22c0-.48.06-1.07-.52-1.33a5.62,5.62,0,0,0-3.48-.38,1.68,1.68,0,0,0-1.41,1c-.23,1.05-.45,2.11-.61,3.16-.06.42.27.68.94.74a10.78,10.78,0,0,0,1.73,0,11.82,11.82,0,0,0,2.93-.82c1.31-.43,1.31-.44,1.23-1.27a3.15,3.15,0,0,0-.11-.46C116.6,77.84,116.51,77.55,116.48,77.22Z"/><path class="cls-1" d="M172.87,41.77a2.63,2.63,0,0,0,0,.49q-1.3,4.76-2.6,9.51a3.82,3.82,0,0,0-.1.83c0,.75.55,1.15,1.6,1.3a19.63,19.63,0,0,0,4-.15,1.67,1.67,0,0,0,.87-.4,2.36,2.36,0,0,0,1-1.25c.24-.83.52-1.67.75-2.5a4.08,4.08,0,0,0,.34-1.82,4.23,4.23,0,0,1,.17-2c.23-1,.48-2,.72-3,.25-.71.52-1.43.73-2.14.15-.5-.13-.87-.78-1a18,18,0,0,0-2.83-.29C174.06,39.43,173.24,40,172.87,41.77Z"/><path class="cls-1" d="M163.91,37.63a2.47,2.47,0,0,0-2,1,3,3,0,0,0-.56,1.79,47.31,47.31,0,0,0-1.48,11.26,6.63,6.63,0,0,0,0,1c.11.75.69,1.18,1.79,1.41a8.24,8.24,0,0,0,3.81-.27,3.3,3.3,0,0,1,.62-2.06H166a33.14,33.14,0,0,1,.66-4.4c.24-2.07.85-4.18,1.3-6.27.11-.49.17-1,.26-1.48a8.83,8.83,0,0,0,.41-1c.16-.56-.05-.78-.87-.89A22.08,22.08,0,0,0,163.91,37.63Z"/><path class="cls-1" d="M177.66,18.25a5.44,5.44,0,0,0-.94,3.89,27.13,27.13,0,0,0-1.16,8.26c0,.53.42.89,1.17,1a11.76,11.76,0,0,0,1.66.19c2.9.11,3.37-.58,3.64-2,.55-2.77,1-5.54,1.57-8.3a2.05,2.05,0,0,0,.1-2h0c.14-.32.3-.64.41-1a.83.83,0,0,0-.41-1,1.81,1.81,0,0,0-1.31-.17,6.34,6.34,0,0,0-3.85.39A1.57,1.57,0,0,0,177.66,18.25Z"/><path class="cls-1" d="M184.19,41.12a2.14,2.14,0,0,0-.17.33c-1,3.34-1.06,6.65-2.13,10a.75.75,0,0,0,0,.17c-.06.75.46,1.18,1.61,1.24a12.47,12.47,0,0,0,2.51-.12,8.2,8.2,0,0,0,2.91-1.27,7.21,7.21,0,0,0,4,.61c1.89-.05,2.65-.5,3.18-1.75.33-.78.62-1.56.86-2.34.68-2.22,1.57-4.45,1.6-6.66a1.23,1.23,0,0,0,.15-1.36c.09-.46.18-.92-.36-1.23-.1-.33-.4-.47-1-.35a4.86,4.86,0,0,0-2.18-.29,5.06,5.06,0,0,0-3.12.52,3.29,3.29,0,0,1-1.42.41c-.3-.48-.88-.67-1.75-.58a6.64,6.64,0,0,0-4,.55Z"/><path class="cls-1" d="M186.88,21.06a3.44,3.44,0,0,0-.7,1.74c0,.6,0,1.19,0,1.79-.23,2.36-.5,4.73-.75,7.1-.09.9.3,1.26,1.54,1.48a12.31,12.31,0,0,0,4.48-.35c.57-.11,1.13-.5,1.19-.92a12.83,12.83,0,0,0,.35-3.46,11,11,0,0,1,0-2.59c.15-1.32.22-2.62.32-3.94.13-.46.83-1,.2-1.36-.08-.19-.11-.41-.45-.47a8.72,8.72,0,0,0-4.54.24A1.91,1.91,0,0,0,186.88,21.06Z"/><path class="cls-1" d="M109.66,65.34a3.32,3.32,0,0,0,.18.78c-.24,2,.35,3.88.24,5.87a.84.84,0,0,0,0,.16c.1.73.78,1.12,1.82,1.21a9.53,9.53,0,0,0,2.5,0c1.85-.34,2.85-.86,2.9-1.79.09-1.37.12-2.73.18-4.1a4.4,4.4,0,0,0,.07-2.65c0-.91-.76-1.24-2.12-1.19a16.54,16.54,0,0,0-4.43.66C109.71,64.69,109.66,64.71,109.66,65.34Z"/><path class="cls-1" d="M136.16,43.05c-.86.47-1.06,1.06-.85,1.67a11.36,11.36,0,0,0,.55,6.75,2.4,2.4,0,0,0,2,1.35,10.15,10.15,0,0,0,4-.09c.73-.15,1.4-.68,1.45-1.18a23.33,23.33,0,0,0,.09-4.91c-.09-.9-.55-1.79-.33-2.69s-.29-1.09-1.12-1.28a5.49,5.49,0,0,0-3.14,0A3.59,3.59,0,0,0,136.16,43.05Z"/><path class="cls-1" d="M121.22,76.47c-.63.15-1,.52-.82,1-.74,3.31-.16,6.43.23,9.58,0,.05,0,.1,0,.16.07.67.75,1,1.61,1.16a10.62,10.62,0,0,0,3.68.05c.91-.15,1.43-.5,1.5-1.07.14-1.27.26-2.53.39-3.8a14.38,14.38,0,0,0,.21-2.77,3.38,3.38,0,0,1,.3-2c.23-.45.44-.87.11-1.27a2,2,0,0,0-1.53-.82,2,2,0,0,0-1.61-.34A7,7,0,0,0,121.22,76.47Z"/><path class="cls-1" d="M117.22,77.79l0,.05h.06Z"/><path class="cls-1" d="M117,76.88l.2.91C117.53,77.48,117.57,77.2,117,76.88Z"/><path class="cls-1" d="M10.55,49.08a26,26,0,0,0,2.38,6.73c.78,1.67,2.5,1.71,5.45.89.76-.21,1.09-.66,1-1.14a8.16,8.16,0,0,1-.31-.92c-.28-3.18-1.13-6.27-1-9.52,0-.41-.2-.72-.74-.89-.35-.11-.67-.24-1-.37l-6.6,1.42C10,46.55,10.34,47.8,10.55,49.08Z"/><path class="cls-1" d="M86.83,36a2.29,2.29,0,0,0,1.73,1.32,10.1,10.1,0,0,0,4.9-.34,1.38,1.38,0,0,0,.87-.67A1.25,1.25,0,0,0,94.4,35a7.54,7.54,0,0,1-.64-3.14c-.18-1.55.18-3.19-.29-4.69l-7.62,1.64A14,14,0,0,0,86.83,36Z"/><path class="cls-1" d="M45.18,39.26a8.87,8.87,0,0,0,.58,1.67,2.18,2.18,0,0,0,1.92,1.16,14.48,14.48,0,0,0,4.48-.1c1-.18,1.62-.73,1.57-1.43a4.6,4.6,0,0,0-.23-1.43A15.79,15.79,0,0,1,52.85,36l-8.12,1.75C45.21,38.16,45.07,38.74,45.18,39.26Z"/><path class="cls-1" d="M101.56,31c.25,0,.51,0,.76,0,2.19-.3,2.48-.54,2.29-1.91-.06-.43-.17-.84-.24-1.27a10.53,10.53,0,0,1-.25-2.9l-7.62,1.64a6.57,6.57,0,0,1,1,2.4C97.86,31.28,97.91,31.27,101.56,31Z"/><path class="cls-1" d="M110,27.41c.12.67.67,1,1.62,1.1a11.54,11.54,0,0,0,4.49-.58c.39-.13.79-.42.67-.7-.46-1.1-.27-2.31-.47-3.46a1.78,1.78,0,0,0-1-1.28l-6.09,1.31C109.48,25,109.8,26.2,110,27.41Z"/><path class="cls-1" d="M55.67,86.33a9.79,9.79,0,0,0,0-2.78,33.55,33.55,0,0,1-.4-5.84A19.3,19.3,0,0,0,55,74.79a1.11,1.11,0,0,0-.49-.85c-.77-.43-.58-.7.39-1.08.5-.2.46-.6.45-.94-.07-1.41-.08-2.83-.22-4.23a10.43,10.43,0,0,0-.52-2,1.39,1.39,0,0,0-1.18-.86,15.81,15.81,0,0,0-5.66,0c-.82.13-1.32.67-1.19,1.2a10.25,10.25,0,0,0,.55,1.53,5.49,5.49,0,0,1,.51,1,13.61,13.61,0,0,0,1.94,4.39,5.61,5.61,0,0,1-1.87.61c-1.19.33-1.37.5-1.28,1.29A23.48,23.48,0,0,1,46.79,78a48.48,48.48,0,0,0,.91,7.56c.11.84.78,1.34,1.94,1.53a18.32,18.32,0,0,0,4.68.14C55.16,87.18,55.6,86.88,55.67,86.33Z"/><path class="cls-1" d="M72.24,76.35c.06.7.33,1.36.45,2,.07.42.43.64.95.78a11.56,11.56,0,0,0,5.09.15c1.18-.2,1.57-.38,1.64-1.08a4.43,4.43,0,0,0-.28-2.39c.19-.38.26-.73-.12-1a12.53,12.53,0,0,0-.5-4.17.69.69,0,0,1-.4-.41.7.7,0,0,0,.4.41.6.6,0,0,0-.22-.94A2,2,0,0,0,79,68.46c.25-.26.23-.48,0-.68,0-.63,0-1.26-.05-1.89a1.58,1.58,0,0,0-.76-1.54c.18-.44-.14-.57-.75-.5h0a1.91,1.91,0,0,0-1.6-.38h0a9.51,9.51,0,0,0-4.52.26,1,1,0,0,0-.77.67A2,2,0,0,0,70.71,66c.07.7.11,1.4.23,2.09C71.41,70.8,72,73.54,72.24,76.35Z"/><path class="cls-1" d="M128.85,70.2a2.12,2.12,0,0,0,.48-1.48c.29-3,.52-6,.83-9.07a1.38,1.38,0,0,0-1-1.46,9.34,9.34,0,0,0-4.41-.58c-2.42.26-3.18.8-3.36,2.39a4.56,4.56,0,0,0,0,.49c0,1.85-.08,3.71,0,5.55,0,1.3-.34,2.65,0,3.92s.62,1.56,2.71,1.63a12.83,12.83,0,0,0,1.49,0A5.06,5.06,0,0,0,128.85,70.2Z"/><path class="cls-1" d="M49,59.91a2.21,2.21,0,0,0,2,1.51,10.44,10.44,0,0,0,4.24-.2c.93-.25,1.24-.45,1.17-1-.13-1-.3-2-.51-3a26.69,26.69,0,0,1-.82-7.57,1.47,1.47,0,0,0-.2-.94c-.21-.31-.3-.72-.92-.82a13,13,0,0,0-5.37,0c-1.38.34-1.82.64-1.81,1.5,0,1.36.11,2.72.16,3.91.33,1.09.61,2,.89,3C48.2,57.43,48.59,58.67,49,59.91Z"/><path class="cls-1" d="M168.85,93.14c.79-1.37,1.72-2.74,1.69-4.13a5.16,5.16,0,0,1,.34-1.81c.95-2.78,1.87-5.56,2.8-8.34a2.29,2.29,0,0,0,.62-1.79,3.17,3.17,0,0,0,.69-1.81c.55-.5.44-1.09,1-1.6.3-.25.1-.6-.22-.7a7.38,7.38,0,0,0-3.92-.42c-1.62.31-1.86.4-2.3,1.46-.6,1.43-1.1,2.87-1.6,4.3a2.42,2.42,0,0,0,0,.8c-.24.55-.53,1.11-.71,1.66-.76,2.28-1.39,4.57-2.27,6.85a29.16,29.16,0,0,0-1.06,4.31.91.91,0,0,0,.47,1.16,7,7,0,0,0,3.68.48A1.06,1.06,0,0,0,168.85,93.14Z"/><path class="cls-1" d="M153.54,78.67a6.77,6.77,0,0,0-1.86-.6,6.45,6.45,0,0,0-1.73,0c-3.06.3-3,.06-3.52,2.25-.83,3.4-1.21,6.77-1.73,10.15a5.23,5.23,0,0,0,0,1.09c.49,1.94,1.28,2.34,3.82,2.26l.51,0c.76,0,1.1-.22,1.28-.72a4.26,4.26,0,0,0,.15-.82c.09-.55.13-1.11.28-1.66q1.37-5.26,2.79-10.52C153.64,79.57,154.18,79,153.54,78.67Z"/><path class="cls-1" d="M99.38,36.28a5.41,5.41,0,0,0,.32,2.08c.7,1.45.64,3,1,4.68.07.91.15,1.94.24,3s.85,1.62,2.43,1.73a10.48,10.48,0,0,0,3.78-.47c1-.29,1.32-.56,1.28-1.17a7.8,7.8,0,0,0-.28-1.26c-.09-.36-.34-.73-.24-1.09a5.68,5.68,0,0,0-.24-2.74,6.58,6.58,0,0,1-.1-2.27,8.47,8.47,0,0,0-.12-2.6c-.17-1-1-1.56-2.61-1.64a14.81,14.81,0,0,0-4,.44C99.84,35.15,99.35,35.63,99.38,36.28Z"/><path class="cls-1" d="M183.67,79.08a5.39,5.39,0,0,0-.2,1c-.32.25-.31.49-.13.71L182,85.35l-.94.4a5.21,5.21,0,0,0,.5-2.42l.13-.13-.08-.12c.38-.82-.2-1.19-1.22-1.35a14.62,14.62,0,0,0-4.62.11,1.17,1.17,0,0,0-1,.91c-.13.53-.18,1.06-.27,1.6a36,36,0,0,1-1.65,5.31c-.22.44-.41.88-.61,1.32a.62.62,0,0,0,.33.86,11.56,11.56,0,0,0,4.18.48,3.87,3.87,0,0,0,1.61-.63c.34-.29.72-.55,1.08-.83l.13.35-.07-.31,0-.1,0,.1.07.32c-.17.81.5,1.17,1.53,1.29a14.31,14.31,0,0,0,1.73,0,4.62,4.62,0,0,0,2.65-.65c.71-.51,1.58-1,1.5-1.78-.05-.51.42-1.1.61-1.65a21.76,21.76,0,0,0,1.53-4.65,2.19,2.19,0,0,0,.61-1.46c-.59.36-.9.55-1,.74.08-.19.38-.38,1-.74.28-.77.53-1.53.83-2.3.17-.44-.07-.77-.49-1a9.6,9.6,0,0,0-5.24-.68A1.32,1.32,0,0,0,183.67,79.08Zm-3.93,10.83h0l.08-.18Zm.38-.38a1.43,1.43,0,0,0,.33-.34A1.43,1.43,0,0,1,180.12,89.54Zm.29-1.42h0l.19-.25Z"/><path class="cls-1" d="M94.64,49.08a1.54,1.54,0,0,1-.16-1.27,10.4,10.4,0,0,0,0-4.23,11.74,11.74,0,0,1-.08-1.63c.05-.58-.35-.92-1.07-1.06a10.93,10.93,0,0,0-5.18.21c-.69.2-1,.5-1.06.93a3.11,3.11,0,0,0,.05.65,21.57,21.57,0,0,1,.11,6.52,12.72,12.72,0,0,0,0,2.46c0,1,.89,1.52,2.38,1.55a10,10,0,0,0,2-.1c2.14-.4,2.71-.75,3.13-2.11A1.93,1.93,0,0,0,94.64,49.08Z"/><path class="cls-1" d="M65,47.88a8.4,8.4,0,0,0-2,.24c-1.44.45-1.95.91-1.81,1.85s.36,1.76.54,2.64a9.17,9.17,0,0,0,0,1.8,18.69,18.69,0,0,1,.14,4.07c-.06,1.39,1,2,3.15,1.77.84-.11,1.69-.24,2.54-.33a2.93,2.93,0,0,0,2.7-1.74,5.83,5.83,0,0,0,.19-2c-.13-1.73-.32-3.44-.52-5.16a12.51,12.51,0,0,0-.35-1.57c-.27-1.07-1.29-1.56-3-1.5a1.84,1.84,0,0,0-1.08-.13Z"/><path class="cls-1" d="M140.7,74.65a6.37,6.37,0,0,1-1.06-.31,10.18,10.18,0,0,0-4.42,0c-.65.14-1.16.39-1.25.84-.33,1.55-.91,3.13-.66,4.63a5.51,5.51,0,0,1,0,1.95,4.91,4.91,0,0,0,.14,2.43,1.59,1.59,0,0,0,1.15,1.08,11.09,11.09,0,0,0,3.82.35c1.26-.07,1.85-.5,2-1.35.56-2.67,1.1-5.33,1.66-8C142.29,75.45,142.18,74.77,140.7,74.65Z"/><path class="cls-1" d="M44.23,70.37a9,9,0,0,0-.15-1.61c-.61-2.24-1.3-4.45-1.92-6.69-.21-.76-.89-1.16-2.06-1.23a11.41,11.41,0,0,0-1.74,0,11.88,11.88,0,0,0-2.79.52c-1,.36-1.47.84-1.36,1.54s.33,1.58.49,2.3a28.41,28.41,0,0,0,1.68,5c.34,1,1.23,1.67,2.84,1.76a20,20,0,0,0,3.28-.15C43.93,71.6,44.3,71.25,44.23,70.37Z"/><path class="cls-1" d="M166.39,73.94c1.15-.29,1.39-.48,1.54-1.27a4.22,4.22,0,0,0,0-.5,36.8,36.8,0,0,1,1.15-6.33c.34-1.33.6-2.67.9-4a4,4,0,0,0,.32-.65c.42-1.51-.75-2-2.8-2a6.91,6.91,0,0,0-3.14.86c-.87.42-.73,1-.89,1.56a1.85,1.85,0,0,0,0,.49,30.13,30.13,0,0,0-1.84,7.51,10.14,10.14,0,0,0,0,2.78C161.94,73.94,163.93,74.56,166.39,73.94Z"/><path class="cls-1" d="M21.15,48.83c0,.43.17.84.27,1.27.41,2,1.54,3.83,2.13,5.8.26.88,1.2,1.31,2.51,1.35a11.11,11.11,0,0,0,3.29-.29c1.36-.37,1.37-.34,1.22-1.32a1.2,1.2,0,0,1,0-.64c.52-1.29,0-2.39-.43-3.51a6.81,6.81,0,0,1-.58-2.68c.06-.92-.69-1.31-1.88-1.51a16.67,16.67,0,0,0-5,.17C21.41,47.64,21.06,48,21.15,48.83Z"/><path class="cls-1" d="M58.36,37.82c.25,1,.72,2,.92,3.1.29,1.52,1.51,2.69,2.37,4a2.06,2.06,0,0,0,1.86.77,11.38,11.38,0,0,0,3.24-.22c1.24-.35,1.52-.46,1.43-1.13a2.47,2.47,0,0,0-.22-.78,13.78,13.78,0,0,1-1-3.9c-.23-1.05-.45-2.11-.68-3.16-.11-.52-.53-.82-1.39-.87a16,16,0,0,0-4.52.27C58.64,36.29,58.1,36.77,58.36,37.82Z"/><path class="cls-1" d="M80.54,36c.53-.95-.15-1.68-.33-2.5s-1.2-1.24-2.5-1.3a10.39,10.39,0,0,0-3.49.49c-1.28.39-2,1-2.11,1.86a4.05,4.05,0,0,0,.13,2.24c-.07,1.37-.23,2.76-.18,4.11a9.65,9.65,0,0,0,.57,3.66,2.21,2.21,0,0,0,2.42,1.13,13.23,13.23,0,0,0,4.24-1c.65-.32,1.58-.43,1.94-1s-.49-.6-.59-1a2.14,2.14,0,0,1-.08-.64c0-.66.07-1.32.07-2A15.57,15.57,0,0,0,80.54,36Z"/><path class="cls-1" d="M98.21,52.12c-1.09.28-1.35.5-1.43,1.27a2.06,2.06,0,0,0,.12.62,31.35,31.35,0,0,0,.55,6.78c.07.47.45.75,1.11.87a10.11,10.11,0,0,0,4.46-.25c1.43-.37,1.53-.44,1.67-1.35a56.21,56.21,0,0,0,.22-6.56,1.78,1.78,0,0,0-.2-.78.59.59,0,0,0-.38-.35c-1.39-.31-2.68-.87-4.46-.28A2.5,2.5,0,0,0,98.21,52.12Z"/><path class="cls-1" d="M174,57.91a62,62,0,0,0-2.75,8.49c-.36,1.55.19,1.92,2.49,2a7.14,7.14,0,0,0,1.76-.23c1.09-.26,1.28-.39,1.53-1.07,1.06-3,1.83-6,3.48-8.95.31-.55,0-.92-.7-1.17a7.41,7.41,0,0,0-3.76-.25C174.56,57,174.34,57.08,174,57.91Z"/><path class="cls-1" d="M112.89,34.06a22.59,22.59,0,0,1,1.32,4.65c.12.66.81,1,1.72,1.08a8.36,8.36,0,0,0,3.73-.24c.46-.16,1,0,1.45-.38s0-.6-.09-.89a2.23,2.23,0,0,1,0-.81,10,10,0,0,0-.19-2.75c-.2-1-.82-1.9-.35-3,.14-.33-.25-.64-.7-.73a10.33,10.33,0,0,0-3.84-.23C112.52,31.31,112.36,31.41,112.89,34.06Z"/><path class="cls-1" d="M139.21,97.11c.46-1.72.93-3.45,1.35-5.17a22.3,22.3,0,0,0,.43-2.49c.09-.74-.4-1.18-1.48-1.36a8.21,8.21,0,0,0-3.71.16c-1.18.17-1.91.59-1.92,1.41a5.86,5.86,0,0,1-.13.81c-.26,1.17-.55,2.34-.77,3.5a29.61,29.61,0,0,0-.49,3.32c-.06.81.5,1.21,1.61,1.27a23,23,0,0,0,2.75,0A2.63,2.63,0,0,0,139.21,97.11Z"/><path class="cls-1" d="M22.8,66.24c.62,1.44,1.32,2.87,2.06,4.28s3,1.95,5.62,1.25c.51-.13.79-.32.75-.62-.23-1.54.15-3.18-.09-4.73a17.33,17.33,0,0,0-.46-2,1.79,1.79,0,0,0-1.76-1.27,18.47,18.47,0,0,0-5.54.58c-.53.11-.92.43-.88.81A6.07,6.07,0,0,0,22.8,66.24Z"/><path class="cls-1" d="M81.93,59.52a2,2,0,0,0,1.57.2,3.5,3.5,0,0,0,2.56-.51c.12.33.06.64-.54.86-.79.28-1.6.53-2.38.83S82,61.54,82.06,62a5.48,5.48,0,0,0,.15.78,18,18,0,0,0,.27,3.87,10.32,10.32,0,0,1,.3,3.54,11.36,11.36,0,0,0,.06,1.62c0,.41.4.64.92.8a11.43,11.43,0,0,0,4.37.16c1.77-.16,2.08-.42,2.37-1.64a7.24,7.24,0,0,0,.1-.82c.09-.16.27-.34.27-.49,0-1.24,0-2.5-.11-3.72a13.14,13.14,0,0,1-.16-2.41c.11-1.49-.47-2.85-.66-4.28-.05-.4-.46-.49-1.09-.34-.25.06-.49.14-.73.22-1.08.35-1.45.29-1.57-.3a9.16,9.16,0,0,1-.09-1.12,3.05,3.05,0,0,0,.06-.81,49,49,0,0,1-1-7.18,5.64,5.64,0,0,0-.28-1.25.76.76,0,0,0-.68-.56,6.7,6.7,0,0,0-2.33-.28c-.77-.45-1.78,0-2.65.1-1.18.12-2,.9-1.88,1.66a8.21,8.21,0,0,0,.6,1.5,6,6,0,0,0,.27,2.89,11.85,11.85,0,0,0,2.06,4.78A1.62,1.62,0,0,0,81.93,59.52Z"/><path class="cls-1" d="M57,66.28a6.09,6.09,0,0,0,0,1.12c.11.49.14.65.17.8.22.94.79,1.24,2.28,1.11A16.94,16.94,0,0,0,63,68.66a1.62,1.62,0,0,0,1-.59c.92-1.37.27-2.62-1.61-2.95a10.85,10.85,0,0,0-4,.13C57.66,65.39,57.09,65.82,57,66.28Z"/><path class="cls-1" d="M192.51,56.87A4.35,4.35,0,0,0,192,59a3.07,3.07,0,0,0-.39,1.73c-.26.24-.36.48-.23.72a3.72,3.72,0,0,0-.3,1.72,1,1,0,0,0-.24,1,27.28,27.28,0,0,0-1.15,5.32,12.78,12.78,0,0,1-.69,3.32,9.28,9.28,0,0,0-.72,3c0,.72.54,1.25,1.58,1.3a10,10,0,0,0,4.24-.41,2,2,0,0,0,1.3-1,34.51,34.51,0,0,0,1.59-4.66,87.05,87.05,0,0,0,2.59-11.16,9.91,9.91,0,0,0,.83-3c.11-.42-.1-.7-.54-1a7.94,7.94,0,0,0-4.81-.56A3,3,0,0,0,192.51,56.87Z"/><path class="cls-1" d="M183.16,57.62a1.82,1.82,0,0,0-.06.65c-.29.83-.63,1.67-.86,2.5-.42,1.56-.63,3.12-1.2,4.67-.89,2.42-.77,4.76-1.19,7.14a4,4,0,0,0,.19,1.6,1.27,1.27,0,0,0,1.09.92,9.43,9.43,0,0,0,3.9.11c.41-.08.62-.2.72-.44a2.28,2.28,0,0,0,.12-.5c.54-3.21,1.36-6.43,2.21-9.66a27.88,27.88,0,0,0,1.25-5.16c.76-.83.54-1.74,1.26-2.59.29-.34-.07-.64-.42-.82a6.08,6.08,0,0,0-3.33-.6C184.72,55.64,183.79,56.22,183.16,57.62Z"/><path class="cls-1" d="M118.19,54.93c.46-.33.57-.65.22-1a2.57,2.57,0,0,0,.1-1.67.49.49,0,0,0-.06-.66,4.73,4.73,0,0,0-.2-3.25c-.82-.12-1.65-.19-2.5-.24.85,0,1.68.12,2.5.24a6.74,6.74,0,0,0,.15-1.32c-.06-.72-.67-1.12-1.78-1.2a12.56,12.56,0,0,0-3.78.27c-2.79.66-3.49.61-2.86,2.72a32.92,32.92,0,0,1,.21,6.19c-.12,1,.7,1.41,2,1.56a22.94,22.94,0,0,0,5-.22C118.16,56.28,118.5,55.68,118.19,54.93Z"/><path class="cls-1" d="M140.55,69.22a11.15,11.15,0,0,0,2.25-.3c.19,0,.36-.24.54-.37s.56-.34.53-.56a4.35,4.35,0,0,1,.17-1.73.84.84,0,0,0-.25-.88,16.65,16.65,0,0,0,.07-4.81c.72-.79.26-1.41-.18-2s-1.14-.48-1.88-.53a12.58,12.58,0,0,0-3.51.26c-1.45.32-2.06.82-2.17,1.78a2.22,2.22,0,0,0,.11.63,1.76,1.76,0,0,0-.18,1.3c.15,1.6.35,3.18.49,4.78C136.72,68.77,137.48,69.21,140.55,69.22Z"/><path class="cls-1" d="M157.68,80.16a7.31,7.31,0,0,1-.24,1.15c-.62,2.17-1.28,4.35-1.84,6.52-.25.94-.29,1.89-.45,2.83-.08.49.22.85.74,1.07a7.89,7.89,0,0,0,3.93.45A1.54,1.54,0,0,0,161,91.5a1.85,1.85,0,0,0,.36-1.32,1.72,1.72,0,0,1,0-1c.68-2.28,1.09-4.56,1.92-6.85a3,3,0,0,0,.29-2.14,2.28,2.28,0,0,0,.57-1.79c-.05-.59-.74-.93-1.64-.8a15.08,15.08,0,0,0-2.26.45C158.85,78.5,157.73,79.08,157.68,80.16Z"/><path class="cls-1" d="M40,40.38c-.32-.65-.39-.68-1.22-.46a2.41,2.41,0,0,0-1.06.49,6.23,6.23,0,0,0-4.37,2.89,2.63,2.63,0,0,0-.14,2.55c0,.44-.06.88,0,1.31.13,1.88.81,3.67.42,5.64-.08.41.32.63.95.74a15.17,15.17,0,0,0,6.18-.59c1.08-.27,1.56-.81,1.57-1.48A23,23,0,0,0,42,45.32a1,1,0,0,0-.19-1l-.22-.59Z"/><path class="cls-1" d="M149.07,63.29c-.38,2.16-.8,4.32-1.13,6.48a20.43,20.43,0,0,0-.11,2.63c0,.35.24.57.7.72a10.34,10.34,0,0,0,4.86,0c1.48-.23,2.51-.88,2.75-1.94s.57-2.21.86-3.31c-.39.12-.46-.08-.59-.21.35-.08.53,0,.59.21.08-.38.18-.77.22-1.15.12-1.14.88-2.31.73-3.44-.05-.87-1.06-1-2.13-1.17a9.93,9.93,0,0,0-5.18-.2C149.5,62.16,149.42,62.24,149.07,63.29Z"/><polygon class="cls-1" points="157 67.9 157 67.9 157 67.9 157 67.9 157 67.9 157 67.9"/><path class="cls-1" d="M20.82,73.59c-.14-.59-.09-1.24-.56-1.75l-.11-.61c0-.6.1-1.2.08-1.79,0-.8,0-1.63-.92-2.18l-.1-.38c.49-1,.6-1.86-.5-2.5.17-.21.21-.4,0-.55.44-.35.53-.67.17-1,0-.38-.37-.57-.82-.66a6.94,6.94,0,0,0-3.64,0,5.06,5.06,0,0,0-2.21.12c-1,.21-1.27.44-1.23,1.13a3.61,3.61,0,0,0,.21.77,6.36,6.36,0,0,0,.47,2.71,18.56,18.56,0,0,0,1.27,3.85,12,12,0,0,1,.75,2.64c.43,1.32,1,1.55,3.48,1.45a2,2,0,0,0,1.08,0l2-.45C20.8,74.22,20.88,73.86,20.82,73.59Z"/><polygon class="cls-1" points="166.2 51.68 166.04 51.73 166.11 51.75 166.2 51.68"/><path class="cls-2" d="M192.29,68.12a1,1,0,0,0-.88-.37,4,4,0,0,0-.91.38c-1.75.92-3.49,1.88-5.26,2.78a18.73,18.73,0,0,1-5,1.89c-.61.12-.88-.1-.88-.72a43.73,43.73,0,0,1,.21-5.35c.14-1.25.17-2.5.24-3.76a2.86,2.86,0,0,0-.06-.79,1,1,0,0,0-1.59-.47,2.2,2.2,0,0,0-.8,1.74c.09,2.46-.46,4.87-.46,7.32a7,7,0,0,1-.08,1,.55.55,0,0,1-.87.42,5.18,5.18,0,0,1-1.39-1.11c-1.45-1.54-2.94-3-4.37-4.61a27.13,27.13,0,0,0-3.3-2.84,1.43,1.43,0,0,0-2.23.34,1.51,1.51,0,0,0,.22,2.25c1.19,1.13,2.35,2.3,3.51,3.46a2,2,0,0,1,.25.58,2.39,2.39,0,0,1-1.56,0c-1.79-.48-3.57-1-5.35-1.47-1.09-.31-1.62-.18-2.23.61a1.49,1.49,0,0,0,.15,2,3.58,3.58,0,0,0,1.36.78,36.13,36.13,0,0,0,6.16,1.48c1.43.28,2.85.55,4.27.86.33.07.79.08.82.6a1.71,1.71,0,0,1-.35.21c-3.61,1.06-7.17,2.32-10.85,3.15a15.39,15.39,0,0,0-2.44.81,3.8,3.8,0,0,0-1.79,1.51,4.14,4.14,0,0,0-.37.69c-.29.74,0,1.21.78,1.14a10.06,10.06,0,0,0,1.17-.2,57.1,57.1,0,0,0,6.32-1.7c3.2-1.06,6.4-2.1,9.61-3.15l.38-.12a.87.87,0,0,1,.91.21,1.48,1.48,0,0,1,.48,1.77c-.54,1.83-1,3.68-1.55,5.52-.32,1.15-.55,2.31-.77,3.48a3.75,3.75,0,0,0,.71,3.1c1.07-.62,1.08-1.66,1.22-2.62a47,47,0,0,1,2.18-7.41.44.44,0,0,1,.78-.16c.91,1.16,2.39,1.94,2.52,3.65a1,1,0,0,0,.26.52,20.5,20.5,0,0,0,2.5,2.73c.35-.36.47-.76.85-1a1.86,1.86,0,0,0,.88-2.19,4.45,4.45,0,0,0-1.13-2.28Q183,81,181.42,79.2c-.26-.31-.82-.66-.39-1.12.28-.3.74.07,1.12.14A37,37,0,0,0,189,81.08a7.17,7.17,0,0,0,1.15.25c.08,0,.22-.1.27-.18a.18.18,0,0,0-.17-.28c-.64,0-1-.6-1.57-.79.73.13,1.45.27,2.18.37a.57.57,0,0,0,.48-.21.75.75,0,0,0,0-.56,2.13,2.13,0,0,0-1.19-1c-2.24-1.13-4.47-2.28-6.71-3.41-.29-.15-.61-.27-.69-.64.09-.09.15-.22.26-.27,2.7-1.4,5.39-2.81,8.11-4.16A2.53,2.53,0,0,0,192.37,69,.75.75,0,0,0,192.29,68.12ZM183.39,78c.29.07.64,0,.8.4a1.79,1.79,0,0,1,1.18.39c.29.09.62.11.81.41a3.15,3.15,0,0,1,1.16.38,1.82,1.82,0,0,1,1,.43c-.34-.15-.78-.06-1-.41l-1.17-.39h0l-.75-.38,0,0h0l.06,0-1.21-.4h0l0,0h0l-.8-.4,0,0h0l.05,0-.82-.41-.38-.08c.19-.24.27,0,.4.08S183.21,77.69,183.39,78Z"/><path class="cls-2" d="M182.61,77.6l0,0h0l0,0h0Z"/><path class="cls-2" d="M187.36,79.58h0l-.05,0h0Z"/><path class="cls-3" d="M117.57,68.36a1.21,1.21,0,0,0-.29.32c.16,0,.26-.07.32-.28h0Z"/><path class="cls-3" d="M150.15,48.11c-2.54.12-5.15-.21-7.59.87a38.76,38.76,0,0,0-7.62.75c-4.56.83-9.13,1.64-13.7,2.4-1.22.2-1.9-.66-1.37-1.71.86-1.71,1.83-3.37,2.76-5,2.23-4,5-7.81,6.45-12.27a25.16,25.16,0,0,0,3.52-6.62,2.27,2.27,0,0,0-2.83-3A9.12,9.12,0,0,0,123.52,28,22.09,22.09,0,0,0,119,34.64c-1.52,3.31-3.21,6.56-5,9.72-.8,1.38-1,3.93-3.15,3.52-1.51-.29-1.43-2.61-1.92-4.06-1.68-5-3.28-9.93-4.91-14.89,0-2.3-1.37-4.18-2-6.29-.93-3-3.65-3.89-6.45-2.48a10.41,10.41,0,0,0-3.06,2.93c-1,1.2-2.72,2.2-3,3.53-.37,1.68,1.7,2.84,2.43,4.4.19,2,1.26,4,.76,6.21-2.28,0-3.94-1.31-5.63-2.42-3.88-2.55-7.67-5.24-11.51-7.85-2.8-1.9-4.86-1.93-7.39.27-1,.91-2.52,1.48-3.14,3.13A22.08,22.08,0,0,0,66.88,33a26.26,26.26,0,0,0,3.55,3.22c3.76,2.72,7.57,5.39,11.42,8,4.66,3.12,9.39,6.12,14.07,9.2.91.6,2.25,1.12,2.11,2.37-.17,1.51-1.72,1.09-2.73,1.28-1.73.33-3.48.54-5.22.79-4.59.65-9.22,1.11-13.76,2-4.17.82-7.83,2.66-9.71,6.89-.28.62-.52,1.18-.16,1.78a1.57,1.57,0,0,0,1.62.77c1.91-.23,3.8-.62,5.71-.74a156.84,156.84,0,0,0,20.46-2.76c2-.4,4.1-.72,6.16-1a1.48,1.48,0,0,1,1.54,1.9c-.61,1.48-1.3,2.92-2,4.33-1.79,3.4-3.61,6.79-5.48,10.14a15.65,15.65,0,0,0-1.78,5.94,6.91,6.91,0,0,0,.2,2.35c.31,1.31,1.4,1.61,2.43.74a32.36,32.36,0,0,0,8-10.62c.55-1.11.78-2.5,2.37-3a23.94,23.94,0,0,1,1.24,2.51,50.55,50.55,0,0,0,7.81,14.79c1.11,1.38,1.58,1.6,3,.63,5-3.42,6.17-7.78,3.82-13.31-1.56-3.68-3.31-7.29-4.28-11.2a1.74,1.74,0,0,1,0-1.29.57.57,0,0,1-.21-.11c-.08-.06-.12-.3-.07-.35.23-.24.43-.17.56.14l.06-.06a.77.77,0,0,1,0,.1,2.58,2.58,0,0,1,.89.25c5.49,4.13,11.23,7.88,17,11.67,1.81,1.2,3.25,1.77,5.2.92,1.33.41,2.4-.2,3.51-.83,4.09-2.33,4.28-5.65.41-8.09a3.65,3.65,0,0,0-.89-.28h0l-4.61-3.41c-3.22-2.37-6.45-4.74-9.65-7.14a1.92,1.92,0,0,1-.66-1.17c-.08-.62.55-.68,1-.75a51.36,51.36,0,0,1,5.22-.76,27.56,27.56,0,0,0,11.51-3c2.93-.06,4.7-1.79,5.78-4.28C153,49.72,152,48,150.15,48.11ZM92.85,38,93,37.7l.12.28Z"/><path class="cls-4" d="M175.37,35.23a27.22,27.22,0,0,0-3.89-2.7c-.31-.22-.74-.34-.74-.85a3.06,3.06,0,0,1,1.63-.56,9,9,0,0,0,2.44-.8,1.79,1.79,0,0,0,.76-.58c.26-.43.71-.87.43-1.44s-.87-.55-1.38-.53a11.09,11.09,0,0,0-1.56.26c-1,.19-1.93.43-2.91.57s-1.7.16-2.56.21c-.37,0-.54-.37-.31-.69s.65-.83,1-1.25c.9-1.14,1.81-2.27,2.69-3.42a11.7,11.7,0,0,0,1.48-3,.86.86,0,0,0-.6-1.09,2.59,2.59,0,0,0-2.75.64c-1,1.14-2.19,2.08-2.8,3.53a7,7,0,0,1-1.82,2.56.54.54,0,0,1-.94-.22c-.18-.5-.32-1-.48-1.51-.4-1.26-.79-2.52-1.2-3.77a3,3,0,0,0-1.11-1.81,4.22,4.22,0,0,0-.66-1.64,2.25,2.25,0,0,0-2.29-1.21,3.89,3.89,0,0,0-2.41,1.17c-.84.66-.85.65-.2,1.69.33.86.65,1.72,1,2.58a.37.37,0,0,1-.14.5.43.43,0,0,1-.37-.07c-.77-.62-1.55-1.22-2.28-1.89a3.12,3.12,0,0,0-3.14-.6,1.07,1.07,0,0,0-.73,1.53,2.5,2.5,0,0,0,.44.65c.73.76,1.45,1.53,2.21,2.26a52.13,52.13,0,0,0,5.11,4.06c.43.32,1.23.56.95,1.29-.21.55-.92.4-1.42.46-1.83.22-3.66.44-5.48.79a5.05,5.05,0,0,0-3.4,2.15c-.1.15-.33.29-.17.48a.72.72,0,0,0,.5.27q1.57-.13,3.14-.33a56.28,56.28,0,0,1,7.12-.31c.53,0,.73.34.49.76s-.35.56-.54.83l-3,4.44a1.3,1.3,0,0,0-.63.91.53.53,0,0,0,.7.6c.69-.31,1.49-.4,2-1.06a8.71,8.71,0,0,0,2.47-1.9c1-.88,1.16-.55,1.58.46a23.91,23.91,0,0,0,2.43,4.92c.49.68.54.76,1.2.42A11.4,11.4,0,0,0,167,42a3.85,3.85,0,0,0,1.3-1.93c.21-.64-.16-1.14-.37-1.68s-.45-1.23-.67-1.85a3.18,3.18,0,0,1-.27-1.73c-.17-.11-.31-.26-.16-.44s.33,0,.49.05a44.26,44.26,0,0,1,5,3.22c.39,1.1,1.38,1.08,2.28,1.21,1.14.16,1.93-.44,2.4-1.76C176.9,36,176,35.72,175.37,35.23Z"/><path class="cls-4" d="M59.64,75.68A13,13,0,0,1,57,75.54c-.11,0-.24.09-.36.14a41,41,0,0,1-4.88,1.11.5.5,0,0,1-.1-.62A9.42,9.42,0,0,1,53,73.74a3.87,3.87,0,0,0,.91-2.16,1.09,1.09,0,0,0-.41-1.05,1.27,1.27,0,0,0-1.32,0,2.38,2.38,0,0,0-.67.71,19.26,19.26,0,0,0-2,3.39,5.21,5.21,0,0,1-.49.85.34.34,0,0,1-.52,0,4.63,4.63,0,0,1-.63-.76c-.8-1.21-1.57-2.45-2.39-3.65-.48-.71-1-1.39-1.56-2.05a.85.85,0,0,0-1.22.09c-.25.37-.7.64-.71,1.15,0,.85-.11,1.74.73,2.33a1.5,1.5,0,0,1,.39.44.45.45,0,0,1,0,.37.38.38,0,0,1-.33.14c-.32-.07-.63-.19-.94-.28-1.81-.49-2.77.19-3,2a1.18,1.18,0,0,0,.54,1.18,6.81,6.81,0,0,0,1.22.64c1,.44,2.09.84,3.12,1.26.28.12.63.19.58.71-.55.14-1.13.25-1.69.43s-1.36.5-2,.78a3.1,3.1,0,0,0-1.66,2.11.4.4,0,0,0,.39.55,2.67,2.67,0,0,0,.78-.06A41.87,41.87,0,0,0,46,81.4c.8-.27,1-.1.9.67-.2,1.37-.43,2.74-.61,4.11a13.59,13.59,0,0,0-.07,2c0,.31,0,.73.44.75a.89.89,0,0,0,.63-.39A11.77,11.77,0,0,0,49,84.74c.14-.6-.1-1.54.69-1.65.53-.07.82.76,1.15,1.25a13.44,13.44,0,0,1,.67,1.21,6.16,6.16,0,0,0,1.09,1.63c.19.4.37.81.59,1.2a.46.46,0,0,0,.32.18c.24,0,.3-.17.33-.35.07-.48.46-1,0-1.45a7,7,0,0,0-1.41-4.36l.22-.48,1.56.35a7.32,7.32,0,0,0,2.49.6c.18,0,.51,0,.55-.09.33-.75,1.22-1,1.5-1.81s.12-1.35-.61-1.61-1.27-.36-1.9-.53c-.33-.21-.94-.42-.94-.62,0-.58.67-.46,1.06-.64a2.67,2.67,0,0,0,.33-.21c1-.39,2.05-.77,3.07-1.17a.36.36,0,0,0,.14-.31A.32.32,0,0,0,59.64,75.68Z"/><path class="cls-2" d="M54.21,32.67c.52-.08,1-.11,1.57-.18a2.48,2.48,0,0,0,1.54-.81A1.52,1.52,0,0,0,57.68,30c-.31-.47-.81-.33-1.25-.34s-.66,0-1,0l-5.33.15a2.76,2.76,0,0,1-1.87-.44c-.56-.42-.65-.74-.3-1.32a20.6,20.6,0,0,0,1.93-2.73A9.73,9.73,0,0,0,51.79,22a1.09,1.09,0,0,0-.63-1.29c-.78-.09-1.6-.16-2,.74A5.62,5.62,0,0,0,47.17,24,4.75,4.75,0,0,1,46,25.72c-.55-1.33-1.14-2.66-1.65-4a1.72,1.72,0,0,0-1.79-1.27A3.73,3.73,0,0,0,40.3,21h0a5.37,5.37,0,0,0-1.45.6,1,1,0,0,1-1.52-.08,2.31,2.31,0,0,0-2.44-.26,1.32,1.32,0,0,0-.72,2.06,5.82,5.82,0,0,0,1.48,1.58c1.45,1.14,2.93,2.26,4.38,3.4a3.74,3.74,0,0,1,1.25,1.24.64.64,0,0,1-.41.94c-.85.12-1.7.21-2.55.31a.85.85,0,0,0-.82.15h0l-2,.35a.89.89,0,0,0-.81.08,2.12,2.12,0,0,0-2,.89c-.67.12-.7.18-.36.87a.14.14,0,0,0,.17.13,1,1,0,0,0,1,.17,11.74,11.74,0,0,0,3.74.26c.73,0,1.46,0,2.18,0a.4.4,0,0,1,.38.54,3.18,3.18,0,0,1-.33.71,26.46,26.46,0,0,0-1.88,3.49,4.77,4.77,0,0,0-.45.84c-.3,1-.17,1.86.3,1.91a1.46,1.46,0,0,0,1.58-1.1h0a1.26,1.26,0,0,0,.83-1.15,7.87,7.87,0,0,0,1.15-2,1.67,1.67,0,0,0,.91-1.1c.17-.2.34-.4.53-.58.4-.38.7-.32.89.16a8.94,8.94,0,0,1,.37,1.13c.33,1.41.65,2.83.94,4.25A21.19,21.19,0,0,1,45,42.85c.08.78.85,1.11,1.09,1.77.75,0,.89-.69,1.28-1.1a4.83,4.83,0,0,0,1.15-2.68,11.14,11.14,0,0,0,.16-1.77,15.37,15.37,0,0,1,.37-3.33c.37.16.67.56,1.14.34V35.7a.65.65,0,0,1-.38-.38l-.4,0-.33-.46c-.1-.15,0-.3.09-.26.32.11.71.19.66.66.27,0,.42.11.4.39.29,0,.43.1.4.38.41-.16.59.15.79.43a.62.62,0,0,1,.38.39c.26.21.58.38.42.79q.42,0,.38.4c.31,0,.41.15.4.45l.51.16c1.09.33,1.31.23,1.91-1a1.07,1.07,0,0,0,.29-1.38,5.63,5.63,0,0,0-2-2.54C53.51,32.94,53.56,32.77,54.21,32.67Z"/><path class="cls-2" d="M49.86,35.28h-.06l0,0h0S49.86,35.3,49.86,35.28Z"/><path class="cls-2" d="M51.46,36.5h0l0,0Z"/><path class="cls-2" d="M50.26,35.67h0v0l0,0S50.26,35.69,50.26,35.67Z"/><path class="cls-2" d="M51.41,36.46s0,0,0,.06l.05,0Z"/><path class="cls-2" d="M52.59,38.06h0l.06.06s0,0,0-.06h-.06Z"/><path class="cls-2" d="M52.59,38.06l-.35-.35,0-.05h-.07l.05.06c-.33-.18-.58-.4-.43-.81-.29,0-.42-.1-.4-.39-.43.21-.62-.07-.79-.4h-.38c-.15.33,0,.58.25.81.55.63,1.12,1.25,1.68,1.87.42.47.44.46.82-.3l0,0h0A.66.66,0,0,1,52.59,38.06Z"/><path class="cls-2" d="M51.81,36.91h.05l0,0h0S51.81,36.89,51.81,36.91Z"/><path class="cls-2" d="M50.62,36.12h0s0,0,0-.07l-.06,0Z"/><path class="cls-2" d="M50.22,36.08v0h0s0,0,0,0Z"/></svg>