<svg id="Layer_1" data-name="Layer 1" xmlns="http://www.w3.org/2000/svg" viewBox="0 0 216 113.33"><defs><style>.cls-1{fill:#cceaff;}.cls-2{fill:#0098ff;}.cls-3{fill:#fcc949;}.cls-4{fill:#406c84;}</style></defs><title>Artboard 12</title><path class="cls-1" d="M184.83,62a6,6,0,0,0-5.18-.62,6.35,6.35,0,0,0-1.51.59,6,6,0,0,1-1.71.76,12.9,12.9,0,0,0-4.67,2c-1.91,1.26-3.93,2.44-5.87,3.67-2.8,1.77-2.71,1.51-4.4-.39a32.32,32.32,0,0,0-5.38-4.52,13.45,13.45,0,0,0-2.36-1.19,2.84,2.84,0,0,0-2.22,0c-1.47.55-3,1-4.48,1.54a27.92,27.92,0,0,0-10.94,6.88,11.56,11.56,0,0,1-1.59,1.44,1.53,1.53,0,0,1-2.18-.11c-1.87-1.56-3.88-3.05-5.54-4.71-2-2-4.76-3.36-7.52-4.76a2.9,2.9,0,0,0-3.4.13,25.22,25.22,0,0,1-4.67,2.76,7.93,7.93,0,0,0-1.76,1.35c-1,.91-2,1.8-3.12,2.68A8.85,8.85,0,0,1,103.25,71a2.73,2.73,0,0,1-2.65-.36c-.95-.77-2-1.51-2.93-2.26L89.46,62a16.49,16.49,0,0,0-3.16-1.8,2,2,0,0,0-1.9-.06c-2,1.1-4.26,1.93-5.78,3.4a40.86,40.86,0,0,1-3.15,2.86c-1.49,1.16-3,2.28-4.37,3.53-.76.71-1.13.93-2.25,0A20.72,20.72,0,0,1,67,68.21,25.19,25.19,0,0,0,63.5,65c-2.58-1.84-5.2-3.66-7.81-5.49l-.21-.14a1.89,1.89,0,0,0-1.64-.13,22.19,22.19,0,0,0-8.05,4.29c-1.18,1.07-2.47,2.07-3.68,3.11-.49.42-.91.87-1.36,1.31-1.73.8-2.84,2-4.34,3a7,7,0,0,1-2.58,1.39c-1.3-1.2-2.73-2.32-3.83-3.58-2.82-3.2-7-5.59-10.49-8.4a2,2,0,0,0-.48-.23c-.56-.23-1.52,0-1.66.47a2.38,2.38,0,0,0,0,2.18c1,1.46,1.75,3,3.66,4.06a20.43,20.43,0,0,1,2.28,1.57c2.37,1.79,5,3.47,6.72,5.59a14.32,14.32,0,0,0,4.43,3.44A1.9,1.9,0,0,0,37,77.32c2.89-1.81,5.64-3.73,8.71-5.41a12.39,12.39,0,0,0,1.56-1.18,2.76,2.76,0,0,0,1.56-.47c1.71-1.1,3.45-2.18,5.17-3.26,2.18-1.37,3.06-1.39,5.17-.09l.65.41a29.45,29.45,0,0,1,7,6.13,6.23,6.23,0,0,0,2,1.72c1,.5,2.12.94,3.18,1.4h0a1.93,1.93,0,0,0,1.77-.41c1.11-.89,2.16-1.81,3.23-2.72a1.59,1.59,0,0,0,1-.71A19.88,19.88,0,0,1,81.09,71,7.24,7.24,0,0,0,84,69.12a2,2,0,0,0,1-.86l1.32-.9c.44-.14.88-.27,1.31-.42,1.33-.46,1.59-.45,2.54.21.34.23.64.5,1,.74,2.6,1.81,4.94,3.76,7.25,5.74a3.39,3.39,0,0,0,2,1.12,2.11,2.11,0,0,0,1.81,1,2,2,0,0,0,1.12,0,5.46,5.46,0,0,0,3-.3,2.74,2.74,0,0,0,1.77-.31,1.42,1.42,0,0,0,1.18-.4,5.36,5.36,0,0,0,3-1.53,1.47,1.47,0,0,0,1.11-.92,3.24,3.24,0,0,0,1.43-1c1.26-1.44,3.36-2.22,5.22-3.19a2.18,2.18,0,0,1,2.16.05,21.79,21.79,0,0,1,2.36,1.51c1.85,1.47,3.64,3,5.44,4.49.8.68,1.52,1.4,2.32,2.08a2.67,2.67,0,0,0,1.66.77,8.28,8.28,0,0,0,4-.38,10.84,10.84,0,0,0,3.41-2.16,28.52,28.52,0,0,1,7.55-5.31,30.87,30.87,0,0,1,5.1-2,2.56,2.56,0,0,1,2.38.32,9.44,9.44,0,0,1,2.14,1.9c.56.71,1.13,1.41,1.75,2.1a6.33,6.33,0,0,0,2.82,2,1.88,1.88,0,0,0,2.33.44,4.74,4.74,0,0,0,1.77,0,2.58,2.58,0,0,0,2-1.16,15.59,15.59,0,0,0,1.39-.73c3.16-2.1,6.3-4.22,9.46-6.33.63-.42,1.29-.83,2-1.21a1.23,1.23,0,0,1,1.53.09c.79.68,1.51,1.4,2.29,2.09a45,45,0,0,0,5.51,4.44,6.55,6.55,0,0,0,3.75,1.14,1,1,0,0,1-.45-.66,5.94,5.94,0,0,0-2-2.88c-1.43-1.21-2.61-2.52-3.87-3.8A16.15,16.15,0,0,0,184.83,62Z"/><path class="cls-1" d="M188.4,56.52c-2.7-1.46-5.38-2.93-8.12-4.36a7.42,7.42,0,0,0-1.92-.91,2.72,2.72,0,0,0-2.19.17,18.38,18.38,0,0,0-3.1,1.84A7.34,7.34,0,0,0,170.3,55l-.07,0a3.71,3.71,0,0,0-2.33,2l0,0a4.74,4.74,0,0,0-1.77,1.15c-.61.08-1.22.59-1.83,0a49.82,49.82,0,0,0-6-4.13c-1.19-.79-2.35-1.61-3.55-2.39a4.54,4.54,0,0,0-3.25-.57,12.81,12.81,0,0,0-3.76,1.06L143,54.55a2.9,2.9,0,0,0-1.84.8,1.9,1.9,0,0,0-1.09.55A3.76,3.76,0,0,0,138.29,57a2.28,2.28,0,0,0-1.27.72c-1.69.53-2.7,1.61-4.1,2.37-3.62-3.52-8.1-6.52-12.43-9.61a3,3,0,0,0-3.15-.37,11.26,11.26,0,0,0-5.17,3.14c-.63.4-1.37.74-1.68,1.33h0A16.92,16.92,0,0,0,108,56.52a5.52,5.52,0,0,0-2.46,1.14h0A3.71,3.71,0,0,0,103.39,59h0a1.51,1.51,0,0,1-1.51-.36,5.45,5.45,0,0,0-.78-.58c-.28-.69-1.07-1.1-1.76-1.57-1.53-1-3.09-2-4.63-3.06-2-1.35-4-2.72-6.1-4.05a9,9,0,0,0-2.94-1.29c-1-.7-1.92-1.48-3.55-.79-1.26-.1-1.44.59-1.82,1.14a4.65,4.65,0,0,0-2.9,2.48,1.76,1.76,0,0,0-.63,1.2.78.78,0,0,0-.55.82,1,1,0,0,0-.63.8c-1,1-2,2.08-2.93,3.14a5.19,5.19,0,0,1-4.16,1.8,24.8,24.8,0,0,0-3.71-3.36c-1.72-1.19-3.34-2.44-5.11-3.6s-3.36-2-5.07-3A9.6,9.6,0,0,0,53.15,48a3.43,3.43,0,0,0-3.45.31,12.58,12.58,0,0,1-1.42,1,12.5,12.5,0,0,0-3.76,3,22.17,22.17,0,0,1-7.38,5.34,15.09,15.09,0,0,0-3.52.86,1.82,1.82,0,0,1-1.39-.95,13.05,13.05,0,0,0-2.61-2.91,24.77,24.77,0,0,1-4.3-4.31,4,4,0,0,0-1.14-.9,1.57,1.57,0,0,0-2.26.49,2.29,2.29,0,0,0,.39,2.15,19.41,19.41,0,0,0,4.3,4.79,16.24,16.24,0,0,1,3,3.22,10.22,10.22,0,0,0,1.64,2.13c1.46,1.25,1.64,1.32,4.22.83a2.26,2.26,0,0,0,1.25-.22,17.88,17.88,0,0,0,8.11-3.06c1.23-.86,2.45-1.74,3.68-2.61s2.11-1.57,3.25-2.3c2.38-1.52,3.06-1.54,5.36,0,3.2,2.16,6.93,4,9.54,6.51a1.2,1.2,0,0,0,1.11.91c1,.72,2.16.33,3.28.3,1.7,0,3.18-.31,4.22-1.43.82-.88,2.13-1.54,3-2.39,1.53-1.44,3.34-2.81,3.6-4.71l.89-.67A1.87,1.87,0,0,0,84,52.8a5.84,5.84,0,0,1,2.23-.26,3.24,3.24,0,0,0,1.73.83,4,4,0,0,0,1.72.91c2,1.7,4.94,2.75,6.77,4.57a6.54,6.54,0,0,1,3.28,2.69,6.42,6.42,0,0,0,3,2.26,5.83,5.83,0,0,0,4.18-.73c1-.49,2-1,3.12-1.46a41.29,41.29,0,0,0,8-4.37,11.21,11.21,0,0,1,2-1.15,2.9,2.9,0,0,1,3.13.25c.64.41,1.26.84,1.9,1.25a18.67,18.67,0,0,1,5.53,4.89,2.82,2.82,0,0,0,1.57,1.4c.22.61.78.9,1.69.81a8.77,8.77,0,0,0,3.47-.92l4-2.26a8.72,8.72,0,0,0,1.5-.62c2.43-1.62,5.46-2.63,8.25-3.88a32.62,32.62,0,0,1,3.14-1.11,1.68,1.68,0,0,1,1.39.13,38.65,38.65,0,0,1,5.69,3.79c1.1,1,2.26,2,3.5,3a2.59,2.59,0,0,0,3,.39A17.62,17.62,0,0,0,170,62.06q3.85-2.35,7.67-4.72a8.82,8.82,0,0,1,1.93-.91,2.53,2.53,0,0,1,2.18.09c1.47.79,3,1.52,4.46,2.32a36.77,36.77,0,0,1,7.37,5.2,6,6,0,0,0,3.7,1.85c.38,0,.78.21,1.11,0a.6.6,0,0,0,.17-.93,9.06,9.06,0,0,0-1.9-2.44C194,60.48,191.59,58.25,188.4,56.52Z"/><path class="cls-1" d="M179.67,69.37a2.06,2.06,0,0,0-1.9.14,6,6,0,0,0-.86.55c-2.27,2-5.14,3.52-7.63,5.34-2.3,1.68-5.15,2.92-7.65,4.44a1.35,1.35,0,0,1-1.94-.24A56.49,56.49,0,0,0,154,75c-.74-.53-1.61-1-2.41-1.48a2.69,2.69,0,0,0-2.2-.23,24.77,24.77,0,0,0-6.25,2.23c-3.53,2.13-7.39,4-10.77,6.26a2.72,2.72,0,0,0-1.4.78l-.83.2a1.68,1.68,0,0,1-1.78-.38,6.58,6.58,0,0,1-.42-.53,66.44,66.44,0,0,0-7.09-7.37,5.62,5.62,0,0,0-2.13-1.34,2.78,2.78,0,0,0-2.45.16q-2.09,1.26-4.09,2.59a13.7,13.7,0,0,0-2.81,2,33.88,33.88,0,0,1-4.29,3.54,9.23,9.23,0,0,0-2.8,1.08c-.81.38-1.64.74-2.48,1.09a.94.94,0,0,1-1-.16,24.65,24.65,0,0,1-1.93-2.26c-2.16-3-5.58-5.34-9.22-7.52a3,3,0,0,0-3.4,0A28.41,28.41,0,0,0,78.51,78c-1.22,1.22-2.46,2.43-3.6,3.69a8.83,8.83,0,0,1-3.22,2,2.52,2.52,0,0,1-1.42.06l-.63-.56a1.65,1.65,0,0,0-1.16-1.18,10.91,10.91,0,0,0-2.86-2.49,2.48,2.48,0,0,0-1.24-1.2,7.26,7.26,0,0,0-2.69-2.08,2.72,2.72,0,0,0-1.46-1.14,3.68,3.68,0,0,0-1.6-1.26,2.48,2.48,0,0,0-1.4-1.07,3.38,3.38,0,0,0-2.9-.91.92.92,0,0,0-1.18,0,1.74,1.74,0,0,0-.53.12c-1.83,1.33-3.65,2.67-5.45,4a2.9,2.9,0,0,0-.53.69,20.87,20.87,0,0,0-3,2.42,23.33,23.33,0,0,1-9.35,5.22c-.45.12-.87.29-1.31.44a4.34,4.34,0,0,1-1.7-1.09c-3.07-3-6.12-5.92-9.22-8.86a39.46,39.46,0,0,0-6.38-4.45,1.93,1.93,0,0,0-2.62.52,1,1,0,0,0-.18,1c.54,1.26.55,2.7,2.71,3.37.41.13.66.49,1,.74,1.12.84,2.21,1.71,3.38,2.52a28.78,28.78,0,0,1,3.44,2.76c.91.87,1.92,1.71,2.76,2.61,1.6,1.7,3.8,3.09,5.38,4.78A4.1,4.1,0,0,0,34.34,90a2.45,2.45,0,0,0,.83.09,20.89,20.89,0,0,0,4.59-1.67A10.46,10.46,0,0,1,42.89,87a6.78,6.78,0,0,0,3.05-1.74c1.18-1.08,2.19-2.31,4.38-2.73a2.64,2.64,0,0,0,1.74-1.28,36.47,36.47,0,0,0,4.63-2.85,5.33,5.33,0,0,1,2.86.43,6.13,6.13,0,0,0,1,1c3.28,2.24,5.78,4.91,8.9,7.24a8.28,8.28,0,0,1,1,1c-.09.28.11.38.48.4l1.19.43c1.2.62,1.19.6,2.05.13s2-1,3-1.58a7,7,0,0,0,2.15-1.61,8.61,8.61,0,0,1,2.92-2.49,58.15,58.15,0,0,0,6-3.53,5.2,5.2,0,0,1,.73-.34,1.15,1.15,0,0,1,1.08.07c1.43,1,3.15,1.84,3.92,3.21s2.25,2.51,3.33,3.78a8.63,8.63,0,0,0,2.27,1.56,2.56,2.56,0,0,0,2.44.16c1.84-.88,4-1.47,5.55-2.6a11,11,0,0,0,5-2.34c2-2,5.24-2.75,7.79-4.19a1,1,0,0,1,1,.09,7.45,7.45,0,0,1,.87.8c1.69,1.8,3.44,3.58,5,5.43a4.17,4.17,0,0,0,3.28,1.42,2,2,0,0,0,2.55-.26h0a4.56,4.56,0,0,0,2.14-1,7.85,7.85,0,0,0,3-1.55,11.76,11.76,0,0,1,3.62-1.71c.95-.22,1.74-.63,2.65-.87,1.77-.47,3-1.45,4.7-2,4.41-1.57,4.14-1.6,7,1.15.8.77,1.56,1.55,2.37,2.31,1.23,1.14,3.32,1,5,1.5a1.71,1.71,0,0,0,.84-.15,10.93,10.93,0,0,0,1.77-.71c2.4-1.39,4.81-2.77,7.11-4.24a80.46,80.46,0,0,0,7.82-5.2l.21-.14a1.65,1.65,0,0,1,2.05,0A10.82,10.82,0,0,1,185,75.14c.79.69,1.5,1.42,2.26,2.12a10.66,10.66,0,0,0,1.13.92,1.22,1.22,0,0,0,1.08.13.53.53,0,0,0,.25-.55,7.74,7.74,0,0,0-2.69-4.42A30.55,30.55,0,0,0,179.67,69.37Z"/><path class="cls-1" d="M70.84,31.32A40.94,40.94,0,0,0,64,24.77c-1.35-1.06-2.6-2.19-3.88-3.29A2.68,2.68,0,0,0,57.58,21a18,18,0,0,0-6.29,2.51c-1,.67-2,1.29-3,1.91-3.23,1.95-6.07,4.17-9.72,5.83-3.21,1.46-2.9,1.25-4.55-.62a21.6,21.6,0,0,0-4.32-4.05c-1.34-.89-2.68-1.78-4.05-2.64-1.66-1-2.44-.88-3,.58a2.28,2.28,0,0,0,.12,1.57c.63,1.81,2.68,2.93,4.26,4.28,2.51.79,3.67,2.37,4.82,3.92a11.73,11.73,0,0,0,4,3.42c1.54.82,1.78.94,3.35.3a49.43,49.43,0,0,0,10.55-5.43,24.14,24.14,0,0,1,4.58-2.82c1.4-.6,2.85-1.14,4.18-1.83a3.45,3.45,0,0,1,2.74-.38,3.35,3.35,0,0,0,1.49,1.38l.08.07A4.62,4.62,0,0,0,65,30.6a15.18,15.18,0,0,1,2.51,3,1.69,1.69,0,0,0,.94,1.32c.36.88,1.4,1.39,2.33,1.95.06.13.07.3.2.37a4.28,4.28,0,0,0,4.24.08,4.12,4.12,0,0,0,1.08-.94,6.64,6.64,0,0,1,2.41-1.74,60,60,0,0,0,7.77-4.28,11.19,11.19,0,0,1,1.89-1,1.7,1.7,0,0,1,2.06.12,20.84,20.84,0,0,0,1.82,1.32A12.18,12.18,0,0,1,95.84,34c.82,1,1.8,1.92,2.62,2.92s2.59,1.61,3.86,2.43a1.49,1.49,0,0,0,.81.2c1.37-.12,3-.25,3.56-1.16.95-1.57,2.81-2.52,4.41-3.67.27-.19.5-.42.77-.61,1.32-.9,2.63-1.82,4-2.69a1.77,1.77,0,0,1,2.1-.09c1.78.94,3.53,1.92,5.25,2.92a5.64,5.64,0,0,1,2,1.45c.81,1.45,2.91,1.73,4.41,2.53a4.18,4.18,0,0,0,2.27.27c.65-.07.91-.47,1.32-.74a18.37,18.37,0,0,1,1.63-.85l7-3.68a3.2,3.2,0,0,0,1.75-.8,3.73,3.73,0,0,0,1.95-.83L150.05,30a2.88,2.88,0,0,0,1.24.7l.65.44a3.67,3.67,0,0,1,1.36.29,3.67,3.67,0,0,0-1.36-.29,7.56,7.56,0,0,0,2.27,1.65.57.57,0,0,0,.51.42A2.59,2.59,0,0,0,156,34.37h0a2,2,0,0,0,1.2,1.17,6.15,6.15,0,0,0,2,2,1.51,1.51,0,0,0,1.51.73l2.87.83a3.37,3.37,0,0,0,2.71-.09,11.15,11.15,0,0,0,2.7-1.43c1.32-.57,2.7-1.08,4-1.71a4.19,4.19,0,0,1,4.22,0c1.54.82,3.27,1.47,4.8,2.3,4.92,2.67,10.45,4.69,15.62,7.09.48.22,1,.4,1.53.59a4.24,4.24,0,0,0,2.46.17c-.14-.45-.11-1-.47-1.32-1.17-1.13-1.89-2.52-4-3.13a8.9,8.9,0,0,1-1.38-.75c-1.84-.9-3.39-2-5.33-2.84a127.1,127.1,0,0,1-11.58-5.55c-1.46-.79-3.1-1.42-4.68-2.1a15.05,15.05,0,0,0-3.55-.95,3.71,3.71,0,0,0-2.47.37c-2,1.07-4.05,2.12-6.09,3.17a2.88,2.88,0,0,1-1.67.51c-.37-.32-.78-.69-1.22-1-2.64-2.16-5.08-4.45-8.54-6.07a6.77,6.77,0,0,0-2.87-1.63,5.24,5.24,0,0,0-3.89,0,12.26,12.26,0,0,0-4.21,2.4c-.43.43-1,.82-1.45,1.22a8.12,8.12,0,0,0-2.49,1c-2.29,1.16-4.54,2.35-6.84,3.51a1.57,1.57,0,0,1-1.83-.07c-1.36-.88-2.74-1.74-4-2.66a52,52,0,0,0-7.94-4.49,8,8,0,0,0-1.28-.5,3,3,0,0,0-3.29.71,30.46,30.46,0,0,1-4.2,3.88c-.83.67-1.68,1.32-2.47,2s-1.62,1.49-2.45,2.26a4.54,4.54,0,0,1-1.74-1.45c-.88-1-1.73-1.94-2.74-2.86-2.2-2-4.9-3.68-7.31-5.54-.32-.25-.71-.46-1.08-.69a4.35,4.35,0,0,0-3-.52,8.73,8.73,0,0,0-2.93.92,8.39,8.39,0,0,0-2.78,2.06,12.35,12.35,0,0,1-4.9,3.66,28.41,28.41,0,0,0-3.45,2.19A3,3,0,0,1,70.84,31.32Z"/><path class="cls-1" d="M177.93,42.43a12.26,12.26,0,0,0-3.77-1.76,3.73,3.73,0,0,0-3.69.26l-.17.09c-1,.34-.94,1.15-1.6,1.63l.08.09-.1-.09a15.15,15.15,0,0,0-5.23,3.58,3.67,3.67,0,0,1-2.17,1.19c-.54-.63-1.07-1.27-1.63-1.89-1.44-1.58-2.41-3.36-4.43-4.69-.8-1.1-2.36-1.68-3.69-2.4s-1.78-.7-3.3.35c-1.45.29-2.25,1.2-3.46,1.72-.33.13-.69.23-1,.39-2.18,1.11-3.95,2.56-6.28,3.55a2.57,2.57,0,0,0-1.69,2l-4.64,2.48c-1-.43-1.17-1.22-1.59-1.88a14.74,14.74,0,0,0-5-5.38,2.66,2.66,0,0,0-1.71-1.22A9.14,9.14,0,0,0,121.41,39a3.16,3.16,0,0,0-3.29-.29,3.29,3.29,0,0,0-1.76.85c-.72.07-.76.48-.89.84l-5.69,3c-1.22.38-2.64.52-3.48,1.35A3.55,3.55,0,0,0,104,46.1h0c-.42.17-.86.32-1.25.51-.8.39-1.55.83-2.37,1.21-1.06.5-1.59.39-2.05-.36A5,5,0,0,1,98,46.9a10.43,10.43,0,0,0-3-3.68c-1.51-1.24-3-2.49-4.61-3.68a28.82,28.82,0,0,0-6-3.55c-1.74-.74-2.16-.69-3.6.24a10.29,10.29,0,0,0-1.41,1c-2.16,2-4.28,4-6.41,6a17,17,0,0,1-3.11,2.42,1.29,1.29,0,0,1-1.73-.14c-.32-.26-.57-.55-.89-.8-2.88-2.3-5.75-4.6-8.65-6.88a22.22,22.22,0,0,0-2.52-1.7,4.52,4.52,0,0,0-5.15.38,10.64,10.64,0,0,1-3.74,2.23,11,11,0,0,0-1.91.93c-2.47,1.44-4.91,2.9-7.38,4.34a6,6,0,0,1-2.51,1,26.74,26.74,0,0,0-3.69-3.83c-.78-1.06-2.11-1.87-2.79-3-.2-.33-1.09-.36-1.52-.08s-.73.61-.55,1.05c-.08.33-.32.67-.22,1A10.57,10.57,0,0,0,28.52,44c1.82,2.15,4.3,4,6.35,6a2.63,2.63,0,0,0,1.57.85A2,2,0,0,0,38,50.55c2.72-1.52,6-2.5,8.4-4.33a6.81,6.81,0,0,1,.92-.51c2.31-1.23,5-2.17,7-3.66a1.92,1.92,0,0,1,.47-.24,2.19,2.19,0,0,1,1.67.06,3.63,3.63,0,0,1,.85.55c3.46,2.92,7.55,5.46,10.95,8.43.91.8,1.46.82,2.74.24A19.72,19.72,0,0,0,76.3,47.6c.35-.32.61-.76,1.07-.94,2.13-.86,3.21-2.32,4.67-3.57a15.22,15.22,0,0,1,1.51-1.23,2,2,0,0,1,2.13-.06,24.81,24.81,0,0,1,4.51,2.88c1.25,1,2.47,2.09,3.79,3.08A10.5,10.5,0,0,1,97,51a5,5,0,0,0,1.57,1.68,2.11,2.11,0,0,0,1,.41,6.19,6.19,0,0,0,3.89-.5A29.46,29.46,0,0,0,107.48,51c1.42-.6,2.77-1.3,4.27-1.78a47.74,47.74,0,0,0,6.81-2.8c.87-.43,1.84-.77,2.76-1.15a2.2,2.2,0,0,1,2.36.31,33.45,33.45,0,0,1,2.89,2.54c1.08,1.12,2,2.32,3,3.48a1.88,1.88,0,0,0,1.44.92,1.74,1.74,0,0,0,1.37.15,14.74,14.74,0,0,0,3.15-1.09c2.87-1.29,5.51-2.77,8.21-4.21l6-2.43a8.08,8.08,0,0,1,3.55-.74,2.71,2.71,0,0,0,1.5.79,62.3,62.3,0,0,1,5.2,5,8.87,8.87,0,0,0,1.68,1.36,2.09,2.09,0,0,0,1.6.3,10.46,10.46,0,0,0,6.48-2.53,10.31,10.31,0,0,0,2.72-1.18,12.18,12.18,0,0,1,1.15-.63,4.17,4.17,0,0,1,3.78,0,176,176,0,0,1,17.41,9.6q2.29,1.42,4.63,2.8a.68.68,0,0,0,.77.06c.18-.14.39-.34.38-.51A6.52,6.52,0,0,0,198,54.49a44.16,44.16,0,0,0-7.74-5.5c-2.43-1.25-4.7-2.64-7.1-3.92A33.49,33.49,0,0,0,177.93,42.43Z"/><path class="cls-1" d="M195.19,72.37V72.3h-.12l.05,0Z"/><path class="cls-1" d="M195.79,73.09c.07,0,.06-.25,0-.33a3.71,3.71,0,0,0-.58-.39,1.1,1.1,0,0,0-.06.53C195.2,73.12,195.5,73.21,195.79,73.09Z"/><path class="cls-1" d="M201.52,46.1l.14-.1h-.06Z"/><path class="cls-2" d="M29.77,32.61A6,6,0,0,1,29,28.39a2.86,2.86,0,0,1,1.15-1.78A24.36,24.36,0,0,1,40.3,22c1-.16,1.89-.4,2.83-.62a46.47,46.47,0,0,1,10-1.27,45.9,45.9,0,0,1,12.59,1.16A15.78,15.78,0,0,1,72.86,25a13.26,13.26,0,0,1,3.33,4.44,12.13,12.13,0,0,1,.66,2.8,3.57,3.57,0,0,1-.31,1.24,10.14,10.14,0,0,1-4.77-1.77c-.93-.67-1.81-1.41-2.77-2a14.18,14.18,0,0,0-2.7-1.45,24.53,24.53,0,0,0-7-1.59c-2.17-.13-4.34-.32-6.52-.32a50.13,50.13,0,0,0-9.89,1.14c-.3.06-.58.17-.88.21a28.44,28.44,0,0,0-11.21,4.43l-.62.38A2.52,2.52,0,0,1,29.77,32.61Z"/><path class="cls-2" d="M30.75,44.69c.12-1.46.23-2.77.35-4.08,0-.24.18-.48.16-.7a3.92,3.92,0,0,1,1.55-3.31A33.28,33.28,0,0,1,36.9,33a35.83,35.83,0,0,1,13.66-5.5,17.64,17.64,0,0,1,6.47.34c4.46.79,8,3.2,11.2,6.25a13.36,13.36,0,0,1,2.38,3.4,4.22,4.22,0,0,1,.17,3.5c-.25.71-.94,1-1.54,1.72a4.8,4.8,0,0,0-2.18-3,31.14,31.14,0,0,0-4.14-2.91,14.58,14.58,0,0,0-4.43-1.52c-.78-.11-1.54-.28-2.31-.42a13.75,13.75,0,0,0-5,0,36.36,36.36,0,0,0-11.29,4.25A27.65,27.65,0,0,0,35.05,43a6.29,6.29,0,0,1-3.13,1.72A8.7,8.7,0,0,1,30.75,44.69Z"/><path class="cls-2" d="M50.46,94.48c-1.35-.17-3.27-.36-5.17-.68s-3.78-.76-5.66-1.19a31.66,31.66,0,0,1-9.2-3.7,3.67,3.67,0,0,1-.74-.52,1.2,1.2,0,0,1,0-1.9A2.87,2.87,0,0,1,32,85.68a9.08,9.08,0,0,1,3.48.79,2.05,2.05,0,0,0,.68.24C39.16,87,42,88,45.09,88a11.89,11.89,0,0,1,1.6.28,37,37,0,0,0,5,.62,22.1,22.1,0,0,0,5.19-.64c2.28-.55,4.5-1.35,6.72-2.1,2.91-1,5.33-2.81,7.77-4.58a29.5,29.5,0,0,0,6.49-6.51c.11-.15.21-.3.33-.43.59-.66,1.26-.6,1.78.17a3.7,3.7,0,0,1,.07,4.4,16.45,16.45,0,0,1-1.77,2.28,35.84,35.84,0,0,1-7.78,6.45c-1.5.89-2.95,1.9-4.5,2.7A36.44,36.44,0,0,1,50.46,94.48Z"/><path class="cls-2" d="M39.45,68.55a3.25,3.25,0,0,1,3.11-1,22.57,22.57,0,0,0,10-.36c1.59-.37,3.19-.66,4.75-1.13,2.75-.83,5.32-2,7-4.54a3.88,3.88,0,0,1,.45-.57,7.83,7.83,0,0,0,1.92-5.5,5.85,5.85,0,0,0-.74-2.77,3.74,3.74,0,0,0-2.19-1.62A14,14,0,0,1,64.37,47a2.25,2.25,0,0,1,1.31-1.45A3.4,3.4,0,0,1,68,47.68c.32.78.67,1.55,1,2.33a15.76,15.76,0,0,1,.49,11.31,17.52,17.52,0,0,1-3,5.11,23.1,23.1,0,0,1-1.71,1.87A16.07,16.07,0,0,1,57,72.78a39.13,39.13,0,0,1-10.53,1.56,26.31,26.31,0,0,1-5.57-.56,1.91,1.91,0,0,1-1.61-1.68A7.28,7.28,0,0,1,39.45,68.55Z"/><path class="cls-2" d="M27.2,84.82a2.33,2.33,0,0,1-1.5-1c-1.08-1.29-2.22-2.53-3.21-3.91-1.41-2-2.67-4-3.9-6.1a31.36,31.36,0,0,1-3.46-9.67c-.32-1.53-.56-3.09-.88-4.62a16.17,16.17,0,0,1,.13-5.76,25.21,25.21,0,0,0,.34-3.23,24.41,24.41,0,0,1,1.37-7.62c.46-1.31,1-2.59,1.42-3.91a18.93,18.93,0,0,1,3.87-6.48,5.81,5.81,0,0,1,1.5-1.27,1.54,1.54,0,0,1,2.35.85,2.81,2.81,0,0,1-.29,3.07c-.64.73-1.15,1.56-1.83,2.24-2,2-3,4.52-3.9,7.07A24.85,24.85,0,0,0,18,51.78a9.07,9.07,0,0,1-.17,1.8A16.26,16.26,0,0,0,18,60.93a21.32,21.32,0,0,0,2.55,6.74c.81,1.41,1.57,2.85,2.37,4.27.18.31.43.58.62.88.54.87,1.07,1.74,1.61,2.61.26.41.54.8.82,1.19a9.46,9.46,0,0,1,2,4.6A4.85,4.85,0,0,1,27.2,84.82Z"/><path class="cls-2" d="M37.16,65.45c-.15-.05-.23-.06-.26-.1-1.18-2.09-2.28-4.18-2.32-6.71a21.26,21.26,0,0,1,.78-6.79,11.93,11.93,0,0,1,1.69-3.38c1.15-1.62,2.27-3.27,3.48-4.85a13.88,13.88,0,0,1,4.39-4,6.49,6.49,0,0,1,2.2-.76c1.43-.2,2.83-.59,4.26-.85a6.11,6.11,0,0,1,3.39.22,9.69,9.69,0,0,0,1.57.4,8.34,8.34,0,0,1,2.31,1,3.08,3.08,0,0,1,1.57,2.08c.11.41.19.82.3,1.23s.14.52-.34,1.62c-.43-.1-.9-.16-1.35-.3a11.25,11.25,0,0,0-6.07-.06l-2.29.52a11.35,11.35,0,0,0-5.24,2.71,16.28,16.28,0,0,0-2.65,3.17c-.94,1.47-2,2.86-3,4.27a9,9,0,0,0-1.36,2.54,5.82,5.82,0,0,0-.31,2.67A22.93,22.93,0,0,1,37.54,65C37.53,65.14,37.28,65.3,37.16,65.45Z"/><path class="cls-2" d="M34,78.76a2.35,2.35,0,0,1-2-.18,5.65,5.65,0,0,1-2.27-1.43,11.77,11.77,0,0,1-2.28-4.28c-.43-1.32-.81-2.65-1.21-4-.05-.17-.15-.33-.2-.5A68,68,0,0,1,23.14,53a18.51,18.51,0,0,1,1.47-8.12,4.5,4.5,0,0,1,.79-1.2c.61-.69,1.35-.64,1.76.15a3.65,3.65,0,0,1,.41,2.79c-.17.58-.36,1.15-.52,1.73a18.47,18.47,0,0,0,.2,9.13,45.34,45.34,0,0,0,2.61,7.7A22.92,22.92,0,0,0,33,70.24a7.67,7.67,0,0,1,1.82,4.06A7.07,7.07,0,0,1,34,78.76Z"/><path class="cls-2" d="M83.7,74.12a4.4,4.4,0,0,1-.39-.82c-.21-1.12-.37-2.26-.61-3.38a4.67,4.67,0,0,1,.06-2.14c.35-1.4.68-2.81,1-4.23A11.26,11.26,0,0,0,84,61.21a47.32,47.32,0,0,0-.3-7.41c-.36-2.08-.8-4.14-1.3-6.19-.31-1.29-.78-2.53-1.21-3.79-.25-.74-.58-1.46-.84-2.19a3.34,3.34,0,0,0-1.92-2.16c-.17-1.1-.31-2.1-.48-3.1a2.42,2.42,0,0,1,1.27-2.73,3.15,3.15,0,0,1,2.38,2c.51,1.22,1.12,2.41,1.71,3.59,1.11,2.23,1.55,4.69,2.39,7a31.72,31.72,0,0,1,1.6,6.49,34.18,34.18,0,0,1,.38,6.49c-.06,1.2,0,2.41-.05,3.62a26,26,0,0,1-1.38,7.26A11.07,11.07,0,0,1,83.7,74.12Z"/><path class="cls-2" d="M73.32,50.26c.14-1,.27-2,.41-2.91.12-.78.39-1.16,1.39-2.07a2.46,2.46,0,0,1,2,1.58,22.83,22.83,0,0,1,1.8,5.86,29.37,29.37,0,0,1,.45,9.18,10.32,10.32,0,0,1-1.49,4.6,7.46,7.46,0,0,0-.43.79c-2.12,4.11-5.35,7.26-8.79,10.23-.26.23-.56.41-.82.59-.44-.21-.35-.54-.34-.83a13.55,13.55,0,0,0,0-1.81,5,5,0,0,1,1.12-3.69c.93-1.26,1.92-2.47,2.87-3.71a26.84,26.84,0,0,0,3.8-6.55A11.85,11.85,0,0,0,75.7,56c-.07-.78-.28-1.55-.34-2.33a4.18,4.18,0,0,0-1.55-3Z"/><path class="cls-2" d="M37.8,84c.37-1,.67-2,1.1-2.89A2.56,2.56,0,0,1,41,79.59c1.44-.15,2.87-.37,4.31-.43,2.41-.1,4.82-.08,7.23-.14a10.8,10.8,0,0,0,2.14-.25c1.29-.3,2.56-.7,3.84-1,1.71-.43,2.42-.17,3.36,1.29.38.59,1.06,1,1.08,2-.62.44-1.29.92-2,1.39a17.08,17.08,0,0,1-9.73,3c-3.25,0-6.51-.19-9.76-.37a20.36,20.36,0,0,1-3-.55A2.59,2.59,0,0,1,37.8,84Z"/><path class="cls-2" d="M43.81,62.76a12.72,12.72,0,0,1-1.39-3.87,2.61,2.61,0,0,1,.47-2,1.42,1.42,0,0,1,1.73-.67c2.69,1.11,5.21.11,7.76-.56a16.89,16.89,0,0,0,2.52-1,1.94,1.94,0,0,0,1.16-1.3,3.87,3.87,0,0,1,.71-1.25,1.15,1.15,0,0,1,1.95.14.74.74,0,0,1,.09.16,5.71,5.71,0,0,1-.06,4.71,9.66,9.66,0,0,1-6.37,4.94c-1.8.46-3.65.75-5.5,1A6.53,6.53,0,0,1,43.81,62.76Z"/><path class="cls-2" d="M52.38,46A3.12,3.12,0,0,1,54,49.18a3.7,3.7,0,0,1-2.24,3.26,7.74,7.74,0,0,0-3.64,3c-.43.08-.41-.24-.49-.43a6.55,6.55,0,0,1-.22-.69,5.69,5.69,0,0,1,1.18-5.88A7.58,7.58,0,0,1,52.38,46Z"/><path class="cls-3" d="M148.42,42.72c.95-.11,1.91-.11,2.86-.14a57.43,57.43,0,0,1,7.8.2c.95.1,1.89.25,2.84.35a20.94,20.94,0,0,1,5,.91,20.36,20.36,0,0,0,2.1.68,14,14,0,0,1,3.39,1.36c1.15.62,2.29,1.25,3.41,1.93a10.76,10.76,0,0,1,1.44,1.12c1,.85,1.94,1.74,2.92,2.59,1.25,1.08,2.54,2.13,3.77,3.23a21.53,21.53,0,0,0,5.78,4,29.45,29.45,0,0,0,3.61,1.49,31.66,31.66,0,0,0,7.23,1,1.83,1.83,0,0,0,1.3-.36,4.38,4.38,0,0,0,.1-2.16,20.11,20.11,0,0,1-2.53-.16c-1.67-.31-3.32-.71-5-1.11a16.77,16.77,0,0,1-4.87-2.16c-.24-.15-.51-.3-.51-.64l1.14.53c.9.44,1.78.92,2.7,1.31s1.79.66,2.7,1a7.1,7.1,0,0,0,1.15.22q1,.15,2.07.27c.43,0,.87.08,1.3.1a2.55,2.55,0,0,0,1.86-.65,7.54,7.54,0,0,0-.3-2.41L198.89,55a14.44,14.44,0,0,1-7.53-2.3c-1.68-1.09-3.28-2.31-4.91-3.48-.6-.43-1.21-.86-1.78-1.33-1.35-1.1-2.68-2.23-4-3.34a24.39,24.39,0,0,0-2-1.53,40.55,40.55,0,0,0-6.64-4.13c-.26-.11-.54-.28-.52-.64.49.16,1,.3,1.45.5a33.78,33.78,0,0,1,6,3.63c.64.46,1.28.9,1.9,1.39s1.26,1.07,1.9,1.6c1.28,1.05,2.53,2.14,3.85,3.13,1.63,1.23,3.32,2.39,5,3.59a10.89,10.89,0,0,0,5.54,2.14c1.34.11,2.7.08,4,.1.11,0,.23-.1.39-.17a19.07,19.07,0,0,0-.72-4.7,1.32,1.32,0,0,0-.29-.1,19.15,19.15,0,0,1-6.44-1.51c-2.25-1-4.45-2-6.64-3.06a12.2,12.2,0,0,1-1.48-.83c-2.45-1.68-5.13-3-7.71-4.42-2-1.11-4-2.09-6.09-3a36.53,36.53,0,0,0-7.37-2.65,17.75,17.75,0,0,0-3-.55c-1.65-.05-3.3-.25-5-.15-1.27.07-2.51.28-3.76.44A18.37,18.37,0,0,0,147.77,35a21.38,21.38,0,0,1-2.85.93,9.77,9.77,0,0,1-1.15.21,18.1,18.1,0,0,0-2.44.43c-1.91.61-3.79,1.31-5.69,2-.37.13-.74.24-1.12.36-1.85.6-1.69.4-2.52,2.13-.13.27-.23.55-.42,1l.86.38-1.17.43c-.3,1-.67,2-.88,3a13.09,13.09,0,0,0-.46,4.27c0,.21,0,.45.22.53l4.11-1.32a4.36,4.36,0,0,0,.49-.18,43.56,43.56,0,0,1,8.94-2.88c1-.21,2-.26,3-.48a19.21,19.21,0,0,1,5.33-.36,54.93,54.93,0,0,1,8.58.73c1,.21,2,.39,2.92.68a36.23,36.23,0,0,1,6.7,2.93,9.29,9.29,0,0,1,1,.62c2,1.42,4,2.81,5.89,4.34.51.41,1,.84,1.48,1.27a20.8,20.8,0,0,0,1.75,1.57c1.42,1,2.89,1.95,4.35,2.89A24.26,24.26,0,0,0,187.24,62c1.3.62,2.63,1.14,4,1.69.52.22,1.06.4,1.6.57a26.33,26.33,0,0,0,5.66,1,4.77,4.77,0,0,0,2.84-.41,8.46,8.46,0,0,0,.43-2.55c-.23,0-.43-.11-.64-.13-1.69-.18-3.38-.34-5.07-.54a20.8,20.8,0,0,1-2.06-.37,26,26,0,0,1-6.16-2.52,15.63,15.63,0,0,1-3-2.09c-1.33-1.13-2.66-2.25-4-3.39S178.23,51,177,49.88a9.7,9.7,0,0,0-1.75-1.35c-.87-.5-1.75-1-2.61-1.5a17,17,0,0,0-4.31-1.86,7.46,7.46,0,0,1-1-.37,9.76,9.76,0,0,0-2.63-.76c-2.2-.28-4.39-.66-6.61-.79a11.7,11.7,0,0,1-2.32-.31,3.8,3.8,0,0,0-2.4,0,5.88,5.88,0,0,1-1.8.11,4.84,4.84,0,0,0-.64-.07c-1.28.22-2.59.14-3.88.4a30.22,30.22,0,0,0-4,.93c-.53.19-1.09.31-1.61.53a1.62,1.62,0,0,1-1.08,0,5.08,5.08,0,0,1,.86-.48A34,34,0,0,1,148.42,42.72Zm23.06-4.46a.9.9,0,0,1-1.12-.59Zm-1.13-.59h0c-.31,0-.65.25-.9-.11Zm-1-.17-.6-.1A.77.77,0,0,1,169.31,37.49Zm-.69-.12-.79-.23h0C168.13,37.12,168.44,37.05,168.63,37.37Zm-1-.51s.08,0,.09.06a1.61,1.61,0,0,1,.07.22,1.25,1.25,0,0,1-.15-.16S167.67,36.9,167.67,36.86Zm-2-.55.1,0s0,.07,0,.07l-.1,0Zm-4.91-1-.25.06s-.06,0-.1-.06Zm-3.93-.3c-.09.44-.41.26-.6.39l-.08-.25Zm-2.21.29a3.08,3.08,0,0,1-2.2.13A5.91,5.91,0,0,1,154.62,35.29Zm-3.79.2a1,1,0,0,1-1,.4l0-.28Zm-5.13,1.06c-.18.34-.38.34-.64.18Zm-2.38.79s.05.05.08.08a1.32,1.32,0,0,1-.22.07s-.05-.05-.08-.08A1.4,1.4,0,0,1,143.32,37.33Zm-4.23,1.92a.47.47,0,0,1-.67.33C138.56,39.29,138.73,39.1,139.08,39.25Zm-1.91,1v.08l-.11,0Zm-1.3.53v.08l-.09,0Zm-3,1.3v.09l-.1-.05Zm-.62,6.4a2.84,2.84,0,0,0-1.81,1c-.3-.2-.21-.36-.11-.49a3.86,3.86,0,0,1,2.21-1.13l.18.24C132.6,48.25,132.47,48.43,132.29,48.48Zm1.16-.8v-.09l.1.06Zm1.7-.31L135,47.2l.07-.1a1.23,1.23,0,0,1,.15.15S135.17,47.33,135.15,47.36Zm4.2-2a.3.3,0,0,1-.1,0l0-.12.09,0S139.36,45.32,139.35,45.32Zm.82-.27s-.06,0-.09,0l.17-.07ZM138,44A29.1,29.1,0,0,0,131.93,46a2.88,2.88,0,0,1-.74.22c-.07,0-.17-.15-.31-.28a4.89,4.89,0,0,1,.43-.32,17.7,17.7,0,0,1,4.36-1.74c2-.54,4.05-1,6.07-1.59.67-.18,1.31-.47,2-.71a10.34,10.34,0,0,1,2.13-.61c1.12-.16,2.23-.41,3.33-.66a26.79,26.79,0,0,1,6.45-.91h.13c3-.56,5.91.17,8.79.84a36.09,36.09,0,0,1,4.56,1.59c1.14.43,2.25.95,3.38,1.4a26.38,26.38,0,0,1,5.2,3c1.83,1.26,3.66,2.51,5.38,3.93s3.31,2.55,5,3.82c.32.25.63.53.94.8a1.78,1.78,0,0,1-.63-.19q-1.56-1.08-3.08-2.22c-1.5-1.12-3-2.31-4.5-3.36C178.9,47.71,177,46.5,175,45.34a28.2,28.2,0,0,0-3.52-1.72c-1.89-.79-3.79-1.58-5.73-2.21a25.41,25.41,0,0,0-9.53-1.3A58.4,58.4,0,0,0,148,41.38c-.6.12-1.2.22-1.79.36s-1.44.35-2.14.59A51.52,51.52,0,0,1,138,44Z"/><path class="cls-3" d="M190.76,64c-1.66-.77-3.34-1.5-4.95-2.36-1.42-.76-2.78-1.63-4.13-2.51a16.6,16.6,0,0,1-2.4-1.8,57.71,57.71,0,0,0-9.08-6.62A28.32,28.32,0,0,0,161,47a23.65,23.65,0,0,0-3-.48c-1.47-.13-3-.08-4.43-.25a33.48,33.48,0,0,0-9,.62,34.78,34.78,0,0,0-6.19,1.63q-3,1-5.92,2.07c-.66.23-1.34.4-2,.63a7.67,7.67,0,0,0-.88.43,6.88,6.88,0,0,0-.36,2.74l1.61-.5a.55.55,0,0,1-.27.44c-.37.22-.77.41-1.13.65s-.4.39-.13,1.12c1.24-.37,2.47-.76,3.72-1.12,1.76-.5,3.55-.9,5.29-1.46a31.32,31.32,0,0,1,5.59-1.3c1.6-.21,3.2-.38,4.8-.62a21.14,21.14,0,0,1,6.38.15,19.9,19.9,0,0,1,4.06,1A35.9,35.9,0,0,1,165.46,56c1.66,1,3.28,2.16,4.89,3.28a50.27,50.27,0,0,1,6.5,5,11.69,11.69,0,0,0,1.43,1.14c1.17.83,2.35,1.64,3.55,2.43a6.42,6.42,0,0,0,1.49.8c1.82.59,3.49,1.56,5.31,2.17a42.3,42.3,0,0,0,4.48,1.4,14.76,14.76,0,0,0,4.69,0,1,1,0,0,0,.76-.45,7,7,0,0,0,.85-1.92c-.25,0-.41-.09-.58-.11L196,69.56a24.44,24.44,0,0,1-8-1.94A30.65,30.65,0,0,1,183.32,65a32.81,32.81,0,0,1-2.79-2.16c-2-1.69-4.13-3.2-6.11-4.92a32.56,32.56,0,0,0-2.93-2.19c-.9-.62-1.85-1.15-2.76-1.74a22.39,22.39,0,0,0-4.05-2.1c-.89-.35-1.83-.56-2.74-.84a50.5,50.5,0,0,0-9.59-1.91,10,10,0,0,0-3.89.18,5.11,5.11,0,0,1-1.16.17c-.21,0-.41-.11-.33-.44l3.21-.5a1.81,1.81,0,0,1,.39,0,54.47,54.47,0,0,1,6.23.65c1,.18,2,.42,2.94.63a31.75,31.75,0,0,1,7.07,2.28,15,15,0,0,1,1.35.78c1.44.89,2.9,1.76,4.32,2.69a39.1,39.1,0,0,1,3.61,2.79c1.81,1.5,3.68,2.94,5.51,4.41a24.66,24.66,0,0,0,3.53,2.46,24.94,24.94,0,0,0,7.74,3,42.74,42.74,0,0,0,5.84.65,11.76,11.76,0,0,0,1.19-.08,6.1,6.1,0,0,0,.85-2.9c-.88-.08-1.7-.14-2.51-.23A23.3,23.3,0,0,1,190.76,64ZM133,53.18l-.09,0,.1,0Zm1.47-.48a.76.76,0,0,1-.15-.09l.09-.07.15.1S134.45,52.7,134.43,52.7Zm3.37-1.13c0-.05.09-.15.16-.17l1.69-.42A2.32,2.32,0,0,1,137.8,51.56Zm8-1.78a7,7,0,0,1-2.45.37c0-.38.31-.26.47-.3.57-.17,1.15-.32,1.73-.45C145.76,49.36,145.86,49.49,145.81,49.78Z"/><path class="cls-3" d="M137.93,31.63c.71-.2,1.42-.4,2.14-.58,1.14-.29,2.3-.5,3.42-.85a48.43,48.43,0,0,1,5.05-1.34c1.8-.34,3.58-.83,5.39-1a64.2,64.2,0,0,1,7.82-.51,51.68,51.68,0,0,1,8.82,1,44.71,44.71,0,0,1,11.93,4.52,54.64,54.64,0,0,1,6.44,3.95,20.62,20.62,0,0,0,3.85,2.18c.56.24,1.16.39,1.69.68a11,11,0,0,0,3.71,1.16,2.92,2.92,0,0,0,.63-.06,6.55,6.55,0,0,0-.95-2.1,1,1,0,0,0-.52-.35c-1-.33-2-.64-3-.95a18.54,18.54,0,0,1-6.6-3.61,35.48,35.48,0,0,0-3.52-2.7,36.52,36.52,0,0,0-4.34-2.41,40.85,40.85,0,0,0-6.33-2.44c-.75-.21-1.49-.46-2.24-.68a.59.59,0,0,1-.47-.64,3.13,3.13,0,0,0,.45.17c.51.11,1,.14,1.53.3,1.21.37,2.4.79,3.6,1.18a44.68,44.68,0,0,1,6.91,3.1,10.07,10.07,0,0,1,1.32.84c1.15.86,2.29,1.74,3.44,2.61a26.47,26.47,0,0,0,2.54,1.84,28.71,28.71,0,0,0,6.29,2.51s.07,0,.22-.12c-.23-.53-.7-1-.91-1.5a6.14,6.14,0,0,0-1.1-1.61,1.64,1.64,0,0,0-.84-.58c-.79-.24-1.56-.54-2.33-.86a38.69,38.69,0,0,1-5.43-3.12,35.79,35.79,0,0,0-5.34-3c-1.54-.61-3.06-1.3-4.64-1.77-2-.6-4.15-1-6.23-1.5a24.27,24.27,0,0,0-5.2-.47,54.54,54.54,0,0,0-5.74.34,47.07,47.07,0,0,0-6.86.89c-.21.05-.43,0-.65.08a38.89,38.89,0,0,0-6,1.34c-1.24.4-2.51.74-3.76,1.1a.51.51,0,0,1-.71-.27,3.37,3.37,0,0,1,.58-.42,9.12,9.12,0,0,0,1.1-.41,7.06,7.06,0,0,0,1-.89c.33.49.75.41,1.2.29A45,45,0,0,1,152,23.5l.26,0a55.56,55.56,0,0,1,9.7-1.3,39.49,39.49,0,0,1,6,0,26.65,26.65,0,0,1,5.13.92c1.13.32,2.27.57,3.41.87.34.09.67.18,1,.3a51.58,51.58,0,0,1,5.4,2.32,32.08,32.08,0,0,1,3.44,2.1A20.44,20.44,0,0,0,188.5,30c.58.28,1.1.69,1.68,1A13.48,13.48,0,0,0,193,32.33c.15,0,.34.13.42-.18-.86-.82-1.72-1.68-2.63-2.47-1.93-1.69-3.87-3.39-5.86-5-1.15-.93-2.4-1.74-3.62-2.57a6.88,6.88,0,0,0-1.36-.76,23.23,23.23,0,0,0-3.32-1.16c-2.25-.5-4.53-.93-6.81-1.26a44.64,44.64,0,0,0-4.67-.48,25,25,0,0,0-4.82.21c-.65.1-1.3.17-1.95.23a30.07,30.07,0,0,0-6.77,1.3,39.2,39.2,0,0,0-6.79,3,18.91,18.91,0,0,0-6.27,5.61,2.68,2.68,0,0,0-.19.46L142.65,28s.11.09.33.27c-1,.2-1.78.64-2.66.83a5.66,5.66,0,0,0-1.65.76,14.31,14.31,0,0,1-1.37,1,1,1,0,0,0-.54,1.14Zm31.91-7.08a5.74,5.74,0,0,1,1,.27,3.12,3.12,0,0,1-1.08.2,10.35,10.35,0,0,1-3.3-.61,1.77,1.77,0,0,1-.34-.14C167.34,24.35,168.59,24.43,169.84,24.55ZM163,24c.1,0,.19.12.38.25-.22.12-.34.23-.47.24a.34.34,0,0,1-.24-.23C162.65,24.08,162.82,24,163,24Zm-2.16.24s.05,0,.12.08h-.39Zm-1.88.26,0,.11h-.64v-.07Zm-3,.3v.06h-.11v-.06Zm-1.92.26s0,.06,0,.06h-.13l-.12,0Zm-1.21.26a.32.32,0,0,1,0,.07h-.11a.34.34,0,0,1,0-.08Zm-1.1.25.09,0s-.05.07-.06.07l-.13-.08Zm-2.47.54s.12,0,.19.06,0,.16-.09.19-.13,0-.19-.07S149.15,26.15,149.2,26.13ZM164.29,20a30.19,30.19,0,0,1,6.35.63,7.6,7.6,0,0,0,1,.2A63.26,63.26,0,0,1,178,22.29a10,10,0,0,1,1.36.46c1.13.45,2.27.88,3.38,1.4a7.62,7.62,0,0,1,1.78,1.07A13.26,13.26,0,0,1,187,27.37a3.29,3.29,0,0,0,.82.56c-.2.15-.31.28-.44.31a.54.54,0,0,1-.36-.13,5.25,5.25,0,0,1-.71-.57,20.6,20.6,0,0,0-8.09-4.66,33.19,33.19,0,0,0-5.92-1.56c-1.89-.31-3.76-.72-5.64-1.06a3.71,3.71,0,0,0-.9.05c-.47,0-.95.08-1.42.1-.11,0-.23-.09-.36-.14C164.17,20.1,164.23,20,164.29,20Zm-2.58-.16.22,0s0,.07-.05.06l-.22,0S161.69,19.85,161.71,19.85Zm-1.55.26.21,0s0,.07,0,.07l-.21,0S160.14,20.1,160.16,20.11Zm-1.46.23c.06,0,.17.08.18.12s-.06.19-.12.2c-.24,0-.48.06-.72.08l0-.28C158.24,20.41,158.47,20.36,158.7,20.33Zm-2.35.28h.23s-.05.11-.08.11a.88.88,0,0,1-.21-.05S156.32,20.62,156.35,20.61Zm-1.18.28.08.05-.09,0Z"/><path class="cls-3" d="M133.27,73h0Z"/><path class="cls-3" d="M134.49,75.29a1.79,1.79,0,0,0,.53.25c0,.35-.08.64,0,.83.48.92,1,1.82,1.54,2.78.77-.19,1.53-.37,2.28-.57.28-.07.5-.07.64.23-.43.11-.86.22-1.27.34a3.09,3.09,0,0,0-1.31.46,9.32,9.32,0,0,0,1.44,2.1A22.3,22.3,0,0,0,144,87.09a48.89,48.89,0,0,0,8,4.16,25.13,25.13,0,0,0,5.75,1.7,5.23,5.23,0,0,0,.7,0,6.9,6.9,0,0,0-1.89-1.2,11,11,0,0,1-2.51-1.65,23.34,23.34,0,0,1-2.85-2.88,10.94,10.94,0,0,0-4.33-3.29,27.61,27.61,0,0,0-5.5-1.67c-.73-.13-1.44-.34-2.16-.52-.2-.05-.42-.11-.41-.49a13.69,13.69,0,0,1,1.41.12c1.11.21,2.22.45,3.33.69a15.1,15.1,0,0,1,7.74,4.38c.7.72,1.44,1.4,2.11,2.15,1.62,1.82,3.89,2.6,5.92,3.77a2.19,2.19,0,0,0,.5.12,1.45,1.45,0,0,1,.6.2,2.11,2.11,0,0,1,.33.61,13.19,13.19,0,0,0,4.64.12c-.74-.28-1.38-.5-2-.76-1.21-.5-2.39-1.08-3.61-1.54a18.1,18.1,0,0,1-6.66-4.73c-1-1-1.69-2.22-2.57-3.29a11.43,11.43,0,0,0-8-4.34s0-.07-.07-.11.09-.18.15-.18a6.4,6.4,0,0,1,1.94,0A9.66,9.66,0,0,1,148,79.93a12,12,0,0,1,4.25,4.34,12.77,12.77,0,0,0,4.58,4.57,49.53,49.53,0,0,0,7.35,3.39,29.85,29.85,0,0,1,3.66,1.31.78.78,0,0,0,.39,0,9.23,9.23,0,0,0,3-.41l-.73-.25c-1.72-.5-3.44-1-5.15-1.5A21.12,21.12,0,0,1,159,88.31a19.92,19.92,0,0,1-3.81-3.36c-.8-1-1.59-2-2.33-3a11.52,11.52,0,0,0-3-2.87,11,11,0,0,0-5.09-1.89,26.81,26.81,0,0,0-7.28.33,5.28,5.28,0,0,1-.91,0c-.18,0-.34-.06-.3-.36a7.41,7.41,0,0,1,2.61-.6c.69-.06,1.39-.09,2.08-.19a14,14,0,0,1,6.07.5,11.66,11.66,0,0,1,6.27,4.69,29.1,29.1,0,0,0,2.79,3.62,19.51,19.51,0,0,0,6.79,4.57c1.5.58,3,1.06,4.6,1.49,2.13.59,4.25,1.37,6.54,1a.22.22,0,0,1,.13,0,1.67,1.67,0,0,0,1.39-.07c.83-.25,1.66-.53,2.48-.82a2.78,2.78,0,0,0,.52-.4l-5-.22a22.52,22.52,0,0,1-4.3-.33c-.93-.22-1.86-.46-2.8-.65a12.65,12.65,0,0,1-5-2.37c-.94-.7-1.8-1.52-2.74-2.21a14.16,14.16,0,0,1-3.3-3.49,24.55,24.55,0,0,0-3.72-4.53,12.87,12.87,0,0,0-6.95-3.34c-.15,0-.37,0-.27-.36a5.93,5.93,0,0,1,1.26,0,11.21,11.21,0,0,1,4.82,1.93,16.76,16.76,0,0,1,4.89,5.21,12,12,0,0,0,1.48,2.15,26.6,26.6,0,0,0,4.9,4.3,16.5,16.5,0,0,0,3.22,1.71,22.39,22.39,0,0,0,6.62,1.43c.56,0,1.13,0,1.7,0a50,50,0,0,1,5.23.1c2.27.17,2.33.13,4.13-.75a3.13,3.13,0,0,0,.48-.42c-.93-.05-1.66,0-2.39,0a23.46,23.46,0,0,1-6.74-.69,19.49,19.49,0,0,1-3.24-1,2.65,2.65,0,0,0-.5-.16,15.81,15.81,0,0,1-4.89-2.13,25.94,25.94,0,0,1-5.9-4.92c-.45-.53-.91-1.06-1.39-1.56a29.3,29.3,0,0,0-8.19-6.41,15.17,15.17,0,0,0-2.52-1.07,10.9,10.9,0,0,0-5.44,0c-1.7.39-3.38.85-5.06,1.29a9.74,9.74,0,0,1-3.56.55l.89,1.72A1.83,1.83,0,0,0,134.49,75.29Zm5.43,7.31a36.78,36.78,0,0,1,6.26,2.87,25.18,25.18,0,0,1,3.2,2.25,28.34,28.34,0,0,0,3.21,2.23c.24.14.59.2.58.68A3.12,3.12,0,0,1,151.5,90a26.72,26.72,0,0,1-2.44-1.75,29.3,29.3,0,0,0-8-4.56c-.4-.16-.79-.36-1.17-.56C139.76,83.09,139.77,83,139.92,82.61Zm1.19-4.39.19.3a.92.92,0,0,1-.34.1c-.07,0-.13-.14-.19-.21Zm1.44-4.69,0,0,0-.05Zm-1.33,0c0-.09.15-.16.23-.24.1.11.25.21.29.33s-.09.22-.08.21C141.28,73.81,141.17,73.69,141.22,73.5Zm-1.42.42a.56.56,0,0,1,0,.1l-.21.06s0-.06,0-.09Z"/><path class="cls-3" d="M134,38.35l4.58-1.52a22,22,0,0,1,3.49-1.07,29.94,29.94,0,0,0,5.55-1.48,34.76,34.76,0,0,1,12.86-1.71,2.48,2.48,0,0,0,.52,0,10.89,10.89,0,0,1,3.1.38A43.57,43.57,0,0,1,172,35.69a91.11,91.11,0,0,1,9.44,4.79,55.79,55.79,0,0,1,5,3,10,10,0,0,0,1.37.77c.77.4,1.55.79,2.33,1.17,1.45.69,2.87,1.48,4.38,2a14,14,0,0,0,5.76,1,1.33,1.33,0,0,0,.37-.17,9.84,9.84,0,0,0-.71-2.66c-1.21-.26-2.39-.58-3.59-.77a19.94,19.94,0,0,1-6.83-2.52c-2.3-1.33-4.49-2.85-6.72-4.31-1.13-.74-2.24-1.51-3.37-2.25a40.49,40.49,0,0,0-5.52-3c-1.15-.52-2.33-1-3.51-1.41a19,19,0,0,0-3.67-.94c-.26,0-.34-.22-.37-.44.43.08.85.15,1.26.25,1.23.29,2.49.5,3.68.9a38.73,38.73,0,0,1,6.65,3c1.48.84,2.93,1.72,4.36,2.64q2.81,1.8,5.56,3.68A24.26,24.26,0,0,0,195.65,44c1.14.29,2.3.48,3.46.71a5,5,0,0,0,.61,0,5.36,5.36,0,0,0-.48-2.75,9.81,9.81,0,0,0-.95-.35,26.15,26.15,0,0,1-4.9-1.78,37.35,37.35,0,0,1-3.78-2c-1.46-.95-2.92-1.92-4.44-2.77q-3-1.69-6.14-3.21A39.62,39.62,0,0,0,170.36,29c-1.54-.35-3.1-.46-4.65-.68a30.8,30.8,0,0,0-5-.21A52.93,52.93,0,0,0,151,29.15c-1.45.31-2.91.55-4.35.9-1.65.4-3.26,1-4.92,1.33s-3.22.75-4.8,1.24A2.42,2.42,0,0,0,135.32,34a8,8,0,0,0-.54,1.62l.41.08c.13,0,.34-.16.37.18l-1.2.54-.81,2A1.92,1.92,0,0,0,134,38.35ZM166.37,30a3.68,3.68,0,0,1-3,0A13.52,13.52,0,0,1,166.37,30Zm-4.54-.21h.55v.11l-.55-.05Zm-1.32,0a3.82,3.82,0,0,1-2.48,0A5,5,0,0,1,160.51,29.84Zm-3.55,0,.1,0s0,.08-.06.09-.06,0-.1,0Zm-1.42.33a2.68,2.68,0,0,1,.45,0,2.58,2.58,0,0,1-1.58.19C155,30.25,155.26,30.19,155.55,30.14Zm-2.87.59a5.73,5.73,0,0,1-2.65.55A6.06,6.06,0,0,1,152.67,30.73Zm-3.63.72s.06.05.07.09,0,.11,0,.12l-.69.13,0-.16Zm-1.64.57-1.29.22C146.84,31.77,146.84,31.77,147.41,32Zm-2.68.34.18.08-.2.07s-.07,0-.1,0Zm-1.24.3a.53.53,0,0,1,.07.12h-.11l-.05-.07S143.48,32.66,143.49,32.67Zm-5.14,1.53a.38.38,0,0,1,.09.15,1,1,0,0,1-.28.2s-.11-.08-.24-.18C138.09,34.3,138.21,34.24,138.35,34.2Zm-1.73.84s.13.05.2.08l-.06.11-.34.13s-.05-.06-.08-.09A1.64,1.64,0,0,1,136.62,35Z"/><path class="cls-3" d="M193.7,76.06a9.4,9.4,0,0,1-1.3-.06c-1.89-.3-3.79-.59-5.67-1a18.42,18.42,0,0,1-3.39-1,34.06,34.06,0,0,1-5.93-3.31c-1.12-.76-2.27-1.48-3.31-2.34-1.55-1.27-3-2.68-4.52-4s-3.07-2.6-4.71-3.74a40.58,40.58,0,0,0-4.53-2.59,29,29,0,0,0-8.06-2.6,31.76,31.76,0,0,0-8.47-.22,16.82,16.82,0,0,0-3.72.72c-2.08.66-4.16,1.3-6.23,2-.62.2-1.21.5-1.84.68a17.21,17.21,0,0,0-2.71,1.26c.1.59.19,1.1.29,1.61,0,.07.1.12.16.19a23.37,23.37,0,0,1,2.51-1q2.64-.76,5.32-1.34c1.28-.28,2.58-.43,3.88-.61a16.83,16.83,0,0,1,4.43,0,43.33,43.33,0,0,1,4.5.77,32.73,32.73,0,0,1,5.93,2,29,29,0,0,1,7.36,5.15c1.14,1,2.16,2.15,3.27,3.2a36.38,36.38,0,0,0,3,2.68A40,40,0,0,0,173.84,75a28.51,28.51,0,0,0,6.06,2.76c1,.32,2.07.67,3.11,1,.41.13.83.28,1.25.37,1.83.39,3.67.74,5.5,1.15a6.73,6.73,0,0,0,3.06-.19,34.44,34.44,0,0,0,2.42-4Z"/><path class="cls-3" d="M182.23,81.21l-1.09-.45c-2.35-.93-4.73-1.79-7-2.8a39,39,0,0,1-7.43-4.09,17.86,17.86,0,0,1-2.9-2.6,12.63,12.63,0,0,0-2.06-2c-2.06-1.46-4.18-2.84-6.3-4.22A22.61,22.61,0,0,0,151,63.2a22.11,22.11,0,0,0-4.32-1c-.66-.11-1.41.16-2-.43a.27.27,0,0,0-.25,0c-.63.31-1.4-.16-2,.36-.1.09-.34,0-.51,0a25,25,0,0,0-7,1.38l-1.25.37a3.4,3.4,0,0,1-1.38.33c-.44-.09-.81.17-1.26.1.1-.45.4-.5.69-.58,2.1-.58,4.18-1.27,6.3-1.71a24.47,24.47,0,0,1,7.39-.67,23.9,23.9,0,0,1,6,1.23c.9.33,1.8.65,2.69,1a11.5,11.5,0,0,1,1.61.86c1.7,1.07,3.37,2.17,5.07,3.24a10.37,10.37,0,0,1,2.88,2.44,20.74,20.74,0,0,0,5.2,4.33,27.4,27.4,0,0,0,5.35,2.74c1.41.57,2.84,1.11,4.25,1.7a29.58,29.58,0,0,0,8.1,2.46c1.17.13,2.34.17,3.52.23.15,0,.37,0,.38-.33a1.41,1.41,0,0,0-.38-.21c-.89-.19-1.79-.38-2.69-.55a22.23,22.23,0,0,1-5.43-1.4,5.94,5.94,0,0,0-.87-.28,33.43,33.43,0,0,1-4.54-1.67,31.3,31.3,0,0,1-8.61-5.62c-.77-.71-1.51-1.45-2.27-2.16-1.37-1.28-2.71-2.59-4.13-3.81a21.7,21.7,0,0,0-6.22-3.81,36.14,36.14,0,0,0-6.51-1.91,22.38,22.38,0,0,0-5.72-.51,39.71,39.71,0,0,0-8.25,1.34,13,13,0,0,0-4.21,1.75,3.75,3.75,0,0,1-.82.33c.49,1.4.44,2.89,1.21,4.22.44-.14.82-.24,1.18-.38a34.47,34.47,0,0,1,9.73-2.4,9.12,9.12,0,0,1,3.61.35c1.82.61,3.65,1.17,5.43,1.89A35.59,35.59,0,0,1,161,72.66c1.15,1,2.27,2,3.43,3s2.34,2,3.57,2.86c.84.62,1.79,1.09,2.66,1.65a29.2,29.2,0,0,0,7.8,3.3,38.93,38.93,0,0,0,6.66,1.33,21.7,21.7,0,0,0,3.13,0,2.13,2.13,0,0,0,1.22-.37,4.88,4.88,0,0,0,1.44-1.85c-1.53-.18-3-.3-4.37-.54A18.8,18.8,0,0,1,182.23,81.21Z"/><path class="cls-3" d="M176.12,83.44a38.54,38.54,0,0,1-7.37-3.63,22.36,22.36,0,0,1-2.56-1.8c-2-1.68-3.95-3.42-5.92-5.14-.13-.11-.25-.24-.39-.35a37,37,0,0,0-8.21-5c-2.05-.87-4.18-1.5-6.26-2.27a7.53,7.53,0,0,0-.89-.19,11.83,11.83,0,0,0-3.64,0,25.19,25.19,0,0,0-5.49,1.15c-.79.24-1.57.52-2.35.79a8,8,0,0,0-2,.85,4.41,4.41,0,0,0,.87,2.34c.1.15.35.21.54.31a1.19,1.19,0,0,0,0,1c.31.51.54,1.07.81,1.61a11.4,11.4,0,0,1,1.17-.52c1-.32,2-.6,3-.91a31.65,31.65,0,0,1,6.37-1.39,9.24,9.24,0,0,1,5.35.86,26.73,26.73,0,0,1,5,3.08,35.09,35.09,0,0,1,4.35,4.14A32,32,0,0,0,161,81.08a27.42,27.42,0,0,0,5.42,4.07,14.74,14.74,0,0,0,3.25,1.34,7.08,7.08,0,0,1,1.12.37,21.56,21.56,0,0,0,5.42,1.42,12.58,12.58,0,0,0,3,.18A20.38,20.38,0,0,0,186,87.39a1.77,1.77,0,0,0-.47-.23c-1.21-.15-2.42-.28-3.63-.42-1.39-.16-2.78-.27-4.15-.5a53.56,53.56,0,0,1-6.48-1.54,24.74,24.74,0,0,1-8.92-5.06,32.15,32.15,0,0,1-4.26-4.42,17.23,17.23,0,0,0-1.26-1.32,26.16,26.16,0,0,0-3.37-2.68A16.39,16.39,0,0,0,149.21,69a18.84,18.84,0,0,0-4.61-1.39,1.72,1.72,0,0,1-.53-.19,7.14,7.14,0,0,1,2.6.23c.87.27,1.76.5,2.63.78A14.94,14.94,0,0,1,151,69a25.81,25.81,0,0,1,4.6,3,27.24,27.24,0,0,1,2.68,2.48c.52.52,1,1.13,1.46,1.66.72.76,1.46,1.49,2.2,2.23a26.88,26.88,0,0,0,5.18,3.95,26.38,26.38,0,0,0,7,2.6A51.84,51.84,0,0,0,180.4,86c1.33.18,2.68.2,4,.27a9.1,9.1,0,0,1,2.67.42c.36-.25.78-.41.81-.86-1.4-.22-2.72-.48-4.06-.64A34.41,34.41,0,0,1,176.12,83.44ZM134.38,69.67s-.06,0-.09-.07l.2,0S134.41,69.67,134.38,69.67Zm1.34-.56a.27.27,0,0,1-.1,0s0-.07,0-.08a.24.24,0,0,1,.09,0S135.73,69.1,135.72,69.11Zm1.4-.54-.11,0s.08-.07.12-.06a1.07,1.07,0,0,1,.21.07h0Zm5-1.28H141v-.08h1.2Zm1.6,0c.12-.16.14-.05.18,0Z"/><path class="cls-3" d="M133.27,73h0Z"/><path class="cls-3" d="M193.83,73c-1.23-.26-2.46-.59-3.66-1-.66-.2-1.29-.53-1.93-.79-1.09-.45-2.19-.85-3.26-1.34a22.73,22.73,0,0,1-3.37-1.72,60.63,60.63,0,0,1-6-4.39,44.71,44.71,0,0,0-6.47-4.64c-.6-.36-1.17-.75-1.76-1.13a41.87,41.87,0,0,0-5.63-3.3,27.35,27.35,0,0,0-3.47-1.51,22.35,22.35,0,0,0-7.09-1c-2,.08-4,.31-6,.54a27.9,27.9,0,0,0-5.5,1.09c-2.07.68-4.18,1.22-6.29,1.72-.55.13-1.09.29-1.64.45a5.59,5.59,0,0,1-2.14.43,1.54,1.54,0,0,0-.5.14,6.83,6.83,0,0,0,.13,2.27c1.84-.67,3.54-1.34,5.28-1.9s3.62-1,5.39-1.58a21.75,21.75,0,0,1,5.9-1,26.89,26.89,0,0,1,6.9.38,33.25,33.25,0,0,1,9.66,3.51,23.08,23.08,0,0,1,2.59,1.5c1.43,1.07,2.79,2.22,4.15,3.38a82,82,0,0,0,7.74,6.4,43.87,43.87,0,0,0,7.44,4.06,4.79,4.79,0,0,0,.88.25c1.66.34,3.33.68,5,1,.9.16,1.81.27,2.72.36a3.29,3.29,0,0,0,2.59-.62,1.71,1.71,0,0,1,1.07-.43c.45,0,.64-.38.76-.9a6.2,6.2,0,0,0-1.4-.14A11.19,11.19,0,0,1,193.83,73Z"/><path class="cls-3" d="M191.7,81.29a1.51,1.51,0,0,0-.28.16l.18.25.24-.21C191.78,81.4,191.72,81.28,191.7,81.29Z"/><path class="cls-4" d="M93.63,31.16a2,2,0,0,0-1.32.41,13,13,0,0,1-2.66,1.65c-.89.37-1.67.9-2.55,1.27-.15.06-.24.24-.46.47a4,4,0,0,0,2.74.11,2.47,2.47,0,0,0,1.74-1.89c.39,0,.67,0,1,0a2.58,2.58,0,0,0,2-1.2A.51.51,0,0,0,93.63,31.16Z"/><path class="cls-4" d="M127.71,89.93a2,2,0,0,0-.84.48A8.6,8.6,0,0,1,125,91.82c-.27-.19-.48-.43-.73-.48a1,1,0,0,0-.8.18,13.32,13.32,0,0,0-1.94,2,2.89,2.89,0,0,0,3.11-1.18l1.93-.18a2.49,2.49,0,0,0,1.39-.68,1.62,1.62,0,0,0,.48-.69,1.09,1.09,0,0,0-.08-.79C128.27,89.92,127.9,89.87,127.71,89.93Z"/><path class="cls-4" d="M136.3,83.64a27.21,27.21,0,0,1-2.65,1.69,4.27,4.27,0,0,0-2,2.15c2.29.16,2.87-.23,3.2-2.24.46,0,.84,0,1.22,0a1.1,1.1,0,0,0,1-.49,1.14,1.14,0,0,0,0-1.4A3.6,3.6,0,0,0,136.3,83.64Z"/><path class="cls-4" d="M100.6,28.63l.88.74c.56-.06,1-.09,1.5-.15a2.77,2.77,0,0,0,1.92-1.1c.42-.57.48-.87.22-1.14a1,1,0,0,0-1.19-.09c-1.05.44-2.09.92-3.12,1.4C100.73,28.31,100.71,28.43,100.6,28.63Z"/><path class="cls-4" d="M119.77,53.91a2,2,0,0,0,.37-1.73c1.38.17,1.92-.65,2.3-1.68a.83.83,0,0,0-1.1-.22c-.55.28-1.09.59-1.69.91,0,1.21-.05,1.2-.75,1.84-.35.32-.71.65-1,1-.15.15-.35.34-.11.66A3.39,3.39,0,0,0,119.77,53.91Z"/><path class="cls-4" d="M117.33,31.57a3.71,3.71,0,0,0-1.06.37c-.76.4-1.5.83-2.28,1.27l.57,1.05,1.22-.11A2.93,2.93,0,0,0,118,32.56a1,1,0,0,0-.07-.8A.72.72,0,0,0,117.33,31.57Z"/><path class="cls-4" d="M148.16,57.69a4.07,4.07,0,0,0-2.07,2.06,2.3,2.3,0,0,0,0,.76,14.82,14.82,0,0,0,1.48-.07,1.8,1.8,0,0,0,1.48-2.34A.69.69,0,0,0,148.16,57.69Z"/><path class="cls-4" d="M116.18,43.34c.47-.45.68-1.15.44-1.39a1.22,1.22,0,0,0-1.46-.1c-.8.38-1.57.83-2.44,1.29l.76,1,1.34-.13A2.35,2.35,0,0,0,116.18,43.34Z"/><path class="cls-4" d="M106.23,35.6c-.52.32-1,.67-1.85,1.21a6.36,6.36,0,0,0,1.14.24c.38,0,.77-.22,1.12-.15,1.1.22,1.66-.5,2.25-1.17a.69.69,0,0,0,.14-.91c-.24-.31-.6-.26-.92-.2a2,2,0,0,0-.52.23C107.14,35.08,106.68,35.33,106.23,35.6Z"/><path class="cls-4" d="M83.81,39.77A2.94,2.94,0,0,0,85,40a1.71,1.71,0,0,0,1.36-.29c.35-.25.75-.41,1.11-.65.6-.4.6-.41.23-1.3a2.08,2.08,0,0,0-1.88.38,6,6,0,0,1-.85.53A3.9,3.9,0,0,0,83.81,39.77Z"/><path class="cls-4" d="M145.68,48.79c-.37,1.06-.37,1.06,0,1.8a2.56,2.56,0,0,1,.53,0c1.19.16,1.69-.64,2.14-1.51a.55.55,0,0,0-.23-.74,1,1,0,0,0-1.08-.11C146.59,48.41,146.11,48.6,145.68,48.79Z"/><path class="cls-4" d="M112.1,89.64a.39.39,0,0,0-.48-.48,1.25,1.25,0,0,0-.5.27,1.7,1.7,0,0,1-1.53.58,1.26,1.26,0,0,0-1,.41l-1.49,1.28c1,.3,1.67.41,2.27-.1a3.58,3.58,0,0,1,1.74-.88C111.68,90.6,111.93,90.14,112.1,89.64Z"/><path class="cls-4" d="M98.23,27.85a2.27,2.27,0,0,0-1.09.25c-.88.55-1.71,1.18-2.56,1.78l.07.27H96.3a3.08,3.08,0,0,0,2.41-1.31.74.74,0,0,0,.06-.66A.69.69,0,0,0,98.23,27.85Z"/><path class="cls-4" d="M126,28.21a3,3,0,0,0,1.25,1.37,2.61,2.61,0,0,0,2.17-1.23,1.25,1.25,0,0,0,.2-.78c-.09-.38-.51-.38-.82-.44a1.05,1.05,0,0,0-.54.11C127.52,27.56,126.78,27.89,126,28.21Z"/><path class="cls-4" d="M111.39,27a1.43,1.43,0,0,0-1,.44,6.31,6.31,0,0,1-1.81,1.16,6,6,0,0,0-.89.68,4,4,0,0,0,1,.34c.37,0,.75-.2,1.12-.21a3.08,3.08,0,0,0,2.06-1.19,1,1,0,0,0,.19-.52C112.13,27.23,111.84,27,111.39,27Z"/><path class="cls-4" d="M101.11,54.46c.53-.44.54-.51.18-1.37a1.86,1.86,0,0,0-1.51.21c-.49.3-1,.58-1.49.86a.65.65,0,0,0-.38.81C99.65,55.42,100,55.36,101.11,54.46Z"/><path class="cls-4" d="M130.76,84.89c.1-.3,0-.57-.39-.71l-1.22,1.09c-1.39.14-1.39.14-1.87.55a3.59,3.59,0,0,0-1.24,1.5,2.12,2.12,0,0,0,2.72-1.16c.44-.1.86-.18,1.27-.28S130.63,85.29,130.76,84.89Z"/><path class="cls-4" d="M111.45,44.58a1.19,1.19,0,0,0-.39.17l-2.33,1.11a2.1,2.1,0,0,0-.32.23c.24.51.52.77,1,.67.37-.07.76,0,1.15-.09a2.34,2.34,0,0,0,1.61-.84c.26-.31.53-.64.29-1S111.82,44.56,111.45,44.58Z"/><path class="cls-4" d="M121.44,73.41a1.41,1.41,0,0,0-.26,1.36,5.89,5.89,0,0,0,1.17,0,2.33,2.33,0,0,0,1.56-1.33c.24-.47,0-.89-.23-1.31a7.86,7.86,0,0,0-.82.15A3,3,0,0,0,121.44,73.41Z"/><path class="cls-4" d="M106.61,52.73a1,1,0,0,0-1.18-.21c-.72.37-1.43.78-2.12,1.22-.32.2-.39.53,0,1a3.18,3.18,0,0,1,.88-.1,3.31,3.31,0,0,0,1.9-.55A1.05,1.05,0,0,0,106.61,52.73Z"/><path class="cls-4" d="M106.46,41.65c.31.57.35.61.57.58a3.41,3.41,0,0,1,.84-.15A2.3,2.3,0,0,0,110,40.94c.2-.26.4-.56.15-.91s-.59-.27-.91-.22a1.29,1.29,0,0,0-.5.24Z"/><path class="cls-4" d="M112.85,50.81a4.05,4.05,0,0,0,2.33-.54c.6-.44.88-1.06.61-1.43a1.27,1.27,0,0,0-1.45-.15c-.69.29-1.37.63-2.08,1Z"/><path class="cls-4" d="M120.75,34c-.86.37-1.71.78-2.64,1.21l.85,1c2.3-.15,2.53-.3,2.93-1.83A.91.91,0,0,0,120.75,34Z"/><path class="cls-4" d="M91.8,27.72a8.22,8.22,0,0,0,1.7-.18,2.09,2.09,0,0,0,1.72-1.62A1,1,0,0,0,94,25.64c-1,.43-2,.94-2.92,1.4C91.16,27.54,91.44,27.73,91.8,27.72Z"/><path class="cls-4" d="M115.28,25.19c1.21-.13,1.59-.42,2-1.88a5.48,5.48,0,0,0-1.05-.1,7.81,7.81,0,0,0-2.68,1.17C113.86,25.24,114.5,25.28,115.28,25.19Z"/><path class="cls-4" d="M147.1,62.55a7.64,7.64,0,0,0-1.45.92,1.1,1.1,0,0,0-.24,1.52,9.49,9.49,0,0,0,1.46-.34,4.32,4.32,0,0,0,1.19-.74,1,1,0,0,0,.1-1.19A.9.9,0,0,0,147.1,62.55Z"/><path class="cls-4" d="M147,68a1.07,1.07,0,0,0-.67.17,4,4,0,0,0-2,2.15l2,.2c.39-.31.74-.56,1.06-.86a1,1,0,0,0,.22-1.31A.82.82,0,0,0,147,68Z"/><path class="cls-4" d="M102.67,40.92c-.54.47-1.12.9-1.68,1.35-.14.11-.32.22-.19.49a3.15,3.15,0,0,0,2.94-.46,1.34,1.34,0,0,0,.51-1.66A1.44,1.44,0,0,0,102.67,40.92Z"/><path class="cls-4" d="M118.54,92.51a9.43,9.43,0,0,0-2.14,1.67,2.66,2.66,0,0,0,2.66,0c.75-.26,1-1,1.05-1.84-.23-.08-.37-.19-.49-.16A2.72,2.72,0,0,0,118.54,92.51Z"/><path class="cls-4" d="M104.86,46.37a3.77,3.77,0,0,1,1-.23c1,.07,1.46-.57,2-1.19a.72.72,0,0,0,.08-.92,1,1,0,0,0-.94-.15.92.92,0,0,0-.37.21l-2.32,1.79C104.33,46.26,104.52,46.44,104.86,46.37Z"/><path class="cls-4" d="M97.48,38.82c-.59.41-1.23.73-1.84,1.11a5.81,5.81,0,0,0-.58.48c.82.46,1.62,0,2.26.34.86-.52,1.91-.76,1.8-2.1A1.82,1.82,0,0,0,97.48,38.82Z"/><path class="cls-4" d="M105.08,32.45a.59.59,0,0,0-.46-.85,1.49,1.49,0,0,0-1.07.3l-2.34,1.47c.21.2.36.46.52.47a4.21,4.21,0,0,0,1.54-.08A2.92,2.92,0,0,0,105.08,32.45Z"/><path class="cls-4" d="M92.38,44.54a4.23,4.23,0,0,0,2.2-.19A2.06,2.06,0,0,0,96,43.23c.1-.28.17-.6-.11-.78a.82.82,0,0,0-.66-.12A19.76,19.76,0,0,0,93,43.54C92.72,43.69,92.63,44.08,92.38,44.54Z"/><path class="cls-4" d="M80.87,33.91a3.07,3.07,0,0,0-.41.53c1.36-.05,2.57.15,3.53-.74.32-.3.83-.56.59-1.3a2.45,2.45,0,0,0-2.18.46C81.91,33.23,81.37,33.55,80.87,33.91Z"/><path class="cls-4" d="M92.09,36.88l0,.23a17.77,17.77,0,0,0,1.82,0A2.84,2.84,0,0,0,96,35.78a.54.54,0,0,0-.44-.84,1.84,1.84,0,0,0-1.22.3Z"/><path class="cls-4" d="M127.6,34.81l.63.73c.42-.07.8-.13,1.17-.21a1.64,1.64,0,0,0,1.2-1.11c.19-.49-.12-.9-.63-.79-.92.2-1.82.43-2.8.67A1.42,1.42,0,0,0,127.6,34.81Z"/><path class="cls-4" d="M100.28,33.11a2.39,2.39,0,0,0-1.12.11c-.77.37-1.5.84-2.23,1.29-.06,0-.05.17-.08.26S97,35,97,35a6.77,6.77,0,0,0,1.71.1,2.66,2.66,0,0,0,1.9-1.16C100.81,33.65,100.59,33.12,100.28,33.11Z"/><path class="cls-4" d="M122.73,57.33c.25-.4.52-.79.72-1.2a.54.54,0,0,0-.1-.51.74.74,0,0,0-.64-.07,5.82,5.82,0,0,0-1.38,1.22,4,4,0,0,1-1.15,1A2.85,2.85,0,0,0,118.86,59a3,3,0,0,0,.61,0c.37-.08.73-.2,1.14-.31C120.91,57.7,121.73,57.39,122.73,57.33Z"/><path class="cls-4" d="M100.76,38.12a8.88,8.88,0,0,0,1.27.06,2.49,2.49,0,0,0,2-1.31.44.44,0,0,0-.34-.64,2.69,2.69,0,0,0-1.12.09c-.8.38-1.55.86-2.52,1.41C100.45,37.94,100.59,38.1,100.76,38.12Z"/><path class="cls-4" d="M111.61,30.47c-.4,0-.84-.08-1.12.08a25.77,25.77,0,0,0-2.23,1.57.42.42,0,0,0-.12.36c0,.11.18.27.28.28a3.47,3.47,0,0,0,3-1A1.1,1.1,0,0,0,111.61,30.47Z"/><path class="cls-4" d="M90,86.63c-.32,0-.68.28-1,.2-1.16-.33-2,.38-3.05.75.32.61.65.81,1.14.74s1-.06,1.41-.17a9.12,9.12,0,0,0,1.47-.5.86.86,0,0,0,.36-.42.48.48,0,0,0,0-.4A.45.45,0,0,0,90,86.63Z"/><path class="cls-4" d="M99.58,59.95a1.23,1.23,0,0,0-.21.32c.07.1.11.21.18.24a2.56,2.56,0,0,0,2.77-.53c.61-.47.65-.65.29-1.64a3.58,3.58,0,0,0-1.21.23A16.88,16.88,0,0,0,99.58,59.95Z"/><path class="cls-4" d="M125.23,29.78c-.26.1-.49.27-.75.39l-1.68.73c-.08,0-.12.13-.22.24l.67.85c.48-.05.91-.07,1.32-.14a1.76,1.76,0,0,0,1.37-1.44A.56.56,0,0,0,125.23,29.78Z"/><path class="cls-4" d="M115.22,27.5c-.77.53-1.52,1.07-2.31,1.63l.37.61c.42-.06.79-.09,1.15-.16a2.79,2.79,0,0,0,1.87-1.17.75.75,0,0,0,0-.93A1.1,1.1,0,0,0,115.22,27.5Z"/><path class="cls-4" d="M127.9,82.24a2.21,2.21,0,0,0,1.44-1.62.62.62,0,0,0-.55-.81,1,1,0,0,0-.67.11,3.8,3.8,0,0,0-1.5,2.3A1.36,1.36,0,0,0,127.9,82.24Z"/><path class="cls-4" d="M105,71.37a5.1,5.1,0,0,0-3.16,1.88,1.65,1.65,0,0,0,1.8.32,2.72,2.72,0,0,0,1.72-1.66Z"/><path class="cls-4" d="M89.68,29.19a1,1,0,0,0-.42,0,2.75,2.75,0,0,0-.52.23l-3,1.47c.38.19.5.3.62.3.76,0,1.52-.07,2.27-.17A1.84,1.84,0,0,0,90,29.85.46.46,0,0,0,89.68,29.19Z"/><path class="cls-4" d="M148.72,52.71A4.56,4.56,0,0,0,146.52,54a.64.64,0,0,0,0,.93l1.68-.08a6.31,6.31,0,0,0,.87-.69,1.56,1.56,0,0,0,.34-.75C149.49,53,149.08,52.57,148.72,52.71Z"/><path class="cls-4" d="M92.9,38.9a2.06,2.06,0,0,0-1.35.38c-.62.43-1.25.84-2.19,1.47a11.89,11.89,0,0,0,2,.18A3.07,3.07,0,0,0,93.18,40a1,1,0,0,0,.18-.38A.5.5,0,0,0,92.9,38.9Z"/><path class="cls-4" d="M136.72,43.78a.89.89,0,0,0-.93.15c-.39.35-.81.66-1.18,1a1.1,1.1,0,0,0-.38,1.1h1a2,2,0,0,0,2-1.51A.59.59,0,0,0,136.72,43.78Z"/><path class="cls-4" d="M105,23c-.74.5-1.46,1-2.22,1.57.48.75,1.09.32,1.6.32a2.22,2.22,0,0,0,2.06-1.25,3.07,3.07,0,0,0-.25-.41C105.78,22.69,105.58,22.64,105,23Z"/><path class="cls-4" d="M82.48,43.62c.51,0,.83,0,1.15.1a2.81,2.81,0,0,0,2.3-.9.63.63,0,0,0,0-1A3.86,3.86,0,0,0,82.48,43.62Z"/><path class="cls-4" d="M130.59,37.54l.49,1.17c.53-.09,1-.14,1.46-.26a1.48,1.48,0,0,0,1.1-1.33.41.41,0,0,0-.37-.51,1.89,1.89,0,0,0-.82.09C131.84,36.94,131.25,37.24,130.59,37.54Z"/><path class="cls-4" d="M89.7,46a2.92,2.92,0,0,0,2-1.18.49.49,0,0,0-.33-.77,1.78,1.78,0,0,0-1.25.2l-2.31,1.53A14.06,14.06,0,0,0,89.7,46Z"/><path class="cls-4" d="M87.22,49.72a3.09,3.09,0,0,0,3.09-.38c.5-.4.74-.79.55-1-.31-.42-.76-.3-1.18-.27a1,1,0,0,0-.4.13c-.62.36-1.23.72-1.84,1.11C87.35,49.32,87.32,49.5,87.22,49.72Z"/><path class="cls-4" d="M111.8,38.27c.82-.2,1.66-.08,2.31-.69a1.72,1.72,0,0,0,.72-1.43,1,1,0,0,0-1.23-.08c-.72.44-1.42.92-2.19,1.43Z"/><path class="cls-4" d="M120.21,70.91a1.11,1.11,0,0,0-.52.2c-.51.42-1,.85-1.49,1.31-.11.11-.12.33-.2.58,1.57.35,2.16.09,2.92-1.11a.63.63,0,0,0,.06-.79C120.78,70.83,120.49,70.86,120.21,70.91Z"/><path class="cls-4" d="M100.75,75.48c-.44-.64-1-.43-1.53-.17a6.33,6.33,0,0,0-1.77,1.41c.3.65.79.67,1.35.56A2.34,2.34,0,0,0,100.75,75.48Z"/><path class="cls-4" d="M85.26,61.76a.51.51,0,0,0,.08-.66.53.53,0,0,0-.62-.23,4.54,4.54,0,0,0-2.79,2C83.5,63.39,84.19,62.93,85.26,61.76Z"/><path class="cls-4" d="M122.11,84.48c-.39-.07-.83-.3-1.09-.17a3,3,0,0,0-1.72,2.07,2.76,2.76,0,0,0,2-.17A1.59,1.59,0,0,0,122.11,84.48Z"/><path class="cls-4" d="M103.77,48.65a2.21,2.21,0,0,0,1.61-1.09.66.66,0,0,0-.49-1,.92.92,0,0,0-.56,0A15.29,15.29,0,0,0,102,48.21c.1.14.15.28.21.29A5.91,5.91,0,0,0,103.77,48.65Z"/><path class="cls-4" d="M88.67,58.7a2.45,2.45,0,0,0,1.91-1.06.77.77,0,0,0,0-.64.58.58,0,0,0-.47-.22c-1.22.06-2.05.77-3.06,1.87C87.84,58.67,88.26,58.71,88.67,58.7Z"/><path class="cls-4" d="M109.84,74.41A.78.78,0,0,0,110,74a.6.6,0,0,0-.72-.76,4.58,4.58,0,0,0-2.5,1.87C108.45,75.87,109,75.16,109.84,74.41Z"/><path class="cls-4" d="M99.6,48.5a3.61,3.61,0,0,0-.5.27c-.41.25-.82.48-1.21.75a5.39,5.39,0,0,0-.61.62c2,.32,2,.32,3-.32.37-.23.74-.49.65-1S100.2,48.26,99.6,48.5Z"/><path class="cls-4" d="M116.21,66.56c.15-.58-.19-1-.74-.82a5.14,5.14,0,0,0-2.09,1.4c-.13.13-.07.44-.13.85a7,7,0,0,0,1.56-.14A1.91,1.91,0,0,0,116.21,66.56Z"/><path class="cls-4" d="M114.88,92.84c-1.21.18-1.39.3-3.2,2.18.6.26,1.07,0,1.54,0A2,2,0,0,0,115,93.73.63.63,0,0,0,114.88,92.84Z"/><path class="cls-4" d="M111.59,64.47c.13-.43-.16-.82-.57-.73a2.5,2.5,0,0,0-.91.37c-.58.41-1.12.89-1.72,1.38.44.58,1,.34,1.41.37A2,2,0,0,0,111.59,64.47Z"/><path class="cls-4" d="M81.67,48.67a6.28,6.28,0,0,0,1.44.19,2.58,2.58,0,0,0,2.07-1.35.47.47,0,0,0-.45-.69A4.24,4.24,0,0,0,81.67,48.67Z"/><path class="cls-4" d="M118.13,19.86a2.51,2.51,0,0,0,.1-.71c-1.52-.48-2.37.53-3.57,1.32l1.9.6C117.12,20.69,117.81,20.51,118.13,19.86Z"/><path class="cls-4" d="M85.53,71.22A2.78,2.78,0,0,0,88,69.79a.44.44,0,0,0,0-.39,2.14,2.14,0,0,0-.47-.39,14.18,14.18,0,0,0-1.44.61,6.87,6.87,0,0,0-1,.78c-.21.18-.55.34-.42.67S85.22,71.2,85.53,71.22Z"/><path class="cls-4" d="M143.41,41.47c.15.44.64.31.9.34a2.08,2.08,0,0,0,2.14-1c.12-.21.22-.48,0-.66a1,1,0,0,0-.62-.26,3.26,3.26,0,0,0-1.7.71C143.83,40.8,143.21,40.89,143.41,41.47Z"/><path class="cls-4" d="M79.61,43.19a1.47,1.47,0,0,0,.84-1.46c-.23-.07-.51-.25-.73-.19a7.78,7.78,0,0,0-2.81,1.73C78.33,43.63,78.94,43.57,79.61,43.19Z"/><path class="cls-4" d="M96,66.5c.91.12,1.51-.48,2.14-1a.55.55,0,0,0,.14-.51,1.25,1.25,0,0,0-.5-.46.61.61,0,0,0-.42,0A4,4,0,0,0,95,66.09s0,.08.06.28Z"/><path class="cls-4" d="M97.41,45.42c.84.06,1.32.14,1.79.12a2.58,2.58,0,0,0,1.82-1,.59.59,0,0,0,0-.8,1.26,1.26,0,0,0-.63-.25.63.63,0,0,0-.42.07A15.49,15.49,0,0,0,97.41,45.42Z"/><path class="cls-4" d="M145.91,44.09c-.56.44-1.15.85-1.81,1.34.14.24.18.41.28.48a2,2,0,0,0,2.87-1.4.58.58,0,0,0-.27-.45A.89.89,0,0,0,145.91,44.09Z"/><path class="cls-4" d="M111.61,81.44a.72.72,0,0,0,0-.92c-.27-.29-.61-.19-.92-.06a1.31,1.31,0,0,0-.48.29c-.51.55-1,1.12-1.62,1.83A2.46,2.46,0,0,0,111.61,81.44Z"/><path class="cls-4" d="M92.66,67.15a.83.83,0,0,0,.1-.65c-.07-.27-.36-.28-.6-.25a4.93,4.93,0,0,0-2.58,1.44c-.09.08,0,.34,0,.55A3.09,3.09,0,0,0,92.66,67.15Z"/><path class="cls-4" d="M104.13,64.43c.43-.4.59-.82.36-1.1a1,1,0,0,0-1.18-.11c-.68.4-1.33.87-2.13,1.39.25.22.34.35.46.39A2.41,2.41,0,0,0,104.13,64.43Z"/><path class="cls-4" d="M106.81,21.5c.72-.31,1.37-.69,1.41-1.61a3,3,0,0,0-3.42.94c.55.23,1.06.47,1.59.67A.61.61,0,0,0,106.81,21.5Z"/><path class="cls-4" d="M128.89,75.72a.94.94,0,0,0,0-1.3.84.84,0,0,0-1.16.18,6.17,6.17,0,0,0-1.59,2.09A2.57,2.57,0,0,0,128.89,75.72Z"/><path class="cls-4" d="M137.14,58.45a1.15,1.15,0,0,0,1-1.06c.13-.62-.19-1-.83-1a3.15,3.15,0,0,0-1.53.53l.4,1.74C136.58,58.58,136.86,58.49,137.14,58.45Z"/><path class="cls-4" d="M142.94,37.75a1.6,1.6,0,0,0,1.2-1.43.55.55,0,0,0-.31-.4.94.94,0,0,0-.68,0,6.78,6.78,0,0,0-2.09,1.37C141.71,38,142.15,38.08,142.94,37.75Z"/><path class="cls-4" d="M83.89,67.43A2.75,2.75,0,0,0,86,66.58a1.53,1.53,0,0,0,.38-.59.47.47,0,0,0-.43-.6,2.5,2.5,0,0,0-.71.11,5.28,5.28,0,0,0-2.25,1.69s0,.09.07.32A4.34,4.34,0,0,1,83.89,67.43Z"/><path class="cls-4" d="M96.48,25.13c.17.35.36.54.68.54a9.9,9.9,0,0,1,1-.08c1.12.1,1.62-.54,2-1.43a1,1,0,0,0-1.23-.21q-.93.37-1.84.79A4.3,4.3,0,0,0,96.48,25.13Z"/><path class="cls-4" d="M131.92,26.94c.6-.33,1.19-.53,1.47-1.15s0-.84-.54-.84a3.23,3.23,0,0,0-2.45,1.17C130.7,26.71,131.34,26.68,131.92,26.94Z"/><path class="cls-4" d="M134.52,60.23a.89.89,0,0,0-1.22,0c-.55.57-1.55.85-1.34,2l1.61-.1C134.07,61.6,134.7,61.16,134.52,60.23Z"/><path class="cls-4" d="M107.7,58.07a.94.94,0,0,0,.37-1.23,1,1,0,0,0-1.29-.08c-.12.07-.23.17-.34.25-.43.29-.87.57-1.29.88a2.06,2.06,0,0,0-.33.51l1.74.31C107,58.48,107.36,58.3,107.7,58.07Z"/><path class="cls-4" d="M120.54,78a1,1,0,0,0,0-.8c-.12-.31-.48-.3-.75-.21a1.92,1.92,0,0,0-.73.4c-.47.46-.91,1-1.49,1.59a2.41,2.41,0,0,0,2.16-.19A2,2,0,0,0,120.54,78Z"/><path class="cls-4" d="M102.82,91.44a2.7,2.7,0,0,0-1.06.58c-.47.4-1,.78-1.45,1.14-.35.25-.73.46-1.08.7-.19.13-.41.27-.29.57,1.14.26,1.75.07,2.29-.83a2.4,2.4,0,0,1,1.14-1,1.8,1.8,0,0,0,.59-.37C103.19,92,103.2,91.7,102.82,91.44Z"/><path class="cls-4" d="M131.76,88.25a.93.93,0,0,0-.41.12,21.91,21.91,0,0,0-2.45,2.12c.69,0,1.07,0,1.45,0a2.44,2.44,0,0,0,.56-.1,1.85,1.85,0,0,0,1.39-1.64A.47.47,0,0,0,131.76,88.25Z"/><path class="cls-4" d="M84.68,52.32a.56.56,0,0,0-.62-.24,3,3,0,0,0-.69.18,2.82,2.82,0,0,0-.61.37c-.52.4-1,.82-1.53,1.23l.1.25A9.07,9.07,0,0,1,82.47,54,2.68,2.68,0,0,0,84.58,53,.49.49,0,0,0,84.68,52.32Z"/><path class="cls-4" d="M109.62,48.48a.62.62,0,0,0,0-.79.71.71,0,0,0-.77-.23.8.8,0,0,0-.37.2,5.38,5.38,0,0,0-1.75,2.42,3.39,3.39,0,0,1,.76-.2C108.52,49.93,109,49.13,109.62,48.48Z"/><path class="cls-4" d="M88.31,54.79a2.35,2.35,0,0,0,2.11-.93c.34-.34.24-.68-.11-1-1.4.1-1.75.29-3.14,1.76C87.59,54.71,88,54.73,88.31,54.79Z"/><path class="cls-4" d="M95.51,48.45a1.63,1.63,0,0,0-1.22.34l-1.78,1.36a3.15,3.15,0,0,0,1.76.23,2.4,2.4,0,0,0,1.64-1.05A.58.58,0,0,0,95.51,48.45Z"/><path class="cls-4" d="M89.67,74.39A1,1,0,0,0,90,73.14c-1.54-.17-2.15,1.06-3.29,2A2.81,2.81,0,0,0,89.67,74.39Z"/><path class="cls-4" d="M107.33,66.64c-.56-.53-.93-.64-1.46-.27a10.64,10.64,0,0,0-1.93,1.7C105.93,68.45,106.5,68.19,107.33,66.64Z"/><path class="cls-4" d="M91.76,71.25A2.59,2.59,0,0,0,94.67,70a.55.55,0,0,0-.48-.72,2.15,2.15,0,0,0-1.44.54c-.42.38-.82.78-1.23,1.18C91.63,71.13,91.68,71.23,91.76,71.25Z"/><path class="cls-4" d="M120.17,31c1-.08,1.37-.7,1.57-1.59-.78-.64-1.31-.09-1.83.15a4.13,4.13,0,0,0-1.36,1l.61.67A6,6,0,0,1,120.17,31Z"/><path class="cls-4" d="M135.22,31.43a1.07,1.07,0,0,0-.42,0c-.65.26-1.3.54-2,.81a2.7,2.7,0,0,0,1.06,1.35l1.35-.37c.16-.36.35-.73.49-1.13A.58.58,0,0,0,135.22,31.43Z"/><path class="cls-4" d="M140,80.53a3.39,3.39,0,0,0-2,2.15,12.15,12.15,0,0,0,1.37,0,2.16,2.16,0,0,0,1.46-1.41.83.83,0,0,0-.22-.63A.69.69,0,0,0,140,80.53Z"/><path class="cls-4" d="M95.28,53.2a4,4,0,0,0-2.77,1.43s0,.09,0,.31c.44,0,.87,0,1.29.08.88.09,1.38-.52,1.92-1,.2-.19.06-.61-.22-.7A1.18,1.18,0,0,0,95.28,53.2Z"/><path class="cls-4" d="M133,83c.85.06,1.29-.5,1.61-1.15a.86.86,0,0,0-.07-.78.82.82,0,0,0-.75-.2A3.1,3.1,0,0,0,131.88,83C132.37,83,132.7,82.94,133,83Z"/><path class="cls-4" d="M138,65.53c-.92-.61-.92-.61-2.19.21v1.51C137.29,67.37,137.4,67.28,138,65.53Z"/><path class="cls-4" d="M138.05,33a2,2,0,0,0,1.65.15,1.7,1.7,0,0,0,1.13-1.55,2.59,2.59,0,0,0-.85-.19,4.5,4.5,0,0,0-2,1A.42.42,0,0,0,138.05,33Z"/><path class="cls-4" d="M135.65,72.14c-.53-.54-1-.38-1.5-.16-.86.37-.7,1.22-1.05,1.87C134.74,74.05,135.07,73.82,135.65,72.14Z"/><path class="cls-4" d="M96.66,59.81a.58.58,0,0,0-.69-.37,5.55,5.55,0,0,0-2.71,1.7,2.88,2.88,0,0,0,3.24-.56A.6.6,0,0,0,96.66,59.81Z"/><path class="cls-4" d="M123.13,68.45a2.14,2.14,0,0,0,.6-1.53,1.14,1.14,0,0,0-1.26,0c-.24.16-.45.36-.7.51A1.25,1.25,0,0,0,121.2,69C121.89,68.8,122.6,69,123.13,68.45Z"/><path class="cls-4" d="M97.54,21.3c.45-.28.49-.65.24-1.13a3.8,3.8,0,0,0-3.18,1.22l1.72.65Z"/><path class="cls-4" d="M137.07,63.34a1.52,1.52,0,0,0,1.35-.93c.18-.32.18-.84,0-.93a1.28,1.28,0,0,0-.81-.14,12.84,12.84,0,0,0-1.52.68l.07,1.32Z"/><path class="cls-4" d="M137.37,53.25a1.31,1.31,0,0,0,.22-1.37c-.81-.17-1.52.27-2.32.37a4,4,0,0,0,.36,1.63C136.32,53.81,136.94,53.82,137.37,53.25Z"/><path class="cls-4" d="M142.55,76a6.16,6.16,0,0,0-2.47,2.2c.67-.06,1.14-.08,1.61-.14,1.13-.15,1.55-.7,1.52-2C143,76,142.73,75.92,142.55,76Z"/><path class="cls-4" d="M96.77,89.48a6,6,0,0,0-1.35.76c-.59.52-1.1,1.14-1.81,1.9a2,2,0,0,0,2-.3A15,15,0,0,0,97.11,90a.41.41,0,0,0,0-.38A.39.39,0,0,0,96.77,89.48Z"/><path class="cls-4" d="M125.08,78a.71.71,0,0,0-1,0,4.51,4.51,0,0,0-1.56,2.3C124.35,80.21,125,79.65,125.08,78Z"/><path class="cls-4" d="M125.46,42a10,10,0,0,0,1.58-.26,1.59,1.59,0,0,0,1.16-1.33c0-.17,0-.45-.09-.52a.76.76,0,0,0-.64-.11,17.12,17.12,0,0,0-1.85,1.34C125.49,41.24,125.54,41.56,125.46,42Z"/><path class="cls-4" d="M80.71,37.86l-.13.07-2.23,1.39c.71.07,1.08.07,1.45.14a2.36,2.36,0,0,0,1.64-.35c.57-.31.89-.75.79-1.07S81.4,37.53,80.71,37.86Z"/><path class="cls-4" d="M121.83,23.81c-.64-.32-.85-.27-2.84.78-.1.06-.16.2-.28.35l.7.66C121.2,25.35,121.4,25.2,121.83,23.81Z"/><path class="cls-4" d="M136.95,29.41c.5-.31.8-1,.62-1.31s-.79-.41-1.31-.18a6.37,6.37,0,0,0-1.78,1.14A1.87,1.87,0,0,0,136.95,29.41Z"/><path class="cls-4" d="M89.84,64.21A2.74,2.74,0,0,0,91.62,63a.48.48,0,0,0-.4-.72,1.83,1.83,0,0,0-1.32.45c-.47.39-.92.81-1.56,1.37.43.08.61.13.79.15A5.54,5.54,0,0,0,89.84,64.21Z"/><path class="cls-4" d="M137.41,49.49a.55.55,0,0,0-.3-.42.92.92,0,0,0-.68,0c-.45.26-.86.61-1.29.91s-.41.72-.18,1.27c.52-.12,1-.21,1.44-.34A1.39,1.39,0,0,0,137.41,49.49Z"/><path class="cls-4" d="M107.21,93.45c-.54.21-1.1.65-1.8.38-.13-.05-.37.09-.52.2-.56.41-1.1.84-1.66,1.27.12.11.19.22.26.22a3.57,3.57,0,0,0,1.91-.43c.38-.19.76-.37,1.15-.56a5,5,0,0,0,.75-.39C107.54,94,107.49,93.74,107.21,93.45Z"/><path class="cls-4" d="M115.08,76a1.25,1.25,0,0,0,.34-1.53c-1.36-.06-1.79,1.12-2.78,1.88C113.73,76.72,114.44,76.67,115.08,76Z"/><path class="cls-4" d="M122.85,22.19a1.29,1.29,0,0,0,.91-1.47c-1.26-.43-2.14.21-3.11,1A2.07,2.07,0,0,0,122.85,22.19Z"/><path class="cls-4" d="M110.39,62.28a1,1,0,0,0,.12-.79c-.1-.32-.46-.3-.74-.21a3.68,3.68,0,0,0-.9.4c-.47.32-.91.69-1.49,1.13C109.12,63.6,109.71,63.07,110.39,62.28Z"/><path class="cls-4" d="M117.11,53.47a.71.71,0,0,0-.5-.2,1.1,1.1,0,0,0-.54.13c-.54.28-1.07.58-1.65.9l.17,1,1.55-.08c.32-.41.66-.81,1-1.24A.56.56,0,0,0,117.11,53.47Z"/><path class="cls-4" d="M116.38,77.66c-1.25.09-1.77,1.1-2.5,1.84l.09.3a11.28,11.28,0,0,0,1.39-.14,1.81,1.81,0,0,0,1.18-1A.87.87,0,0,0,116.38,77.66Z"/><path class="cls-4" d="M104.4,77.43c-1.37-.09-2.06.87-2.9,1.64,1.07.53,1.57.51,2.29-.07C104.28,78.61,104.71,78.18,104.4,77.43Z"/><path class="cls-4" d="M103,21.23a.5.5,0,0,0-.32-.78,2.26,2.26,0,0,0-.71,0,4,4,0,0,0-2.12,1.35l1.58.48A3.36,3.36,0,0,0,103,21.23Z"/><path class="cls-4" d="M113.85,68.53c-.85-.4-1.09-.39-1.6.05s-.85.76-1.26,1.16a1.71,1.71,0,0,0-.23.48C112.68,70.48,113.14,70.23,113.85,68.53Z"/><path class="cls-4" d="M99.21,80.79a.57.57,0,0,0,0-.78.53.53,0,0,0-.64-.19,5.07,5.07,0,0,0-1.14.57c-.49.37-.91.83-1.47,1.37A2.61,2.61,0,0,0,99.21,80.79Z"/><path class="cls-4" d="M86,80.53A2.32,2.32,0,0,0,87.45,79c-.25-.11-.52-.35-.72-.3a4.35,4.35,0,0,0-1.27.58,2.5,2.5,0,0,0-1.18,1.18A1.73,1.73,0,0,0,86,80.53Z"/><path class="cls-4" d="M123.14,27.16l.27-.06c1.05,0,1.54-.78,2-1.52a.41.41,0,0,0,0-.39A.93.93,0,0,0,125,25a.71.71,0,0,0-.41.09l-2.07,1.05Z"/><path class="cls-4" d="M109.74,93.45a1.07,1.07,0,0,0-.54.13,5.84,5.84,0,0,0-1.89,2,15.32,15.32,0,0,0,1.67-.21A1.73,1.73,0,0,0,110.24,94,.48.48,0,0,0,109.74,93.45Z"/><path class="cls-4" d="M122.91,89.47a2.69,2.69,0,0,0,1.13-.58,1.67,1.67,0,0,0,.33-1.47c-1.49-.11-2,1-2.74,1.83A1.2,1.2,0,0,0,122.91,89.47Z"/><path class="cls-4" d="M108.17,78.17a2.66,2.66,0,0,0-1,.41,19.87,19.87,0,0,0-1.46,1.36c.08.1.13.22.2.24a2.33,2.33,0,0,0,2.82-1.33C108.81,78.55,108.49,78.1,108.17,78.17Z"/><path class="cls-4" d="M139,75.67A1.33,1.33,0,0,0,139.7,74c-.24,0-.57-.14-.77,0a7.52,7.52,0,0,0-1.39,1c-.18.16-.23.48-.35.76A1.66,1.66,0,0,0,139,75.67Z"/><path class="cls-4" d="M132.66,54.25a6.92,6.92,0,0,0-2,2.15,3,3,0,0,0,2.48-.65,1.38,1.38,0,0,0,.34-1.43,2.08,2.08,0,0,0-.43-.13A.62.62,0,0,0,132.66,54.25Z"/><path class="cls-4" d="M128.29,52.12a.92.92,0,0,0,.08-1.13,3.5,3.5,0,0,0-2.51,1l.07,1C127.33,52.86,127.83,52.7,128.29,52.12Z"/><path class="cls-4" d="M103.66,82.92a.51.51,0,0,0,.13-.4c0-.16-.18-.37-.31-.41a1.43,1.43,0,0,0-1.21.31A5.08,5.08,0,0,0,100.83,84C102.2,84.47,103,83.73,103.66,82.92Z"/><path class="cls-4" d="M123.63,62a.93.93,0,0,0-1.07.08c-.39.28-.75.59-1.13.87s-.37.63-.28,1.13C123.19,63.81,123.51,63.53,123.63,62Z"/><path class="cls-4" d="M92.09,76.93a.6.6,0,1,0-.67-1,6.48,6.48,0,0,0-2.19,1.71A2.38,2.38,0,0,0,92.09,76.93Z"/><path class="cls-4" d="M132.43,75.65c-.42,0-.81,0-1,.13a5.55,5.55,0,0,0-1,1.15c-.17.24-.54.43-.35.84C131.88,77.84,132.42,77.42,132.43,75.65Z"/><path class="cls-4" d="M140.63,51.58c1.87-.17,1.87-.17,2.29-1.89-.89-.14-.89-.14-2.36.55C140.62,50.68,140.44,51.15,140.63,51.58Z"/><path class="cls-4" d="M139.21,44.67l.29,1.11c.48,0,.81,0,1.13-.06a1.06,1.06,0,0,0,1.07-.94,4.49,4.49,0,0,0,0-.85A5.43,5.43,0,0,0,139.21,44.67Z"/><path class="cls-4" d="M127.81,24.81a1.19,1.19,0,0,0,.66-1.27c-.9-.3-.91-.32-1.36-.07s-1,.64-1.81,1.11C126.28,25,127,25.32,127.81,24.81Z"/><path class="cls-4" d="M97.44,73.19a.7.7,0,0,0,.06-.63.76.76,0,0,0-.62-.19,1.6,1.6,0,0,0-.78.3c-.51.41-1,.87-1.58,1.44A2.25,2.25,0,0,0,97.44,73.19Z"/><path class="cls-4" d="M78.35,51.95a.54.54,0,0,0,.2-.63C78.45,51,78.21,51,78,51a3.58,3.58,0,0,0-2.46,1.62,3.9,3.9,0,0,1,.69.07A2.19,2.19,0,0,0,78.35,51.95Z"/><path class="cls-4" d="M132.09,50.86a1.76,1.76,0,0,0,.69-1.54c-1.18-.48-1.7.73-2.65,1l.26,1C131,51.12,131.63,51.3,132.09,50.86Z"/><path class="cls-4" d="M78.74,47.83c.18-.15.36-.38.17-.61a1,1,0,0,0-.57-.34,1.12,1.12,0,0,0-.68.14c-.69.4-1.35.84-2.22,1.4A3,3,0,0,0,78.74,47.83Z"/><path class="cls-4" d="M121.3,40.36a.88.88,0,0,0-1.14,0c-.48.4-.95.82-1.4,1.25a1.83,1.83,0,0,0-.25.48C120.59,42.22,121.09,41.9,121.3,40.36Z"/><path class="cls-4" d="M111.14,52a.8.8,0,0,0-1,0c-.55.45-1.08.92-1.6,1.42-.09.09-.07.3-.11.51l1.66-.2C110.58,53.27,111.42,53,111.14,52Z"/><path class="cls-4" d="M112.17,19.78c.59-.23,1.32-.44,1.12-1.4-1.14-.41-2.08.06-3.13.78A1.67,1.67,0,0,0,112.17,19.78Z"/><path class="cls-4" d="M107.61,25c1-.13,2.09-.3,2.63-1.38a.67.67,0,0,0,0-.52.44.44,0,0,0-.62-.17c-.9.5-1.79,1-2.79,1.6C107.17,24.76,107.41,25.06,107.61,25Z"/><path class="cls-4" d="M143.93,73.36c-.69.38-1.5.66-1.63,1.85.68-.14,1.31.14,2-.12a2.93,2.93,0,0,0,.6-1.56C144.22,73.23,144.2,73.21,143.93,73.36Z"/><path class="cls-4" d="M110.76,57.19a1.39,1.39,0,0,0,1.29-.43,1.44,1.44,0,0,0,.59-1.38.93.93,0,0,0-1.19.06c-.5.37-1,.76-1.46,1.16a.39.39,0,0,0,0,.65A3.14,3.14,0,0,1,110.76,57.19Z"/><path class="cls-4" d="M131,44.33a5.49,5.49,0,0,0-2.46,1.21l.22.88C130.74,46.18,131,45.91,131,44.33Z"/><path class="cls-4" d="M131.14,71.08a1.47,1.47,0,0,0,.56-1.67c-.34,0-.7-.07-.88.08A7.19,7.19,0,0,0,129,71.39,2.54,2.54,0,0,0,131.14,71.08Z"/><path class="cls-4" d="M114.38,59l.11.82h1.41a1.84,1.84,0,0,0,.88-1.7C116,58,115.83,58,114.38,59Z"/><path class="cls-4" d="M116.54,61.69c-1-.06-1.63.65-2.33,1.11-.18.11-.19.49-.31.82a2.56,2.56,0,0,0,2.23-.57C116.48,62.7,116.81,62.36,116.54,61.69Z"/><path class="cls-4" d="M84.49,57a1.41,1.41,0,0,0-1.35.26c-.49.37-1,.76-1.59,1.25a1.87,1.87,0,0,0,1.56.22,2.15,2.15,0,0,0,1.61-1.28A.51.51,0,0,0,84.49,57Z"/><path class="cls-4" d="M117.56,37.73c-.57.49-1.1,1-1.64,1.56,0,0,0,.18,0,.33a3.09,3.09,0,0,0,1.9-.32,1.29,1.29,0,0,0,.81-1.61A.79.79,0,0,0,117.56,37.73Z"/><path class="cls-4" d="M129.78,57.31a1.13,1.13,0,0,0,.06-1.38,3.75,3.75,0,0,0-.79.28c-.36.23-.67.53-1,.78a.72.72,0,0,0-.21,1C129,57.94,129.4,57.79,129.78,57.31Z"/><path class="cls-4" d="M126.06,71.13a.73.73,0,1,0-1.17-.83c-.38.43-.76.84-1.11,1.29-.09.11-.06.31-.08.47.45-.06.91-.1,1.36-.19A1.4,1.4,0,0,0,126.06,71.13Z"/><path class="cls-4" d="M123.66,72.07l0,0h0s0,0,0,0h0Z"/><path class="cls-4" d="M94.1,84.74a.85.85,0,0,0-.08-.65C94,84,93.66,84,93.5,84a4.85,4.85,0,0,0-2.21,1.74A2.12,2.12,0,0,0,94.1,84.74Z"/><path class="cls-4" d="M121.81,45.67a3,3,0,0,0,1.87-.28,1.28,1.28,0,0,0,.82-1.67c-.28,0-.64-.07-.8.07C123.06,44.33,122.25,44.71,121.81,45.67Z"/><path class="cls-4" d="M89.91,82.88a2.4,2.4,0,0,0-1.24,1.26c1.91.19,2.15.06,2.91-1.59C90.86,82.21,90.4,82.58,89.91,82.88Z"/><path class="cls-4" d="M117.05,70a.68.68,0,0,0-1,0l-1.92,1.66a2.74,2.74,0,0,0,2.23-.25A1.52,1.52,0,0,0,117.05,70Z"/><path class="cls-4" d="M113.07,86.18c.43-.34.52-.75.22-1.47a4.67,4.67,0,0,0-.93.31A3.69,3.69,0,0,0,111,86.58,1.91,1.91,0,0,0,113.07,86.18Z"/><path class="cls-4" d="M124.88,36.6A15,15,0,0,0,123.35,38a.36.36,0,0,0,.14.58c1.14-.21,2.29-.42,2.34-1.92A.68.68,0,0,0,124.88,36.6Z"/><path class="cls-4" d="M87.51,26.84A3.24,3.24,0,0,0,85,27.4c-.16.09-.24.34-.43.63l1.65.41C86.59,27.85,87.62,27.93,87.51,26.84Z"/><path class="cls-4" d="M142.89,55.14c-.48.58-1.52.65-1.59,1.65,1.88.29,2.34,0,2.48-1.71A.62.62,0,0,0,142.89,55.14Z"/><path class="cls-4" d="M79.42,66.06a.4.4,0,0,0-.33-.62,1.94,1.94,0,0,0-.83.18,5.41,5.41,0,0,0-1.86,1.5c.56,0,.93.07,1.3.06A2,2,0,0,0,79.42,66.06Z"/><path class="cls-4" d="M135.93,79.26c1.05-.18,1.35-.64,1.2-2-.31.06-.6,0-.75.15a9.12,9.12,0,0,0-1.63,1.72A1.3,1.3,0,0,0,135.93,79.26Z"/><path class="cls-4" d="M142.61,66.59c.06-.33.11-.66.19-1.18-.35,0-.64-.09-.78,0-.62.49-1.2,1-1.88,1.64a2.22,2.22,0,0,0,2.31-.17A1.43,1.43,0,0,0,142.61,66.59Z"/><path class="cls-4" d="M95.64,78.92c-1.31,0-1.56.2-2.74,1.71a1.49,1.49,0,0,0,1.73-.09C95.14,80.23,95.81,79.86,95.64,78.92Z"/><path class="cls-4" d="M98,84.86a1.14,1.14,0,0,0-1.17.32c-.47.42-1.09.73-1.28,1.46a2.18,2.18,0,0,0,2.34-.77C98.11,85.55,98.26,85.24,98,84.86Z"/><path class="cls-4" d="M78.56,62.2a1,1,0,0,0,.4-1.07c-.31,0-.69-.14-.93,0a4.52,4.52,0,0,0-2,1.55A2.71,2.71,0,0,0,78.56,62.2Z"/><path class="cls-4" d="M138.88,39.33l-1.76.43c.13.59.17,1.08.61,1.39.47-.08,1,0,1.26-.54s.71-.73.3-1.29A1.87,1.87,0,0,0,138.88,39.33Z"/><path class="cls-4" d="M93.19,22.91c.13-.11.09-.42.13-.63a2.4,2.4,0,0,0-2.8.75A2,2,0,0,0,93.19,22.91Z"/><path class="cls-4" d="M77.54,58.56c.58-.31,1.19-.61,1.27-1.46-1.35-.39-2.09.59-3,1.26A1.72,1.72,0,0,0,77.54,58.56Z"/><path class="cls-4" d="M141.47,70.34a.48.48,0,0,0-.6-.58.67.67,0,0,0-.27.1c-.5.45-1,.9-1.46,1.38-.08.08,0,.27-.07.44a4.81,4.81,0,0,0,.73.08C140.9,71.71,141.23,71.42,141.47,70.34Z"/><path class="cls-4" d="M125.28,83a.4.4,0,0,0-.31-.24,1.28,1.28,0,0,0-.66.17,3.87,3.87,0,0,0-1.39,1.62,2.19,2.19,0,0,0,2-.39A1,1,0,0,0,125.28,83Z"/><path class="cls-4" d="M112.26,60.46a10.55,10.55,0,0,0,.75-1c.06-.11,0-.36-.14-.5a.41.41,0,0,0-.38-.08c-.63.31-1.24.65-1.9,1l.23.92Z"/><path class="cls-4" d="M132.54,67a.72.72,0,0,0,.22-.5,1.11,1.11,0,0,0-.13-.65c-.15-.23-.42-.16-.64,0s-.49.29-.74.42a1.14,1.14,0,0,0-.64,1.33A2.18,2.18,0,0,0,132.54,67Z"/><path class="cls-4" d="M118.78,47c.43-.34.92-.72.77-1.42a.84.84,0,0,0-1.06,0c-.54.39-1.08.79-1.61,1.19-.06,0,0,.17-.1.44C117.52,47.26,118.21,47.45,118.78,47Z"/><path class="cls-4" d="M76.37,40.08c.41-.25,1-.47.85-1.27a3.78,3.78,0,0,0-2.49.73c-.13.09-.2.27-.37.51A2.22,2.22,0,0,0,76.37,40.08Z"/><path class="cls-4" d="M87.79,85.2a.45.45,0,0,0-.09-.68c-1.13.11-1.92,1-2.92,1.49A2.27,2.27,0,0,0,87.79,85.2Z"/><path class="cls-4" d="M116,86.66a.86.86,0,0,0,.52-.79,1,1,0,0,0-.31-.71c-.1-.09-.48,0-.62.09a5.94,5.94,0,0,0-1.47,1.66A2.37,2.37,0,0,0,116,86.66Z"/><path class="cls-4" d="M115.53,89.34a6.4,6.4,0,0,0-.66.54c-.33.31-.66.63-1.08,1a3.4,3.4,0,0,0,2.19-.17l.54-1.13C115.89,89.17,115.81,89.14,115.53,89.34Z"/><path class="cls-4" d="M100.33,70.56c.32-.34.86-.69.52-1.4-1.15-.14-1.67.85-2.42,1.5C99.1,70.87,99.8,71.11,100.33,70.56Z"/><path class="cls-4" d="M128,63a1.17,1.17,0,0,0,.79-1,.88.88,0,0,0-.29-.61.53.53,0,0,0-.51,0c-.51.43-1,.89-1.46,1.36-.08.08-.05.26-.08.45A2.91,2.91,0,0,0,128,63Z"/><path class="cls-4" d="M81.95,80.45a.47.47,0,0,0-.06-.7,7.79,7.79,0,0,0-2.83,1.32c.38.19.58.39.77.38A2.62,2.62,0,0,0,81.95,80.45Z"/><path class="cls-4" d="M90.29,25.14c-.88-.79-1.43-.65-2.78.61C88.48,26.32,89.2,26.18,90.29,25.14Z"/><path class="cls-4" d="M80.73,71.12a.48.48,0,0,0-.56-.78,6.7,6.7,0,0,0-2,1.46A2.2,2.2,0,0,0,80.73,71.12Z"/><path class="cls-4" d="M74.08,43.59a3.16,3.16,0,0,0,1.1-.82c.08-.07,0-.34-.06-.52a3.35,3.35,0,0,0-2.66,1.17A1.62,1.62,0,0,0,74.08,43.59Z"/><path class="cls-4" d="M103,86.11c.08-.34-.27-.71-.57-.57a3.75,3.75,0,0,0-1.93,1.35,3.06,3.06,0,0,0,.38.24,1.17,1.17,0,0,0,.41.11A1.53,1.53,0,0,0,103,86.11Z"/><path class="cls-4" d="M83.85,29.26c-.51-.48-.66-.58-.95-.45a15.44,15.44,0,0,0-1.51.78c-.12.07-.15.29-.26.52C82.23,30.18,83.22,30.33,83.85,29.26Z"/><path class="cls-4" d="M125.52,48a1,1,0,0,0,.15-1.42,6.07,6.07,0,0,0-2,1.63s0,.17.06.31A2,2,0,0,0,125.52,48Z"/><path class="cls-4" d="M76.48,71.29c-.37-.29-.73-.13-1.07,0-.56.29-1.21.5-1.53,1.15A1.87,1.87,0,0,0,76.48,71.29Z"/><path class="cls-4" d="M77.34,36.06a2.43,2.43,0,0,0,1.36-.71.37.37,0,0,0-.23-.62,2.74,2.74,0,0,0-2.38,1A1.29,1.29,0,0,0,77.34,36.06Z"/><path class="cls-4" d="M119.73,90.19a10.32,10.32,0,0,0,.36-1,.43.43,0,0,0-.13-.36.45.45,0,0,0-.39-.06,4.85,4.85,0,0,0-1.79,1.52C118.48,90.73,119,90.34,119.73,90.19Z"/><path class="cls-4" d="M74.08,65.09a3.41,3.41,0,0,0-2.19,1c-.1.1-.09.3-.15.48a2.59,2.59,0,0,0,2.4-.74C74.32,65.64,74.33,65.38,74.08,65.09Z"/><path class="cls-4" d="M105.33,89.44a.57.57,0,0,0,0-.51.52.52,0,0,0-.5-.09c-.61.35-1.19.75-1.93,1.23C104.06,90.67,104.88,90.42,105.33,89.44Z"/><path class="cls-4" d="M73.07,57.57a3.42,3.42,0,0,0-2.22.78c-.22.13-.41.24-.35.54C72.09,59.17,72.75,58.85,73.07,57.57Z"/><path class="cls-4" d="M143.2,60.46c-.49.29-.84.53-1.21.72a.94.94,0,0,0-.47,1.22l1.34-.29C143.35,61.15,143.35,61.15,143.2,60.46Z"/><path class="cls-4" d="M73.79,47c-1.18-.52-1.92.24-3,1C72.43,48.19,73,48.2,73.79,47Z"/><path class="cls-4" d="M107.49,84.19c-.52.48-1,1-1.5,1.48l.09.26c.27,0,.54-.07.81-.12a1.75,1.75,0,0,0,.68-.18,3.17,3.17,0,0,0,.67-.71.62.62,0,0,0-.1-.78A.5.5,0,0,0,107.49,84.19Z"/><path class="cls-4" d="M93.52,88.91a4,4,0,0,0-2.37,1.31,1.93,1.93,0,0,0,2.11-.38C93.51,89.62,93.89,89.35,93.52,88.91Z"/><path class="cls-4" d="M76.73,77.91c.14.57.46.69.8.62a9.14,9.14,0,0,0,1.08-.39c.47-.16.48-.49.38-1Z"/><path class="cls-4" d="M128.9,67.27c.15-.49.49-.84.17-1.35a5.58,5.58,0,0,0-1.52.77c-.4.26-.33.61-.15,1Z"/><path class="cls-4" d="M75.39,68.91a2.37,2.37,0,0,0-2.53,1C74.37,70.13,74.68,70,75.39,68.91Z"/><path class="cls-4" d="M81.63,84c.17.12.27.26.39.27a2.1,2.1,0,0,0,1.8-.64.58.58,0,0,0,0-.84A7.15,7.15,0,0,0,81.63,84Z"/><path class="cls-4" d="M134.92,35.58c.18.27.28.59.44.62a2.08,2.08,0,0,0,1-.07c.56-.16.65-.46.43-1.23A3.16,3.16,0,0,0,134.92,35.58Z"/><path class="cls-4" d="M80.18,32.93A1,1,0,0,0,81,32a2.33,2.33,0,0,0-2.49.62A1.5,1.5,0,0,0,80.18,32.93Z"/><path class="cls-4" d="M129.4,30c.3.54.47.55,1.14.35.51-.16.73-.57,1-1,.07-.11,0-.33,0-.59A6.47,6.47,0,0,0,129.4,30Z"/><path class="cls-4" d="M72.25,54.7A2.31,2.31,0,0,0,70,55.9c.47,0,.94,0,1.41-.1S72.27,55.34,72.25,54.7Z"/><path class="cls-4" d="M73.38,62.4c-.38-.06-.64-.18-.81-.11-.64.27-1.39.42-1.71,1.26A2.37,2.37,0,0,0,73.38,62.4Z"/><path class="cls-4" d="M77,75.08a.55.55,0,0,0,0-.72,3.39,3.39,0,0,0-2.06,1c.42.45.83.2,1.23.14A1.11,1.11,0,0,0,77,75.08Z"/><path class="cls-4" d="M99.78,92.34c0-.16-.15-.31-.27-.53a4.8,4.8,0,0,0-1.79,1.53,1.82,1.82,0,0,0,1.88-.48A.69.69,0,0,0,99.78,92.34Z"/><path class="cls-4" d="M72.3,52.19a.52.52,0,0,0,.13-.84,3.3,3.3,0,0,0-2.16,1A2.24,2.24,0,0,0,72.3,52.19Z"/><path class="cls-4" d="M115.65,82a.6.6,0,0,0-.79,0,3,3,0,0,0-1.09,1.24C115.25,83.21,115.25,83.21,115.65,82Z"/><path class="cls-4" d="M109.91,69.46a.42.42,0,0,0-.08-.37.4.4,0,0,0-.37,0c-.53.31-1,.64-1.72,1.06a1.42,1.42,0,0,0,1.55.08A1.07,1.07,0,0,0,109.91,69.46Z"/><path class="cls-4" d="M120.88,82.4a.87.87,0,0,0,.3-1c-.9,0-1,.14-1.75,1.27A1.41,1.41,0,0,0,120.88,82.4Z"/><path class="cls-4" d="M82.25,78.58a1.6,1.6,0,0,0,1.54-.16c.35-.19.41-.57.48-1.07C83.48,77.69,82.61,77.66,82.25,78.58Z"/><path class="cls-4" d="M81.9,73.83c.17-.3,0-.42-.33-.51-.5.3-1,.6-1.54.94-.11.07-.15.27-.28.54l1.62-.19C81.57,74.29,81.76,74.07,81.9,73.83Z"/><path class="cls-4" d="M119,65.8a.41.41,0,0,0,0-.64c-.79.06-1.26.63-2,1.31C118.44,66.41,118.53,66.39,119,65.8Z"/><path class="cls-4" d="M135,41.29a.55.55,0,0,0,.06-.5.52.52,0,0,0-.47-.18,2.48,2.48,0,0,0-1.27,1.23C134.07,41.73,134.6,41.75,135,41.29Z"/><path class="cls-4" d="M101.06,89.11a8.8,8.8,0,0,0-.81.57.84.84,0,0,0,1.1-.17c.05,0,.08-.22,0-.25S101.13,89.08,101.06,89.11Z"/></svg>